  0
SECTION
  2
ENTITIES
  0
LINE
 62
  0
  6
CONTINUOUS
 10
-119.188249
 20
88.835962
 30
0.000000
 11
-90.069795
 21
125.850946
 31
0.000000
  0
LINE
 62
  0
  6
CONTINUOUS
 10
-89.082729
 20
127.825079
 30
0.000000
 11
-31.339353
 21
112.525552
 31
0.000000
  0
LINE
 62
  0
  6
CONTINUOUS
 10
-35.781151
 20
113.019085
 30
0.000000
 11
-69.341404
 21
76.004101
 31
0.000000
  0
LINE
 62
  0
  6
CONTINUOUS
 10
-118.201183
 20
84.394164
 30
0.000000
 11
-71.809069
 21
75.510568
 31
0.000000
  0
LINE
 62
  0
  6
CONTINUOUS
 10
-121.655915
 20
87.848896
 30
0.000000
 11
-126.591246
 21
-65.639905
 31
0.000000
  0
LINE
 62
  0
  6
CONTINUOUS
 10
-128.071845
 20
-65.639905
 30
0.000000
 11
-75.263801
 21
-12.831861
 31
0.000000
  0
LINE
 62
  0
  6
CONTINUOUS
 10
-73.289669
 20
-13.325394
 30
0.000000
 11
-42.690615
 21
-16.780126
 31
0.000000
  0
LINE
 62
  0
  6
CONTINUOUS
 10
-45.651814
 20
-17.273659
 30
0.000000
 11
-93.030994
 21
-70.081703
 31
0.000000
  0
LINE
 62
  0
  6
CONTINUOUS
 10
-94.511593
 20
-67.614038
 30
0.000000
 11
-98.953391
 21
-124.370347
 31
0.000000
  0
LINE
 62
  0
  6
CONTINUOUS
 10
-95.498659
 20
-121.902681
 30
0.000000
 11
-36.274685
 21
-67.120505
 31
0.000000
  0
LINE
 62
  0
  6
CONTINUOUS
 10
-42.690615
 20
-19.247792
 30
0.000000
 11
-35.781151
 21
-66.133438
 31
0.000000
  0
LINE
 62
  0
  6
CONTINUOUS
 10
-32.819953
 20
-66.626972
 30
0.000000
 11
121.162382
 21
-54.782177
 31
0.000000
  0
LINE
 62
  0
  6
CONTINUOUS
 10
120.175315
 20
-55.275710
 30
0.000000
 11
58.977208
 21
-122.396215
 31
0.000000
  0
LINE
 62
  0
  6
CONTINUOUS
 10
-96.979259
 20
-123.383281
 30
0.000000
 11
56.509543
 21
-125.357413
 31
0.000000
  0
LINE
 62
  0
  6
CONTINUOUS
 10
57.003076
 20
-123.876814
 30
0.000000
 11
65.393139
 21
-77.484700
 31
0.000000
  0
LINE
 62
  0
  6
CONTINUOUS
 10
63.912539
 20
-77.484700
 30
0.000000
 11
21.962224
 21
-75.510568
 31
0.000000
  0
LINE
 62
  0
  6
CONTINUOUS
 10
21.962224
 20
-75.510568
 30
0.000000
 11
25.910489
 21
56.756309
 31
0.000000
  0
LINE
 62
  0
  6
CONTINUOUS
 10
25.910489
 20
58.236909
 30
0.000000
 11
-17.026893
 21
57.249842
 31
0.000000
  0
LINE
 62
  0
  6
CONTINUOUS
 10
-17.520426
 20
56.262776
 30
0.000000
 11
-19.001025
 21
22.208991
 31
0.000000
  0
LINE
 62
  0
  6
CONTINUOUS
 10
-19.001025
 20
22.208991
 30
0.000000
 11
-68.847871
 21
23.196057
 31
0.000000
  0
LINE
 62
  0
  6
CONTINUOUS
 10
-69.341404
 20
76.497634
 30
0.000000
 11
-34.794085
 21
114.993218
 31
0.000000
  0
LINE
 62
  0
  6
CONTINUOUS
 10
-32.326420
 20
112.032019
 30
0.000000
 11
-28.378155
 21
64.159306
 31
0.000000
  0
LINE
 62
  0
  6
CONTINUOUS
 10
-65.393139
 20
24.183123
 30
0.000000
 11
-28.378155
 21
63.665773
 31
0.000000
  0
LINE
 62
  0
  6
CONTINUOUS
 10
-27.391088
 20
63.172240
 30
0.000000
 11
15.546293
 21
62.678707
 31
0.000000
  0
LINE
 62
  0
  6
CONTINUOUS
 10
-15.546293
 20
23.689590
 30
0.000000
 11
12.585095
 21
59.717508
 31
0.000000
  0
LINE
 62
  0
  6
CONTINUOUS
 10
18.507492
 20
114.993218
 30
0.000000
 11
15.546293
 21
64.652839
 31
0.000000
  0
LINE
 62
  0
  6
CONTINUOUS
 10
-17.520426
 20
62.185174
 30
0.000000
 11
18.013959
 21
115.980284
 31
0.000000
  0
LINE
 62
  0
  6
CONTINUOUS
 10
19.494558
 20
117.460883
 30
0.000000
 11
62.431940
 21
113.512618
 31
0.000000
  0
LINE
 62
  0
  6
CONTINUOUS
 10
60.457808
 20
111.538486
 30
0.000000
 11
54.535410
 21
-5.428864
 31
0.000000
  0
LINE
 62
  0
  6
CONTINUOUS
 10
26.897555
 20
59.223975
 30
0.000000
 11
43.677681
 21
90.316562
 31
0.000000
  0
LINE
 62
  0
  6
CONTINUOUS
 10
45.651814
 20
91.303628
 30
0.000000
 11
82.173265
 21
88.835962
 31
0.000000
  0
LINE
 62
  0
  6
CONTINUOUS
 10
86.615063
 20
90.810095
 30
0.000000
 11
65.393139
 21
-76.991167
 31
0.000000
  0
LINE
 62
  0
  6
CONTINUOUS
 10
88.589196
 20
85.381230
 30
0.000000
 11
125.604180
 21
-9.870662
 31
0.000000
  0
LINE
 62
  0
  6
CONTINUOUS
 10
56.016009
 20
-7.402997
 30
0.000000
 11
124.617114
 21
-9.870662
 31
0.000000
  0
LINE
 62
  0
  6
CONTINUOUS
 10
-86.121530
 20
125.850946
 30
0.000000
 11
-76.250868
 21
-9.870662
 31
0.000000
  0
LINE
 62
  0
  6
CONTINUOUS
 10
-69.834937
 20
75.017035
 30
0.000000
 11
-69.341404
 21
25.663722
 31
0.000000
  0
LINE
 62
  0
  6
CONTINUOUS
 10
40.222950
 20
87.848896
 30
0.000000
 11
24.429890
 21
-74.523502
 31
0.000000
  0
LINE
 62
  0
  6
CONTINUOUS
 10
40.716483
 20
88.342429
 30
0.000000
 11
55.028943
 21
-1.974132
 31
0.000000
  0
LINE
 62
  0
  6
CONTINUOUS
 10
127.578312
 20
-10.857729
 30
0.000000
 11
123.136514
 21
-53.301577
 31
0.000000
  0
LINE
 62
  0
  6
CONTINUOUS
 10
-125.039941
 20
-65.346782
 30
0.000000
 11
-93.023033
 21
-71.168038
 31
0.000000
  0
ENDSEC
  0
EOF
