  0
SECTION
  2
ENTITIES
  0
LINE
 62
  0
  6
CONTINUOUS
 10
102.213105
 20
461.487980
 30
0.000000
 11
107.414606
 21
459.497937
 31
0.000000
  0
LINE
 62
  0
  6
CONTINUOUS
 10
107.635982
 20
459.940163
 30
0.000000
 11
107.635982
 21
454.743891
 31
0.000000
  0
LINE
 62
  0
  6
CONTINUOUS
 10
107.525294
 20
455.075573
 30
0.000000
 11
113.169429
 21
453.196022
 31
0.000000
  0
LINE
 62
  0
  6
CONTINUOUS
 10
113.833438
 20
454.191070
 30
0.000000
 11
124.457933
 21
465.578712
 31
0.000000
  0
LINE
 62
  0
  6
CONTINUOUS
 10
119.477690
 20
467.126529
 30
0.000000
 11
124.568621
 21
466.242026
 31
0.000000
  0
LINE
 62
  0
  6
CONTINUOUS
 10
124.789879
 20
468.895485
 30
0.000000
 11
124.789879
 21
466.352621
 31
0.000000
  0
LINE
 62
  0
  6
CONTINUOUS
 10
113.058741
 20
457.839525
 30
0.000000
 11
124.679191
 21
469.337711
 31
0.000000
  0
LINE
 62
  0
  6
CONTINUOUS
 10
125.453888
 20
469.337711
 30
0.000000
 11
129.548747
 21
468.784941
 31
0.000000
  0
LINE
 62
  0
  6
CONTINUOUS
 10
117.264288
 20
456.070569
 30
0.000000
 11
129.548747
 21
468.342664
 31
0.000000
  0
LINE
 62
  0
  6
CONTINUOUS
 10
113.058741
 20
457.507842
 30
0.000000
 11
117.042912
 21
456.402251
 31
0.000000
  0
LINE
 62
  0
  6
CONTINUOUS
 10
112.837483
 20
453.417161
 30
0.000000
 11
113.058741
 21
457.397299
 31
0.000000
  0
LINE
 62
  0
  6
CONTINUOUS
 10
107.525294
 20
455.186117
 30
0.000000
 11
122.355101
 21
469.006029
 31
0.000000
  0
LINE
 62
  0
  6
CONTINUOUS
 10
107.525294
 20
460.050706
 30
0.000000
 11
121.137771
 21
472.433396
 31
0.000000
  0
LINE
 62
  0
  6
CONTINUOUS
 10
119.809753
 20
470.996123
 30
0.000000
 11
119.755877
 21
466.852665
 31
0.000000
  0
LINE
 62
  0
  6
CONTINUOUS
 10
102.185638
 20
461.615498
 30
0.000000
 11
113.470739
 21
472.958749
 31
0.000000
  0
LINE
 62
  0
  6
CONTINUOUS
 10
113.331411
 20
473.237140
 30
0.000000
 11
120.297460
 21
471.149413
 31
0.000000
  0
LINE
 62
  0
  6
CONTINUOUS
 10
113.261688
 20
470.731878
 30
0.000000
 11
111.721685
 21
433.729279
 31
0.000000
  0
LINE
 62
  0
  6
CONTINUOUS
 10
101.060333
 20
423.288897
 30
0.000000
 11
111.090425
 21
433.028569
 31
0.000000
  0
LINE
 62
  0
  6
CONTINUOUS
 10
105.268814
 20
421.046697
 30
0.000000
 11
114.457069
 21
430.015599
 31
0.000000
  0
LINE
 62
  0
  6
CONTINUOUS
 10
115.579322
 20
431.416967
 30
0.000000
 11
115.649515
 21
426.161746
 31
0.000000
  0
LINE
 62
  0
  6
CONTINUOUS
 10
104.777820
 20
415.511181
 30
0.000000
 11
115.018254
 21
425.110732
 31
0.000000
  0
LINE
 62
  0
  6
CONTINUOUS
 10
117.473104
 20
426.512101
 30
0.000000
 11
141.180583
 21
424.550144
 31
0.000000
  0
LINE
 62
  0
  6
CONTINUOUS
 10
116.210583
 20
419.294922
 30
0.000000
 11
129.677511
 21
416.842488
 31
0.000000
  0
LINE
 62
  0
  6
CONTINUOUS
 10
99.753091
 20
422.782268
 30
0.000000
 11
104.103952
 21
421.406825
 31
0.000000
  0
LINE
 62
  0
  6
CONTINUOUS
 10
103.719186
 20
421.273905
 30
0.000000
 11
103.233592
 21
415.363858
 31
0.000000
  0
LINE
 62
  0
  6
CONTINUOUS
 10
103.403086
 20
415.394156
 30
0.000000
 11
136.768803
 21
405.449959
 31
0.000000
  0
LINE
 62
  0
  6
CONTINUOUS
 10
130.170735
 20
407.717930
 30
0.000000
 11
142.728216
 21
426.358039
 31
0.000000
  0
LINE
 62
  0
  6
CONTINUOUS
 10
129.461300
 20
416.719033
 30
0.000000
 11
129.461300
 21
407.505330
 31
0.000000
  0
LINE
 62
  0
  6
CONTINUOUS
 10
129.603211
 20
417.427819
 30
0.000000
 11
137.416027
 21
459.432145
 31
0.000000
  0
LINE
 62
  0
  6
CONTINUOUS
 10
141.814778
 20
433.846304
 30
0.000000
 11
137.557937
 21
459.432145
 31
0.000000
  0
LINE
 62
  0
  6
CONTINUOUS
 10
141.672868
 20
433.968576
 30
0.000000
 11
141.530957
 21
425.038357
 31
0.000000
  0
LINE
 62
  0
  6
CONTINUOUS
 10
140.963316
 20
433.968576
 30
0.000000
 11
128.902462
 21
436.590966
 31
0.000000
  0
LINE
 62
  0
  6
CONTINUOUS
 10
129.253893
 20
467.742261
 30
0.000000
 11
128.260755
 21
436.911640
 31
0.000000
  0
LINE
 62
  0
  6
CONTINUOUS
 10
124.571438
 20
462.710133
 30
0.000000
 11
137.483754
 21
459.379008
 31
0.000000
  0
LINE
 62
  0
  6
CONTINUOUS
 10
124.429645
 20
462.639249
 30
0.000000
 11
116.802522
 21
419.506647
 31
0.000000
  0
LINE
 62
  0
  6
CONTINUOUS
 10
117.256423
 20
455.899790
 30
0.000000
 11
116.915909
 21
419.733393
 31
0.000000
  0
LINE
 62
  0
  6
CONTINUOUS
 10
102.049010
 20
461.114991
 30
0.000000
 11
99.665644
 21
422.907884
 31
0.000000
  0
LINE
 62
  0
  6
CONTINUOUS
 10
110.675692
 20
434.119718
 30
0.000000
 11
115.825948
 21
431.471015
 31
0.000000
  0
ENDSEC
  0
EOF
