  0
SECTION
  2
ENTITIES
  0
LINE
 62
  0
  6
CONTINUOUS
 10
71.723186
 20
-61.041009
 30
0.000000
 11
114.451893
 21
-58.599369
 31
0.000000
  0
LINE
 62
  0
  6
CONTINUOUS
 10
116.283123
 20
-53.716088
 30
0.000000
 11
114.451893
 21
-96.444795
 31
0.000000
  0
LINE
 62
  0
  6
CONTINUOUS
 10
112.620662
 20
-94.003155
 30
0.000000
 11
168.167981
 21
-89.730284
 31
0.000000
  0
LINE
 62
  0
  6
CONTINUOUS
 10
163.284700
 20
-96.444795
 30
0.000000
 11
165.726341
 21
-61.041009
 31
0.000000
  0
LINE
 62
  0
  6
CONTINUOUS
 10
169.999211
 20
-59.209779
 30
0.000000
 11
195.636435
 21
-54.936909
 31
0.000000
  0
LINE
 62
  0
  6
CONTINUOUS
 10
166.336751
 20
-56.157729
 30
0.000000
 11
241.417192
 21
7.935331
 31
0.000000
  0
LINE
 62
  0
  6
CONTINUOUS
 10
229.819401
 20
-0.610410
 30
0.000000
 11
264.002366
 21
-1.831230
 31
0.000000
  0
LINE
 62
  0
  6
CONTINUOUS
 10
202.961356
 20
-56.157729
 30
0.000000
 11
260.950315
 21
-0.610410
 31
0.000000
  0
LINE
 62
  0
  6
CONTINUOUS
 10
202.350946
 20
-56.768139
 30
0.000000
 11
193.805205
 21
-194.110410
 31
0.000000
  0
LINE
 62
  0
  6
CONTINUOUS
 10
115.672713
 20
-90.951104
 30
0.000000
 11
201.130126
 21
-21.974763
 31
0.000000
  0
LINE
 62
  0
  6
CONTINUOUS
 10
200.519716
 20
3.052050
 30
0.000000
 11
199.298896
 21
-25.026814
 31
0.000000
  0
LINE
 62
  0
  6
CONTINUOUS
 10
162.674290
 20
-90.340694
 30
0.000000
 11
238.975552
 21
-29.910095
 31
0.000000
  0
LINE
 62
  0
  6
CONTINUOUS
 10
235.313091
 20
-38.455836
 30
0.000000
 11
235.313091
 21
0.610410
 31
0.000000
  0
LINE
 62
  0
  6
CONTINUOUS
 10
116.893533
 20
-57.378549
 30
0.000000
 11
195.636435
 21
-0.000000
 31
0.000000
  0
LINE
 62
  0
  6
CONTINUOUS
 10
153.518139
 20
-1.220820
 30
0.000000
 11
202.961356
 21
1.831230
 31
0.000000
  0
LINE
 62
  0
  6
CONTINUOUS
 10
69.891956
 20
-61.651420
 30
0.000000
 11
159.622240
 21
3.052050
 31
0.000000
  0
LINE
 62
  0
  6
CONTINUOUS
 10
151.686909
 20
0.610410
 30
0.000000
 11
137.037066
 21
-161.758675
 31
0.000000
  0
LINE
 62
  0
  6
CONTINUOUS
 10
61.346215
 20
-214.864353
 30
0.000000
 11
148.024448
 21
-156.264984
 31
0.000000
  0
LINE
 62
  0
  6
CONTINUOUS
 10
133.985016
 20
-166.031546
 30
0.000000
 11
170.609621
 21
-167.862776
 31
0.000000
  0
LINE
 62
  0
  6
CONTINUOUS
 10
102.854101
 20
-212.422713
 30
0.000000
 11
171.830442
 21
-170.914826
 31
0.000000
  0
LINE
 62
  0
  6
CONTINUOUS
 10
169.388801
 20
-170.914826
 30
0.000000
 11
168.167981
 21
-202.656151
 31
0.000000
  0
LINE
 62
  0
  6
CONTINUOUS
 10
102.854101
 20
-209.370662
 30
0.000000
 11
101.633281
 21
-248.436909
 31
0.000000
  0
LINE
 62
  0
  6
CONTINUOUS
 10
102.243691
 20
-241.722397
 30
0.000000
 11
170.609621
 21
-204.487382
 31
0.000000
  0
LINE
 62
  0
  6
CONTINUOUS
 10
169.999211
 20
-200.824921
 30
0.000000
 11
367.161672
 21
-193.500000
 31
0.000000
  0
LINE
 62
  0
  6
CONTINUOUS
 10
254.235804
 20
-244.164038
 30
0.000000
 11
368.382492
 21
-194.110410
 31
0.000000
  0
LINE
 62
  0
  6
CONTINUOUS
 10
368.382492
 20
-200.824921
 30
0.000000
 11
372.044953
 21
-159.927445
 31
0.000000
  0
LINE
 62
  0
  6
CONTINUOUS
 10
375.707413
 20
-162.979495
 30
0.000000
 11
331.757886
 21
-22.585174
 31
0.000000
  0
LINE
 62
  0
  6
CONTINUOUS
 10
336.030757
 20
-21.364353
 30
0.000000
 11
247.521293
 21
-203.876972
 31
0.000000
  0
LINE
 62
  0
  6
CONTINUOUS
 10
254.235804
 20
-244.774448
 30
0.000000
 11
248.131703
 21
-206.318612
 31
0.000000
  0
LINE
 62
  0
  6
CONTINUOUS
 10
196.857256
 20
-211.812303
 30
0.000000
 11
248.742114
 21
-209.981073
 31
0.000000
  0
LINE
 62
  0
  6
CONTINUOUS
 10
104.074921
 20
-243.553628
 30
0.000000
 11
257.287855
 21
-243.553628
 31
0.000000
  0
LINE
 62
  0
  6
CONTINUOUS
 10
264.612776
 20
-1.220820
 30
0.000000
 11
251.794164
 21
-161.758675
 31
0.000000
  0
LINE
 62
  0
  6
CONTINUOUS
 10
251.183754
 20
-161.758675
 30
0.000000
 11
375.707413
 21
-157.485804
 31
0.000000
  0
LINE
 62
  0
  6
CONTINUOUS
 10
246.300473
 20
-20.143533
 30
0.000000
 11
339.082808
 21
-18.312303
 31
0.000000
  0
LINE
 62
  0
  6
CONTINUOUS
 10
71.112776
 20
-62.261830
 30
0.000000
 11
61.956625
 21
-217.305994
 31
0.000000
  0
LINE
 62
  0
  6
CONTINUOUS
 10
59.514984
 20
-213.643533
 30
0.000000
 11
99.802050
 21
-212.422713
 31
0.000000
  0
LINE
 62
  0
  6
CONTINUOUS
 10
196.857256
 20
-22.585174
 30
0.000000
 11
239.585962
 21
-27.468454
 31
0.000000
  0
LINE
 62
  0
  6
CONTINUOUS
 10
246.300473
 20
-18.312303
 30
0.000000
 11
250.573344
 21
-160.537855
 31
0.000000
  0
LINE
 62
  0
  6
CONTINUOUS
 10
198.078076
 20
-203.266562
 30
0.000000
 11
249.962934
 21
-20.753943
 31
0.000000
  0
ENDSEC
  0
EOF
