  0
SECTION
  2
ENTITIES
  0
LINE
 62
  0
  6
CONTINUOUS
 10
-87.028391
 20
-184.413880
 30
0.000000
 11
-63.724921
 21
-185.852366
 31
0.000000
  0
LINE
 62
  0
  6
CONTINUOUS
 10
-62.574132
 20
-182.687697
 30
0.000000
 11
-63.149527
 21
-212.320505
 31
0.000000
  0
LINE
 62
  0
  6
CONTINUOUS
 10
-61.998738
 20
-212.032808
 30
0.000000
 11
-34.667508
 21
-211.169716
 31
0.000000
  0
LINE
 62
  0
  6
CONTINUOUS
 10
-31.215142
 20
-187.290852
 30
0.000000
 11
-33.516719
 21
-212.895899
 31
0.000000
  0
LINE
 62
  0
  6
CONTINUOUS
 10
-30.352050
 20
-187.578549
 30
0.000000
 11
-5.610095
 21
-192.181703
 31
0.000000
  0
LINE
 62
  0
  6
CONTINUOUS
 10
-5.322397
 20
-190.455521
 30
0.000000
 11
23.447319
 21
-142.985489
 31
0.000000
  0
LINE
 62
  0
  6
CONTINUOUS
 10
-5.610095
 20
-145.862461
 30
0.000000
 11
22.296530
 21
-143.560883
 31
0.000000
  0
LINE
 62
  0
  6
CONTINUOUS
 10
-30.064353
 20
-185.276972
 30
0.000000
 11
-5.034700
 21
-146.150158
 31
0.000000
  0
LINE
 62
  0
  6
CONTINUOUS
 10
-6.185489
 20
-148.451735
 30
0.000000
 11
-6.760883
 21
-166.864353
 31
0.000000
  0
LINE
 62
  0
  6
CONTINUOUS
 10
-29.488959
 20
-167.727445
 30
0.000000
 11
-8.487066
 21
-167.439748
 31
0.000000
  0
LINE
 62
  0
  6
CONTINUOUS
 10
-33.804416
 20
-209.731230
 30
0.000000
 11
-7.048580
 21
-170.029022
 31
0.000000
  0
LINE
 62
  0
  6
CONTINUOUS
 10
-60.560252
 20
-208.292744
 30
0.000000
 11
-31.502839
 21
-168.302839
 31
0.000000
  0
LINE
 62
  0
  6
CONTINUOUS
 10
-30.352050
 20
-145.574763
 30
0.000000
 11
-30.064353
 21
-165.138170
 31
0.000000
  0
LINE
 62
  0
  6
CONTINUOUS
 10
-61.135647
 20
-182.112303
 30
0.000000
 11
-28.913565
 21
-142.122397
 31
0.000000
  0
LINE
 62
  0
  6
CONTINUOUS
 10
-86.452997
 20
-180.673817
 30
0.000000
 11
-56.820189
 21
-141.834700
 31
0.000000
  0
LINE
 62
  0
  6
CONTINUOUS
 10
-55.094006
 20
-142.985489
 30
0.000000
 11
-55.957098
 21
-218.937539
 31
0.000000
  0
LINE
 62
  0
  6
CONTINUOUS
 10
-89.042271
 20
-186.715457
 30
0.000000
 11
-90.768454
 21
-258.927445
 31
0.000000
  0
LINE
 62
  0
  6
CONTINUOUS
 10
-87.603785
 20
-259.215142
 30
0.000000
 11
-58.834069
 21
-220.951420
 31
0.000000
  0
LINE
 62
  0
  6
CONTINUOUS
 10
-89.905363
 20
-262.379811
 30
0.000000
 11
-66.601893
 21
-262.667508
 31
0.000000
  0
LINE
 62
  0
  6
CONTINUOUS
 10
-64.300315
 20
-266.982965
 30
0.000000
 11
-62.286435
 21
-290.286435
 31
0.000000
  0
LINE
 62
  0
  6
CONTINUOUS
 10
-63.724921
 20
-263.530599
 30
0.000000
 11
-32.653628
 21
-222.965300
 31
0.000000
  0
LINE
 62
  0
  6
CONTINUOUS
 10
-31.215142
 20
-218.649842
 30
0.000000
 11
-29.488959
 21
-251.735016
 31
0.000000
  0
LINE
 62
  0
  6
CONTINUOUS
 10
-59.121767
 20
-289.423344
 30
0.000000
 11
-23.159621
 21
-245.981073
 31
0.000000
  0
LINE
 62
  0
  6
CONTINUOUS
 10
-20.570347
 20
-247.707256
 30
0.000000
 11
54.518612
 21
-249.145741
 31
0.000000
  0
LINE
 62
  0
  6
CONTINUOUS
 10
-58.834069
 20
-289.711041
 30
0.000000
 11
23.159621
 21
-294.026498
 31
0.000000
  0
LINE
 62
  0
  6
CONTINUOUS
 10
25.461199
 20
-266.695268
 30
0.000000
 11
30.064353
 21
-294.026498
 31
0.000000
  0
LINE
 62
  0
  6
CONTINUOUS
 10
31.502839
 20
-289.135647
 30
0.000000
 11
70.054259
 21
-259.790536
 31
0.000000
  0
LINE
 62
  0
  6
CONTINUOUS
 10
-3.596215
 20
-266.119874
 30
0.000000
 11
23.735016
 21
-265.832177
 31
0.000000
  0
LINE
 62
  0
  6
CONTINUOUS
 10
-5.897792
 20
-193.044795
 30
0.000000
 11
-3.883912
 21
-266.982965
 31
0.000000
  0
LINE
 62
  0
  6
CONTINUOUS
 10
-3.020820
 20
-265.832177
 30
0.000000
 11
9.062461
 21
-170.892114
 31
0.000000
  0
LINE
 62
  0
  6
CONTINUOUS
 10
9.350158
 20
-169.453628
 30
0.000000
 11
38.982965
 21
-168.878233
 31
0.000000
  0
LINE
 62
  0
  6
CONTINUOUS
 10
38.982965
 20
-172.330599
 30
0.000000
 11
26.611987
 21
-262.955205
 31
0.000000
  0
LINE
 62
  0
  6
CONTINUOUS
 10
39.846057
 20
-167.152050
 30
0.000000
 11
66.601893
 21
-224.691483
 31
0.000000
  0
LINE
 62
  0
  6
CONTINUOUS
 10
42.147634
 20
-226.705363
 30
0.000000
 11
66.314196
 21
-225.842271
 31
0.000000
  0
LINE
 62
  0
  6
CONTINUOUS
 10
66.889590
 20
-227.856151
 30
0.000000
 11
71.205047
 21
-258.064353
 31
0.000000
  0
LINE
 62
  0
  6
CONTINUOUS
 10
9.637855
 20
-168.302839
 30
0.000000
 11
40.421451
 21
-227.568454
 31
0.000000
  0
LINE
 62
  0
  6
CONTINUOUS
 10
26.036593
 20
-146.725552
 30
0.000000
 11
34.955205
 21
-217.786751
 31
0.000000
  0
LINE
 62
  0
  6
CONTINUOUS
 10
-57.212988
 20
-140.304384
 30
0.000000
 11
-28.794244
 21
-142.705968
 31
0.000000
  0
LINE
 62
  0
  6
CONTINUOUS
 10
-59.214308
 20
-219.156393
 30
0.000000
 11
-30.795564
 21
-220.357185
 31
0.000000
  0
ENDSEC
  0
EOF
