  0
SECTION
  2
ENTITIES
  0
LINE
 62
  0
  6
CONTINUOUS
 10
-141.153076
 20
-137.353628
 30
0.000000
 11
-94.269322
 21
-102.513407
 31
0.000000
  0
LINE
 62
  0
  6
CONTINUOUS
 10
-91.688565
 20
-100.792902
 30
0.000000
 11
-93.409069
 21
-191.979653
 31
0.000000
  0
LINE
 62
  0
  6
CONTINUOUS
 10
-144.163959
 20
-141.224763
 30
0.000000
 11
-145.024211
 21
-239.723659
 31
0.000000
  0
LINE
 62
  0
  6
CONTINUOUS
 10
-141.153076
 20
-238.433281
 30
0.000000
 11
-93.839196
 21
-194.130284
 31
0.000000
  0
LINE
 62
  0
  6
CONTINUOUS
 10
-91.688565
 20
-192.839905
 30
0.000000
 11
-71.042508
 21
-191.979653
 31
0.000000
  0
LINE
 62
  0
  6
CONTINUOUS
 10
-70.182256
 20
-192.839905
 30
0.000000
 11
-111.474369
 21
-240.153785
 31
0.000000
  0
LINE
 62
  0
  6
CONTINUOUS
 10
-142.443454
 20
-240.153785
 30
0.000000
 11
-112.764748
 21
-241.014038
 31
0.000000
  0
LINE
 62
  0
  6
CONTINUOUS
 10
-112.764748
 20
-241.444164
 30
0.000000
 11
-110.183991
 21
-273.703628
 31
0.000000
  0
LINE
 62
  0
  6
CONTINUOUS
 10
-105.452603
 20
-270.692744
 30
0.000000
 11
-71.902760
 21
-225.099369
 31
0.000000
  0
LINE
 62
  0
  6
CONTINUOUS
 10
-69.322003
 20
-194.130284
 30
0.000000
 11
-68.891877
 21
-221.658360
 31
0.000000
  0
LINE
 62
  0
  6
CONTINUOUS
 10
-68.891877
 20
-223.808991
 30
0.000000
 11
64.017114
 21
-242.304416
 31
0.000000
  0
LINE
 62
  0
  6
CONTINUOUS
 10
62.296609
 20
-194.560410
 30
0.000000
 11
65.307492
 21
-244.455047
 31
0.000000
  0
LINE
 62
  0
  6
CONTINUOUS
 10
24.875631
 20
-127.460726
 30
0.000000
 11
61.436356
 21
-193.270032
 31
0.000000
  0
LINE
 62
  0
  6
CONTINUOUS
 10
24.445505
 20
-126.600473
 30
0.000000
 11
-1.792192
 21
-245.745426
 31
0.000000
  0
LINE
 62
  0
  6
CONTINUOUS
 10
-1.362066
 20
-247.035804
 30
0.000000
 11
0.788565
 21
-288.758044
 31
0.000000
  0
LINE
 62
  0
  6
CONTINUOUS
 10
3.799448
 20
-288.758044
 30
0.000000
 11
63.586987
 21
-246.175552
 31
0.000000
  0
LINE
 62
  0
  6
CONTINUOUS
 10
-108.893612
 20
-275.854259
 30
0.000000
 11
-2.222319
 21
-291.768927
 31
0.000000
  0
LINE
 62
  0
  6
CONTINUOUS
 10
-142.443454
 20
-138.644006
 30
0.000000
 11
-107.603233
 21
-140.794637
 31
0.000000
  0
LINE
 62
  0
  6
CONTINUOUS
 10
-106.312855
 20
-138.644006
 30
0.000000
 11
-64.160489
 21
-104.233912
 31
0.000000
  0
LINE
 62
  0
  6
CONTINUOUS
 10
-106.742981
 20
-140.794637
 30
0.000000
 11
-105.882729
 21
-171.763722
 31
0.000000
  0
LINE
 62
  0
  6
CONTINUOUS
 10
-105.452603
 20
-173.054101
 30
0.000000
 11
-75.343770
 21
-172.623975
 31
0.000000
  0
LINE
 62
  0
  6
CONTINUOUS
 10
-74.913644
 20
-138.644006
 30
0.000000
 11
-74.913644
 21
-169.613091
 31
0.000000
  0
LINE
 62
  0
  6
CONTINUOUS
 10
-75.773896
 20
-140.794637
 30
0.000000
 11
-43.514432
 21
-143.375394
 31
0.000000
  0
LINE
 62
  0
  6
CONTINUOUS
 10
-43.514432
 20
-142.515142
 30
0.000000
 11
-45.665063
 21
-243.164669
 31
0.000000
  0
LINE
 62
  0
  6
CONTINUOUS
 10
-45.234937
 20
-245.315300
 30
0.000000
 11
-1.792192
 21
-248.326183
 31
0.000000
  0
LINE
 62
  0
  6
CONTINUOUS
 10
-43.084306
 20
-248.326183
 30
0.000000
 11
-19.427366
 21
-127.890852
 31
0.000000
  0
LINE
 62
  0
  6
CONTINUOUS
 10
-18.136987
 20
-129.181230
 30
0.000000
 11
-4.803076
 21
-192.409779
 31
0.000000
  0
LINE
 62
  0
  6
CONTINUOUS
 10
-4.803076
 20
-112.836435
 30
0.000000
 11
-2.222319
 21
-194.560410
 31
0.000000
  0
LINE
 62
  0
  6
CONTINUOUS
 10
-0.931940
 20
-194.990536
 30
0.000000
 11
58.425473
 21
-191.549527
 31
0.000000
  0
LINE
 62
  0
  6
CONTINUOUS
 10
-42.654180
 20
-142.945268
 30
0.000000
 11
-5.663328
 21
-113.696688
 31
0.000000
  0
LINE
 62
  0
  6
CONTINUOUS
 10
-71.042508
 20
-138.644006
 30
0.000000
 11
-34.481782
 21
-110.255678
 31
0.000000
  0
LINE
 62
  0
  6
CONTINUOUS
 10
-33.621530
 20
-111.115931
 30
0.000000
 11
-33.621530
 21
-126.170347
 31
0.000000
  0
LINE
 62
  0
  6
CONTINUOUS
 10
-76.634148
 20
-170.473344
 30
0.000000
 11
-34.911909
 21
-127.460726
 31
0.000000
  0
LINE
 62
  0
  6
CONTINUOUS
 10
-102.441719
 20
-167.892587
 30
0.000000
 11
-61.579732
 21
-124.449842
 31
0.000000
  0
LINE
 62
  0
  6
CONTINUOUS
 10
-59.429101
 20
-123.589590
 30
0.000000
 11
-37.922792
 21
-124.879968
 31
0.000000
  0
LINE
 62
  0
  6
CONTINUOUS
 10
-62.439984
 20
-104.664038
 30
0.000000
 11
-61.579732
 21
-120.578707
 31
0.000000
  0
LINE
 62
  0
  6
CONTINUOUS
 10
-89.968060
 20
-101.653155
 30
0.000000
 11
-68.031625
 21
-102.943533
 31
0.000000
  0
LINE
 62
  0
  6
CONTINUOUS
 10
-31.470899
 20
-109.395426
 30
0.000000
 11
-6.093454
 21
-111.115931
 31
0.000000
  0
LINE
 62
  0
  6
CONTINUOUS
 10
-16.416483
 20
-127.030599
 30
0.000000
 11
22.294874
 21
-124.449842
 31
0.000000
  0
ENDSEC
  0
EOF
