  0
SECTION
  2
ENTITIES
  0
LINE
 62
  0
  6
CONTINUOUS
 10
-93.050631
 20
-183.807256
 30
0.000000
 11
-62.368297
 21
-151.977918
 31
0.000000
  0
LINE
 62
  0
  6
CONTINUOUS
 10
-62.368297
 20
-151.977918
 30
0.000000
 11
-65.522555
 21
-236.856151
 31
0.000000
  0
LINE
 62
  0
  6
CONTINUOUS
 10
-61.221293
 20
-151.691167
 30
0.000000
 11
-44.589748
 21
-151.404416
 31
0.000000
  0
LINE
 62
  0
  6
CONTINUOUS
 10
-68.390063
 20
-183.520505
 30
0.000000
 11
-44.589748
 21
-151.691167
 31
0.000000
  0
LINE
 62
  0
  6
CONTINUOUS
 10
-43.442744
 20
-153.411672
 30
0.000000
 11
-41.148738
 21
-174.631230
 31
0.000000
  0
LINE
 62
  0
  6
CONTINUOUS
 10
-62.941798
 20
-207.320820
 30
0.000000
 11
-42.582492
 21
-175.491483
 31
0.000000
  0
LINE
 62
  0
  6
CONTINUOUS
 10
-40.001735
 20
-173.770978
 30
0.000000
 11
-21.362934
 21
-172.910726
 31
0.000000
  0
LINE
 62
  0
  6
CONTINUOUS
 10
-17.635174
 20
-157.426183
 30
0.000000
 11
-19.642429
 21
-172.337224
 31
0.000000
  0
LINE
 62
  0
  6
CONTINUOUS
 10
-41.148738
 20
-206.173817
 30
0.000000
 11
-20.215931
 21
-173.484227
 31
0.000000
  0
LINE
 62
  0
  6
CONTINUOUS
 10
-43.442744
 20
-194.990536
 30
0.000000
 11
-44.016246
 21
-207.320820
 31
0.000000
  0
LINE
 62
  0
  6
CONTINUOUS
 10
-43.155994
 20
-196.424290
 30
0.000000
 11
-25.664196
 21
-195.850789
 31
0.000000
  0
LINE
 62
  0
  6
CONTINUOUS
 10
-25.377445
 20
-197.284543
 30
0.000000
 11
-23.083438
 21
-268.398738
 31
0.000000
  0
LINE
 62
  0
  6
CONTINUOUS
 10
-22.796688
 20
-266.678233
 30
0.000000
 11
-12.473659
 21
-181.226498
 31
0.000000
  0
LINE
 62
  0
  6
CONTINUOUS
 10
-12.186909
 20
-182.373502
 30
0.000000
 11
-4.157886
 21
-233.701893
 31
0.000000
  0
LINE
 62
  0
  6
CONTINUOUS
 10
-3.297634
 20
-233.701893
 30
0.000000
 11
33.119716
 21
-231.407886
 31
0.000000
  0
LINE
 62
  0
  6
CONTINUOUS
 10
-22.796688
 20
-267.538486
 30
0.000000
 11
-7.885647
 21
-267.251735
 31
0.000000
  0
LINE
 62
  0
  6
CONTINUOUS
 10
-6.738644
 20
-266.964984
 30
0.000000
 11
11.039905
 21
-176.351735
 31
0.000000
  0
LINE
 62
  0
  6
CONTINUOUS
 10
12.473659
 20
-176.064984
 30
0.000000
 11
34.840221
 21
-230.260883
 31
0.000000
  0
LINE
 62
  0
  6
CONTINUOUS
 10
33.693218
 20
-232.268139
 30
0.000000
 11
34.840221
 21
-253.200946
 31
0.000000
  0
LINE
 62
  0
  6
CONTINUOUS
 10
31.685962
 20
-254.347950
 30
0.000000
 11
-4.157886
 21
-287.897792
 31
0.000000
  0
LINE
 62
  0
  6
CONTINUOUS
 10
-8.459148
 20
-268.685489
 30
0.000000
 11
-7.025394
 21
-289.905047
 31
0.000000
  0
LINE
 62
  0
  6
CONTINUOUS
 10
-71.831073
 20
-280.729022
 30
0.000000
 11
-7.312145
 21
-290.191798
 31
0.000000
  0
LINE
 62
  0
  6
CONTINUOUS
 10
-75.558833
 20
-259.796215
 30
0.000000
 11
-74.411830
 21
-284.743533
 31
0.000000
  0
LINE
 62
  0
  6
CONTINUOUS
 10
-72.691325
 20
-280.155521
 30
0.000000
 11
-50.898265
 21
-254.921451
 31
0.000000
  0
LINE
 62
  0
  6
CONTINUOUS
 10
-52.618770
 20
-236.282650
 30
0.000000
 11
-50.324763
 21
-254.634700
 31
0.000000
  0
LINE
 62
  0
  6
CONTINUOUS
 10
-48.604259
 20
-252.914196
 30
0.000000
 11
35.413722
 21
-254.061199
 31
0.000000
  0
LINE
 62
  0
  6
CONTINUOUS
 10
-74.698580
 20
-259.222713
 30
0.000000
 11
-53.192271
 21
-235.422397
 31
0.000000
  0
LINE
 62
  0
  6
CONTINUOUS
 10
-92.477129
 20
-258.649211
 30
0.000000
 11
-75.845584
 21
-259.509464
 31
0.000000
  0
LINE
 62
  0
  6
CONTINUOUS
 10
-91.330126
 20
-258.649211
 30
0.000000
 11
-68.676814
 21
-234.275394
 31
0.000000
  0
LINE
 62
  0
  6
CONTINUOUS
 10
-67.243060
 20
-233.415142
 30
0.000000
 11
-53.192271
 21
-233.988644
 31
0.000000
  0
LINE
 62
  0
  6
CONTINUOUS
 10
-92.477129
 20
-185.241009
 30
0.000000
 11
-93.050631
 21
-258.075710
 31
0.000000
  0
LINE
 62
  0
  6
CONTINUOUS
 10
-89.609621
 20
-184.094006
 30
0.000000
 11
-70.397319
 21
-184.667508
 31
0.000000
  0
LINE
 62
  0
  6
CONTINUOUS
 10
-70.110568
 20
-185.814511
 30
0.000000
 11
-63.802050
 21
-209.614826
 31
0.000000
  0
LINE
 62
  0
  6
CONTINUOUS
 10
-62.368297
 20
-209.614826
 30
0.000000
 11
-43.155994
 21
-208.181073
 31
0.000000
  0
LINE
 62
  0
  6
CONTINUOUS
 10
-16.774921
 20
-156.565931
 30
0.000000
 11
1.577129
 21
-156.279180
 31
0.000000
  0
LINE
 62
  0
  6
CONTINUOUS
 10
-24.517192
 20
-195.564038
 30
0.000000
 11
0.430126
 21
-158.859937
 31
0.000000
  0
LINE
 62
  0
  6
CONTINUOUS
 10
1.003628
 20
-160.006940
 30
0.000000
 11
-2.724132
 21
-231.981388
 31
0.000000
  0
LINE
 62
  0
  6
CONTINUOUS
 10
-43.262758
 20
-196.195173
 30
0.000000
 11
-17.548723
 21
-155.560649
 31
0.000000
  0
ENDSEC
  0
EOF
