  0
SECTION
  2
ENTITIES
  0
LINE
 62
  0
  6
CONTINUOUS
 10
-88.251104
 20
-149.458675
 30
0.000000
 11
-54.590536
 21
-129.607571
 31
0.000000
  0
LINE
 62
  0
  6
CONTINUOUS
 10
-52.001262
 20
-130.470662
 30
0.000000
 11
-47.685804
 21
-221.958360
 31
0.000000
  0
LINE
 62
  0
  6
CONTINUOUS
 10
-89.114196
 20
-256.913565
 30
0.000000
 11
-43.370347
 21
-221.526814
 31
0.000000
  0
LINE
 62
  0
  6
CONTINUOUS
 10
-63.221451
 20
-263.818297
 30
0.000000
 11
-14.025237
 21
-222.821451
 31
0.000000
  0
LINE
 62
  0
  6
CONTINUOUS
 10
-90.408833
 20
-259.502839
 30
0.000000
 11
-57.611356
 21
-265.544479
 31
0.000000
  0
LINE
 62
  0
  6
CONTINUOUS
 10
-61.926814
 20
-260.797476
 30
0.000000
 11
-60.632177
 21
-286.258675
 31
0.000000
  0
LINE
 62
  0
  6
CONTINUOUS
 10
-59.337539
 20
-285.395584
 30
0.000000
 11
-14.888328
 21
-249.145741
 31
0.000000
  0
LINE
 62
  0
  6
CONTINUOUS
 10
-13.593691
 20
-223.684543
 30
0.000000
 11
-14.025237
 21
-250.008833
 31
0.000000
  0
LINE
 62
  0
  6
CONTINUOUS
 10
-11.435962
 20
-246.988013
 30
0.000000
 11
85.661830
 21
-254.755836
 31
0.000000
  0
LINE
 62
  0
  6
CONTINUOUS
 10
86.956467
 20
-232.315457
 30
0.000000
 11
86.524921
 21
-256.482019
 31
0.000000
  0
LINE
 62
  0
  6
CONTINUOUS
 10
45.528076
 20
-231.452366
 30
0.000000
 11
84.798738
 21
-232.315457
 31
0.000000
  0
LINE
 62
  0
  6
CONTINUOUS
 10
55.453628
 20
-147.732492
 30
0.000000
 11
87.388013
 21
-230.589274
 31
0.000000
  0
LINE
 62
  0
  6
CONTINUOUS
 10
55.885174
 20
-148.164038
 30
0.000000
 11
25.676972
 21
-272.880757
 31
0.000000
  0
LINE
 62
  0
  6
CONTINUOUS
 10
17.909148
 20
-148.164038
 30
0.000000
 11
-1.941956
 21
-269.859937
 31
0.000000
  0
LINE
 62
  0
  6
CONTINUOUS
 10
-1.078864
 20
-271.586120
 30
0.000000
 11
24.813880
 21
-273.743849
 31
0.000000
  0
LINE
 62
  0
  6
CONTINUOUS
 10
27.403155
 20
-275.901577
 30
0.000000
 11
28.697792
 21
-299.205047
 31
0.000000
  0
LINE
 62
  0
  6
CONTINUOUS
 10
-59.769085
 20
-285.827129
 30
0.000000
 11
18.340694
 21
-298.341956
 31
0.000000
  0
LINE
 62
  0
  6
CONTINUOUS
 10
28.697792
 20
-300.068139
 30
0.000000
 11
79.620189
 21
-259.071293
 31
0.000000
  0
LINE
 62
  0
  6
CONTINUOUS
 10
19.203785
 20
-149.027129
 30
0.000000
 11
46.391167
 21
-226.273817
 31
0.000000
  0
LINE
 62
  0
  6
CONTINUOUS
 10
48.117350
 20
-130.039117
 30
0.000000
 11
45.096530
 21
-229.726183
 31
0.000000
  0
LINE
 62
  0
  6
CONTINUOUS
 10
-1.078864
 20
-155.068770
 30
0.000000
 11
44.233438
 21
-129.176025
 31
0.000000
  0
LINE
 62
  0
  6
CONTINUOUS
 10
15.751420
 20
-126.155205
 30
0.000000
 11
45.096530
 21
-126.155205
 31
0.000000
  0
LINE
 62
  0
  6
CONTINUOUS
 10
-30.855521
 20
-153.342587
 30
0.000000
 11
7.552050
 21
-130.470662
 31
0.000000
  0
LINE
 62
  0
  6
CONTINUOUS
 10
-32.150158
 20
-154.205678
 30
0.000000
 11
-32.581703
 21
-180.961514
 31
0.000000
  0
LINE
 62
  0
  6
CONTINUOUS
 10
-31.718612
 20
-180.961514
 30
0.000000
 11
9.278233
 21
-145.574763
 31
0.000000
  0
LINE
 62
  0
  6
CONTINUOUS
 10
10.141325
 20
-129.176025
 30
0.000000
 11
10.141325
 21
-144.711672
 31
0.000000
  0
LINE
 62
  0
  6
CONTINUOUS
 10
-20.498423
 20
-144.280126
 30
0.000000
 11
6.688959
 21
-146.437855
 31
0.000000
  0
LINE
 62
  0
  6
CONTINUOUS
 10
-20.498423
 20
-127.881388
 30
0.000000
 11
-19.635331
 21
-145.143218
 31
0.000000
  0
LINE
 62
  0
  6
CONTINUOUS
 10
-19.203785
 20
-126.155205
 30
0.000000
 11
-57.179811
 21
-152.911041
 31
0.000000
  0
LINE
 62
  0
  6
CONTINUOUS
 10
-89.545741
 20
-149.890221
 30
0.000000
 11
-59.769085
 21
-152.911041
 31
0.000000
  0
LINE
 62
  0
  6
CONTINUOUS
 10
-59.337539
 20
-155.068770
 30
0.000000
 11
-58.905994
 21
-181.824606
 31
0.000000
  0
LINE
 62
  0
  6
CONTINUOUS
 10
-91.271924
 20
-151.616404
 30
0.000000
 11
-90.408833
 21
-259.071293
 31
0.000000
  0
LINE
 62
  0
  6
CONTINUOUS
 10
-52.432808
 20
-129.607571
 30
0.000000
 11
-21.793060
 21
-127.018297
 31
0.000000
  0
LINE
 62
  0
  6
CONTINUOUS
 10
20.498423
 20
-146.869401
 30
0.000000
 11
61.495268
 21
-145.574763
 31
0.000000
  0
LINE
 62
  0
  6
CONTINUOUS
 10
-1.078864
 20
-155.068770
 30
0.000000
 11
-1.941956
 21
-269.428391
 31
0.000000
  0
LINE
 62
  0
  6
CONTINUOUS
 10
-57.179811
 20
-177.077603
 30
0.000000
 11
-18.340694
 21
-144.280126
 31
0.000000
  0
LINE
 62
  0
  6
CONTINUOUS
 10
-30.855521
 20
-154.205678
 30
0.000000
 11
-2.373502
 21
-154.637224
 31
0.000000
  0
LINE
 62
  0
  6
CONTINUOUS
 10
-61.693026
 20
-180.312148
 30
0.000000
 11
-28.639242
 21
-181.837708
 31
0.000000
  0
LINE
 62
  0
  6
CONTINUOUS
 10
-50.505591
 20
-222.010768
 30
0.000000
 11
-16.434768
 21
-224.044847
 31
0.000000
  0
ENDSEC
  0
EOF
