  0
SECTION
  2
ENTITIES
  0
LINE
 62
  0
  6
CONTINUOUS
 10
-84.073344
 20
-169.316404
 30
0.000000
 11
-55.122871
 21
-169.023975
 31
0.000000
  0
LINE
 62
  0
  6
CONTINUOUS
 10
-53.953155
 20
-170.486120
 30
0.000000
 11
-54.245584
 21
-191.541009
 31
0.000000
  0
LINE
 62
  0
  6
CONTINUOUS
 10
-54.245584
 20
-193.295584
 30
0.000000
 11
-35.530126
 21
-197.097161
 31
0.000000
  0
LINE
 62
  0
  6
CONTINUOUS
 10
-32.605836
 20
-195.050158
 30
0.000000
 11
-31.436120
 21
-178.089274
 31
0.000000
  0
LINE
 62
  0
  6
CONTINUOUS
 10
-3.362934
 20
-178.966562
 30
0.000000
 11
-3.947792
 21
-272.251420
 31
0.000000
  0
LINE
 62
  0
  6
CONTINUOUS
 10
-2.193218
 20
-273.421136
 30
0.000000
 11
27.926972
 21
-273.128707
 31
0.000000
  0
LINE
 62
  0
  6
CONTINUOUS
 10
29.389117
 20
-300.909464
 30
0.000000
 11
29.096688
 21
-276.345426
 31
0.000000
  0
LINE
 62
  0
  6
CONTINUOUS
 10
29.973975
 20
-273.713565
 30
0.000000
 11
59.216877
 21
-167.561830
 31
0.000000
  0
LINE
 62
  0
  6
CONTINUOUS
 10
60.679022
 20
-170.486120
 30
0.000000
 11
86.412776
 21
-250.611672
 31
0.000000
  0
LINE
 62
  0
  6
CONTINUOUS
 10
86.997634
 20
-251.781388
 30
0.000000
 11
86.997634
 21
-269.327129
 31
0.000000
  0
LINE
 62
  0
  6
CONTINUOUS
 10
30.851262
 20
-301.494322
 30
0.000000
 11
83.196057
 21
-271.374132
 31
0.000000
  0
LINE
 62
  0
  6
CONTINUOUS
 10
-13.597950
 20
-250.026814
 30
0.000000
 11
82.026341
 21
-269.327129
 31
0.000000
  0
LINE
 62
  0
  6
CONTINUOUS
 10
24.710252
 20
-160.835962
 30
0.000000
 11
-2.485647
 21
-272.543849
 31
0.000000
  0
LINE
 62
  0
  6
CONTINUOUS
 10
25.587539
 20
-159.958675
 30
0.000000
 11
59.216877
 21
-165.807256
 31
0.000000
  0
LINE
 62
  0
  6
CONTINUOUS
 10
25.002681
 20
-162.298107
 30
0.000000
 11
41.086278
 21
-243.885804
 31
0.000000
  0
LINE
 62
  0
  6
CONTINUOUS
 10
42.840852
 20
-245.055521
 30
0.000000
 11
83.780915
 21
-249.441956
 31
0.000000
  0
LINE
 62
  0
  6
CONTINUOUS
 10
-0.438644
 20
-176.919558
 30
0.000000
 11
41.378707
 21
-143.875079
 31
0.000000
  0
LINE
 62
  0
  6
CONTINUOUS
 10
41.378707
 20
-144.167508
 30
0.000000
 11
38.454416
 21
-227.802208
 31
0.000000
  0
LINE
 62
  0
  6
CONTINUOUS
 10
22.078391
 20
-135.102208
 30
0.000000
 11
40.793849
 21
-141.828076
 31
0.000000
  0
LINE
 62
  0
  6
CONTINUOUS
 10
19.738959
 20
-135.394637
 30
0.000000
 11
19.738959
 21
-156.449527
 31
0.000000
  0
LINE
 62
  0
  6
CONTINUOUS
 10
16.814669
 20
-157.034385
 30
0.000000
 11
-31.436120
 21
-195.635016
 31
0.000000
  0
LINE
 62
  0
  6
CONTINUOUS
 10
-31.436120
 20
-174.872555
 30
0.000000
 11
17.399527
 21
-136.856782
 31
0.000000
  0
LINE
 62
  0
  6
CONTINUOUS
 10
-51.613722
 20
-191.541009
 30
0.000000
 11
-11.550946
 21
-161.128391
 31
0.000000
  0
LINE
 62
  0
  6
CONTINUOUS
 10
-12.135804
 20
-141.828076
 30
0.000000
 11
-11.258517
 21
-160.543533
 31
0.000000
  0
LINE
 62
  0
  6
CONTINUOUS
 10
-51.906151
 20
-169.608833
 30
0.000000
 11
-13.305521
 21
-142.997792
 31
0.000000
  0
LINE
 62
  0
  6
CONTINUOUS
 10
-82.318770
 20
-166.392114
 30
0.000000
 11
-30.558833
 21
-133.055205
 31
0.000000
  0
LINE
 62
  0
  6
CONTINUOUS
 10
-28.804259
 20
-132.762776
 30
0.000000
 11
-13.597950
 21
-140.950789
 31
0.000000
  0
LINE
 62
  0
  6
CONTINUOUS
 10
-30.558833
 20
-133.055205
 30
0.000000
 11
-32.313407
 21
-229.849211
 31
0.000000
  0
LINE
 62
  0
  6
CONTINUOUS
 10
-86.120347
 20
-169.316404
 30
0.000000
 11
-95.478076
 21
-274.005994
 31
0.000000
  0
LINE
 62
  0
  6
CONTINUOUS
 10
-92.846215
 20
-271.958991
 30
0.000000
 11
-34.067981
 21
-232.188644
 31
0.000000
  0
LINE
 62
  0
  6
CONTINUOUS
 10
-94.015931
 20
-274.005994
 30
0.000000
 11
-77.347476
 21
-276.052997
 31
0.000000
  0
LINE
 62
  0
  6
CONTINUOUS
 10
-72.961041
 20
-275.175710
 30
0.000000
 11
-16.522240
 21
-233.650789
 31
0.000000
  0
LINE
 62
  0
  6
CONTINUOUS
 10
-30.266404
 20
-230.434069
 30
0.000000
 11
-14.767666
 21
-231.311356
 31
0.000000
  0
LINE
 62
  0
  6
CONTINUOUS
 10
-14.767666
 20
-233.358360
 30
0.000000
 11
-14.767666
 21
-248.857098
 31
0.000000
  0
LINE
 62
  0
  6
CONTINUOUS
 10
-74.715615
 20
-277.515142
 30
0.000000
 11
-75.592902
 21
-295.060883
 31
0.000000
  0
LINE
 62
  0
  6
CONTINUOUS
 10
-73.838328
 20
-295.060883
 30
0.000000
 11
-16.229811
 21
-249.734385
 31
0.000000
  0
LINE
 62
  0
  6
CONTINUOUS
 10
-73.253470
 20
-296.523028
 30
0.000000
 11
23.540536
 21
-304.711041
 31
0.000000
  0
LINE
 62
  0
  6
CONTINUOUS
 10
-30.805394
 20
-174.886175
 30
0.000000
 11
-2.033056
 21
-178.462398
 31
0.000000
  0
ENDSEC
  0
EOF
