  0
SECTION
  2
ENTITIES
  0
LINE
 62
  0
  6
CONTINUOUS
 10
-83.072555
 20
-192.670032
 30
0.000000
 11
-16.905994
 21
-140.786120
 31
0.000000
  0
LINE
 62
  0
  6
CONTINUOUS
 10
-15.448580
 20
-139.328707
 30
0.000000
 11
-2.331861
 21
-144.283912
 31
0.000000
  0
LINE
 62
  0
  6
CONTINUOUS
 10
-60.045426
 20
-195.293375
 30
0.000000
 11
-2.914826
 21
-146.615773
 31
0.000000
  0
LINE
 62
  0
  6
CONTINUOUS
 10
-2.623344
 20
-147.490221
 30
0.000000
 11
-4.080757
 21
-164.979180
 31
0.000000
  0
LINE
 62
  0
  6
CONTINUOUS
 10
-56.839117
 20
-218.611987
 30
0.000000
 11
-4.955205
 21
-165.562145
 31
0.000000
  0
LINE
 62
  0
  6
CONTINUOUS
 10
-2.914826
 20
-165.562145
 30
0.000000
 11
16.031546
 21
-167.894006
 31
0.000000
  0
LINE
 62
  0
  6
CONTINUOUS
 10
18.071924
 20
-153.028391
 30
0.000000
 11
39.058675
 21
-157.400631
 31
0.000000
  0
LINE
 62
  0
  6
CONTINUOUS
 10
39.058675
 20
-158.275079
 30
0.000000
 11
-13.116719
 21
-205.495268
 31
0.000000
  0
LINE
 62
  0
  6
CONTINUOUS
 10
-35.269401
 20
-201.123028
 30
0.000000
 11
-13.699685
 21
-206.952681
 31
0.000000
  0
LINE
 62
  0
  6
CONTINUOUS
 10
-33.520505
 20
-199.082650
 30
0.000000
 11
14.282650
 21
-156.526183
 31
0.000000
  0
LINE
 62
  0
  6
CONTINUOUS
 10
-36.143849
 20
-202.580442
 30
0.000000
 11
-36.143849
 21
-219.777918
 31
0.000000
  0
LINE
 62
  0
  6
CONTINUOUS
 10
-34.103470
 20
-217.446057
 30
0.000000
 11
13.408202
 21
-169.059937
 31
0.000000
  0
LINE
 62
  0
  6
CONTINUOUS
 10
-56.839117
 20
-219.194953
 30
0.000000
 11
-40.516088
 21
-219.486435
 31
0.000000
  0
LINE
 62
  0
  6
CONTINUOUS
 10
-60.336909
 20
-195.876341
 30
0.000000
 11
-58.296530
 21
-218.320505
 31
0.000000
  0
LINE
 62
  0
  6
CONTINUOUS
 10
-81.906625
 20
-193.252997
 30
0.000000
 11
-61.211356
 21
-195.293375
 31
0.000000
  0
LINE
 62
  0
  6
CONTINUOUS
 10
-83.364038
 20
-193.544479
 30
0.000000
 11
-79.574763
 21
-269.912934
 31
0.000000
  0
LINE
 62
  0
  6
CONTINUOUS
 10
-80.740694
 20
-270.787382
 30
0.000000
 11
-63.543218
 21
-269.912934
 31
0.000000
  0
LINE
 62
  0
  6
CONTINUOUS
 10
-62.668770
 20
-268.747003
 30
0.000000
 11
-19.820820
 21
-228.813880
 31
0.000000
  0
LINE
 62
  0
  6
CONTINUOUS
 10
-77.534385
 20
-267.289590
 30
0.000000
 11
-31.480126
 21
-228.230915
 31
0.000000
  0
LINE
 62
  0
  6
CONTINUOUS
 10
-30.314196
 20
-228.522397
 30
0.000000
 11
-19.529338
 21
-228.522397
 31
0.000000
  0
LINE
 62
  0
  6
CONTINUOUS
 10
-18.071924
 20
-229.105363
 30
0.000000
 11
-18.654890
 21
-251.841009
 31
0.000000
  0
LINE
 62
  0
  6
CONTINUOUS
 10
-22.152681
 20
-252.715457
 30
0.000000
 11
-57.422082
 21
-290.899685
 31
0.000000
  0
LINE
 62
  0
  6
CONTINUOUS
 10
-63.251735
 20
-270.787382
 30
0.000000
 11
-60.628391
 21
-292.357098
 31
0.000000
  0
LINE
 62
  0
  6
CONTINUOUS
 10
-58.588013
 20
-293.814511
 30
0.000000
 11
28.273817
 21
-290.899685
 31
0.000000
  0
LINE
 62
  0
  6
CONTINUOUS
 10
27.690852
 20
-264.374763
 30
0.000000
 11
28.273817
 21
-290.899685
 31
0.000000
  0
LINE
 62
  0
  6
CONTINUOUS
 10
32.646057
 20
-286.235962
 30
0.000000
 11
72.870662
 21
-242.805047
 31
0.000000
  0
LINE
 62
  0
  6
CONTINUOUS
 10
77.825868
 20
-239.015773
 30
0.000000
 11
-17.780442
 21
-251.549527
 31
0.000000
  0
LINE
 62
  0
  6
CONTINUOUS
 10
-13.699685
 20
-207.535647
 30
0.000000
 11
-10.201893
 21
-264.957729
 31
0.000000
  0
LINE
 62
  0
  6
CONTINUOUS
 10
-9.618927
 20
-263.208833
 30
0.000000
 11
23.318612
 21
-176.347003
 31
0.000000
  0
LINE
 62
  0
  6
CONTINUOUS
 10
23.901577
 20
-173.723659
 30
0.000000
 11
45.179811
 21
-179.553312
 31
0.000000
  0
LINE
 62
  0
  6
CONTINUOUS
 10
45.471293
 20
-181.302208
 30
0.000000
 11
24.193060
 21
-269.621451
 31
0.000000
  0
LINE
 62
  0
  6
CONTINUOUS
 10
23.901577
 20
-177.512934
 30
0.000000
 11
46.345741
 21
-218.320505
 31
0.000000
  0
LINE
 62
  0
  6
CONTINUOUS
 10
41.099054
 20
-158.275079
 30
0.000000
 11
45.179811
 21
-213.073817
 31
0.000000
  0
LINE
 62
  0
  6
CONTINUOUS
 10
49.260568
 20
-219.194953
 30
0.000000
 11
73.453628
 21
-217.446057
 31
0.000000
  0
LINE
 62
  0
  6
CONTINUOUS
 10
46.637224
 20
-181.010726
 30
0.000000
 11
78.991798
 21
-216.863091
 31
0.000000
  0
LINE
 62
  0
  6
CONTINUOUS
 10
78.991798
 20
-218.029022
 30
0.000000
 11
77.534385
 21
-239.307256
 31
0.000000
  0
LINE
 62
  0
  6
CONTINUOUS
 10
-7.870032
 20
-265.832177
 30
0.000000
 11
25.358991
 21
-264.957729
 31
0.000000
  0
LINE
 62
  0
  6
CONTINUOUS
 10
-30.422843
 20
-226.387938
 30
0.000000
 11
-15.590398
 21
-141.996443
 31
0.000000
  0
LINE
 62
  0
  6
CONTINUOUS
 10
15.921634
 20
-154.181396
 30
0.000000
 11
14.094755
 21
-169.161808
 31
0.000000
  0
ENDSEC
  0
EOF
