  0
SECTION
  2
ENTITIES
  0
LINE
 62
  0
  6
CONTINUOUS
 10
-59.269401
 20
-203.084858
 30
0.000000
 11
-36.607571
 21
-200.470032
 31
0.000000
  0
LINE
 62
  0
  6
CONTINUOUS
 10
-35.735962
 20
-203.375394
 30
0.000000
 11
-34.864353
 21
-186.524290
 31
0.000000
  0
LINE
 62
  0
  6
CONTINUOUS
 10
-33.992744
 20
-185.652681
 30
0.000000
 11
-15.398423
 21
-184.490536
 31
0.000000
  0
LINE
 62
  0
  6
CONTINUOUS
 10
-10.459306
 20
-185.362145
 30
0.000000
 11
-9.006625
 21
-276.590536
 31
0.000000
  0
LINE
 62
  0
  6
CONTINUOUS
 10
-9.878233
 20
-274.266246
 30
0.000000
 11
21.790221
 21
-271.360883
 31
0.000000
  0
LINE
 62
  0
  6
CONTINUOUS
 10
24.986120
 20
-290.245741
 30
0.000000
 11
23.823975
 21
-272.523028
 31
0.000000
  0
LINE
 62
  0
  6
CONTINUOUS
 10
25.567192
 20
-289.664669
 30
0.000000
 11
-52.587066
 21
-286.468770
 31
0.000000
  0
LINE
 62
  0
  6
CONTINUOUS
 10
-53.749211
 20
-262.063722
 30
0.000000
 11
-53.168139
 21
-286.759306
 31
0.000000
  0
LINE
 62
  0
  6
CONTINUOUS
 10
-48.229022
 20
-261.192114
 30
0.000000
 11
-81.640694
 21
-263.225868
 31
0.000000
  0
LINE
 62
  0
  6
CONTINUOUS
 10
-83.964984
 20
-182.747319
 30
0.000000
 11
-82.802839
 21
-262.935331
 31
0.000000
  0
LINE
 62
  0
  6
CONTINUOUS
 10
-82.221767
 20
-181.004101
 30
0.000000
 11
-45.614196
 21
-141.491167
 31
0.000000
  0
LINE
 62
  0
  6
CONTINUOUS
 10
-29.634700
 20
-145.849211
 30
0.000000
 11
-30.506309
 21
-169.092114
 31
0.000000
  0
LINE
 62
  0
  6
CONTINUOUS
 10
-59.269401
 20
-181.585174
 30
0.000000
 11
-29.634700
 21
-147.011356
 31
0.000000
  0
LINE
 62
  0
  6
CONTINUOUS
 10
-33.992744
 20
-183.328391
 30
0.000000
 11
-5.229653
 21
-150.497792
 31
0.000000
  0
LINE
 62
  0
  6
CONTINUOUS
 10
-4.067508
 20
-148.754574
 30
0.000000
 11
15.398423
 21
-149.626183
 31
0.000000
  0
LINE
 62
  0
  6
CONTINUOUS
 10
-9.006625
 20
-182.456782
 30
0.000000
 11
15.398423
 21
-151.659937
 31
0.000000
  0
LINE
 62
  0
  6
CONTINUOUS
 10
18.303785
 20
-151.659937
 30
0.000000
 11
25.857729
 21
-224.875079
 31
0.000000
  0
LINE
 62
  0
  6
CONTINUOUS
 10
-7.553943
 20
-272.813565
 30
0.000000
 11
8.425552
 21
-176.064984
 31
0.000000
  0
LINE
 62
  0
  6
CONTINUOUS
 10
10.168770
 20
-176.064984
 30
0.000000
 11
40.384543
 21
-176.064984
 31
0.000000
  0
LINE
 62
  0
  6
CONTINUOUS
 10
22.080757
 20
-275.137855
 30
0.000000
 11
41.546688
 21
-177.517666
 31
0.000000
  0
LINE
 62
  0
  6
CONTINUOUS
 10
42.708833
 20
-177.227129
 30
0.000000
 11
59.850473
 21
-245.793691
 31
0.000000
  0
LINE
 62
  0
  6
CONTINUOUS
 10
-51.134385
 20
-284.144479
 30
0.000000
 11
-26.438801
 21
-257.415142
 31
0.000000
  0
LINE
 62
  0
  6
CONTINUOUS
 10
-26.438801
 20
-233.300631
 30
0.000000
 11
-25.567192
 21
-255.962461
 31
0.000000
  0
LINE
 62
  0
  6
CONTINUOUS
 10
-51.134385
 20
-259.158360
 30
0.000000
 11
-27.891483
 21
-233.881703
 31
0.000000
  0
LINE
 62
  0
  6
CONTINUOUS
 10
-78.735331
 20
-261.773186
 30
0.000000
 11
-49.681703
 21
-233.300631
 31
0.000000
  0
LINE
 62
  0
  6
CONTINUOUS
 10
-47.066877
 20
-232.138486
 30
0.000000
 11
-29.053628
 21
-233.010095
 31
0.000000
  0
LINE
 62
  0
  6
CONTINUOUS
 10
28.763091
 20
-289.664669
 30
0.000000
 11
59.269401
 21
-263.516404
 31
0.000000
  0
LINE
 62
  0
  6
CONTINUOUS
 10
60.431546
 20
-246.374763
 30
0.000000
 11
59.850473
 21
-263.806940
 31
0.000000
  0
LINE
 62
  0
  6
CONTINUOUS
 10
-82.953970
 20
-182.002909
 30
0.000000
 11
-59.046472
 21
-182.359737
 31
0.000000
  0
LINE
 62
  0
  6
CONTINUOUS
 10
-58.332816
 20
-204.126265
 30
0.000000
 11
-60.116957
 21
-180.932424
 31
0.000000
  0
LINE
 62
  0
  6
CONTINUOUS
 10
-46.914309
 20
-140.610823
 30
0.000000
 11
-27.288751
 21
-147.033733
 31
0.000000
  0
LINE
 62
  0
  6
CONTINUOUS
 10
-55.121361
 20
-199.487497
 30
0.000000
 11
-29.429721
 21
-168.086604
 31
0.000000
  0
LINE
 62
  0
  6
CONTINUOUS
 10
8.037253
 20
-175.579999
 30
0.000000
 11
27.305983
 21
-225.179137
 31
0.000000
  0
ENDSEC
  0
EOF
