  0
SECTION
  2
ENTITIES
  0
LINE
 62
  0
  6
CONTINUOUS
 10
-93.473186
 20
-199.985489
 30
0.000000
 11
-57.654890
 21
-166.052366
 31
0.000000
  0
LINE
 62
  0
  6
CONTINUOUS
 10
-55.455521
 20
-166.994953
 30
0.000000
 11
-22.464984
 21
-165.423975
 31
0.000000
  0
LINE
 62
  0
  6
CONTINUOUS
 10
-25.292744
 20
-163.538801
 30
0.000000
 11
-25.292744
 21
-190.245426
 31
0.000000
  0
LINE
 62
  0
  6
CONTINUOUS
 10
-25.292744
 20
-191.816404
 30
0.000000
 11
-58.597476
 21
-228.577287
 31
0.000000
  0
LINE
 62
  0
  6
CONTINUOUS
 10
-62.053628
 20
-206.583596
 30
0.000000
 11
-62.053628
 21
-232.976025
 31
0.000000
  0
LINE
 62
  0
  6
CONTINUOUS
 10
-93.158991
 20
-201.556467
 30
0.000000
 11
-62.996215
 21
-205.012618
 31
0.000000
  0
LINE
 62
  0
  6
CONTINUOUS
 10
-60.796845
 20
-203.127445
 30
0.000000
 11
-29.377287
 21
-167.309148
 31
0.000000
  0
LINE
 62
  0
  6
CONTINUOUS
 10
-51.370978
 20
-168.251735
 30
0.000000
 11
-50.742587
 21
-234.861199
 31
0.000000
  0
LINE
 62
  0
  6
CONTINUOUS
 10
-59.540063
 20
-228.891483
 30
0.000000
 11
-25.606940
 21
-227.948896
 31
0.000000
  0
LINE
 62
  0
  6
CONTINUOUS
 10
-30.634069
 20
-203.755836
 30
0.000000
 11
-30.319874
 21
-228.577287
 31
0.000000
  0
LINE
 62
  0
  6
CONTINUOUS
 10
-29.063091
 20
-204.070032
 30
0.000000
 11
-0.157098
 21
-203.127445
 31
0.000000
  0
LINE
 62
  0
  6
CONTINUOUS
 10
2.042271
 20
-201.556467
 30
0.000000
 11
27.806309
 21
-166.680757
 31
0.000000
  0
LINE
 62
  0
  6
CONTINUOUS
 10
1.413880
 20
-163.852997
 30
0.000000
 11
-30.948265
 21
-202.499054
 31
0.000000
  0
LINE
 62
  0
  6
CONTINUOUS
 10
2.356467
 20
-163.538801
 30
0.000000
 11
30.319874
 21
-165.423975
 31
0.000000
  0
LINE
 62
  0
  6
CONTINUOUS
 10
30.948265
 20
-166.680757
 30
0.000000
 11
34.404416
 21
-241.145110
 31
0.000000
  0
LINE
 62
  0
  6
CONTINUOUS
 10
15.238486
 20
-184.904101
 30
0.000000
 11
54.827129
 21
-184.589905
 31
0.000000
  0
LINE
 62
  0
  6
CONTINUOUS
 10
15.866877
 20
-185.532492
 30
0.000000
 11
33.461830
 21
-241.773502
 31
0.000000
  0
LINE
 62
  0
  6
CONTINUOUS
 10
37.232177
 20
-241.773502
 30
0.000000
 11
82.790536
 21
-240.830915
 31
0.000000
  0
LINE
 62
  0
  6
CONTINUOUS
 10
55.769716
 20
-186.789274
 30
0.000000
 11
85.304101
 21
-239.888328
 31
0.000000
  0
LINE
 62
  0
  6
CONTINUOUS
 10
55.455521
 20
-186.160883
 30
0.000000
 11
50.428391
 21
-295.815142
 31
0.000000
  0
LINE
 62
  0
  6
CONTINUOUS
 10
2.670662
 20
-294.872555
 30
0.000000
 11
48.229022
 21
-296.129338
 31
0.000000
  0
LINE
 62
  0
  6
CONTINUOUS
 10
-0.785489
 20
-296.757729
 30
0.000000
 11
14.610095
 21
-185.532492
 31
0.000000
  0
LINE
 62
  0
  6
CONTINUOUS
 10
-0.157098
 20
-298.014511
 30
0.000000
 11
2.356467
 21
-202.813249
 31
0.000000
  0
LINE
 62
  0
  6
CONTINUOUS
 10
-65.509779
 20
-323.464353
 30
0.000000
 11
43.516088
 21
-321.893375
 31
0.000000
  0
LINE
 62
  0
  6
CONTINUOUS
 10
49.485804
 20
-295.815142
 30
0.000000
 11
49.485804
 21
-315.609464
 31
0.000000
  0
LINE
 62
  0
  6
CONTINUOUS
 10
50.742587
 20
-319.065615
 30
0.000000
 11
86.560883
 21
-259.054259
 31
0.000000
  0
LINE
 62
  0
  6
CONTINUOUS
 10
85.304101
 20
-241.459306
 30
0.000000
 11
85.618297
 21
-260.939432
 31
0.000000
  0
LINE
 62
  0
  6
CONTINUOUS
 10
87.817666
 20
-258.740063
 30
0.000000
 11
-15.238486
 21
-259.682650
 31
0.000000
  0
LINE
 62
  0
  6
CONTINUOUS
 10
-18.694637
 20
-238.945741
 30
0.000000
 11
-18.066246
 21
-259.682650
 31
0.000000
  0
LINE
 62
  0
  6
CONTINUOUS
 10
-18.066246
 20
-261.253628
 30
0.000000
 11
-65.195584
 21
-321.893375
 31
0.000000
  0
LINE
 62
  0
  6
CONTINUOUS
 10
-68.337539
 20
-295.186751
 30
0.000000
 11
-68.651735
 21
-320.950789
 31
0.000000
  0
LINE
 62
  0
  6
CONTINUOUS
 10
-92.216404
 20
-296.757729
 30
0.000000
 11
-68.023344
 21
-295.186751
 31
0.000000
  0
LINE
 62
  0
  6
CONTINUOUS
 10
-68.337539
 20
-292.044795
 30
0.000000
 11
-19.951420
 21
-236.432177
 31
0.000000
  0
LINE
 62
  0
  6
CONTINUOUS
 10
-16.181073
 20
-235.175394
 30
0.000000
 11
-47.286435
 21
-237.060568
 31
0.000000
  0
LINE
 62
  0
  6
CONTINUOUS
 10
-90.645426
 20
-289.845426
 30
0.000000
 11
-48.857413
 21
-238.945741
 31
0.000000
  0
LINE
 62
  0
  6
CONTINUOUS
 10
-91.902208
 20
-204.384227
 30
0.000000
 11
-93.158991
 21
-295.186751
 31
0.000000
  0
LINE
 62
  0
  6
CONTINUOUS
 10
-28.120505
 20
-224.806940
 30
0.000000
 11
1.728076
 21
-188.360252
 31
0.000000
  0
LINE
 62
  0
  6
CONTINUOUS
 10
2.984858
 20
-165.423975
 30
0.000000
 11
4.241640
 21
-183.961514
 31
0.000000
  0
ENDSEC
  0
EOF
