  0
SECTION
  2
ENTITIES
  0
LINE
 62
  0
  6
CONTINUOUS
 10
-69.842271
 20
157.067508
 30
0.000000
 11
-31.972240
 21
148.996845
 31
0.000000
  0
LINE
 62
  0
  6
CONTINUOUS
 10
-73.567192
 20
142.788644
 30
0.000000
 11
-76.050473
 21
-7.449842
 31
0.000000
  0
LINE
 62
  0
  6
CONTINUOUS
 10
-147.444795
 20
-67.669401
 30
0.000000
 11
-79.154574
 21
-12.416404
 31
0.000000
  0
LINE
 62
  0
  6
CONTINUOUS
 10
-64.875710
 20
-9.312303
 30
0.000000
 11
-30.109779
 21
-15.520505
 31
0.000000
  0
LINE
 62
  0
  6
CONTINUOUS
 10
-29.488959
 20
-18.003785
 30
0.000000
 11
-96.537539
 21
-68.290221
 31
0.000000
  0
LINE
 62
  0
  6
CONTINUOUS
 10
-151.790536
 20
-68.290221
 30
0.000000
 11
-103.366562
 21
-69.531861
 31
0.000000
  0
LINE
 62
  0
  6
CONTINUOUS
 10
-103.366562
 20
-72.015142
 30
0.000000
 11
-100.883281
 21
-128.509779
 31
0.000000
  0
LINE
 62
  0
  6
CONTINUOUS
 10
-97.158360
 20
-126.026498
 30
0.000000
 11
-32.593060
 21
-76.360883
 31
0.000000
  0
LINE
 62
  0
  6
CONTINUOUS
 10
-28.247319
 20
-21.728707
 30
0.000000
 11
-31.972240
 21
-72.635962
 31
0.000000
  0
LINE
 62
  0
  6
CONTINUOUS
 10
-143.719874
 20
89.398107
 30
0.000000
 11
-98.400000
 21
85.673186
 31
0.000000
  0
LINE
 62
  0
  6
CONTINUOUS
 10
-95.916719
 20
85.673186
 30
0.000000
 11
-31.351420
 21
148.376025
 31
0.000000
  0
LINE
 62
  0
  6
CONTINUOUS
 10
-30.730599
 20
149.617666
 30
0.000000
 11
-32.593060
 21
116.093375
 31
0.000000
  0
LINE
 62
  0
  6
CONTINUOUS
 10
-103.366562
 20
49.044795
 30
0.000000
 11
-39.422082
 21
112.989274
 31
0.000000
  0
LINE
 62
  0
  6
CONTINUOUS
 10
-98.400000
 20
80.085804
 30
0.000000
 11
-102.124921
 21
52.769716
 31
0.000000
  0
LINE
 62
  0
  6
CONTINUOUS
 10
-100.883281
 20
49.665615
 30
0.000000
 11
-56.805047
 21
46.561514
 31
0.000000
  0
LINE
 62
  0
  6
CONTINUOUS
 10
-54.942587
 20
75.119243
 30
0.000000
 11
-55.563407
 21
49.665615
 31
0.000000
  0
LINE
 62
  0
  6
CONTINUOUS
 10
-53.080126
 20
73.877603
 30
0.000000
 11
-5.897792
 21
72.015142
 31
0.000000
  0
LINE
 62
  0
  6
CONTINUOUS
 10
-2.793691
 20
75.740063
 30
0.000000
 11
53.080126
 21
141.547003
 31
0.000000
  0
LINE
 62
  0
  6
CONTINUOUS
 10
53.080126
 20
138.442902
 30
0.000000
 11
47.492744
 21
-34.765931
 31
0.000000
  0
LINE
 62
  0
  6
CONTINUOUS
 10
26.384858
 20
109.885174
 30
0.000000
 11
125.716088
 21
108.022713
 31
0.000000
  0
LINE
 62
  0
  6
CONTINUOUS
 10
121.991167
 20
104.297792
 30
0.000000
 11
79.154574
 21
-86.294006
 31
0.000000
  0
LINE
 62
  0
  6
CONTINUOUS
 10
78.533754
 20
-87.535647
 30
0.000000
 11
77.292114
 21
-145.892744
 31
0.000000
  0
LINE
 62
  0
  6
CONTINUOUS
 10
-9.622713
 20
-86.914826
 30
0.000000
 11
78.533754
 21
-92.502208
 31
0.000000
  0
LINE
 62
  0
  6
CONTINUOUS
 10
-3.414511
 20
72.635962
 30
0.000000
 11
-10.864353
 21
-90.639748
 31
0.000000
  0
LINE
 62
  0
  6
CONTINUOUS
 10
27.005678
 20
108.643533
 30
0.000000
 11
-4.656151
 21
-78.844164
 31
0.000000
  0
LINE
 62
  0
  6
CONTINUOUS
 10
25.764038
 20
108.022713
 30
0.000000
 11
47.492744
 21
-37.249211
 31
0.000000
  0
LINE
 62
  0
  6
CONTINUOUS
 10
47.492744
 20
-36.628391
 30
0.000000
 11
154.273817
 21
-35.386751
 31
0.000000
  0
LINE
 62
  0
  6
CONTINUOUS
 10
122.611987
 20
82.569085
 30
0.000000
 11
155.515457
 21
-29.799369
 31
0.000000
  0
LINE
 62
  0
  6
CONTINUOUS
 10
154.894637
 20
-37.870032
 30
0.000000
 11
154.273817
 21
-101.814511
 31
0.000000
  0
LINE
 62
  0
  6
CONTINUOUS
 10
85.362776
 20
-148.996845
 30
0.000000
 11
151.790536
 21
-104.918612
 31
0.000000
  0
LINE
 62
  0
  6
CONTINUOUS
 10
-27.626498
 20
-75.119243
 30
0.000000
 11
150.548896
 21
-99.331230
 31
0.000000
  0
LINE
 62
  0
  6
CONTINUOUS
 10
-94.054259
 20
-126.026498
 30
0.000000
 11
80.396215
 21
-151.480126
 31
0.000000
  0
LINE
 62
  0
  6
CONTINUOUS
 10
-145.582334
 20
87.535647
 30
0.000000
 11
-149.928076
 21
-67.048580
 31
0.000000
  0
LINE
 62
  0
  6
CONTINUOUS
 10
-143.719874
 20
93.123028
 30
0.000000
 11
-72.325552
 21
155.205047
 31
0.000000
  0
LINE
 62
  0
  6
CONTINUOUS
 10
-49.976025
 20
76.981703
 30
0.000000
 11
13.347634
 21
146.513565
 31
0.000000
  0
LINE
 62
  0
  6
CONTINUOUS
 10
17.072555
 20
148.996845
 30
0.000000
 11
49.976025
 21
144.651104
 31
0.000000
  0
LINE
 62
  0
  6
CONTINUOUS
 10
15.830915
 20
146.513565
 30
0.000000
 11
13.968454
 21
114.230915
 31
0.000000
  0
LINE
 62
  0
  6
CONTINUOUS
 10
-51.217666
 20
47.803155
 30
0.000000
 11
10.243533
 21
115.472555
 31
0.000000
  0
LINE
 62
  0
  6
CONTINUOUS
 10
-30.730599
 20
114.851735
 30
0.000000
 11
4.656151
 21
114.851735
 31
0.000000
  0
ENDSEC
  0
EOF
