  0
SECTION
  2
ENTITIES
  0
LINE
 62
  0
  6
CONTINUOUS
 10
550.000834
 20
488.710380
 30
0.000000
 11
550.048444
 21
488.061371
 31
0.000000
  0
LINE
 62
  0
  6
CONTINUOUS
 10
550.042554
 20
488.060390
 30
0.000000
 11
550.268346
 21
488.322241
 31
0.000000
  0
LINE
 62
  0
  6
CONTINUOUS
 10
550.284053
 20
488.321260
 30
0.000000
 11
550.395968
 21
488.323222
 31
0.000000
  0
LINE
 62
  0
  6
CONTINUOUS
 10
550.016102
 20
488.724703
 30
0.000000
 11
550.105641
 21
488.665726
 31
0.000000
  0
LINE
 62
  0
  6
CONTINUOUS
 10
550.009214
 20
488.731584
 30
0.000000
 11
550.271545
 21
489.009787
 31
0.000000
  0
LINE
 62
  0
  6
CONTINUOUS
 10
550.264985
 20
489.009030
 30
0.000000
 11
550.278200
 21
488.326421
 31
0.000000
  0
LINE
 62
  0
  6
CONTINUOUS
 10
550.132901
 20
488.463476
 30
0.000000
 11
550.262610
 21
488.399932
 31
0.000000
  0
LINE
 62
  0
  6
CONTINUOUS
 10
550.131030
 20
488.469705
 30
0.000000
 11
550.384795
 21
488.761533
 31
0.000000
  0
LINE
 62
  0
  6
CONTINUOUS
 10
550.255671
 20
488.608716
 30
0.000000
 11
550.499949
 21
488.913863
 31
0.000000
  0
LINE
 62
  0
  6
CONTINUOUS
 10
550.504188
 20
488.908632
 30
0.000000
 11
550.576247
 21
488.864543
 31
0.000000
  0
LINE
 62
  0
  6
CONTINUOUS
 10
550.372281
 20
488.953751
 30
0.000000
 11
550.376747
 21
488.768274
 31
0.000000
  0
LINE
 62
  0
  6
CONTINUOUS
 10
550.110354
 20
488.664617
 30
0.000000
 11
550.374795
 21
488.961788
 31
0.000000
  0
LINE
 62
  0
  6
CONTINUOUS
 10
550.264313
 20
489.015257
 30
0.000000
 11
550.377565
 21
488.960333
 31
0.000000
  0
LINE
 62
  0
  6
CONTINUOUS
 10
550.117566
 20
488.658606
 30
0.000000
 11
550.131391
 21
488.466575
 31
0.000000
  0
LINE
 62
  0
  6
CONTINUOUS
 10
550.260062
 20
488.611310
 30
0.000000
 11
550.347955
 21
488.570112
 31
0.000000
  0
LINE
 62
  0
  6
CONTINUOUS
 10
550.245899
 20
488.616303
 30
0.000000
 11
550.262395
 21
488.393143
 31
0.000000
  0
LINE
 62
  0
  6
CONTINUOUS
 10
550.349863
 20
488.571023
 30
0.000000
 11
550.574313
 21
488.851425
 31
0.000000
  0
LINE
 62
  0
  6
CONTINUOUS
 10
550.579329
 20
488.856963
 30
0.000000
 11
550.593364
 21
488.348665
 31
0.000000
  0
LINE
 62
  0
  6
CONTINUOUS
 10
550.477455
 20
488.724647
 30
0.000000
 11
550.683553
 21
488.629917
 31
0.000000
  0
LINE
 62
  0
  6
CONTINUOUS
 10
550.389552
 20
488.767726
 30
0.000000
 11
550.513705
 21
488.700113
 31
0.000000
  0
LINE
 62
  0
  6
CONTINUOUS
 10
550.508963
 20
488.666522
 30
0.000000
 11
550.496091
 21
488.895412
 31
0.000000
  0
LINE
 62
  0
  6
CONTINUOUS
 10
550.349676
 20
488.569042
 30
0.000000
 11
550.363516
 21
488.070303
 31
0.000000
  0
LINE
 62
  0
  6
CONTINUOUS
 10
550.360462
 20
488.071135
 30
0.000000
 11
550.592102
 21
487.991341
 31
0.000000
  0
LINE
 62
  0
  6
CONTINUOUS
 10
550.594296
 20
487.986690
 30
0.000000
 11
550.681119
 21
488.625325
 31
0.000000
  0
LINE
 62
  0
  6
CONTINUOUS
 10
550.677459
 20
488.627610
 30
0.000000
 11
550.780664
 21
488.258545
 31
0.000000
  0
LINE
 62
  0
  6
CONTINUOUS
 10
550.372913
 20
488.076768
 30
0.000000
 11
550.477068
 21
488.723274
 31
0.000000
  0
LINE
 62
  0
  6
CONTINUOUS
 10
550.477987
 20
488.722907
 30
0.000000
 11
550.608780
 21
488.320456
 31
0.000000
  0
LINE
 62
  0
  6
CONTINUOUS
 10
550.616179
 20
488.318714
 30
0.000000
 11
550.771891
 21
488.266950
 31
0.000000
  0
LINE
 62
  0
  6
CONTINUOUS
 10
550.774744
 20
488.266000
 30
0.000000
 11
550.810170
 21
487.993942
 31
0.000000
  0
LINE
 62
  0
  6
CONTINUOUS
 10
550.828684
 20
488.040835
 30
0.000000
 11
550.602042
 21
487.742535
 31
0.000000
  0
LINE
 62
  0
  6
CONTINUOUS
 10
550.610296
 20
487.730895
 30
0.000000
 11
550.589274
 21
487.979891
 31
0.000000
  0
LINE
 62
  0
  6
CONTINUOUS
 10
550.186950
 20
487.935749
 30
0.000000
 11
550.413291
 21
488.181640
 31
0.000000
  0
LINE
 62
  0
  6
CONTINUOUS
 10
550.165705
 20
488.073094
 30
0.000000
 11
550.375758
 21
488.317696
 31
0.000000
  0
LINE
 62
  0
  6
CONTINUOUS
 10
550.057543
 20
488.057347
 30
0.000000
 11
550.159587
 21
488.066614
 31
0.000000
  0
LINE
 62
  0
  6
CONTINUOUS
 10
550.164706
 20
488.056069
 30
0.000000
 11
550.173435
 21
487.923641
 31
0.000000
  0
LINE
 62
  0
  6
CONTINUOUS
 10
550.184915
 20
487.913217
 30
0.000000
 11
550.598947
 21
487.745074
 31
0.000000
  0
LINE
 62
  0
  6
CONTINUOUS
 10
550.412631
 20
488.186409
 30
0.000000
 11
550.816029
 21
488.026875
 31
0.000000
  0
LINE
 62
  0
  6
CONTINUOUS
 10
550.388807
 20
488.321047
 30
0.000000
 11
550.415311
 21
488.174499
 31
0.000000
  0
LINE
 62
  0
  6
CONTINUOUS
 10
550.508852
 20
488.682741
 30
0.000000
 11
550.253172
 21
488.394321
 31
0.000000
  0
ENDSEC
  0
EOF
