  0
SECTION
  2
ENTITIES
  0
LINE
 62
  0
  6
CONTINUOUS
 10
-109.468770
 20
-187.722397
 30
0.000000
 11
-73.506625
 21
-148.883281
 31
0.000000
  0
LINE
 62
  0
  6
CONTINUOUS
 10
-75.232808
 20
-146.294006
 30
0.000000
 11
-48.476972
 21
-149.746372
 31
0.000000
  0
LINE
 62
  0
  6
CONTINUOUS
 10
-85.589905
 20
-193.188644
 30
0.000000
 11
-44.161514
 21
-148.020189
 31
0.000000
  0
LINE
 62
  0
  6
CONTINUOUS
 10
-46.175394
 20
-152.911041
 30
0.000000
 11
-47.613880
 21
-173.049842
 31
0.000000
  0
LINE
 62
  0
  6
CONTINUOUS
 10
-83.000631
 20
-217.067508
 30
0.000000
 11
-46.750789
 21
-174.488328
 31
0.000000
  0
LINE
 62
  0
  6
CONTINUOUS
 10
-45.312303
 20
-172.474448
 30
0.000000
 11
-21.433438
 21
-173.912934
 31
0.000000
  0
LINE
 62
  0
  6
CONTINUOUS
 10
-56.820189
 20
-223.684543
 30
0.000000
 11
-21.721136
 21
-177.077603
 31
0.000000
  0
LINE
 62
  0
  6
CONTINUOUS
 10
-21.145741
 20
-174.488328
 30
0.000000
 11
-17.981073
 21
-158.377287
 31
0.000000
  0
LINE
 62
  0
  6
CONTINUOUS
 10
-16.542587
 20
-157.514196
 30
0.000000
 11
4.459306
 21
-160.391167
 31
0.000000
  0
LINE
 62
  0
  6
CONTINUOUS
 10
-53.367823
 20
-200.381073
 30
0.000000
 11
-19.419558
 21
-159.240379
 31
0.000000
  0
LINE
 62
  0
  6
CONTINUOUS
 10
-84.439117
 20
-195.490221
 30
0.000000
 11
-84.726814
 21
-216.779811
 31
0.000000
  0
LINE
 62
  0
  6
CONTINUOUS
 10
-83.576025
 20
-218.505994
 30
0.000000
 11
-56.820189
 21
-222.533754
 31
0.000000
  0
LINE
 62
  0
  6
CONTINUOUS
 10
-110.044164
 20
-190.599369
 30
0.000000
 11
-86.165300
 21
-193.188644
 31
0.000000
  0
LINE
 62
  0
  6
CONTINUOUS
 10
-111.770347
 20
-191.462461
 30
0.000000
 11
-114.935016
 21
-269.716088
 31
0.000000
  0
LINE
 62
  0
  6
CONTINUOUS
 10
-112.921136
 20
-267.702208
 30
0.000000
 11
-79.835962
 21
-239.220189
 31
0.000000
  0
LINE
 62
  0
  6
CONTINUOUS
 10
-70.917350
 20
-148.595584
 30
0.000000
 11
-73.506625
 21
-233.466246
 31
0.000000
  0
LINE
 62
  0
  6
CONTINUOUS
 10
-117.524290
 20
-272.017666
 30
0.000000
 11
-96.810095
 21
-272.880757
 31
0.000000
  0
LINE
 62
  0
  6
CONTINUOUS
 10
-95.659306
 20
-274.319243
 30
0.000000
 11
-97.673186
 21
-293.594953
 31
0.000000
  0
LINE
 62
  0
  6
CONTINUOUS
 10
-92.206940
 20
-272.017666
 30
0.000000
 11
-59.697161
 21
-244.398738
 31
0.000000
  0
LINE
 62
  0
  6
CONTINUOUS
 10
-56.820189
 20
-260.797476
 30
0.000000
 11
33.804416
 21
-255.906625
 31
0.000000
  0
LINE
 62
  0
  6
CONTINUOUS
 10
-95.947003
 20
-293.019558
 30
0.000000
 11
-6.473186
 21
-288.704101
 31
0.000000
  0
LINE
 62
  0
  6
CONTINUOUS
 10
-7.336278
 20
-268.565300
 30
0.000000
 11
-6.473186
 21
-288.128707
 31
0.000000
  0
LINE
 62
  0
  6
CONTINUOUS
 10
-1.870032
 20
-288.416404
 30
0.000000
 11
37.256782
 21
-257.920505
 31
0.000000
  0
LINE
 62
  0
  6
CONTINUOUS
 10
-38.982965
 20
-270.291483
 30
0.000000
 11
-9.350158
 21
-268.852997
 31
0.000000
  0
LINE
 62
  0
  6
CONTINUOUS
 10
-44.449211
 20
-270.291483
 30
0.000000
 11
-5.322397
 21
-179.954574
 31
0.000000
  0
LINE
 62
  0
  6
CONTINUOUS
 10
-8.199369
 20
-179.666877
 30
0.000000
 11
28.625868
 21
-180.242271
 31
0.000000
  0
LINE
 62
  0
  6
CONTINUOUS
 10
-7.336278
 20
-267.126814
 30
0.000000
 11
26.611987
 21
-181.968454
 31
0.000000
  0
LINE
 62
  0
  6
CONTINUOUS
 10
-5.610095
 20
-183.119243
 30
0.000000
 11
10.500946
 21
-223.972240
 31
0.000000
  0
LINE
 62
  0
  6
CONTINUOUS
 10
11.364038
 20
-224.547634
 30
0.000000
 11
37.832177
 21
-223.109148
 31
0.000000
  0
LINE
 62
  0
  6
CONTINUOUS
 10
4.459306
 20
-161.829653
 30
0.000000
 11
7.911672
 21
-222.533754
 31
0.000000
  0
LINE
 62
  0
  6
CONTINUOUS
 10
-30.639748
 20
-204.121136
 30
0.000000
 11
3.308517
 21
-162.692744
 31
0.000000
  0
LINE
 62
  0
  6
CONTINUOUS
 10
-33.229022
 20
-206.998107
 30
0.000000
 11
-42.147634
 21
-262.523659
 31
0.000000
  0
LINE
 62
  0
  6
CONTINUOUS
 10
37.682167
 20
-221.303102
 30
0.000000
 11
34.576744
 21
-258.180001
 31
0.000000
  0
LINE
 62
  0
  6
CONTINUOUS
 10
28.365898
 20
-185.978915
 30
0.000000
 11
38.070345
 21
-225.184881
 31
0.000000
  0
LINE
 62
  0
  6
CONTINUOUS
 10
-93.133780
 20
-290.786943
 30
0.000000
 11
-58.197770
 21
-260.120890
 31
0.000000
  0
LINE
 62
  0
  6
CONTINUOUS
 10
-54.315991
 20
-203.058742
 30
0.000000
 11
-56.256881
 21
-223.632169
 31
0.000000
  0
LINE
 62
  0
  6
CONTINUOUS
 10
-76.830309
 20
-235.665684
 30
0.000000
 11
-57.033237
 21
-242.652886
 31
0.000000
  0
LINE
 62
  0
  6
CONTINUOUS
 10
-58.197770
 20
-241.100174
 30
0.000000
 11
-58.197770
 21
-263.614491
 31
0.000000
  0
LINE
 62
  0
  6
CONTINUOUS
 10
-55.868703
 20
-201.506030
 30
0.000000
 11
-29.472607
 21
-205.775987
 31
0.000000
  0
ENDSEC
  0
EOF
