  0
SECTION
  2
ENTITIES
  0
LINE
 62
  0
  6
CONTINUOUS
 10
-103.476341
 20
-173.140694
 30
0.000000
 11
-74.911041
 21
-148.656151
 31
0.000000
  0
LINE
 62
  0
  6
CONTINUOUS
 10
-74.619558
 20
-150.113565
 30
0.000000
 11
-67.915457
 21
-218.903470
 31
0.000000
  0
LINE
 62
  0
  6
CONTINUOUS
 10
-98.521136
 20
-262.917350
 30
0.000000
 11
-68.206940
 21
-222.401262
 31
0.000000
  0
LINE
 62
  0
  6
CONTINUOUS
 10
-66.749527
 20
-219.194953
 30
0.000000
 11
-49.260568
 21
-218.320505
 31
0.000000
  0
LINE
 62
  0
  6
CONTINUOUS
 10
-79.574763
 20
-265.249211
 30
0.000000
 11
-50.717981
 21
-222.692744
 31
0.000000
  0
LINE
 62
  0
  6
CONTINUOUS
 10
-50.426498
 20
-218.903470
 30
0.000000
 11
-49.843533
 21
-243.970978
 31
0.000000
  0
LINE
 62
  0
  6
CONTINUOUS
 10
-76.368454
 20
-289.733754
 30
0.000000
 11
-51.009464
 21
-246.302839
 31
0.000000
  0
LINE
 62
  0
  6
CONTINUOUS
 10
-52.758360
 20
-245.719874
 30
0.000000
 11
25.941956
 21
-238.141325
 31
0.000000
  0
LINE
 62
  0
  6
CONTINUOUS
 10
-35.560883
 20
-262.042902
 30
0.000000
 11
-19.820820
 21
-158.566562
 31
0.000000
  0
LINE
 62
  0
  6
CONTINUOUS
 10
-18.654890
 20
-158.858044
 30
0.000000
 11
4.080757
 21
-157.400631
 31
0.000000
  0
LINE
 62
  0
  6
CONTINUOUS
 10
4.663722
 20
-158.858044
 30
0.000000
 11
6.412618
 21
-261.168454
 31
0.000000
  0
LINE
 62
  0
  6
CONTINUOUS
 10
-34.686435
 20
-263.791798
 30
0.000000
 11
3.789274
 21
-262.625868
 31
0.000000
  0
LINE
 62
  0
  6
CONTINUOUS
 10
6.121136
 20
-265.832177
 30
0.000000
 11
7.578549
 21
-287.984858
 31
0.000000
  0
LINE
 62
  0
  6
CONTINUOUS
 10
-77.534385
 20
-291.774132
 30
0.000000
 11
8.452997
 21
-287.984858
 31
0.000000
  0
LINE
 62
  0
  6
CONTINUOUS
 10
-80.740694
 20
-266.706625
 30
0.000000
 11
-78.117350
 21
-291.482650
 31
0.000000
  0
LINE
 62
  0
  6
CONTINUOUS
 10
-101.144479
 20
-265.249211
 30
0.000000
 11
-81.906625
 21
-265.832177
 31
0.000000
  0
LINE
 62
  0
  6
CONTINUOUS
 10
-104.059306
 20
-175.764038
 30
0.000000
 11
-101.435962
 21
-265.832177
 31
0.000000
  0
LINE
 62
  0
  6
CONTINUOUS
 10
-103.184858
 20
-174.598107
 30
0.000000
 11
-80.449211
 21
-174.889590
 31
0.000000
  0
LINE
 62
  0
  6
CONTINUOUS
 10
-79.574763
 20
-174.889590
 30
0.000000
 11
-78.117350
 21
-189.755205
 31
0.000000
  0
LINE
 62
  0
  6
CONTINUOUS
 10
-77.534385
 20
-189.172240
 30
0.000000
 11
-56.256151
 21
-188.880757
 31
0.000000
  0
LINE
 62
  0
  6
CONTINUOUS
 10
-54.507256
 20
-167.019558
 30
0.000000
 11
-55.090221
 21
-188.006309
 31
0.000000
  0
LINE
 62
  0
  6
CONTINUOUS
 10
-37.309779
 20
-167.311041
 30
0.000000
 11
-36.143849
 21
-261.751420
 31
0.000000
  0
LINE
 62
  0
  6
CONTINUOUS
 10
-34.103470
 20
-167.602524
 30
0.000000
 11
-9.035962
 21
-148.656151
 31
0.000000
  0
LINE
 62
  0
  6
CONTINUOUS
 10
-9.618927
 20
-149.530599
 30
0.000000
 11
-3.206309
 21
-220.069401
 31
0.000000
  0
LINE
 62
  0
  6
CONTINUOUS
 10
-19.820820
 20
-161.772871
 30
0.000000
 11
-2.623344
 21
-220.069401
 31
0.000000
  0
LINE
 62
  0
  6
CONTINUOUS
 10
-0.000000
 20
-220.069401
 30
0.000000
 11
25.358991
 21
-219.777918
 31
0.000000
  0
LINE
 62
  0
  6
CONTINUOUS
 10
4.080757
 20
-159.149527
 30
0.000000
 11
29.148265
 21
-223.567192
 31
0.000000
  0
LINE
 62
  0
  6
CONTINUOUS
 10
29.148265
 20
-224.733123
 30
0.000000
 11
31.480126
 21
-241.639117
 31
0.000000
  0
LINE
 62
  0
  6
CONTINUOUS
 10
11.950789
 20
-288.567823
 30
0.000000
 11
32.646057
 21
-240.764669
 31
0.000000
  0
LINE
 62
  0
  6
CONTINUOUS
 10
-79.574763
 20
-172.849211
 30
0.000000
 11
-57.130599
 21
-148.656151
 31
0.000000
  0
LINE
 62
  0
  6
CONTINUOUS
 10
-56.547634
 20
-148.656151
 30
0.000000
 11
-56.547634
 21
-148.656151
 31
0.000000
  0
LINE
 62
  0
  6
CONTINUOUS
 10
-55.964669
 20
-148.073186
 30
0.000000
 11
-55.381703
 21
-168.185489
 31
0.000000
  0
LINE
 62
  0
  6
CONTINUOUS
 10
-75.785489
 20
-190.338170
 30
0.000000
 11
-55.964669
 21
-169.934385
 31
0.000000
  0
LINE
 62
  0
  6
CONTINUOUS
 10
-53.924290
 20
-186.257413
 30
0.000000
 11
-30.314196
 21
-158.858044
 31
0.000000
  0
LINE
 62
  0
  6
CONTINUOUS
 10
-53.632808
 20
-165.562145
 30
0.000000
 11
-31.771609
 21
-147.490221
 31
0.000000
  0
LINE
 62
  0
  6
CONTINUOUS
 10
-30.022713
 20
-147.781703
 30
0.000000
 11
-30.897161
 21
-160.023975
 31
0.000000
  0
LINE
 62
  0
  6
CONTINUOUS
 10
-28.565300
 20
-147.781703
 30
0.000000
 11
-11.659306
 21
-148.073186
 31
0.000000
  0
LINE
 62
  0
  6
CONTINUOUS
 10
-53.049842
 20
-166.145110
 30
0.000000
 11
-34.103470
 21
-167.311041
 31
0.000000
  0
LINE
 62
  0
  6
CONTINUOUS
 10
-73.453628
 20
-148.364669
 30
0.000000
 11
-55.673186
 21
-147.490221
 31
0.000000
  0
ENDSEC
  0
EOF
