  0
SECTION
  2
ENTITIES
  0
LINE
 62
  0
  6
CONTINUOUS
 10
-188.080836
 20
124.499527
 30
0.000000
 11
-116.843139
 21
184.419085
 31
0.000000
  0
LINE
 62
  0
  6
CONTINUOUS
 10
-125.498186
 20
175.764038
 30
0.000000
 11
-47.602760
 21
182.421767
 31
0.000000
  0
LINE
 62
  0
  6
CONTINUOUS
 10
-140.145189
 20
124.499527
 30
0.000000
 11
-74.233675
 21
181.755994
 31
0.000000
  0
LINE
 62
  0
  6
CONTINUOUS
 10
-188.746609
 20
122.502208
 30
0.000000
 11
-144.139826
 21
121.836435
 31
0.000000
  0
LINE
 62
  0
  6
CONTINUOUS
 10
-86.883360
 20
78.561199
 30
0.000000
 11
-84.886041
 21
119.173344
 31
0.000000
  0
LINE
 62
  0
  6
CONTINUOUS
 10
-79.559858
 20
121.836435
 30
0.000000
 11
-9.653707
 21
186.416404
 31
0.000000
  0
LINE
 62
  0
  6
CONTINUOUS
 10
-19.640300
 20
185.084858
 30
0.000000
 11
51.597397
 21
181.090221
 31
0.000000
  0
LINE
 62
  0
  6
CONTINUOUS
 10
58.920899
 20
176.429811
 30
0.000000
 11
60.918218
 21
112.515615
 31
0.000000
  0
LINE
 62
  0
  6
CONTINUOUS
 10
61.583991
 20
115.844479
 30
0.000000
 11
90.877997
 21
-57.256467
 31
0.000000
  0
LINE
 62
  0
  6
CONTINUOUS
 10
-6.990615
 20
-104.526341
 30
0.000000
 11
59.586672
 21
112.515615
 31
0.000000
  0
LINE
 62
  0
  6
CONTINUOUS
 10
62.915536
 20
119.839117
 30
0.000000
 11
141.476735
 21
120.504890
 31
0.000000
  0
LINE
 62
  0
  6
CONTINUOUS
 10
142.142508
 20
95.205521
 30
0.000000
 11
185.417744
 21
-55.259148
 31
0.000000
  0
LINE
 62
  0
  6
CONTINUOUS
 10
144.805599
 20
117.841798
 30
0.000000
 11
69.573265
 21
-106.523659
 31
0.000000
  0
LINE
 62
  0
  6
CONTINUOUS
 10
-14.979890
 20
116.510252
 30
0.000000
 11
-10.319479
 21
-109.186751
 31
0.000000
  0
LINE
 62
  0
  6
CONTINUOUS
 10
-9.653707
 20
-111.184069
 30
0.000000
 11
66.244401
 21
-111.184069
 31
0.000000
  0
LINE
 62
  0
  6
CONTINUOUS
 10
76.230994
 20
-178.427129
 30
0.000000
 11
178.760016
 21
-109.852524
 31
0.000000
  0
LINE
 62
  0
  6
CONTINUOUS
 10
186.749290
 20
-61.916877
 30
0.000000
 11
186.749290
 21
-105.857886
 31
0.000000
  0
LINE
 62
  0
  6
CONTINUOUS
 10
202.062066
 20
-101.863249
 30
0.000000
 11
-86.883360
 21
-91.210883
 31
0.000000
  0
LINE
 62
  0
  6
CONTINUOUS
 10
-86.217587
 20
-37.949054
 30
0.000000
 11
-86.217587
 21
-87.216246
 31
0.000000
  0
LINE
 62
  0
  6
CONTINUOUS
 10
-127.495505
 20
-35.951735
 30
0.000000
 11
-84.220268
 21
-33.288644
 31
0.000000
  0
LINE
 62
  0
  6
CONTINUOUS
 10
-189.412382
 20
-95.871293
 30
0.000000
 11
-131.490142
 21
-39.946372
 31
0.000000
  0
LINE
 62
  0
  6
CONTINUOUS
 10
-122.835095
 20
171.769401
 30
0.000000
 11
-124.832413
 21
-31.291325
 31
0.000000
  0
LINE
 62
  0
  6
CONTINUOUS
 10
-188.746609
 20
122.502208
 30
0.000000
 11
-194.072792
 21
-95.871293
 31
0.000000
  0
LINE
 62
  0
  6
CONTINUOUS
 10
-190.743927
 20
-97.202839
 30
0.000000
 11
-145.471372
 21
-98.534385
 31
0.000000
  0
LINE
 62
  0
  6
CONTINUOUS
 10
-140.810962
 20
-95.205521
 30
0.000000
 11
-88.880678
 21
-39.280599
 31
0.000000
  0
LINE
 62
  0
  6
CONTINUOUS
 10
-142.142508
 20
-97.202839
 30
0.000000
 11
-142.808281
 21
-155.790852
 31
0.000000
  0
LINE
 62
  0
  6
CONTINUOUS
 10
-136.816325
 20
-151.796215
 30
0.000000
 11
-88.880678
 21
-84.553155
 31
0.000000
  0
LINE
 62
  0
  6
CONTINUOUS
 10
-138.813644
 20
-155.790852
 30
0.000000
 11
66.910174
 21
-167.108991
 31
0.000000
  0
LINE
 62
  0
  6
CONTINUOUS
 10
88.214905
 20
-60.585331
 30
0.000000
 11
178.094243
 21
-57.256467
 31
0.000000
  0
LINE
 62
  0
  6
CONTINUOUS
 10
-138.813644
 20
89.879338
 30
0.000000
 11
-47.602760
 21
169.772082
 31
0.000000
  0
LINE
 62
  0
  6
CONTINUOUS
 10
-14.979890
 20
179.092902
 30
0.000000
 11
-14.979890
 21
140.478076
 31
0.000000
  0
LINE
 62
  0
  6
CONTINUOUS
 10
-82.222950
 20
73.900789
 30
0.000000
 11
-14.314117
 21
138.480757
 31
0.000000
  0
LINE
 62
  0
  6
CONTINUOUS
 10
-44.273896
 20
179.092902
 30
0.000000
 11
-45.605442
 21
149.133123
 31
0.000000
  0
LINE
 62
  0
  6
CONTINUOUS
 10
69.165820
 20
-111.673423
 30
0.000000
 11
72.618598
 21
-174.686620
 31
0.000000
  0
LINE
 62
  0
  6
CONTINUOUS
 10
-15.427239
 20
140.379365
 30
0.000000
 11
-47.365434
 21
145.558532
 31
0.000000
  0
LINE
 62
  0
  6
CONTINUOUS
 10
-11.111266
 20
117.936309
 30
0.000000
 11
51.038736
 21
170.591172
 31
0.000000
  0
LINE
 62
  0
  6
CONTINUOUS
 10
-85.345992
 20
120.525892
 30
0.000000
 11
-17.153628
 21
118.799503
 31
0.000000
  0
LINE
 62
  0
  6
CONTINUOUS
 10
-142.424642
 20
122.803079
 30
0.000000
 11
-142.424642
 21
88.012571
 31
0.000000
  0
LINE
 62
  0
  6
CONTINUOUS
 10
-142.424642
 20
86.355880
 30
0.000000
 11
-85.268808
 21
77.244081
 31
0.000000
  0
ENDSEC
  0
EOF
