  0
SECTION
  2
ENTITIES
  0
LINE
 62
  0
  6
CONTINUOUS
 10
-76.452681
 20
-179.056467
 30
0.000000
 11
-37.011672
 21
-142.187697
 31
0.000000
  0
LINE
 62
  0
  6
CONTINUOUS
 10
-36.725868
 20
-142.473502
 30
0.000000
 11
-38.154890
 21
-203.921451
 31
0.000000
  0
LINE
 62
  0
  6
CONTINUOUS
 10
-76.166877
 20
-257.938486
 30
0.000000
 11
-39.298107
 21
-205.636278
 31
0.000000
  0
LINE
 62
  0
  6
CONTINUOUS
 10
-35.868454
 20
-201.635016
 30
0.000000
 11
-9.860252
 21
-208.780126
 31
0.000000
  0
LINE
 62
  0
  6
CONTINUOUS
 10
-47.014826
 20
-253.937224
 30
0.000000
 11
-9.860252
 21
-210.209148
 31
0.000000
  0
LINE
 62
  0
  6
CONTINUOUS
 10
-9.002839
 20
-211.352366
 30
0.000000
 11
-9.860252
 21
-231.072871
 31
0.000000
  0
LINE
 62
  0
  6
CONTINUOUS
 10
-47.872240
 20
-255.080442
 30
0.000000
 11
-48.443849
 21
-283.946688
 31
0.000000
  0
LINE
 62
  0
  6
CONTINUOUS
 10
-46.443218
 20
-287.947950
 30
0.000000
 11
-9.574448
 21
-237.074763
 31
0.000000
  0
LINE
 62
  0
  6
CONTINUOUS
 10
-8.717035
 20
-235.359937
 30
0.000000
 11
57.017981
 21
-245.648896
 31
0.000000
  0
LINE
 62
  0
  6
CONTINUOUS
 10
-43.585174
 20
-289.091167
 30
0.000000
 11
28.437539
 21
-295.093060
 31
0.000000
  0
LINE
 62
  0
  6
CONTINUOUS
 10
35.296845
 20
-266.226814
 30
0.000000
 11
30.438170
 21
-295.950473
 31
0.000000
  0
LINE
 62
  0
  6
CONTINUOUS
 10
8.145426
 20
-265.655205
 30
0.000000
 11
35.011041
 21
-265.941009
 31
0.000000
  0
LINE
 62
  0
  6
CONTINUOUS
 10
7.288013
 20
-265.941009
 30
0.000000
 11
17.005363
 21
-173.911987
 31
0.000000
  0
LINE
 62
  0
  6
CONTINUOUS
 10
8.145426
 20
-263.654574
 30
0.000000
 11
26.436909
 21
-160.479180
 31
0.000000
  0
LINE
 62
  0
  6
CONTINUOUS
 10
27.294322
 20
-159.335962
 30
0.000000
 11
57.017981
 21
-160.479180
 31
0.000000
  0
LINE
 62
  0
  6
CONTINUOUS
 10
58.447003
 20
-160.764984
 30
0.000000
 11
35.296845
 21
-265.655205
 31
0.000000
  0
LINE
 62
  0
  6
CONTINUOUS
 10
58.732808
 20
-162.765615
 30
0.000000
 11
64.163091
 21
-222.498738
 31
0.000000
  0
LINE
 62
  0
  6
CONTINUOUS
 10
63.591483
 20
-224.499369
 30
0.000000
 11
61.019243
 21
-246.506309
 31
0.000000
  0
LINE
 62
  0
  6
CONTINUOUS
 10
65.877918
 20
-223.927760
 30
0.000000
 11
36.725868
 21
-221.069716
 31
0.000000
  0
LINE
 62
  0
  6
CONTINUOUS
 10
42.156151
 20
-227.643218
 30
0.000000
 11
26.436909
 21
-161.908202
 31
0.000000
  0
LINE
 62
  0
  6
CONTINUOUS
 10
37.583281
 20
-219.069085
 30
0.000000
 11
39.869716
 21
-143.902524
 31
0.000000
  0
LINE
 62
  0
  6
CONTINUOUS
 10
17.862776
 20
-173.054574
 30
0.000000
 11
39.583912
 21
-142.473502
 31
0.000000
  0
LINE
 62
  0
  6
CONTINUOUS
 10
-8.145426
 20
-173.626183
 30
0.000000
 11
15.004732
 21
-174.483596
 31
0.000000
  0
LINE
 62
  0
  6
CONTINUOUS
 10
-9.860252
 20
-176.484227
 30
0.000000
 11
-12.432492
 21
-197.919558
 31
0.000000
  0
LINE
 62
  0
  6
CONTINUOUS
 10
-43.585174
 20
-199.062776
 30
0.000000
 11
-11.860883
 21
-196.776341
 31
0.000000
  0
LINE
 62
  0
  6
CONTINUOUS
 10
-43.299369
 20
-199.634385
 30
0.000000
 11
-42.441956
 21
-181.914511
 31
0.000000
  0
LINE
 62
  0
  6
CONTINUOUS
 10
-76.452681
 20
-178.770662
 30
0.000000
 11
-43.585174
 21
-181.342902
 31
0.000000
  0
LINE
 62
  0
  6
CONTINUOUS
 10
-77.595899
 20
-257.652681
 30
0.000000
 11
-76.452681
 21
-179.056467
 31
0.000000
  0
LINE
 62
  0
  6
CONTINUOUS
 10
-36.440063
 20
-141.616088
 30
0.000000
 11
-7.002208
 21
-140.472871
 31
0.000000
  0
LINE
 62
  0
  6
CONTINUOUS
 10
-3.858360
 20
-141.616088
 30
0.000000
 11
-5.001577
 21
-163.051420
 31
0.000000
  0
LINE
 62
  0
  6
CONTINUOUS
 10
-41.584543
 20
-197.347950
 30
0.000000
 11
-6.430599
 21
-162.479811
 31
0.000000
  0
LINE
 62
  0
  6
CONTINUOUS
 10
-41.012934
 20
-181.628707
 30
0.000000
 11
-6.144795
 21
-145.045741
 31
0.000000
  0
LINE
 62
  0
  6
CONTINUOUS
 10
-10.146057
 20
-193.346688
 30
0.000000
 11
11.860883
 21
-165.337855
 31
0.000000
  0
LINE
 62
  0
  6
CONTINUOUS
 10
15.004732
 20
-162.479811
 30
0.000000
 11
17.862776
 21
-141.330284
 31
0.000000
  0
LINE
 62
  0
  6
CONTINUOUS
 10
-7.002208
 20
-171.911356
 30
0.000000
 11
17.005363
 21
-139.615457
 31
0.000000
  0
LINE
 62
  0
  6
CONTINUOUS
 10
19.005994
 20
-140.187066
 30
0.000000
 11
39.012303
 21
-142.473502
 31
0.000000
  0
LINE
 62
  0
  6
CONTINUOUS
 10
-74.737855
 20
-259.939117
 30
0.000000
 11
-49.015457
 21
-253.651420
 31
0.000000
  0
LINE
 62
  0
  6
CONTINUOUS
 10
31.295584
 20
-290.520189
 30
0.000000
 11
57.303785
 21
-246.792114
 31
0.000000
  0
LINE
 62
  0
  6
CONTINUOUS
 10
-8.163553
 20
-161.941632
 30
0.000000
 11
16.300269
 21
-163.359824
 31
0.000000
  0
ENDSEC
  0
EOF
