  0
SECTION
  2
ENTITIES
  0
LINE
 62
  0
  6
CONTINUOUS
 10
-44.013407
 20
-57.781703
 30
0.000000
 11
-44.013407
 21
-57.781703
 31
0.000000
  0
LINE
 62
  0
  6
CONTINUOUS
 10
-41.756309
 20
-19.411041
 30
0.000000
 11
-42.659148
 21
-55.073186
 31
0.000000
  0
LINE
 62
  0
  6
CONTINUOUS
 10
-88.252524
 20
-97.958044
 30
0.000000
 11
-47.173344
 21
-24.376656
 31
0.000000
  0
LINE
 62
  0
  6
CONTINUOUS
 10
-72.904259
 20
-13.091167
 30
0.000000
 11
-40.853470
 21
-12.639748
 31
0.000000
  0
LINE
 62
  0
  6
CONTINUOUS
 10
-76.515615
 20
-13.994006
 30
0.000000
 11
-133.394479
 21
-97.055205
 31
0.000000
  0
LINE
 62
  0
  6
CONTINUOUS
 10
-125.268927
 20
-96.603785
 30
0.000000
 11
-80.126972
 21
-94.346688
 31
0.000000
  0
LINE
 62
  0
  6
CONTINUOUS
 10
-87.349685
 20
-97.506625
 30
0.000000
 11
-89.155363
 21
-139.488644
 31
0.000000
  0
LINE
 62
  0
  6
CONTINUOUS
 10
-96.378076
 20
-134.523028
 30
0.000000
 11
57.104574
 21
-129.105994
 31
0.000000
  0
LINE
 62
  0
  6
CONTINUOUS
 10
-11.511199
 20
-81.255521
 30
0.000000
 11
65.681546
 21
-81.255521
 31
0.000000
  0
LINE
 62
  0
  6
CONTINUOUS
 10
-43.110568
 20
-55.976025
 30
0.000000
 11
113.983438
 21
-75.387066
 31
0.000000
  0
LINE
 62
  0
  6
CONTINUOUS
 10
63.875868
 20
-79.901262
 30
0.000000
 11
84.641167
 21
95.249527
 31
0.000000
  0
LINE
 62
  0
  6
CONTINUOUS
 10
85.995426
 20
91.186751
 30
0.000000
 11
117.143375
 21
-9.479811
 31
0.000000
  0
LINE
 62
  0
  6
CONTINUOUS
 10
23.248107
 20
101.569401
 30
0.000000
 11
43.110568
 21
-13.994006
 31
0.000000
  0
LINE
 62
  0
  6
CONTINUOUS
 10
22.345268
 20
99.763722
 30
0.000000
 11
-11.059779
 21
-81.255521
 31
0.000000
  0
LINE
 62
  0
  6
CONTINUOUS
 10
-6.545584
 20
57.781703
 30
0.000000
 11
-11.962618
 21
-80.352681
 31
0.000000
  0
LINE
 62
  0
  6
CONTINUOUS
 10
-50.333281
 20
60.038801
 30
0.000000
 11
-12.865457
 21
59.135962
 31
0.000000
  0
LINE
 62
  0
  6
CONTINUOUS
 10
-50.333281
 20
58.233123
 30
0.000000
 11
-49.881861
 21
28.439432
 31
0.000000
  0
LINE
 62
  0
  6
CONTINUOUS
 10
-49.881861
 20
29.793691
 30
0.000000
 11
-83.738328
 21
30.696530
 31
0.000000
  0
LINE
 62
  0
  6
CONTINUOUS
 10
-89.155363
 20
27.536593
 30
0.000000
 11
-89.155363
 21
56.878864
 31
0.000000
  0
LINE
 62
  0
  6
CONTINUOUS
 10
-88.703943
 20
28.890852
 30
0.000000
 11
-33.630757
 21
88.929653
 31
0.000000
  0
LINE
 62
  0
  6
CONTINUOUS
 10
-33.630757
 20
91.638170
 30
0.000000
 11
-35.436435
 21
124.140379
 31
0.000000
  0
LINE
 62
  0
  6
CONTINUOUS
 10
-135.200158
 20
70.421451
 30
0.000000
 11
-90.961041
 21
59.135962
 31
0.000000
  0
LINE
 62
  0
  6
CONTINUOUS
 10
-86.898265
 20
59.135962
 30
0.000000
 11
-34.985016
 21
132.717350
 31
0.000000
  0
LINE
 62
  0
  6
CONTINUOUS
 10
-73.807098
 20
134.974448
 30
0.000000
 11
-39.499211
 21
132.717350
 31
0.000000
  0
LINE
 62
  0
  6
CONTINUOUS
 10
-87.349685
 20
122.786120
 30
0.000000
 11
-135.200158
 21
70.872871
 31
0.000000
  0
LINE
 62
  0
  6
CONTINUOUS
 10
-74.709937
 20
130.460252
 30
0.000000
 11
-71.550000
 21
-9.931230
 31
0.000000
  0
LINE
 62
  0
  6
CONTINUOUS
 10
-136.102997
 20
69.067192
 30
0.000000
 11
-135.651577
 21
-95.700946
 31
0.000000
  0
LINE
 62
  0
  6
CONTINUOUS
 10
75.161356
 20
-128.654574
 30
0.000000
 11
116.240536
 21
-76.741325
 31
0.000000
  0
LINE
 62
  0
  6
CONTINUOUS
 10
116.240536
 20
-73.581388
 30
0.000000
 11
118.046215
 21
-13.091167
 31
0.000000
  0
LINE
 62
  0
  6
CONTINUOUS
 10
48.527603
 20
-12.188328
 30
0.000000
 11
118.046215
 21
-11.285489
 31
0.000000
  0
LINE
 62
  0
  6
CONTINUOUS
 10
25.053785
 20
102.472240
 30
0.000000
 11
85.092587
 21
96.152366
 31
0.000000
  0
LINE
 62
  0
  6
CONTINUOUS
 10
66.584385
 20
-82.158360
 30
0.000000
 11
67.035804
 21
-128.654574
 31
0.000000
  0
LINE
 62
  0
  6
CONTINUOUS
 10
-4.288486
 20
61.844479
 30
0.000000
 11
43.110568
 21
129.105994
 31
0.000000
  0
LINE
 62
  0
  6
CONTINUOUS
 10
41.756309
 20
124.591798
 30
0.000000
 11
43.110568
 21
-10.382650
 31
0.000000
  0
LINE
 62
  0
  6
CONTINUOUS
 10
0.225710
 20
124.591798
 30
0.000000
 11
0.225710
 21
124.591798
 31
0.000000
  0
LINE
 62
  0
  6
CONTINUOUS
 10
1.128549
 20
123.237539
 30
0.000000
 11
-46.721924
 21
62.747319
 31
0.000000
  0
LINE
 62
  0
  6
CONTINUOUS
 10
-80.126972
 20
-129.557413
 30
0.000000
 11
-44.013407
 21
-57.781703
 31
0.000000
  0
LINE
 62
  0
  6
CONTINUOUS
 10
1.460689
 20
123.973559
 30
0.000000
 11
41.970241
 21
128.313868
 31
0.000000
  0
ENDSEC
  0
EOF
