  0
SECTION
  2
HEADER
  9
$ACADVER
  1
AC1009
  9
$DWGCODEPAGE
  3
ansi_1252
  9
$INSBASE
 10
0.0
 20
0.0
 30
0.0
  9
$EXTMIN
 10
0.7
 20
0.0
 30
0.0
  9
$EXTMAX
 10
2.2
 20
1.7
 30
0.0
  9
$LIMMIN
 10
0.0
 20
0.0
  9
$LIMMAX
 10
12.0
 20
9.0
  9
$ORTHOMODE
 70
     1
  9
$REGENMODE
 70
     1
  9
$FILLMODE
 70
     1
  9
$QTEXTMODE
 70
     0
  9
$MIRRTEXT
 70
     1
  9
$DRAGMODE
 70
     2
  9
$LTSCALE
 40
1.0
  9
$OSMODE
 70
     0
  9
$ATTMODE
 70
     1
  9
$TEXTSIZE
 40
0.02
  9
$TRACEWID
 40
0.05
  9
$TEXTSTYLE
  7
STANDARD
  9
$CLAYER
  8
0
  9
$CELTYPE
  6
CONTINUOUS
  9
$CECOLOR
 62
   256
  9
$DIMSCALE
 40
1.0
  9
$DIMASZ
 40
0.18
  9
$DIMEXO
 40
0.0625
  9
$DIMDLI
 40
0.38
  9
$DIMRND
 40
0.0
  9
$DIMDLE
 40
0.0
  9
$DIMEXE
 40
0.18
  9
$DIMTP
 40
0.0
  9
$DIMTM
 40
0.0
  9
$DIMTXT
 40
0.18
  9
$DIMCEN
 40
0.09
  9
$DIMTSZ
 40
0.0
  9
$DIMTOL
 70
     0
  9
$DIMLIM
 70
     0
  9
$DIMTIH
 70
     1
  9
$DIMTOH
 70
     1
  9
$DIMSE1
 70
     0
  9
$DIMSE2
 70
     0
  9
$DIMTAD
 70
     0
  9
$DIMZIN
 70
     0
  9
$DIMBLK
  1

  9
$DIMASO
 70
     1
  9
$DIMSHO
 70
     1
  9
$DIMPOST
  1

  9
$DIMAPOST
  1

  9
$DIMALT
 70
     0
  9
$DIMALTD
 70
     2
  9
$DIMALTF
 40
25.4
  9
$DIMLFAC
 40
1.0
  9
$DIMTOFL
 70
     0
  9
$DIMTVP
 40
0.0
  9
$DIMTIX
 70
     0
  9
$DIMSOXD
 70
     0
  9
$DIMSAH
 70
     0
  9
$DIMBLK1
  1

  9
$DIMBLK2
  1

  9
$DIMSTYLE
  2
STANDARD
  9
$DIMCLRD
 70
     0
  9
$DIMCLRE
 70
     0
  9
$DIMCLRT
 70
     0
  9
$DIMTFAC
 40
1.0
  9
$DIMGAP
 40
0.09
  9
$LUNITS
 70
     2
  9
$LUPREC
 70
     4
  9
$AXISMODE
 70
     0
  9
$AXISUNIT
 10
0.0
 20
0.0
  9
$SKETCHINC
 40
0.1
  9
$FILLETRAD
 40
0.0
  9
$AUNITS
 70
     0
  9
$AUPREC
 70
     0
  9
$MENU
  1
acad
  9
$ELEVATION
 40
0.0
  9
$PELEVATION
 40
0.0
  9
$THICKNESS
 40
0.0
  9
$LIMCHECK
 70
     0
  9
$BLIPMODE
 70
     1
  9
$CHAMFERA
 40
0.0
  9
$CHAMFERB
 40
0.0
  9
$SKPOLY
 70
     0
  9
$TDCREATE
 40
0.000000000
  9
$TDUPDATE
 40
0.000000000
  9
$TDINDWG
 40
0.0012409954
  9
$TDUSRTIMER
 40
0.0000000000
  9
$USRTIMER
 70
     1
  9
$ANGBASE
 50
0.0
  9
$ANGDIR
 70
     0
  9
$PDMODE
 70
     0
  9
$PDSIZE
 40
0.0
  9
$PLINEWID
 40
0.0
  9
$COORDS
 70
     0
  9
$SPLFRAME
 70
     0
  9
$SPLINETYPE
 70
     6
  9
$SPLINESEGS
 70
    10
  9
$ATTDIA
 70
     0
  9
$ATTREQ
 70
     1
  9
$HANDLING
 70
     1
  9
$HANDSEED
  5
10C
  9
$SURFTAB1
 70
     6
  9
$SURFTAB2
 70
     6
  9
$SURFTYPE
 70
     6
  9
$SURFU
 70
    10
  9
$SURFV
 70
    10
  9
$UCSNAME
  2

  9
$UCSORG
 10
0.0
 20
0.0
 30
0.0
  9
$UCSXDIR
 10
1.0
 20
0.0
 30
0.0
  9
$UCSYDIR
 10
0.0
 20
1.0
 30
0.0
  9
$PUCSNAME
  2

  9
$PUCSORG
 10
0.0
 20
0.0
 30
0.0
  9
$PUCSXDIR
 10
1.0
 20
0.0
 30
0.0
  9
$PUCSYDIR
 10
0.0
 20
1.0
 30
0.0
  9
$USERI1
 70
     0
  9
$USERI2
 70
     0
  9
$USERI3
 70
     0
  9
$USERI4
 70
     0
  9
$USERI5
 70
     0
  9
$USERR1
 40
0.0
  9
$USERR2
 40
0.0
  9
$USERR3
 40
0.0
  9
$USERR4
 40
0.0
  9
$USERR5
 40
0.0
  9
$WORLDVIEW
 70
     1
  9
$SHADEDGE
 70
     3
  9
$SHADEDIF
 70
    70
  9
$TILEMODE
 70
     1
  9
$MAXACTVP
 70
    16
  9
$PINSBASE
 10
0.0
 20
0.0
 30
0.0
  9
$PLIMCHECK
 70
     0
  9
$PEXTMIN
 10
-1.000000E+20
 20
-1.000000E+20
 30
-1.000000E+20
  9
$PEXTMAX
 10
-1.000000E+20
 20
-1.000000E+20
 30
-1.000000E+20
  9
$PLIMMIN
 10
0.0
 20
0.0
  9
$PLIMMAX
 10
12.0
 20
9.0
  9
$UNITMODE
 70
     0
  9
$VISRETAIN
 70
     0
  9
$PLINEGEN
 70
     0
  9
$PSLTSCALE
 70
     1
  9
$TREEDEPTH
 70
  3020
  9
$DWGCODEPAGE
  3
ansi_1252
  0
ENDSEC
  0
SECTION
  2
TABLES
  0
TABLE
  2
VPORT
 70
     1
  0
VPORT
  2
*ACTIVE
 70
     0
 10
0.0
 20
0.0
 11
1.0
 21
1.0
 12
-5.77731
 22
2.873335
 13
0.0
 23
0.0
 14
0.0
 24
0.0
 15
0.0
 25
0.0
 16
0.0
 26
0.0
 36
1.0
 17
2.890648
 27
-0.1503
 37
0.0
 40
9.0
 41
1.438757
 42
50.0
 43
5.1544
 44
0.0
 50
0.0
 51
0.0
 71
     0
 72
   100
 73
     1
 74
     0
 75
     0
 76
     0
 77
     0
 78
     0
  0
ENDTAB
  0
TABLE
  2
LTYPE
 70
     7
  0
LTYPE
  2
CONTINUOUS
 70
     0
  3
Solid line
 72
    65
 73
     0
 40
0.0
  0
LTYPE
  2
DOT
 70
     0
  3
. . . . . . . . . . . . . . . . . . . . . . . . . . . . . . . . .
 72
    65
 73
     2
 40
0.25
 49
0.0
 49
-0.25
  0
LTYPE
  2
HIDDEN
 70
     0
  3
__ __ __ __ __ __ __ __ __ __ __ __ __ __ __ __ __ __ __ __ __ 
 72
    65
 73
     2
 40
0.375
 49
0.25
 49
-0.125
  0
LTYPE
  2
DASHED
 70
     0
  3
__ __ __ __ __ __ __ __ __ __ __ __ __ __ __ __ __ __ __ __ __
 72
    65
 73
     2
 40
0.75
 49
0.5
 49
-0.25
  0
LTYPE
  2
DASHDOT
 70
     0
  3
__ . __ . __ . __ . __ . __ . __ . __ . __ . __ . __ . __ . _
 72
    65
 73
     4
 40
1.0
 49
0.5
 49
-0.25
 49
0.0
 49
-0.25
  0
LTYPE
  2
DIVIDE
 70
     0
  3
____ . . ____ . . ____ . . ____ . . ____ . . ____ . . ____ . .
 72
    65
 73
     6
 40
1.25
 49
0.5
 49
-0.25
 49
0.0
 49
-0.25
 49
0.0
 49
-0.25
  0
LTYPE
  2
CENTER
 70
     0
  3
____ _ ____ _ ____ _ ____ _ ____ _ ____ _ ____ _ ____ _ ____ _
 72
    65
 73
     4
 40
2.0
 49
1.25
 49
-0.25
 49
0.25
 49
-0.25
  0
ENDTAB
  0
TABLE
  2
LAYER
 70
     4
  0
LAYER
  2
0
 70
    64
 62
     7
  6
CONTINUOUS
  0
LAYER
  2
CONSTRUCTION_CLASS
 70
    64
 62
     7
  6
CONTINUOUS
  0
LAYER
  2
PATTERN_CLASS
 70
    64
 62
     7
  6
CONTINUOUS
  0
LAYER
  2
1
 70
    64
 62
     7
  6
CONTINUOUS
  0
ENDTAB
  0
TABLE
  2
STYLE
 70
     1
  0
STYLE
  2
STANDARD
 70
     0
 40
0.2
 41
1.0
 50
0.0
 71
     0
 42
0.0
  3
txt
  4

  0
ENDTAB
  0
TABLE
  2
VIEW
 70
     0
  0
ENDTAB
  0
TABLE
  2
UCS
 70
     0
  0
ENDTAB
  0
TABLE
  2
APPID
 70
     1
  0
APPID
  2
ACAD
 70
     0
  0
ENDTAB
  0
TABLE
  2
DIMSTYLE
 70
     1
  0
DIMSTYLE
  2
STANDARD
 70
     0
  3

  4

  5

  6

  7

 40
1.0
 41
0.18
 42
0.0625
 43
0.38
 44
0.18
 45
0.0
 46
0.0
 47
0.0
 48
0.0
 71
     0
 72
     0
 73
     1
 74
     1
 75
     0
 76
     0
 77
     0
 78
     0
140
0.18
141
0.09
142
0.0
143
25.4
144
1.0
145
0.0
146
1.0
147
0.09
170
     0
171
     2
172
     0
173
     0
174
     0
175
     0
176
     0
177
     0
178
     0
  0
ENDTAB
  0
ENDSEC
  0
SECTION
  2
BLOCKS
  0
BLOCK
  8
0
  5
DC
  2
$MODEL_SPACE
 70
     0
 10
0.0
 20
0.0
 30
0.0
  3
$MODEL_SPACE
  0
ENDBLK
  8
0
  5
A2
  0
BLOCK
  8
0
  5
DD
  2
$PAPER_SPACE
 70
     0
 10
0.0
 20
0.0
 30
0.0
  3
$PAPER_SPACE
  0
ENDBLK
  8
0
  5
9F
  0
ENDSEC
  0
SECTION
  2
ENTITIES
  0
LINE
  8
1
  6
CONTINUOUS
 62
     7
  5
2
 10
1.14
 20
0.9669
 30
0.0
 11
1.14
 21
1.0575
 31
0.0
  0
LINE
  8
1
  6
CONTINUOUS
 62
     7
  5
4
 10
0.9898
 20
1.0676
 30
0.0
 11
1.14
 21
0.9669
 31
0.0
  0
LINE
  8
1
  6
CONTINUOUS
 62
     7
  5
6
 10
0.9898
 20
1.1582
 30
0.0
 11
0.9898
 21
1.0676
 31
0.0
  0
LINE
  8
1
  6
CONTINUOUS
 62
     7
  5
8
 10
1.14
 20
1.0575
 30
0.0
 11
1.2493
 21
1.0989
 31
0.0
  0
LINE
  8
1
  6
CONTINUOUS
 62
     7
  5
A
 10
1.099
 20
1.1996
 30
0.0
 11
0.9898
 21
1.1582
 31
0.0
  0
LINE
  8
1
  6
CONTINUOUS
 62
     7
  5
C
 10
1.2493
 20
1.0989
 30
0.0
 11
1.099
 21
1.1996
 31
0.0
  0
LINE
  8
1
  6
CONTINUOUS
 62
     7
  5
E
 10
1.099
 20
1.3249
 30
0.0
 11
1.099
 21
1.1996
 31
0.0
  0
LINE
  8
1
  6
CONTINUOUS
 62
     7
  5
10
 10
1.2493
 20
1.2243
 30
0.0
 11
1.099
 21
1.3249
 31
0.0
  0
LINE
  8
1
  6
CONTINUOUS
 62
     7
  5
12
 10
1.2493
 20
1.2243
 30
0.0
 11
1.2493
 21
1.0989
 31
0.0
  0
LINE
  8
1
  6
CONTINUOUS
 62
     7
  5
14
 10
0.8992
 20
1.0333
 30
0.0
 11
0.9898
 21
1.0676
 31
0.0
  0
LINE
  8
1
  6
CONTINUOUS
 62
     7
  5
16
 10
0.8992
 20
1.2492
 30
0.0
 11
0.8992
 21
1.0333
 31
0.0
  0
LINE
  8
1
  6
CONTINUOUS
 62
     7
  5
18
 10
1.099
 20
1.3249
 30
0.0
 11
0.8992
 21
1.2492
 31
0.0
  0
LINE
  8
1
  6
CONTINUOUS
 62
     7
  5
1A
 10
0.8992
 20
1.2492
 30
0.0
 11
1.0495
 21
1.1486
 31
0.0
  0
LINE
  8
1
  6
CONTINUOUS
 62
     7
  5
1C
 10
1.0495
 20
1.1486
 30
0.0
 11
1.2493
 21
1.2243
 31
0.0
  0
LINE
  8
1
  6
CONTINUOUS
 62
     7
  5
1E
 10
1.14
 20
0.9669
 30
0.0
 11
1.0495
 21
0.9326
 31
0.0
  0
LINE
  8
1
  6
CONTINUOUS
 62
     7
  5
20
 10
1.0495
 20
0.9326
 30
0.0
 11
0.8992
 21
1.0333
 31
0.0
  0
LINE
  8
1
  6
CONTINUOUS
 62
     7
  5
22
 10
1.0495
 20
1.1486
 30
0.0
 11
1.0495
 21
0.9326
 31
0.0
  0
LINE
  8
1
  6
CONTINUOUS
 62
     7
  5
24
 10
1.7964
 20
0.7285
 30
0.0
 11
1.7964
 21
1.0904
 31
0.0
  0
LINE
  8
1
  6
CONTINUOUS
 62
     7
  5
26
 10
1.7964
 20
0.7285
 30
0.0
 11
1.5707
 21
0.8797
 31
0.0
  0
LINE
  8
1
  6
CONTINUOUS
 62
     7
  5
28
 10
1.5707
 20
1.2416
 30
0.0
 11
1.5707
 21
0.8797
 31
0.0
  0
LINE
  8
1
  6
CONTINUOUS
 62
     7
  5
2A
 10
1.7964
 20
1.0904
 30
0.0
 11
1.5707
 21
1.2416
 31
0.0
  0
LINE
  8
1
  6
CONTINUOUS
 62
     7
  5
2C
 10
2.145
 20
0.8605
 30
0.0
 11
1.7964
 21
0.7285
 31
0.0
  0
LINE
  8
1
  6
CONTINUOUS
 62
     7
  5
2E
 10
1.9193
 20
1.0117
 30
0.0
 11
2.145
 21
0.8605
 31
0.0
  0
LINE
  8
1
  6
CONTINUOUS
 62
     7
  5
30
 10
1.5707
 20
0.8797
 30
0.0
 11
1.9193
 21
1.0117
 31
0.0
  0
LINE
  8
1
  6
CONTINUOUS
 62
     7
  5
32
 10
1.9193
 20
1.3737
 30
0.0
 11
1.9193
 21
1.0117
 31
0.0
  0
LINE
  8
1
  6
CONTINUOUS
 62
     7
  5
34
 10
1.5707
 20
1.2416
 30
0.0
 11
1.9193
 21
1.3737
 31
0.0
  0
LINE
  8
1
  6
CONTINUOUS
 62
     7
  5
36
 10
0.7448
 20
1.3224
 30
0.0
 11
0.9898
 21
1.1582
 31
0.0
  0
LINE
  8
1
  6
CONTINUOUS
 62
     7
  5
38
 10
0.7448
 20
1.3224
 30
0.0
 11
0.7448
 21
0.4585
 31
0.0
  0
LINE
  8
1
  6
CONTINUOUS
 62
     7
  5
3A
 10
1.3457
 20
0.0559
 30
0.0
 11
0.7448
 21
0.4585
 31
0.0
  0
LINE
  8
1
  6
CONTINUOUS
 62
     7
  5
3C
 10
1.3457
 20
0.9197
 30
0.0
 11
1.3457
 21
0.0559
 31
0.0
  0
LINE
  8
1
  6
CONTINUOUS
 62
     7
  5
3E
 10
1.14
 20
1.0575
 30
0.0
 11
1.3457
 21
0.9197
 31
0.0
  0
LINE
  8
1
  6
CONTINUOUS
 62
     7
  5
40
 10
1.3457
 20
0.9197
 30
0.0
 11
1.7964
 21
1.0904
 31
0.0
  0
LINE
  8
1
  6
CONTINUOUS
 62
     7
  5
42
 10
2.145
 20
0.3587
 30
0.0
 11
1.917248
 21
0.27242
 31
0.0
  0
LINE
  8
1
  6
CONTINUOUS
 62
     7
  5
44
 10
2.145
 20
0.8605
 30
0.0
 11
2.145
 21
0.3587
 31
0.0
  0
LINE
  8
1
  6
CONTINUOUS
 62
     7
  5
46
 10
1.9193
 20
1.3737
 30
0.0
 11
1.544
 21
1.6251
 31
0.0
  0
LINE
  8
1
  6
CONTINUOUS
 62
     7
  5
48
 10
1.544
 20
1.6251
 30
0.0
 11
0.7448
 21
1.3224
 31
0.0
  0
LINE
  8
1
  6
CONTINUOUS
 62
     7
  5
4A
 10
0.7448
 20
0.4585
 30
0.0
 11
1.544
 21
0.7613
 31
0.0
  0
LINE
  8
1
  6
CONTINUOUS
 62
     7
  5
4C
 10
1.544
 20
0.7613
 30
0.0
 11
2.145
 21
0.3587
 31
0.0
  0
LINE
  8
1
  6
CONTINUOUS
 62
     7
  5
4E
 10
1.544
 20
1.6251
 30
0.0
 11
1.544
 21
0.7613
 31
0.0
  0
LINE
  8
1
  6
CONTINUOUS
 62
     7
  5
7B
 10
1.618092
 20
0.15909
 30
0.0
 11
1.490119
 21
0.244831
 31
0.0
  0
LINE
  8
1
  6
CONTINUOUS
 62
     7
  5
7C
 10
1.789262
 20
0.358156
 30
0.0
 11
1.917248
 21
0.27242
 31
0.0
  0
LINE
  8
1
  6
CONTINUOUS
 62
     7
  5
7D
 10
1.789262
 20
0.358156
 30
0.0
 11
1.490119
 21
0.244831
 31
0.0
  0
LINE
  8
1
  6
CONTINUOUS
 62
     7
  5
7E
 10
1.618092
 20
0.15909
 30
0.0
 11
1.3457
 21
0.0559
 31
0.0
  0
LINE
  8
1
  6
CONTINUOUS
 62
     7
  5
7F
 10
1.618092
 20
0.334679
 30
0.0
 11
1.490119
 21
0.420419
 31
0.0
  0
LINE
  8
1
  6
CONTINUOUS
 62
     7
  5
80
 10
1.789262
 20
0.533744
 30
0.0
 11
1.490119
 21
0.420419
 31
0.0
  0
LINE
  8
1
  6
CONTINUOUS
 62
     7
  5
81
 10
1.789262
 20
0.533744
 30
0.0
 11
1.917248
 21
0.448009
 31
0.0
  0
LINE
  8
0
  6
CONTINUOUS
 62
     7
  5
82
 10
1.917248
 20
0.27242
 30
0.0
 11
1.917248
 21
0.448009
 31
0.0
  0
LINE
  8
0
  6
CONTINUOUS
 62
     7
  5
83
 10
1.789262
 20
0.358156
 30
0.0
 11
1.789262
 21
0.533744
 31
0.0
  0
LINE
  8
0
  6
CONTINUOUS
 62
     7
  5
84
 10
1.490119
 20
0.244831
 30
0.0
 11
1.490119
 21
0.420419
 31
0.0
  0
LINE
  8
0
  6
CONTINUOUS
 62
     7
  5
85
 10
1.618092
 20
0.15909
 30
0.0
 11
1.618092
 21
0.334679
 31
0.0
  0
LINE
  8
1
  6
CONTINUOUS
 62
     7
  5
86
 10
1.917248
 20
0.448009
 30
0.0
 11
1.618092
 21
0.334679
 31
0.0
  0
ENDSEC
  0
EOF
