  0
SECTION
  2
HEADER
  9
$ACADVER
  1
AC1009
  9
$INSBASE
 10
0.0
 20
0.0
 30
0.0
  9
$EXTMIN
 10
0.8312
 20
4.9265
 30
0.0
  9
$EXTMAX
 10
48.8956
 20
46.9265
 30
0.0
  9
$LIMMIN
 10
0.0
 20
0.0
  9
$LIMMAX
 10
12.0
 20
9.0
  9
$ORTHOMODE
 70
     0
  9
$REGENMODE
 70
     1
  9
$FILLMODE
 70
     1
  9
$QTEXTMODE
 70
     0
  9
$MIRRTEXT
 70
     1
  9
$DRAGMODE
 70
     2
  9
$LTSCALE
 40
1.0
  9
$OSMODE
 70
     0
  9
$ATTMODE
 70
     1
  9
$TEXTSIZE
 40
0.2
  9
$TRACEWID
 40
0.05
  9
$TEXTSTYLE
  7
STANDARD
  9
$CLAYER
  8
0
  9
$CELTYPE
  6
CONTINUOUS
  9
$CECOLOR
 62
     2
  9
$DIMSCALE
 40
1.0
  9
$DIMASZ
 40
0.18
  9
$DIMEXO
 40
0.0625
  9
$DIMDLI
 40
0.38
  9
$DIMRND
 40
0.0
  9
$DIMDLE
 40
0.0
  9
$DIMEXE
 40
0.18
  9
$DIMTP
 40
0.0
  9
$DIMTM
 40
0.0
  9
$DIMTXT
 40
0.18
  9
$DIMCEN
 40
0.09
  9
$DIMTSZ
 40
0.0
  9
$DIMTOL
 70
     0
  9
$DIMLIM
 70
     0
  9
$DIMTIH
 70
     1
  9
$DIMTOH
 70
     1
  9
$DIMSE1
 70
     0
  9
$DIMSE2
 70
     0
  9
$DIMTAD
 70
     0
  9
$DIMZIN
 70
     0
  9
$DIMBLK
  1

  9
$DIMASO
 70
     1
  9
$DIMSHO
 70
     1
  9
$DIMPOST
  1

  9
$DIMAPOST
  1

  9
$DIMALT
 70
     0
  9
$DIMALTD
 70
     2
  9
$DIMALTF
 40
25.4
  9
$DIMLFAC
 40
1.0
  9
$DIMTOFL
 70
     0
  9
$DIMTVP
 40
0.0
  9
$DIMTIX
 70
     0
  9
$DIMSOXD
 70
     0
  9
$DIMSAH
 70
     0
  9
$DIMBLK1
  1

  9
$DIMBLK2
  1

  9
$DIMSTYLE
  2
STANDARD
  9
$DIMCLRD
 70
     0
  9
$DIMCLRE
 70
     0
  9
$DIMCLRT
 70
     0
  9
$DIMTFAC
 40
1.0
  9
$DIMGAP
 40
0.09
  9
$LUNITS
 70
     2
  9
$LUPREC
 70
     4
  9
$SKETCHINC
 40
0.1
  9
$FILLETRAD
 40
0.0
  9
$AUNITS
 70
     0
  9
$AUPREC
 70
     0
  9
$MENU
  1
acad
  9
$ELEVATION
 40
0.0
  9
$PELEVATION
 40
0.0
  9
$THICKNESS
 40
0.0
  9
$LIMCHECK
 70
     0
  9
$BLIPMODE
 70
     1
  9
$CHAMFERA
 40
0.0
  9
$CHAMFERB
 40
0.0
  9
$SKPOLY
 70
     0
  9
$TDCREATE
 40
2451754.542396
  9
$TDUPDATE
 40
2451754.542396
  9
$TDINDWG
 40
0.0
  9
$TDUSRTIMER
 40
0.0
  9
$USRTIMER
 70
     1
  9
$ANGBASE
 50
0.0
  9
$ANGDIR
 70
     0
  9
$PDMODE
 70
     0
  9
$PDSIZE
 40
0.0
  9
$PLINEWID
 40
0.0
  9
$COORDS
 70
     0
  9
$SPLFRAME
 70
     0
  9
$SPLINETYPE
 70
     6
  9
$SPLINESEGS
 70
    10
  9
$ATTDIA
 70
     0
  9
$ATTREQ
 70
     1
  9
$HANDLING
 70
     1
  9
$HANDSEED
  5
11E
  9
$SURFTAB1
 70
     6
  9
$SURFTAB2
 70
     6
  9
$SURFTYPE
 70
     6
  9
$SURFU
 70
     6
  9
$SURFV
 70
     6
  9
$UCSNAME
  2

  9
$UCSORG
 10
0.0
 20
0.0
 30
0.0
  9
$UCSXDIR
 10
1.0
 20
0.0
 30
0.0
  9
$UCSYDIR
 10
0.0
 20
1.0
 30
0.0
  9
$PUCSNAME
  2

  9
$PUCSORG
 10
0.0
 20
0.0
 30
0.0
  9
$PUCSXDIR
 10
1.0
 20
0.0
 30
0.0
  9
$PUCSYDIR
 10
0.0
 20
1.0
 30
0.0
  9
$USERI1
 70
     0
  9
$USERI2
 70
     0
  9
$USERI3
 70
     0
  9
$USERI4
 70
     0
  9
$USERI5
 70
     0
  9
$USERR1
 40
0.0
  9
$USERR2
 40
0.0
  9
$USERR3
 40
0.0
  9
$USERR4
 40
0.0
  9
$USERR5
 40
0.0
  9
$WORLDVIEW
 70
     1
  9
$SHADEDGE
 70
     3
  9
$SHADEDIF
 70
    70
  9
$TILEMODE
 70
     1
  9
$MAXACTVP
 70
    16
  9
$PLIMCHECK
 70
     0
  9
$PEXTMIN
 10
-1.000000E+020
 20
-1.000000E+020
 30
-1.000000E+020
  9
$PEXTMAX
 10
-1.000000E+020
 20
-1.000000E+020
 30
-1.000000E+020
  9
$PLIMMIN
 10
0.0
 20
0.0
  9
$PLIMMAX
 10
12.0
 20
9.0
  9
$UNITMODE
 70
     0
  9
$VISRETAIN
 70
     0
  9
$PLINEGEN
 70
     1
  9
$PSLTSCALE
 70
     0
  0
ENDSEC
  0
SECTION
  2
TABLES
  0
TABLE
  2
VPORT
 70
     2
  0
VPORT
  2
*ACTIVE
 70
     0
 10
0.0
 20
0.0
 11
1.0
 21
1.0
 12
0.65278
 22
-0.248007
 13
0.0
 23
0.0
 14
0.0
 24
0.0
 15
0.0
 25
0.0
 16
0.0
 26
0.0
 36
1.0
 17
35.347194
 27
25.0442
 37
0.0
 40
47.452778
 41
1.709738
 42
50.0
 43
500.8835
 44
0.0
 50
0.0
 51
0.0
 71
     0
 72
   100
 73
     1
 74
     0
 75
     0
 76
     0
 77
     0
 78
     0
  0
ENDTAB
  0
TABLE
  2
LTYPE
 70
     7
  0
LTYPE
  2
CONTINUOUS
 70
     0
  3
Solid line
 72
    65
 73
     0
 40
0.0
  0
LTYPE
  2
DOT
 70
     0
  3
. . . . . . . . . . . . . . . . . . . . . . . . . . . . . . . . .
 72
    65
 73
     2
 40
0.25
 49
0.0
 49
-0.25
  0
LTYPE
  2
HIDDEN
 70
     0
  3
__ __ __ __ __ __ __ __ __ __ __ __ __ __ __ __ __ __ __ __ __ 
 72
    65
 73
     2
 40
0.375
 49
0.25
 49
-0.125
  0
LTYPE
  2
DASHED
 70
     0
  3
__ __ __ __ __ __ __ __ __ __ __ __ __ __ __ __ __ __ __ __ __
 72
    65
 73
     2
 40
0.75
 49
0.5
 49
-0.25
  0
LTYPE
  2
DASHDOT
 70
     0
  3
__ . __ . __ . __ . __ . __ . __ . __ . __ . __ . __ . __ . _
 72
    65
 73
     4
 40
1.0
 49
0.5
 49
-0.25
 49
0.0
 49
-0.25
  0
LTYPE
  2
DIVIDE
 70
     0
  3
____ . . ____ . . ____ . . ____ . . ____ . . ____ . . ____ . .
 72
    65
 73
     6
 40
1.25
 49
0.5
 49
-0.25
 49
0.0
 49
-0.25
 49
0.0
 49
-0.25
  0
LTYPE
  2
CENTER
 70
     0
  3
____ _ ____ _ ____ _ ____ _ ____ _ ____ _ ____ _ ____ _ ____ _
 72
    65
 73
     4
 40
2.0
 49
1.25
 49
-0.25
 49
0.25
 49
-0.25
  0
ENDTAB
  0
TABLE
  2
LAYER
 70
     5
  0
LAYER
  2
0
 70
     0
 62
     7
  6
CONTINUOUS
  0
LAYER
  2
CONSTRUCTION_CLASS
 70
     0
 62
     7
  6
CONTINUOUS
  0
LAYER
  2
PATTERN_CLASS
 70
     0
 62
     7
  6
CONTINUOUS
  0
LAYER
  2
TRAZOS
 70
     0
 62
     7
  6
CONTINUOUS
  0
LAYER
  2
RESULTADO
 70
     0
 62
     7
  6
CONTINUOUS
  0
ENDTAB
  0
TABLE
  2
STYLE
 70
     1
  0
STYLE
  2
STANDARD
 70
     0
 40
0.0
 41
1.0
 50
0.0
 71
     0
 42
0.0
  3
txt
  4

  0
ENDTAB
  0
TABLE
  2
VIEW
 70
     0
  0
ENDTAB
  0
TABLE
  2
UCS
 70
     0
  0
ENDTAB
  0
TABLE
  2
APPID
 70
     1
  0
APPID
  2
ACAD
 70
     0
  0
ENDTAB
  0
TABLE
  2
DIMSTYLE
 70
     1
  0
DIMSTYLE
  2
STANDARD
 70
     0
  3

  4

  5

  6

  7

 40
1.0
 41
0.18
 42
0.0625
 43
0.38
 44
0.18
 45
0.0
 46
0.0
 47
0.0
 48
0.0
140
0.18
141
0.09
142
0.0
143
25.4
144
1.0
145
0.0
146
1.0
147
0.09
 71
     0
 72
     0
 73
     1
 74
     1
 75
     0
 76
     0
 77
     0
 78
     0
170
     0
171
     2
172
     0
173
     0
174
     0
175
     0
176
     0
177
     0
178
     0
  0
ENDTAB
  0
ENDSEC
  0
SECTION
  2
BLOCKS
  0
BLOCK
  8
0
  2
$MODEL_SPACE
 70
     0
 10
0.0
 20
0.0
 30
0.0
  3
$MODEL_SPACE
  1

  0
ENDBLK
  5
108
  8
0
  0
BLOCK
 67
     1
  8
0
  2
$PAPER_SPACE
 70
     0
 10
0.0
 20
0.0
 30
0.0
  3
$PAPER_SPACE
  1

  0
ENDBLK
  5
105
 67
     1
  8
0
  0
ENDSEC
  0
SECTION
  2
ENTITIES
  0
LINE
  5
29
  8
TRAZOS
  6
CONTINUOUS
 62
     7
 10
7.3264
 20
15.6765
 30
0.0
 11
26.8119
 21
26.9265
 31
0.0
  0
LINE
  5
2A
  8
TRAZOS
  6
CONTINUOUS
 62
     7
 10
26.8119
 20
26.9265
 30
0.0
 11
42.4004
 21
17.9265
 31
0.0
  0
LINE
  5
2B
  8
TRAZOS
  6
CONTINUOUS
 62
     7
 10
22.9148
 20
6.6765
 30
0.0
 11
42.4004
 21
17.9265
 31
0.0
  0
LINE
  5
2C
  8
TRAZOS
  6
CONTINUOUS
 62
     7
 10
7.3264
 20
15.6765
 30
0.0
 11
22.9148
 21
6.6765
 31
0.0
  0
LINE
  5
2D
  8
TRAZOS
  6
CONTINUOUS
 62
     7
 10
26.8119
 20
26.9265
 30
0.0
 11
26.8119
 21
31.9265
 31
0.0
  0
LINE
  5
2E
  8
TRAZOS
  6
CONTINUOUS
 62
     7
 10
42.4004
 20
17.9265
 30
0.0
 11
42.4004
 21
22.9265
 31
0.0
  0
LINE
  5
2F
  8
TRAZOS
  6
CONTINUOUS
 62
     7
 10
22.9148
 20
6.6765
 30
0.0
 11
22.9148
 21
11.6765
 31
0.0
  0
LINE
  5
30
  8
TRAZOS
  6
CONTINUOUS
 62
     7
 10
7.3264
 20
15.6765
 30
0.0
 11
7.3264
 21
20.6765
 31
0.0
  0
LINE
  5
31
  8
TRAZOS
  6
CONTINUOUS
 62
     7
 10
7.3264
 20
20.6765
 30
0.0
 11
0.8312
 21
16.9265
 31
0.0
  0
LINE
  5
32
  8
TRAZOS
  6
CONTINUOUS
 62
     7
 10
33.3071
 20
35.6765
 30
0.0
 11
26.8119
 21
31.9265
 31
0.0
  0
LINE
  5
33
  8
TRAZOS
  6
CONTINUOUS
 62
     7
 10
42.4004
 20
22.9265
 30
0.0
 11
47.5965
 21
19.9265
 31
0.0
  0
LINE
  5
39
  8
RESULTADO
  6
CONTINUOUS
 62
     7
 10
33.3071
 20
45.6765
 30
0.0
 11
48.8956
 21
36.6765
 31
0.0
  0
LINE
  5
3C
  8
TRAZOS
  6
CONTINUOUS
 62
     7
 10
26.8119
 20
41.9265
 30
0.0
 11
42.4004
 21
32.9265
 31
0.0
  0
LINE
  5
3D
  8
TRAZOS
  6
CONTINUOUS
 62
     7
 10
26.8119
 20
41.9265
 30
0.0
 11
33.3071
 21
45.6765
 31
0.0
  0
LINE
  5
48
  8
TRAZOS
  6
CONTINUOUS
 62
     7
 10
26.8119
 20
41.9265
 30
0.0
 11
26.8119
 21
46.9265
 31
0.0
  0
LINE
  5
49
  8
RESULTADO
  6
CONTINUOUS
 62
     7
 10
0.8312
 20
31.9265
 30
0.0
 11
26.8119
 21
46.9265
 31
0.0
  0
LINE
  5
4B
  8
RESULTADO
  6
CONTINUOUS
 62
     7
 10
21.6158
 20
19.9265
 30
0.0
 11
47.5965
 21
34.9265
 31
0.0
  0
LINE
  5
50
  8
RESULTADO
  6
CONTINUOUS
 62
     7
 10
21.6158
 20
4.9265
 30
0.0
 11
47.5965
 21
19.9265
 31
0.0
  0
LINE
  5
51
  8
TRAZOS
  6
CONTINUOUS
 62
     7
 10
42.4004
 20
22.9265
 30
0.0
 11
26.8119
 21
31.9265
 31
0.0
  0
LINE
  5
52
  8
TRAZOS
  6
CONTINUOUS
 62
     7
 10
33.3071
 20
35.6765
 30
0.0
 11
48.8956
 21
26.6765
 31
0.0
  0
LINE
  5
53
  8
TRAZOS
  6
CONTINUOUS
 62
     7
 10
7.3264
 20
20.6765
 30
0.0
 11
22.9148
 21
11.6765
 31
0.0
  0
LINE
  5
54
  8
TRAZOS
  6
CONTINUOUS
 62
     7
 10
22.9148
 20
11.6765
 30
0.0
 11
42.4004
 21
22.9265
 31
0.0
  0
LINE
  5
55
  8
TRAZOS
  6
CONTINUOUS
 62
     7
 10
48.8956
 20
36.6765
 30
0.0
 11
42.4004
 21
32.9265
 31
0.0
  0
LINE
  5
56
  8
TRAZOS
  6
CONTINUOUS
 62
     7
 10
48.8956
 20
26.6765
 30
0.0
 11
42.4004
 21
22.9265
 31
0.0
  0
LINE
  5
5C
  8
0
  6
CONTINUOUS
 62
     7
 10
42.4004
 20
22.9265
 30
0.0
 11
42.4004
 21
32.9265
 31
0.0
  0
LINE
  5
5D
  8
0
  6
CONTINUOUS
 62
     7
 10
33.3071
 20
45.6765
 30
0.0
 11
33.3071
 21
35.6765
 31
0.0
  0
LINE
  5
5E
  8
0
  6
CONTINUOUS
 62
     7
 10
26.8119
 20
46.9265
 30
0.0
 11
47.5965
 21
34.9265
 31
0.0
  0
LINE
  5
5F
  8
0
  6
CONTINUOUS
 62
     7
 10
21.6158
 20
4.9265
 30
0.0
 11
0.8312
 21
16.9265
 31
0.0
  0
LINE
  5
60
  8
0
  6
CONTINUOUS
 62
     7
 10
0.8312
 20
16.9265
 30
0.0
 11
0.8312
 21
31.9265
 31
0.0
  0
LINE
  5
61
  8
0
  6
CONTINUOUS
 62
     7
 10
0.8312
 20
31.9265
 30
0.0
 11
21.6158
 21
19.9265
 31
0.0
  0
LINE
  5
62
  8
0
  6
CONTINUOUS
 62
     7
 10
21.6158
 20
19.9265
 30
0.0
 11
21.6158
 21
4.9265
 31
0.0
  0
LINE
  5
ED
  8
0
  6
CONTINUOUS
 62
     7
 10
48.8956
 20
36.6765
 30
0.0
 11
48.8956
 21
26.6765
 31
0.0
  0
LINE
  5
11C
  8
0
  6
CONTINUOUS
 62
     7
 10
47.5965
 20
19.9265
 30
0.0
 11
47.5965
 21
34.9265
 31
0.0
  0
ENDSEC
  0
EOF
