  0
SECTION
  2
HEADER
  9
$ACADVER
  1
AC1009
  9
$INSBASE
 10
0.0
 20
0.0
 30
0.0
  9
$EXTMIN
 10
858.871855
 20
22.024291
 30
0.0
  9
$EXTMAX
 10
1112.928416
 20
232.204807
 30
0.0
  9
$LIMMIN
 10
0.0
 20
0.0
  9
$LIMMAX
 10
420.0
 20
297.0
  9
$ORTHOMODE
 70
     1
  9
$REGENMODE
 70
     1
  9
$FILLMODE
 70
     1
  9
$QTEXTMODE
 70
     0
  9
$MIRRTEXT
 70
     1
  9
$DRAGMODE
 70
     2
  9
$LTSCALE
 40
1.0
  9
$OSMODE
 70
     0
  9
$ATTMODE
 70
     1
  9
$TEXTSIZE
 40
2.5
  9
$TRACEWID
 40
1.0
  9
$TEXTSTYLE
  7
STANDARD
  9
$CLAYER
  8
0
  9
$CELTYPE
  6
BYLAYER
  9
$CECOLOR
 62
     2
  9
$DIMSCALE
 40
1.0
  9
$DIMASZ
 40
2.5
  9
$DIMEXO
 40
0.625
  9
$DIMDLI
 40
3.75
  9
$DIMRND
 40
0.0
  9
$DIMDLE
 40
0.0
  9
$DIMEXE
 40
1.25
  9
$DIMTP
 40
0.0
  9
$DIMTM
 40
0.0
  9
$DIMTXT
 40
2.5
  9
$DIMCEN
 40
2.5
  9
$DIMTSZ
 40
0.0
  9
$DIMTOL
 70
     0
  9
$DIMLIM
 70
     0
  9
$DIMTIH
 70
     0
  9
$DIMTOH
 70
     0
  9
$DIMSE1
 70
     0
  9
$DIMSE2
 70
     0
  9
$DIMTAD
 70
     1
  9
$DIMZIN
 70
     8
  9
$DIMBLK
  1

  9
$DIMASO
 70
     1
  9
$DIMSHO
 70
     1
  9
$DIMPOST
  1

  9
$DIMAPOST
  1

  9
$DIMALT
 70
     0
  9
$DIMALTD
 70
     4
  9
$DIMALTF
 40
0.0394
  9
$DIMLFAC
 40
1.0
  9
$DIMTOFL
 70
     1
  9
$DIMTVP
 40
0.0
  9
$DIMTIX
 70
     0
  9
$DIMSOXD
 70
     0
  9
$DIMSAH
 70
     0
  9
$DIMBLK1
  1

  9
$DIMBLK2
  1

  9
$DIMSTYLE
  2
STANDARD
  9
$DIMCLRD
 70
     0
  9
$DIMCLRE
 70
     0
  9
$DIMCLRT
 70
     0
  9
$DIMTFAC
 40
1.0
  9
$DIMGAP
 40
0.625
  9
$LUNITS
 70
     2
  9
$LUPREC
 70
     4
  9
$SKETCHINC
 40
1.0
  9
$FILLETRAD
 40
10.0
  9
$AUNITS
 70
     0
  9
$AUPREC
 70
     0
  9
$MENU
  1
.
  9
$ELEVATION
 40
0.0
  9
$PELEVATION
 40
0.0
  9
$THICKNESS
 40
0.0
  9
$LIMCHECK
 70
     0
  9
$BLIPMODE
 70
     0
  9
$CHAMFERA
 40
0.0
  9
$CHAMFERB
 40
0.0
  9
$SKPOLY
 70
     0
  9
$TDCREATE
 40
2451319.472807
  9
$TDUPDATE
 40
2451709.704949
  9
$TDINDWG
 40
0.001616
  9
$TDUSRTIMER
 40
0.001616
  9
$USRTIMER
 70
     1
  9
$ANGBASE
 50
0.0
  9
$ANGDIR
 70
     0
  9
$PDMODE
 70
     0
  9
$PDSIZE
 40
0.0
  9
$PLINEWID
 40
0.0
  9
$COORDS
 70
     1
  9
$SPLFRAME
 70
     0
  9
$SPLINETYPE
 70
     6
  9
$SPLINESEGS
 70
     8
  9
$ATTDIA
 70
     0
  9
$ATTREQ
 70
     1
  9
$HANDLING
 70
     1
  9
$HANDSEED
  5
2DD
  9
$SURFTAB1
 70
     6
  9
$SURFTAB2
 70
     6
  9
$SURFTYPE
 70
     6
  9
$SURFU
 70
     6
  9
$SURFV
 70
     6
  9
$UCSNAME
  2

  9
$UCSORG
 10
0.0
 20
0.0
 30
0.0
  9
$UCSXDIR
 10
1.0
 20
0.0
 30
0.0
  9
$UCSYDIR
 10
0.0
 20
1.0
 30
0.0
  9
$PUCSNAME
  2

  9
$PUCSORG
 10
0.0
 20
0.0
 30
0.0
  9
$PUCSXDIR
 10
1.0
 20
0.0
 30
0.0
  9
$PUCSYDIR
 10
0.0
 20
1.0
 30
0.0
  9
$USERI1
 70
     0
  9
$USERI2
 70
     0
  9
$USERI3
 70
     0
  9
$USERI4
 70
     0
  9
$USERI5
 70
     0
  9
$USERR1
 40
0.0
  9
$USERR2
 40
0.0
  9
$USERR3
 40
0.0
  9
$USERR4
 40
0.0
  9
$USERR5
 40
0.0
  9
$WORLDVIEW
 70
     1
  9
$SHADEDGE
 70
     3
  9
$SHADEDIF
 70
    70
  9
$TILEMODE
 70
     1
  9
$MAXACTVP
 70
    48
  9
$PLIMCHECK
 70
     0
  9
$PEXTMIN
 10
1.000000E+020
 20
1.000000E+020
 30
1.000000E+020
  9
$PEXTMAX
 10
-1.000000E+020
 20
-1.000000E+020
 30
-1.000000E+020
  9
$PLIMMIN
 10
0.0
 20
0.0
  9
$PLIMMAX
 10
420.0
 20
297.0
  9
$UNITMODE
 70
     0
  9
$VISRETAIN
 70
     1
  9
$PLINEGEN
 70
     0
  9
$PSLTSCALE
 70
     1
  0
ENDSEC
  0
SECTION
  2
TABLES
  0
TABLE
  2
VPORT
 70
     2
  0
VPORT
  2
*ACTIVE
 70
     0
 10
0.0
 20
0.0
 11
1.0
 21
1.0
 12
830.045368
 22
125.70157
 13
0.0
 23
0.0
 14
10.0
 24
10.0
 15
10.0
 25
10.0
 16
0.0
 26
0.0
 36
1.0
 17
0.0
 27
0.0
 37
0.0
 40
779.421325
 41
1.438757
 42
50.0
 43
0.0
 44
0.0
 50
0.0
 51
0.0
 71
     0
 72
   100
 73
     1
 74
     1
 75
     0
 76
     0
 77
     0
 78
     0
  0
ENDTAB
  0
TABLE
  2
LTYPE
 70
     1
  0
LTYPE
  2
CONTINUOUS
 70
     0
  3
Solid line
 72
    65
 73
     0
 40
0.0
  0
ENDTAB
  0
TABLE
  2
LAYER
 70
     1
  0
LAYER
  2
0
 70
     0
 62
     7
  6
CONTINUOUS
  0
ENDTAB
  0
TABLE
  2
STYLE
 70
     1
  0
STYLE
  2
STANDARD
 70
     0
 40
0.0
 41
1.0
 50
0.0
 71
     0
 42
2.5
  3
txt
  4

  0
ENDTAB
  0
TABLE
  2
VIEW
 70
     0
  0
ENDTAB
  0
TABLE
  2
UCS
 70
     0
  0
ENDTAB
  0
TABLE
  2
APPID
 70
     1
  0
APPID
  2
ACAD
 70
     0
  0
ENDTAB
  0
TABLE
  2
DIMSTYLE
 70
     1
  0
DIMSTYLE
  2
STANDARD
 70
     0
  3

  4

  5

  6

  7

 40
1.0
 41
0.18
 42
0.0625
 43
0.38
 44
0.18
 45
0.0
 46
0.0
 47
0.0
 48
0.0
140
0.18
141
0.09
142
0.0
143
25.4
144
1.0
145
0.0
146
1.0
147
0.09
 71
     0
 72
     0
 73
     1
 74
     1
 75
     0
 76
     0
 77
     0
 78
     0
170
     0
171
     2
172
     0
173
     0
174
     0
175
     0
176
     0
177
     0
178
     0
  0
ENDTAB
  0
ENDSEC
  0
SECTION
  2
BLOCKS
  0
BLOCK
  8
0
  2
$MODEL_SPACE
 70
     0
 10
0.0
 20
0.0
 30
0.0
  3
$MODEL_SPACE
  1

  0
ENDBLK
  5
2D2
  8
0
  0
BLOCK
 67
     1
  8
0
  2
$PAPER_SPACE
 70
     0
 10
0.0
 20
0.0
 30
0.0
  3
$PAPER_SPACE
  1

  0
ENDBLK
  5
2CF
 67
     1
  8
0
  0
ENDSEC
  0
SECTION
  2
ENTITIES
  0
LINE
  5
244
  8
0
 62
     7
 10
999.765495
 20
195.911667
 30
0.0
 11
1023.401211
 21
209.03332
 31
0.0
  0
LINE
  5
246
  8
0
 62
     7
 10
950.001507
 20
211.797238
 30
0.0
 11
973.637222
 21
224.918891
 31
0.0
  0
LINE
  5
247
  8
0
 62
     7
 10
950.001507
 20
211.797238
 30
0.0
 11
999.765495
 21
195.911667
 31
0.0
  0
LINE
  5
248
  8
0
 62
     7
 10
973.637222
 20
224.918891
 30
0.0
 11
1023.401211
 21
209.03332
 31
0.0
  0
LINE
  5
24D
  8
0
 62
     7
 10
1023.401211
 20
209.03332
 30
0.0
 11
1023.401211
 21
146.06537
 31
0.0
  0
LINE
  5
277
  8
0
 62
     7
 10
950.001507
 20
211.797238
 30
0.0
 11
950.001507
 21
177.689872
 31
0.0
  0
LINE
  5
278
  8
0
 62
     7
 10
858.871855
 20
127.098144
 30
0.0
 11
950.001507
 21
177.689872
 31
0.0
  0
LINE
  5
279
  8
0
 62
     7
 10
858.871855
 20
127.098144
 30
0.0
 11
883.580998
 21
119.210536
 31
0.0
  0
LINE
  5
27A
  8
0
 62
     7
 10
883.580998
 20
119.210536
 30
0.0
 11
974.710649
 21
169.802264
 31
0.0
  0
LINE
  5
27B
  8
0
 62
     7
 10
950.001507
 20
177.689872
 30
0.0
 11
974.710649
 21
169.802264
 31
0.0
  0
LINE
  5
27C
  8
0
 62
     7
 10
999.765495
 20
195.911667
 30
0.0
 11
999.765495
 21
161.804302
 31
0.0
  0
LINE
  5
27D
  8
0
 62
     7
 10
974.710649
 20
169.802264
 30
0.0
 11
999.765495
 21
161.804302
 31
0.0
  0
LINE
  5
27E
  8
0
 62
     7
 10
883.580998
 20
119.210536
 30
0.0
 11
883.580998
 21
90.349951
 31
0.0
  0
LINE
  5
27F
  8
0
 62
     7
 10
883.580998
 20
90.349951
 30
0.0
 11
908.635844
 21
82.351988
 31
0.0
  0
LINE
  5
280
  8
0
 62
     7
 10
883.580998
 20
90.349951
 30
0.0
 11
974.710649
 21
169.802264
 31
0.0
  0
LINE
  5
281
  8
0
 62
     7
 10
999.765495
 20
161.804302
 30
0.0
 11
908.635844
 21
82.351988
 31
0.0
  0
LINE
  5
282
  8
0
 62
     7
 10
908.635844
 20
82.351988
 30
0.0
 11
1023.401211
 21
146.06537
 31
0.0
  0
LINE
  5
283
  8
0
 62
     7
 10
858.871855
 20
127.098144
 30
0.0
 11
858.871855
 21
62.299174
 31
0.0
  0
LINE
  5
284
  8
0
 62
     7
 10
858.871855
 20
62.299174
 30
0.0
 11
985.039106
 21
22.024291
 31
0.0
  0
LINE
  5
285
  8
0
 62
     7
 10
1023.401211
 20
146.06537
 30
0.0
 11
1048.110353
 21
138.177762
 31
0.0
  0
LINE
  5
286
  8
0
 62
     7
 10
1021.862466
 20
123.60593
 30
0.0
 11
1048.110353
 21
138.177762
 31
0.0
  0
LINE
  5
287
  8
0
 62
     7
 10
1021.862466
 20
123.60593
 30
0.0
 11
1048.110353
 21
115.227127
 31
0.0
  0
LINE
  5
288
  8
0
 62
     7
 10
985.840761
 20
80.657409
 30
0.0
 11
1048.110353
 21
115.227127
 31
0.0
  0
LINE
  5
289
  8
0
 62
     7
 10
908.635844
 20
82.351988
 30
0.0
 11
933.344987
 21
74.46438
 31
0.0
  0
LINE
  5
28A
  8
0
 62
     7
 10
933.344987
 20
74.46438
 30
0.0
 11
959.592874
 21
89.036212
 31
0.0
  0
LINE
  5
28B
  8
0
 62
     7
 10
959.592874
 20
89.036212
 30
0.0
 11
985.840761
 21
80.657409
 31
0.0
  0
LINE
  5
28C
  8
0
 62
     7
 10
933.344987
 20
74.46438
 30
0.0
 11
933.344987
 21
58.474068
 31
0.0
  0
LINE
  5
28D
  8
0
 62
     7
 10
959.592874
 20
89.036212
 30
0.0
 11
959.592874
 21
73.045901
 31
0.0
  0
LINE
  5
28E
  8
0
 62
     7
 10
985.840761
 20
80.657409
 30
0.0
 11
985.840761
 21
64.667097
 31
0.0
  0
LINE
  5
28F
  8
0
 62
     7
 10
1048.110353
 20
115.227127
 30
0.0
 11
1048.110353
 21
99.236815
 31
0.0
  0
LINE
  5
291
  8
0
 62
     7
 10
933.344987
 20
58.474068
 30
0.0
 11
959.592874
 21
73.045901
 31
0.0
  0
LINE
  5
292
  8
0
 62
     7
 10
959.592874
 20
73.045901
 30
0.0
 11
985.840761
 21
64.667097
 31
0.0
  0
LINE
  5
293
  8
0
 62
     7
 10
985.840761
 20
64.667097
 30
0.0
 11
1048.110353
 21
99.236815
 31
0.0
  0
LINE
  5
295
  8
0
 62
     7
 10
933.344987
 20
58.474068
 30
0.0
 11
959.592874
 21
50.095265
 31
0.0
  0
LINE
  5
296
  8
0
 62
     7
 10
985.840761
 20
64.667097
 30
0.0
 11
959.592874
 21
50.095265
 31
0.0
  0
LINE
  5
298
  8
0
 62
     7
 10
1048.110353
 20
138.177762
 30
0.0
 11
1048.110353
 21
122.187451
 31
0.0
  0
LINE
  5
299
  8
0
 62
     7
 10
1021.862466
 20
107.615618
 30
0.0
 11
1048.110353
 21
99.236815
 31
0.0
  0
LINE
  5
29A
  8
0
 62
     7
 10
1021.862466
 20
123.60593
 30
0.0
 11
1021.862466
 21
107.615618
 31
0.0
  0
LINE
  5
29B
  8
0
 62
     7
 10
1021.862466
 20
107.615618
 30
0.0
 11
1048.110353
 21
122.187451
 31
0.0
  0
LINE
  5
29C
  8
0
 62
     7
 10
1048.110353
 20
122.187451
 30
0.0
 11
1074.358241
 21
113.808647
 31
0.0
  0
LINE
  5
2A6
  8
0
 62
     7
 10
858.871855
 20
62.299174
 30
0.0
 11
986.761166
 21
133.298472
 31
0.0
  0
LINE
  5
2AD
  8
0
 62
     7
 10
973.637222
 20
224.918891
 30
0.0
 11
986.761166
 21
232.204807
 31
0.0
  0
LINE
  5
2AE
  8
0
 62
     7
 10
973.637222
 20
224.918891
 30
0.0
 11
1074.358241
 21
113.808647
 31
0.0
  0
LINE
  5
2AF
  8
0
 62
     7
 10
986.761166
 20
232.204807
 30
0.0
 11
1112.928416
 21
93.02359
 31
0.0
  0
LINE
  5
2B1
  8
0
 62
     7
 10
985.039106
 20
22.024291
 30
0.0
 11
1112.928416
 21
93.02359
 31
0.0
  0
LINE
  5
2B2
  8
0
 62
     7
 10
985.039106
 20
22.024291
 30
0.0
 11
959.592874
 21
50.095265
 31
0.0
  0
LINE
  5
2B3
  8
0
 62
     7
 10
1074.358241
 20
113.808647
 30
0.0
 11
1048.110353
 21
99.236815
 31
0.0
  0
LINE
  5
2B5
  8
0
 62
     7
 10
986.761166
 20
232.204807
 30
0.0
 11
986.761166
 21
133.298472
 31
0.0
  0
LINE
  5
2B6
  8
0
 62
     7
 10
986.761166
 20
133.298472
 30
0.0
 11
1112.928416
 21
93.02359
 31
0.0
  0
ENDSEC
  0
EOF
