  0
SECTION
  2
HEADER
  9
$ACADVER
  1
AC1009
  9
$INSBASE
 10
0.0
 20
0.0
 30
0.0
  9
$EXTMIN
 10
31.902412
 20
85.285321
 30
0.0
  9
$EXTMAX
 10
218.408819
 20
254.766055
 30
0.0
  9
$LIMMIN
 10
0.0
 20
0.0
  9
$LIMMAX
 10
420.0
 20
297.0
  9
$ORTHOMODE
 70
     1
  9
$REGENMODE
 70
     1
  9
$FILLMODE
 70
     1
  9
$QTEXTMODE
 70
     0
  9
$MIRRTEXT
 70
     1
  9
$DRAGMODE
 70
     2
  9
$LTSCALE
 40
1.0
  9
$OSMODE
 70
     0
  9
$ATTMODE
 70
     1
  9
$TEXTSIZE
 40
2.5
  9
$TRACEWID
 40
1.0
  9
$TEXTSTYLE
  7
STANDARD
  9
$CLAYER
  8
0
  9
$CELTYPE
  6
BYLAYER
  9
$CECOLOR
 62
   256
  9
$DIMSCALE
 40
1.0
  9
$DIMASZ
 40
2.5
  9
$DIMEXO
 40
0.625
  9
$DIMDLI
 40
3.75
  9
$DIMRND
 40
0.0
  9
$DIMDLE
 40
0.0
  9
$DIMEXE
 40
1.25
  9
$DIMTP
 40
0.0
  9
$DIMTM
 40
0.0
  9
$DIMTXT
 40
2.5
  9
$DIMCEN
 40
2.5
  9
$DIMTSZ
 40
0.0
  9
$DIMTOL
 70
     0
  9
$DIMLIM
 70
     0
  9
$DIMTIH
 70
     0
  9
$DIMTOH
 70
     0
  9
$DIMSE1
 70
     0
  9
$DIMSE2
 70
     0
  9
$DIMTAD
 70
     1
  9
$DIMZIN
 70
     8
  9
$DIMBLK
  1

  9
$DIMASO
 70
     1
  9
$DIMSHO
 70
     1
  9
$DIMPOST
  1

  9
$DIMAPOST
  1

  9
$DIMALT
 70
     0
  9
$DIMALTD
 70
     4
  9
$DIMALTF
 40
0.0394
  9
$DIMLFAC
 40
1.0
  9
$DIMTOFL
 70
     1
  9
$DIMTVP
 40
0.0
  9
$DIMTIX
 70
     0
  9
$DIMSOXD
 70
     0
  9
$DIMSAH
 70
     0
  9
$DIMBLK1
  1

  9
$DIMBLK2
  1

  9
$DIMSTYLE
  2
STANDARD
  9
$DIMCLRD
 70
     0
  9
$DIMCLRE
 70
     0
  9
$DIMCLRT
 70
     0
  9
$DIMTFAC
 40
1.0
  9
$DIMGAP
 40
0.625
  9
$LUNITS
 70
     2
  9
$LUPREC
 70
     4
  9
$SKETCHINC
 40
1.0
  9
$FILLETRAD
 40
10.0
  9
$AUNITS
 70
     0
  9
$AUPREC
 70
     0
  9
$MENU
  1
.
  9
$ELEVATION
 40
0.0
  9
$PELEVATION
 40
0.0
  9
$THICKNESS
 40
0.0
  9
$LIMCHECK
 70
     0
  9
$BLIPMODE
 70
     0
  9
$CHAMFERA
 40
0.0
  9
$CHAMFERB
 40
0.0
  9
$SKPOLY
 70
     0
  9
$TDCREATE
 40
2451319.472807
  9
$TDUPDATE
 40
2451709.704949
  9
$TDINDWG
 40
0.001616
  9
$TDUSRTIMER
 40
0.001616
  9
$USRTIMER
 70
     1
  9
$ANGBASE
 50
0.0
  9
$ANGDIR
 70
     0
  9
$PDMODE
 70
     0
  9
$PDSIZE
 40
0.0
  9
$PLINEWID
 40
0.0
  9
$COORDS
 70
     1
  9
$SPLFRAME
 70
     0
  9
$SPLINETYPE
 70
     6
  9
$SPLINESEGS
 70
     8
  9
$ATTDIA
 70
     0
  9
$ATTREQ
 70
     1
  9
$HANDLING
 70
     1
  9
$HANDSEED
  5
183
  9
$SURFTAB1
 70
     6
  9
$SURFTAB2
 70
     6
  9
$SURFTYPE
 70
     6
  9
$SURFU
 70
     6
  9
$SURFV
 70
     6
  9
$UCSNAME
  2

  9
$UCSORG
 10
0.0
 20
0.0
 30
0.0
  9
$UCSXDIR
 10
1.0
 20
0.0
 30
0.0
  9
$UCSYDIR
 10
0.0
 20
1.0
 30
0.0
  9
$PUCSNAME
  2

  9
$PUCSORG
 10
0.0
 20
0.0
 30
0.0
  9
$PUCSXDIR
 10
1.0
 20
0.0
 30
0.0
  9
$PUCSYDIR
 10
0.0
 20
1.0
 30
0.0
  9
$USERI1
 70
     0
  9
$USERI2
 70
     0
  9
$USERI3
 70
     0
  9
$USERI4
 70
     0
  9
$USERI5
 70
     0
  9
$USERR1
 40
0.0
  9
$USERR2
 40
0.0
  9
$USERR3
 40
0.0
  9
$USERR4
 40
0.0
  9
$USERR5
 40
0.0
  9
$WORLDVIEW
 70
     1
  9
$SHADEDGE
 70
     3
  9
$SHADEDIF
 70
    70
  9
$TILEMODE
 70
     1
  9
$MAXACTVP
 70
    48
  9
$PLIMCHECK
 70
     0
  9
$PEXTMIN
 10
1.000000E+020
 20
1.000000E+020
 30
1.000000E+020
  9
$PEXTMAX
 10
-1.000000E+020
 20
-1.000000E+020
 30
-1.000000E+020
  9
$PLIMMIN
 10
0.0
 20
0.0
  9
$PLIMMAX
 10
420.0
 20
297.0
  9
$UNITMODE
 70
     0
  9
$VISRETAIN
 70
     1
  9
$PLINEGEN
 70
     0
  9
$PSLTSCALE
 70
     1
  0
ENDSEC
  0
SECTION
  2
TABLES
  0
TABLE
  2
VPORT
 70
     2
  0
VPORT
  2
*ACTIVE
 70
     0
 10
0.0
 20
0.0
 11
1.0
 21
1.0
 12
213.655393
 22
148.5
 13
0.0
 23
0.0
 14
10.0
 24
10.0
 15
10.0
 25
10.0
 16
0.0
 26
0.0
 36
1.0
 17
0.0
 27
0.0
 37
0.0
 40
297.0
 41
1.438757
 42
50.0
 43
0.0
 44
0.0
 50
0.0
 51
0.0
 71
     0
 72
   100
 73
     1
 74
     1
 75
     0
 76
     0
 77
     0
 78
     0
  0
ENDTAB
  0
TABLE
  2
LTYPE
 70
     1
  0
LTYPE
  2
CONTINUOUS
 70
     0
  3
Solid line
 72
    65
 73
     0
 40
0.0
  0
ENDTAB
  0
TABLE
  2
LAYER
 70
     1
  0
LAYER
  2
0
 70
     0
 62
     7
  6
CONTINUOUS
  0
ENDTAB
  0
TABLE
  2
STYLE
 70
     1
  0
STYLE
  2
STANDARD
 70
     0
 40
0.0
 41
1.0
 50
0.0
 71
     0
 42
2.5
  3
txt
  4

  0
ENDTAB
  0
TABLE
  2
VIEW
 70
     0
  0
ENDTAB
  0
TABLE
  2
UCS
 70
     0
  0
ENDTAB
  0
TABLE
  2
APPID
 70
     1
  0
APPID
  2
ACAD
 70
     0
  0
ENDTAB
  0
TABLE
  2
DIMSTYLE
 70
     1
  0
DIMSTYLE
  2
STANDARD
 70
     0
  3

  4

  5

  6

  7

 40
1.0
 41
0.18
 42
0.0625
 43
0.38
 44
0.18
 45
0.0
 46
0.0
 47
0.0
 48
0.0
140
0.18
141
0.09
142
0.0
143
25.4
144
1.0
145
0.0
146
1.0
147
0.09
 71
     0
 72
     0
 73
     1
 74
     1
 75
     0
 76
     0
 77
     0
 78
     0
170
     0
171
     2
172
     0
173
     0
174
     0
175
     0
176
     0
177
     0
178
     0
  0
ENDTAB
  0
ENDSEC
  0
SECTION
  2
BLOCKS
  0
BLOCK
  8
0
  2
$MODEL_SPACE
 70
     0
 10
0.0
 20
0.0
 30
0.0
  3
$MODEL_SPACE
  1

  0
ENDBLK
  5
178
  8
0
  0
BLOCK
 67
     1
  8
0
  2
$PAPER_SPACE
 70
     0
 10
0.0
 20
0.0
 30
0.0
  3
$PAPER_SPACE
  1

  0
ENDBLK
  5
175
 67
     1
  8
0
  0
ENDSEC
  0
SECTION
  2
ENTITIES
  0
LINE
  5
20
  8
0
 62
     7
 10
149.695933
 20
85.285321
 30
0.0
 11
180.861024
 21
102.586998
 31
0.0
  0
LINE
  5
21
  8
0
 62
     7
 10
218.408819
 20
143.556972
 30
0.0
 11
218.408819
 21
217.16422
 31
0.0
  0
LINE
  5
23
  8
0
 62
     7
 10
149.695933
 20
85.285321
 30
0.0
 11
149.695932
 21
179.017432
 31
0.0
  0
LINE
  5
26
  8
0
 62
     7
 10
31.902412
 20
122.887156
 30
0.0
 11
63.067503
 21
140.188833
 31
0.0
  0
LINE
  5
30
  8
0
 62
     7
 10
31.902412
 20
122.887156
 30
0.0
 11
90.572816
 21
104.158496
 31
0.0
  0
LINE
  5
48
  8
0
 62
     7
 10
149.695932
 20
179.017432
 30
0.0
 11
218.408819
 21
217.16422
 31
0.0
  0
LINE
  5
9D
  8
0
 62
     7
 10
100.615299
 20
254.766055
 30
0.0
 11
100.615299
 21
181.158807
 31
0.0
  0
LINE
  5
CD
  8
0
 62
     7
 10
100.615299
 20
254.766055
 30
0.0
 11
218.408819
 21
217.16422
 31
0.0
  0
LINE
  5
CF
  8
0
 62
     7
 10
31.902412
 20
174.091405
 30
0.0
 11
31.902412
 21
122.887156
 31
0.0
  0
LINE
  5
D0
  8
0
 62
     7
 10
75.55563
 20
240.853877
 30
0.0
 11
100.615299
 21
254.766055
 31
0.0
  0
LINE
  5
10C
  8
0
 62
     7
 10
144.895031
 20
188.303408
 30
0.0
 11
191.042245
 21
213.922591
 31
0.0
  0
LINE
  5
10D
  8
0
 62
     7
 10
92.902832
 20
235.316334
 30
0.0
 11
104.264186
 21
241.623726
 31
0.0
  0
LINE
  5
10E
  8
0
 62
     7
 10
104.264186
 20
241.623726
 30
0.0
 11
191.042245
 21
213.922591
 31
0.0
  0
LINE
  5
10F
  8
0
 62
     7
 10
149.695932
 20
179.017432
 30
0.0
 11
144.895031
 21
188.303408
 31
0.0
  0
LINE
  5
111
  8
0
 62
     7
 10
136.027675
 20
131.934119
 30
0.0
 11
191.042245
 21
162.476121
 31
0.0
  0
LINE
  5
112
  8
0
 62
     7
 10
104.264186
 20
190.177256
 30
0.0
 11
191.042245
 21
162.476121
 31
0.0
  0
LINE
  5
113
  8
0
 62
     7
 10
49.249614
 20
159.635253
 30
0.0
 11
104.264186
 21
190.177256
 31
0.0
  0
LINE
  5
114
  8
0
 62
     7
 10
104.264186
 20
241.623726
 30
0.0
 11
104.264186
 21
190.177256
 31
0.0
  0
LINE
  5
115
  8
0
 62
     7
 10
191.042245
 20
213.922591
 30
0.0
 11
191.042245
 21
162.476121
 31
0.0
  0
LINE
  5
116
  8
0
 62
     7
 10
136.027675
 20
131.934119
 30
0.0
 11
136.027675
 21
170.123456
 31
0.0
  0
LINE
  5
117
  8
0
 62
     7
 10
149.695932
 20
179.017432
 30
0.0
 11
136.027675
 21
170.123456
 31
0.0
  0
LINE
  5
118
  8
0
 62
     7
 10
144.895031
 20
188.303408
 30
0.0
 11
136.027675
 21
170.123456
 31
0.0
  0
LINE
  5
119
  8
0
 62
     7
 10
49.249614
 20
168.553863
 30
0.0
 11
49.249614
 21
159.635253
 31
0.0
  0
LINE
  5
11D
  8
0
 62
     7
 10
49.249614
 20
159.635253
 30
0.0
 11
90.572816
 21
146.444136
 31
0.0
  0
LINE
  5
11F
  8
0
 62
     7
 10
90.572816
 20
146.444136
 30
0.0
 11
104.383256
 21
154.111169
 31
0.0
  0
LINE
  5
120
  8
0
 62
     7
 10
115.605112
 20
138.453372
 30
0.0
 11
129.415552
 21
146.120404
 31
0.0
  0
LINE
  5
121
  8
0
 62
     7
 10
104.383256
 20
154.111169
 30
0.0
 11
129.415552
 21
146.120404
 31
0.0
  0
LINE
  5
122
  8
0
 62
     7
 10
115.605112
 20
138.453372
 30
0.0
 11
136.027675
 21
131.934119
 31
0.0
  0
LINE
  5
123
  8
0
 62
     7
 10
90.572816
 20
146.444136
 30
0.0
 11
90.572816
 21
104.158496
 31
0.0
  0
LINE
  5
124
  8
0
 62
     7
 10
115.605112
 20
138.453372
 30
0.0
 11
115.605112
 21
96.167732
 31
0.0
  0
LINE
  5
125
  8
0
 62
     7
 10
104.383256
 20
154.111169
 30
0.0
 11
104.383256
 21
111.825528
 31
0.0
  0
LINE
  5
126
  8
0
 62
     7
 10
129.415552
 20
146.120404
 30
0.0
 11
129.415552
 21
103.834764
 31
0.0
  0
LINE
  5
127
  8
0
 62
     7
 10
90.572816
 20
104.158496
 30
0.0
 11
104.383256
 21
111.825528
 31
0.0
  0
LINE
  5
128
  8
0
 62
     7
 10
104.383256
 20
111.825528
 30
0.0
 11
129.415552
 21
103.834764
 31
0.0
  0
LINE
  5
129
  8
0
 62
     7
 10
115.605112
 20
96.167732
 30
0.0
 11
129.415552
 21
103.834764
 31
0.0
  0
LINE
  5
12A
  8
0
 62
     7
 10
115.605112
 20
96.167732
 30
0.0
 11
149.695933
 21
85.285321
 31
0.0
  0
LINE
  5
12B
  8
0
 62
     7
 10
180.861024
 20
102.586998
 30
0.0
 11
180.861024
 21
122.71186
 31
0.0
  0
LINE
  5
12D
  8
0
 62
     7
 10
180.861024
 20
122.71186
 30
0.0
 11
218.408819
 21
143.556972
 31
0.0
  0
LINE
  5
130
  8
0
 62
     7
 10
63.067503
 20
140.188833
 30
0.0
 11
63.067503
 21
160.313695
 31
0.0
  0
LINE
  5
131
  8
0
 62
     7
 10
63.067503
 20
160.313695
 30
0.0
 11
100.615299
 21
181.158807
 31
0.0
  0
LINE
  5
132
  8
0
 62
     7
 10
100.615299
 20
181.158807
 30
0.0
 11
218.408819
 21
143.556972
 31
0.0
  0
LINE
  5
157
  8
0
 62
     7
 10
31.902412
 20
174.091405
 30
0.0
 11
49.249614
 21
168.553863
 31
0.0
  0
LINE
  5
158
  8
0
 62
     7
 10
75.55563
 20
240.853877
 30
0.0
 11
92.902832
 21
235.316334
 31
0.0
  0
LINE
  5
159
  8
0
 62
     7
 10
92.902832
 20
235.316334
 30
0.0
 11
49.249614
 21
168.553863
 31
0.0
  0
LINE
  5
15A
  8
0
 62
     7
 10
31.902412
 20
174.091405
 30
0.0
 11
75.55563
 21
240.853877
 31
0.0
  0
LINE
  5
15C
  8
0
 62
     7
 10
180.861024
 20
122.71186
 30
0.0
 11
63.067503
 21
160.313695
 31
0.0
  0
LINE
  5
15D
  8
0
 62
     7
 10
63.067503
 20
140.188833
 30
0.0
 11
180.861024
 21
102.586998
 31
0.0
  0
ENDSEC
  0
EOF
