  0
SECTION
  2
HEADER
  9
$ACADVER
  1
AC1009
  9
$DWGCODEPAGE
  3
ansi_1252
  9
$INSBASE
 10
0.0
 20
0.0
 30
0.0
  9
$EXTMIN
 10
107.3675
 20
142.6143
 30
0.0
  9
$EXTMAX
 10
154.999
 20
190.1144
 30
0.0
  9
$LIMMIN
 10
0.0
 20
0.0
  9
$LIMMAX
 10
420.0
 20
297.0
  9
$ORTHOMODE
 70
     1
  9
$REGENMODE
 70
     1
  9
$FILLMODE
 70
     1
  9
$QTEXTMODE
 70
     0
  9
$MIRRTEXT
 70
     1
  9
$DRAGMODE
 70
     2
  9
$LTSCALE
 40
1.0
  9
$OSMODE
 70
     0
  9
$ATTMODE
 70
     1
  9
$TEXTSIZE
 40
0.0001
  9
$TRACEWID
 40
1.0
  9
$TEXTSTYLE
  7
STANDARD
  9
$CLAYER
  8
0
  9
$CELTYPE
  6
BYLAYER
  9
$CECOLOR
 62
   256
  9
$DIMSCALE
 40
1.0
  9
$DIMASZ
 40
2.5
  9
$DIMEXO
 40
0.625
  9
$DIMDLI
 40
3.75
  9
$DIMRND
 40
0.0
  9
$DIMDLE
 40
0.0
  9
$DIMEXE
 40
1.25
  9
$DIMTP
 40
0.0
  9
$DIMTM
 40
0.0
  9
$DIMTXT
 40
2.5
  9
$DIMCEN
 40
0.0
  9
$DIMTSZ
 40
0.0
  9
$DIMTOL
 70
     0
  9
$DIMLIM
 70
     0
  9
$DIMTIH
 70
     0
  9
$DIMTOH
 70
     0
  9
$DIMSE1
 70
     0
  9
$DIMSE2
 70
     0
  9
$DIMTAD
 70
     1
  9
$DIMZIN
 70
     2
  9
$DIMBLK
  1

  9
$DIMASO
 70
     1
  9
$DIMSHO
 70
     1
  9
$DIMPOST
  1

  9
$DIMAPOST
  1

  9
$DIMALT
 70
     0
  9
$DIMALTD
 70
     4
  9
$DIMALTF
 40
0.0394
  9
$DIMLFAC
 40
1.0
  9
$DIMTOFL
 70
     1
  9
$DIMTVP
 40
0.625
  9
$DIMTIX
 70
     0
  9
$DIMSOXD
 70
     0
  9
$DIMSAH
 70
     0
  9
$DIMBLK1
  1

  9
$DIMBLK2
  1

  9
$DIMSTYLE
  2
ISO-25_WS
  9
$DIMCLRD
 70
     0
  9
$DIMCLRE
 70
     0
  9
$DIMCLRT
 70
     0
  9
$DIMTFAC
 40
1.0
  9
$DIMGAP
 40
0.625
  9
$LUNITS
 70
     2
  9
$LUPREC
 70
     4
  9
$AXISMODE
 70
     0
  9
$AXISUNIT
 10
0.0
 20
0.0
  9
$SKETCHINC
 40
1.0
  9
$FILLETRAD
 40
10.0
  9
$AUNITS
 70
     0
  9
$AUPREC
 70
     0
  9
$MENU
  1
.
  9
$ELEVATION
 40
0.0
  9
$PELEVATION
 40
0.0
  9
$THICKNESS
 40
0.0
  9
$LIMCHECK
 70
     0
  9
$BLIPMODE
 70
     0
  9
$CHAMFERA
 40
0.0
  9
$CHAMFERB
 40
0.0
  9
$SKPOLY
 70
     1
  9
$TDCREATE
 40
2451974.813831991
  9
$TDUPDATE
 40
0.000000000
  9
$TDINDWG
 40
0.0000000000
  9
$TDUSRTIMER
 40
0.0000000000
  9
$USRTIMER
 70
     1
  9
$ANGBASE
 50
0.0
  9
$ANGDIR
 70
     0
  9
$PDMODE
 70
     0
  9
$PDSIZE
 40
0.0
  9
$PLINEWID
 40
0.0
  9
$COORDS
 70
     1
  9
$SPLFRAME
 70
     0
  9
$SPLINETYPE
 70
     6
  9
$SPLINESEGS
 70
     8
  9
$ATTDIA
 70
     0
  9
$ATTREQ
 70
     1
  9
$HANDLING
 70
     1
  9
$HANDSEED
  5
1C9
  9
$SURFTAB1
 70
     6
  9
$SURFTAB2
 70
     6
  9
$SURFTYPE
 70
     6
  9
$SURFU
 70
     6
  9
$SURFV
 70
     6
  9
$UCSNAME
  2

  9
$UCSORG
 10
0.0
 20
0.0
 30
0.0
  9
$UCSXDIR
 10
1.0
 20
0.0
 30
0.0
  9
$UCSYDIR
 10
0.0
 20
1.0
 30
0.0
  9
$PUCSNAME
  2

  9
$PUCSORG
 10
0.0
 20
0.0
 30
0.0
  9
$PUCSXDIR
 10
1.0
 20
0.0
 30
0.0
  9
$PUCSYDIR
 10
0.0
 20
1.0
 30
0.0
  9
$USERI1
 70
     0
  9
$USERI2
 70
     0
  9
$USERI3
 70
     0
  9
$USERI4
 70
     0
  9
$USERI5
 70
     0
  9
$USERR1
 40
0.0
  9
$USERR2
 40
0.0
  9
$USERR3
 40
0.0
  9
$USERR4
 40
0.0
  9
$USERR5
 40
0.0
  9
$WORLDVIEW
 70
     1
  9
$SHADEDGE
 70
     3
  9
$SHADEDIF
 70
    70
  9
$TILEMODE
 70
     1
  9
$MAXACTVP
 70
    48
  9
$PINSBASE
 10
0.0
 20
0.0
 30
0.0
  9
$PLIMCHECK
 70
     0
  9
$PEXTMIN
 10
1.000000E+20
 20
1.000000E+20
 30
1.000000E+20
  9
$PEXTMAX
 10
-1.000000E+20
 20
-1.000000E+20
 30
-1.000000E+20
  9
$PLIMMIN
 10
0.0
 20
0.0
  9
$PLIMMAX
 10
420.0
 20
297.0
  9
$UNITMODE
 70
     0
  9
$VISRETAIN
 70
     1
  9
$PLINEGEN
 70
     0
  9
$PSLTSCALE
 70
     1
  9
$TREEDEPTH
 70
  3020
  9
$DWGCODEPAGE
  3
ansi_1252
  0
ENDSEC
  0
SECTION
  2
TABLES
  0
TABLE
  2
VPORT
 70
     1
  0
VPORT
  2
*ACTIVE
 70
     0
 10
0.0
 20
0.0
 11
1.0
 21
1.0
 12
213.655393
 22
127.647165
 13
0.0
 23
0.0
 14
17.320508
 24
5.0
 15
17.320508
 25
5.0
 16
0.0
 26
0.0
 36
1.0
 17
0.0
 27
0.0
 37
0.0
 40
255.294329
 41
1.673797
 42
50.0
 43
0.0
 44
0.0
 50
0.0
 51
0.0
 71
     0
 72
   100
 73
     1
 74
     1
 75
     0
 76
     0
 77
     1
 78
     1
  0
ENDTAB
  0
TABLE
  2
LTYPE
 70
     1
  0
LTYPE
  2
CONTINUOUS
 70
     0
  3
Solid line
 72
    65
 73
     0
 40
0.0
  0
ENDTAB
  0
TABLE
  2
LAYER
 70
     1
  0
LAYER
  2
0
 70
    64
 62
     7
  6
CONTINUOUS
  0
ENDTAB
  0
TABLE
  2
STYLE
 70
     1
  0
STYLE
  2
STANDARD
 70
     0
 40
0.0
 41
1.0
 50
0.0
 71
     0
 42
2.5
  3
ISOCP
  4

  0
ENDTAB
  0
TABLE
  2
VIEW
 70
     0
  0
ENDTAB
  0
TABLE
  2
UCS
 70
     0
  0
ENDTAB
  0
TABLE
  2
APPID
 70
     1
  0
APPID
  2
ACAD
 70
     0
  0
ENDTAB
  0
TABLE
  2
DIMSTYLE
 70
    11
  0
DIMSTYLE
  2
STANDARD
 70
     0
  3

  4

  5

  6

  7

 40
1.0
 41
2.5
 42
0.625
 43
3.75
 44
1.25
 45
0.0
 46
0.0
 47
0.0
 48
0.0
 71
     0
 72
     0
 73
     0
 74
     0
 75
     0
 76
     0
 77
     1
 78
     2
140
2.5
141
0.0
142
0.0
143
0.0394
144
1.0
145
0.625
146
1.0
147
0.625
170
     0
171
     4
172
     1
173
     0
174
     0
175
     0
176
     0
177
     0
178
     0
  0
DIMSTYLE
  2
ISO-35
 70
     0
  3

  4

  5

  6

  7

 40
1.0
 41
3.5
 42
0.875
 43
5.25
 44
1.75
 45
0.0
 46
0.0
 47
0.0
 48
0.0
 71
     0
 72
     0
 73
     0
 74
     0
 75
     0
 76
     0
 77
     1
 78
     2
140
3.5
141
0.0
142
0.0
143
0.0394
144
1.0
145
0.875
146
1.0
147
0.875
170
     0
171
     4
172
     1
173
     0
174
     0
175
     0
176
     0
177
     0
178
     0
  0
DIMSTYLE
  2
ISO-5
 70
     0
  3

  4

  5

  6

  7

 40
1.0
 41
5.0
 42
1.25
 43
7.5
 44
2.5
 45
0.0
 46
0.0
 47
0.0
 48
0.0
 71
     0
 72
     0
 73
     0
 74
     0
 75
     0
 76
     0
 77
     1
 78
     2
140
5.0
141
0.0
142
0.0
143
0.0394
144
1.0
145
1.25
146
1.0
147
1.25
170
     0
171
     4
172
     1
173
     0
174
     0
175
     0
176
     0
177
     0
178
     0
  0
DIMSTYLE
  2
ISO-7
 70
     0
  3

  4

  5

  6

  7

 40
1.0
 41
7.0
 42
1.75
 43
10.5
 44
3.5
 45
0.0
 46
0.0
 47
0.0
 48
0.0
 71
     0
 72
     0
 73
     0
 74
     0
 75
     0
 76
     0
 77
     1
 78
     2
140
7.0
141
0.0
142
0.0
143
0.0394
144
1.0
145
1.75
146
1.0
147
1.75
170
     0
171
     4
172
     1
173
     0
174
     0
175
     0
176
     0
177
     0
178
     0
  0
DIMSTYLE
  2
ISO1
 70
     0
  3

  4

  5

  6

  7

 40
1.0
 41
10.0
 42
2.5
 43
15.0
 44
5.0
 45
0.0
 46
0.0
 47
0.0
 48
0.0
 71
     0
 72
     0
 73
     0
 74
     0
 75
     0
 76
     0
 77
     1
 78
     2
140
10.0
141
0.0
142
0.0
143
0.0394
144
1.0
145
2.5
146
1.0
147
2.5
170
     0
171
     4
172
     1
173
     0
174
     0
175
     0
176
     0
177
     0
178
     0
  0
DIMSTYLE
  2
ISO1-4
 70
     0
  3

  4

  5

  6

  7

 40
1.0
 41
14.0
 42
3.5
 43
21.0
 44
7.0
 45
0.0
 46
0.0
 47
0.0
 48
0.0
 71
     0
 72
     0
 73
     0
 74
     0
 75
     0
 76
     0
 77
     1
 78
     2
140
14.0
141
0.0
142
0.0
143
0.0394
144
1.0
145
3.5
146
1.0
147
3.5
170
     0
171
     2
172
     1
173
     0
174
     0
175
     0
176
     0
177
     0
178
     0
  0
DIMSTYLE
  2
ISO2
 70
     0
  3

  4

  5

  6

  7

 40
1.0
 41
20.0
 42
5.0
 43
30.0
 44
10.0
 45
0.0
 46
0.0
 47
0.0
 48
0.0
 71
     0
 72
     0
 73
     0
 74
     0
 75
     0
 76
     0
 77
     1
 78
     2
140
20.0
141
0.0
142
0.0
143
0.0394
144
1.0
145
5.0
146
1.0
147
5.0
170
     0
171
     4
172
     1
173
     0
174
     0
175
     0
176
     0
177
     0
178
     0
  0
DIMSTYLE
  2
ISO-4
 70
     0
  3

  4

  5

  6

  7

 40
1.0
 41
14.0
 42
3.5
 43
21.0
 44
7.0
 45
0.0
 46
0.0
 47
0.0
 48
0.0
 71
     0
 72
     0
 73
     0
 74
     0
 75
     0
 76
     0
 77
     1
 78
     2
140
14.0
141
0.0
142
0.0
143
0.0394
144
1.0
145
3.5
146
1.0
147
3.5
170
     0
171
     4
172
     1
173
     0
174
     0
175
     0
176
     0
177
     0
178
     0
  0
DIMSTYLE
  2
ISO-25
 70
     0
  3

  4

  5

  6

  7

 40
1.0
 41
2.5
 42
0.625
 43
3.75
 44
1.25
 45
0.0
 46
0.0
 47
0.0
 48
0.0
 71
     0
 72
     0
 73
     0
 74
     0
 75
     0
 76
     0
 77
     1
 78
     2
140
2.5
141
0.0
142
0.0
143
0.0394
144
1.0
145
0.625
146
1.0
147
0.625
170
     0
171
     4
172
     1
173
     0
174
     0
175
     0
176
     0
177
     0
178
     0
  0
DIMSTYLE
  2
ISO-25_WS
 70
     0
  3

  4

  5

  6

  7

 40
1.0
 41
2.5
 42
0.625
 43
3.75
 44
1.25
 45
0.0
 46
0.0
 47
0.0
 48
0.0
 71
     0
 72
     0
 73
     0
 74
     0
 75
     0
 76
     0
 77
     1
 78
     2
140
2.5
141
0.0
142
0.0
143
0.0394
144
1.0
145
0.625
146
1.0
147
0.625
170
     0
171
     4
172
     1
173
     0
174
     0
175
     0
176
     0
177
     0
178
     0
  0
DIMSTYLE
  2
MSACTIVE
 70
     0
  3

  4

  5

  6

  7

 40
1.0
 41
2.5
 42
0.625
 43
3.75
 44
1.25
 45
0.0
 46
0.0
 47
0.0
 48
0.0
 71
     0
 72
     0
 73
     0
 74
     0
 75
     0
 76
     0
 77
     1
 78
     2
140
2.5
141
0.0
142
0.0
143
0.0394
144
1.0
145
0.625
146
1.0
147
0.625
170
     0
171
     4
172
     1
173
     0
174
     0
175
     0
176
     0
177
     0
178
     0
  0
ENDTAB
  0
ENDSEC
  0
SECTION
  2
BLOCKS
  0
BLOCK
  8
0
  5
145
  2
$MODEL_SPACE
 70
     0
 10
0.0
 20
0.0
 30
0.0
  3
$MODEL_SPACE
  0
ENDBLK
  8
0
  5
108
  0
BLOCK
  8
0
  5
146
  2
$PAPER_SPACE
 70
     0
 10
0.0
 20
0.0
 30
0.0
  3
$PAPER_SPACE
  0
ENDBLK
  8
0
  5
105
  0
ENDSEC
  0
SECTION
  2
ENTITIES
  0
VIEWPORT
  8
0
  5
22
 67
     1
 68
    -1
 10
261.517699
 20
148.5
 30
0.0
 40
523.035398
 41
297.0
 69
     1
1001
ACAD
1000
MVIEW
1002
{
1070
    16
1010
0.0
1020
0.0
1030
0.0
1010
0.0
1020
0.0
1030
1.0
1040
0.0
1040
297.0
1040
261.517699
1040
148.5
1040
50.0
1040
0.0
1040
0.0
1070
     0
1070
   100
1070
     1
1070
     1
1070
     0
1070
     0
1070
     0
1070
     0
1040
0.0
1040
0.0
1040
0.0
1040
1.0
1040
1.0
1040
10.0
1040
10.0
1070
     0
1002
{
1002
}
1002
}
  0
LINE
  8
0
 62
     7
  5
7E
 10
107.367516
 20
154.614385
 30
0.0
 11
116.893796
 21
149.114385
 31
0.0
  0
LINE
  8
0
 62
     7
  5
7F
 10
116.893796
 20
149.114385
 30
0.0
 11
116.893796
 21
157.114385
 31
0.0
  0
LINE
  8
0
 62
     7
  5
80
 10
116.893796
 20
157.114385
 30
0.0
 11
112.563669
 21
159.614385
 31
0.0
  0
LINE
  8
0
 62
     7
  5
81
 10
112.563669
 20
159.614385
 30
0.0
 11
112.563669
 21
164.114385
 31
0.0
  0
LINE
  8
0
 62
     7
  5
82
 10
112.563669
 20
164.114385
 30
0.0
 11
107.367516
 21
167.114385
 31
0.0
  0
LINE
  8
0
 62
     7
  5
83
 10
107.367516
 20
154.614385
 30
0.0
 11
107.367516
 21
167.114385
 31
0.0
  0
LINE
  8
0
 62
     7
  5
84
 10
116.893796
 20
157.114385
 30
0.0
 11
126.420075
 21
162.614385
 31
0.0
  0
LINE
  8
0
 62
     7
  5
85
 10
126.420075
 20
162.614385
 30
0.0
 11
122.955973
 21
164.614385
 31
0.0
  0
LINE
  8
0
 62
     7
  5
86
 10
122.955973
 20
164.614385
 30
0.0
 11
127.2861
 21
167.114385
 31
0.0
  0
LINE
  8
0
 62
     7
  5
87
 10
127.2861
 20
167.114385
 30
0.0
 11
136.81238
 21
161.614385
 31
0.0
  0
LINE
  8
0
 62
     7
  5
88
 10
132.482253
 20
159.114385
 30
0.0
 11
136.81238
 21
161.614385
 31
0.0
  0
LINE
  8
0
 62
     7
  5
89
 10
132.482253
 20
159.114385
 30
0.0
 11
129.018151
 21
161.114385
 31
0.0
  0
LINE
  8
0
 62
     7
  5
8A
 10
119.491872
 20
155.614385
 30
0.0
 11
129.018151
 21
161.114385
 31
0.0
  0
LINE
  8
0
 62
     7
  5
8B
 10
119.491872
 20
147.614385
 30
0.0
 11
119.491872
 21
155.614385
 31
0.0
  0
LINE
  8
0
 62
     7
  5
8C
 10
119.491872
 20
147.614385
 30
0.0
 11
128.152126
 21
142.614385
 31
0.0
  0
LINE
  8
0
 62
     7
  5
8E
 10
119.491872
 20
155.614385
 30
0.0
 11
128.152126
 21
150.614385
 31
0.0
  0
LINE
  8
0
 62
     7
  5
8F
 10
128.152126
 20
142.614385
 30
0.0
 11
128.152126
 21
150.614385
 31
0.0
  0
LINE
  8
0
 62
     7
  5
90
 10
126.420075
 20
154.614385
 30
0.0
 11
126.420075
 21
162.614385
 31
0.0
  0
LINE
  8
0
 62
     7
  5
91
 10
122.955973
 20
156.614385
 30
0.0
 11
122.955973
 21
164.614385
 31
0.0
  0
LINE
  8
0
 62
     7
  5
92
 10
127.2861
 20
159.114385
 30
0.0
 11
127.2861
 21
167.114385
 31
0.0
  0
LINE
  8
0
 62
     7
  5
93
 10
136.81238
 20
153.614385
 30
0.0
 11
136.81238
 21
161.614385
 31
0.0
  0
LINE
  8
0
 62
     7
  5
94
 10
132.482253
 20
151.114385
 30
0.0
 11
132.482253
 21
159.114385
 31
0.0
  0
LINE
  8
0
 62
     7
  5
95
 10
129.018151
 20
153.114385
 30
0.0
 11
129.018151
 21
161.114385
 31
0.0
  0
LINE
  8
0
 62
     7
  5
96
 10
119.491872
 20
147.614385
 30
0.0
 11
129.018151
 21
153.114385
 31
0.0
  0
LINE
  8
0
 62
     7
  5
97
 10
129.018151
 20
153.114385
 30
0.0
 11
132.482253
 21
151.114385
 31
0.0
  0
LINE
  8
0
 62
     7
  5
98
 10
132.482253
 20
151.114385
 30
0.0
 11
136.81238
 21
153.614385
 31
0.0
  0
LINE
  8
0
 62
     7
  5
99
 10
136.81238
 20
153.614385
 30
0.0
 11
133.54924
 21
155.49836
 31
0.0
  0
LINE
  8
0
 62
     7
  5
9A
 10
127.2861
 20
159.114385
 30
0.0
 11
122.955973
 21
156.614385
 31
0.0
  0
LINE
  8
0
 62
     7
  5
9B
 10
122.955973
 20
156.614385
 30
0.0
 11
126.420075
 21
154.614385
 31
0.0
  0
LINE
  8
0
 62
     7
  5
9C
 10
126.420075
 20
154.614385
 30
0.0
 11
116.893796
 21
149.114385
 31
0.0
  0
LINE
  8
0
 62
     7
  5
9D
 10
107.367516
 20
154.614385
 30
0.0
 11
134.214304
 21
170.114385
 31
0.0
  0
LINE
  8
0
 62
     7
  5
9E
 10
134.214304
 20
170.114385
 30
0.0
 11
143.539621
 21
164.730411
 31
0.0
  0
LINE
  8
0
 62
     7
  5
A4
 10
146.539621
 20
162.99836
 30
0.0
 11
133.54924
 21
155.49836
 31
0.0
  0
LINE
  8
0
 62
     7
  5
A5
 10
143.539621
 20
164.730411
 30
0.0
 11
130.54924
 21
157.230411
 31
0.0
  0
LINE
  8
0
 62
     7
  5
A6
 10
130.54924
 20
157.230411
 30
0.0
 11
127.2861
 21
159.114385
 31
0.0
  0
LINE
  8
0
 62
     7
  5
A7
 10
146.539621
 20
162.99836
 30
0.0
 11
146.539621
 21
166.99836
 31
0.0
  0
LINE
  8
0
 62
     7
  5
A8
 10
146.539621
 20
166.99836
 30
0.0
 11
133.54924
 21
159.49836
 31
0.0
  0
LINE
  8
0
 62
     7
  5
A9
 10
143.539621
 20
164.730411
 30
0.0
 11
143.539621
 21
168.730411
 31
0.0
  0
LINE
  8
0
 62
     7
  5
AA
 10
143.539621
 20
168.730411
 30
0.0
 11
130.54924
 21
161.230411
 31
0.0
  0
LINE
  8
0
 62
     7
  5
AB
 10
133.54924
 20
155.49836
 30
0.0
 11
133.54924
 21
159.49836
 31
0.0
  0
LINE
  8
0
 62
     7
  5
AC
 10
133.54924
 20
159.49836
 30
0.0
 11
130.54924
 21
161.230411
 31
0.0
  0
LINE
  8
0
 62
     7
  5
AD
 10
130.54924
 20
157.230411
 30
0.0
 11
130.54924
 21
161.230411
 31
0.0
  0
LINE
  8
0
 62
     7
  5
AE
 10
143.539621
 20
168.730411
 30
0.0
 11
146.539621
 21
166.99836
 31
0.0
  0
LINE
  8
0
 62
     7
  5
AF
 10
134.214304
 20
170.114385
 30
0.0
 11
134.214304
 21
190.114385
 31
0.0
  0
LINE
  8
0
 62
     7
  5
B0
 10
128.152126
 20
142.614385
 30
0.0
 11
148.07071
 21
154.114385
 31
0.0
  0
LINE
  8
0
 62
     7
  5
B1
 10
146.539621
 20
162.99836
 30
0.0
 11
150.869748
 21
160.49836
 31
0.0
  0
LINE
  8
0
 62
     7
  5
B3
 10
134.214304
 20
190.114385
 30
0.0
 11
139.410456
 21
187.114385
 31
0.0
  0
LINE
  8
0
 62
     7
  5
B4
 10
139.410456
 20
187.114385
 30
0.0
 11
132.482253
 21
183.114385
 31
0.0
  0
LINE
  8
0
 62
     7
  5
B5
 10
134.214304
 20
190.114385
 30
0.0
 11
127.2861
 21
186.114385
 31
0.0
  0
LINE
  8
0
 62
     7
  5
B6
 10
127.2861
 20
186.114385
 30
0.0
 11
132.482253
 21
183.114385
 31
0.0
  0
LINE
  8
0
 62
     7
  5
B7
 10
132.482253
 20
183.114385
 30
0.0
 11
132.482253
 21
179.614385
 31
0.0
  0
LINE
  8
0
 62
     7
  5
B8
 10
132.482253
 20
179.614385
 30
0.0
 11
135.946354
 21
181.614385
 31
0.0
  0
LINE
  8
0
 62
     7
  5
B9
 10
135.946354
 20
181.614385
 30
0.0
 11
135.946354
 21
175.114385
 31
0.0
  0
LINE
  8
0
 62
     7
  5
BA
 10
135.946354
 20
175.114385
 30
0.0
 11
127.2861
 21
170.114385
 31
0.0
  0
LINE
  8
0
 62
     7
  5
BB
 10
127.2861
 20
176.614385
 30
0.0
 11
127.2861
 21
170.114385
 31
0.0
  0
LINE
  8
0
 62
     7
  5
BC
 10
127.2861
 20
176.614385
 30
0.0
 11
131.005305
 21
178.761669
 31
0.0
  0
LINE
  8
0
 62
     7
  5
BF
 10
125.809152
 20
185.261669
 30
0.0
 11
120.79091
 21
182.364385
 31
0.0
  0
LINE
  8
0
 62
     7
  5
C0
 10
120.79091
 20
182.364385
 30
0.0
 11
107.367516
 21
167.114385
 31
0.0
  0
LINE
  8
0
 62
     7
  5
C1
 10
120.79091
 20
182.364385
 30
0.0
 11
125.987062
 21
179.364385
 31
0.0
  0
LINE
  8
0
 62
     7
  5
C2
 10
131.005305
 20
182.261669
 30
0.0
 11
125.987062
 21
179.364385
 31
0.0
  0
LINE
  8
0
 62
     7
  5
C3
 10
125.987062
 20
179.364385
 30
0.0
 11
112.563669
 21
164.114385
 31
0.0
  0
LINE
  8
0
 62
     7
  5
C5
 10
122.089948
 20
179.614385
 30
0.0
 11
127.2861
 21
176.614385
 31
0.0
  0
LINE
  8
0
 62
     7
  5
C6
 10
122.089948
 20
173.114385
 30
0.0
 11
127.2861
 21
170.114385
 31
0.0
  0
LINE
  8
0
 62
     7
  5
C7
 10
130.750202
 20
178.114385
 30
0.0
 11
135.946354
 21
175.114385
 31
0.0
  0
LINE
  8
0
 62
     7
  5
C8
 10
130.750202
 20
184.614385
 30
0.0
 11
135.946354
 21
181.614385
 31
0.0
  0
LINE
  8
0
 62
     7
  5
C9
 10
127.2861
 20
186.114385
 30
0.0
 11
127.2861
 21
182.614385
 31
0.0
  0
LINE
  8
0
 62
     7
  5
CB
 10
127.2861
 20
182.614385
 30
0.0
 11
130.750202
 21
184.614385
 31
0.0
  0
LINE
  8
0
 62
     7
  5
CC
 10
127.2861
 20
182.614385
 30
0.0
 11
132.482253
 21
179.614385
 31
0.0
  0
LINE
  8
0
 62
     7
  5
CD
 10
125.809152
 20
185.261669
 30
0.0
 11
125.809152
 21
181.761669
 31
0.0
  0
LINE
  8
0
 62
     7
  5
CE
 10
122.089948
 20
179.614385
 30
0.0
 11
125.809152
 21
181.761669
 31
0.0
  0
LINE
  8
0
 62
     7
  5
CF
 10
122.089948
 20
179.614385
 30
0.0
 11
122.089948
 21
173.114385
 31
0.0
  0
LINE
  8
0
 62
     7
  5
D0
 10
139.410456
 20
187.114385
 30
0.0
 11
139.410456
 21
181.114385
 31
0.0
  0
LINE
  8
0
 62
     7
  5
D1
 10
139.410456
 20
181.114385
 30
0.0
 11
137.245393
 21
179.864385
 31
0.0
  0
LINE
  8
0
 62
     7
  5
D2
 10
137.245393
 20
179.864385
 30
0.0
 11
137.245393
 21
173.864385
 31
0.0
  0
LINE
  8
0
 62
     7
  5
D3
 10
137.245393
 20
173.864385
 30
0.0
 11
141.328084
 21
171.507242
 31
0.0
  0
LINE
  8
0
 62
     7
  5
D8
 10
128.152126
 20
150.614385
 30
0.0
 11
154.998913
 21
166.114385
 31
0.0
  0
LINE
  8
0
 62
     7
  5
DD
 10
130.750202
 20
178.114385
 30
0.0
 11
122.089948
 21
173.114385
 31
0.0
  0
LINE
  8
0
 62
     7
  5
DE
 10
112.563669
 20
159.614385
 30
0.0
 11
137.245393
 21
173.864385
 31
0.0
  0
LINE
  8
0
 62
     7
  5
E3
 10
143.493147
 20
172.757242
 30
0.0
 11
154.998913
 21
166.114385
 31
0.0
  0
LINE
  8
0
 62
     7
  5
E4
 10
141.328084
 20
171.507242
 30
0.0
 11
143.493147
 21
172.757242
 31
0.0
  0
LINE
  8
0
 62
     7
  5
E5
 10
139.410456
 20
181.114385
 30
0.0
 11
143.493147
 21
172.757242
 31
0.0
  0
LINE
  8
0
 62
     7
  5
E6
 10
141.328084
 20
171.507242
 30
0.0
 11
137.245393
 21
179.864385
 31
0.0
  0
LINE
  8
0
 62
     7
  5
E7
 10
150.869748
 20
160.49836
 30
0.0
 11
154.998913
 21
166.114385
 31
0.0
  0
LINE
  8
0
 62
     7
  5
E8
 10
154.998913
 20
166.114385
 30
0.0
 11
148.07071
 21
154.114385
 31
0.0
  0
LINE
  8
0
 62
     7
  5
E9
 10
150.869748
 20
160.49836
 30
0.0
 11
148.07071
 21
154.114385
 31
0.0
  0
LINE
  8
0
 62
     7
  5
EA
 10
125.809152
 20
185.261669
 30
0.0
 11
131.005305
 21
182.261669
 31
0.0
  0
LINE
  8
0
 62
     7
  5
EB
 10
125.809152
 20
181.761669
 30
0.0
 11
131.005305
 21
178.761669
 31
0.0
  0
LINE
  8
0
 62
     7
  5
EC
 10
131.005305
 20
182.261669
 30
0.0
 11
131.005305
 21
178.761669
 31
0.0
  0
LINE
  8
0
 62
     7
  5
ED
 10
130.750202
 20
178.114385
 30
0.0
 11
130.750202
 21
184.614385
 31
0.0
  0
ENDSEC
  0
EOF
