  0
SECTION
  2
HEADER
  9
$ACADVER
  1
AC1009
  9
$DWGCODEPAGE
  3
ansi_1252
  9
$INSBASE
 10
0.0
 20
0.0
 30
0.0
  9
$EXTMIN
 10
38.8054
 20
1.5709
 30
0.0
  9
$EXTMAX
 10
157.2371
 20
110.1383
 30
0.0
  9
$LIMMIN
 10
0.0
 20
0.0
  9
$LIMMAX
 10
12.0
 20
9.0
  9
$ORTHOMODE
 70
     0
  9
$REGENMODE
 70
     1
  9
$FILLMODE
 70
     1
  9
$QTEXTMODE
 70
     0
  9
$MIRRTEXT
 70
     1
  9
$DRAGMODE
 70
     2
  9
$LTSCALE
 40
1.0
  9
$OSMODE
 70
     0
  9
$ATTMODE
 70
     1
  9
$TEXTSIZE
 40
0.0001
  9
$TRACEWID
 40
0.05
  9
$TEXTSTYLE
  7
STANDARD
  9
$CLAYER
  8
0
  9
$CELTYPE
  6
CONTINUOUS
  9
$CECOLOR
 62
     2
  9
$DIMSCALE
 40
1.0
  9
$DIMASZ
 40
0.18
  9
$DIMEXO
 40
0.0625
  9
$DIMDLI
 40
0.38
  9
$DIMRND
 40
0.0
  9
$DIMDLE
 40
0.0
  9
$DIMEXE
 40
0.18
  9
$DIMTP
 40
0.0
  9
$DIMTM
 40
0.0
  9
$DIMTXT
 40
0.18
  9
$DIMCEN
 40
0.0
  9
$DIMTSZ
 40
0.0
  9
$DIMTOL
 70
     0
  9
$DIMLIM
 70
     0
  9
$DIMTIH
 70
     1
  9
$DIMTOH
 70
     1
  9
$DIMSE1
 70
     0
  9
$DIMSE2
 70
     0
  9
$DIMTAD
 70
     0
  9
$DIMZIN
 70
     1
  9
$DIMBLK
  1

  9
$DIMASO
 70
     1
  9
$DIMSHO
 70
     1
  9
$DIMPOST
  1

  9
$DIMAPOST
  1

  9
$DIMALT
 70
     0
  9
$DIMALTD
 70
     2
  9
$DIMALTF
 40
25.4
  9
$DIMLFAC
 40
1.0
  9
$DIMTOFL
 70
     0
  9
$DIMTVP
 40
0.0
  9
$DIMTIX
 70
     0
  9
$DIMSOXD
 70
     0
  9
$DIMSAH
 70
     0
  9
$DIMBLK1
  1

  9
$DIMBLK2
  1

  9
$DIMSTYLE
  2
STANDARD
  9
$DIMCLRD
 70
     0
  9
$DIMCLRE
 70
     0
  9
$DIMCLRT
 70
     0
  9
$DIMTFAC
 40
1.0
  9
$DIMGAP
 40
0.09
  9
$LUNITS
 70
     2
  9
$LUPREC
 70
     4
  9
$AXISMODE
 70
     0
  9
$AXISUNIT
 10
0.0
 20
0.0
  9
$SKETCHINC
 40
0.1
  9
$FILLETRAD
 40
0.0
  9
$AUNITS
 70
     0
  9
$AUPREC
 70
     0
  9
$MENU
  1
acad
  9
$ELEVATION
 40
0.0
  9
$PELEVATION
 40
0.0
  9
$THICKNESS
 40
0.0
  9
$LIMCHECK
 70
     0
  9
$BLIPMODE
 70
     1
  9
$CHAMFERA
 40
0.0
  9
$CHAMFERB
 40
0.0
  9
$SKPOLY
 70
     0
  9
$TDCREATE
 40
2451730.460983993
  9
$TDUPDATE
 40
0.000000000
  9
$TDINDWG
 40
0.0000000000
  9
$TDUSRTIMER
 40
0.0000000000
  9
$USRTIMER
 70
     1
  9
$ANGBASE
 50
0.0
  9
$ANGDIR
 70
     0
  9
$PDMODE
 70
     0
  9
$PDSIZE
 40
0.0
  9
$PLINEWID
 40
0.0
  9
$COORDS
 70
     0
  9
$SPLFRAME
 70
     0
  9
$SPLINETYPE
 70
     6
  9
$SPLINESEGS
 70
    10
  9
$ATTDIA
 70
     0
  9
$ATTREQ
 70
     1
  9
$HANDLING
 70
     1
  9
$HANDSEED
  5
17F
  9
$SURFTAB1
 70
     6
  9
$SURFTAB2
 70
     6
  9
$SURFTYPE
 70
     6
  9
$SURFU
 70
     6
  9
$SURFV
 70
     6
  9
$UCSNAME
  2

  9
$UCSORG
 10
0.0
 20
0.0
 30
0.0
  9
$UCSXDIR
 10
1.0
 20
0.0
 30
0.0
  9
$UCSYDIR
 10
0.0
 20
1.0
 30
0.0
  9
$PUCSNAME
  2

  9
$PUCSORG
 10
0.0
 20
0.0
 30
0.0
  9
$PUCSXDIR
 10
1.0
 20
0.0
 30
0.0
  9
$PUCSYDIR
 10
0.0
 20
1.0
 30
0.0
  9
$USERI1
 70
     0
  9
$USERI2
 70
     0
  9
$USERI3
 70
     0
  9
$USERI4
 70
     0
  9
$USERI5
 70
     0
  9
$USERR1
 40
0.0
  9
$USERR2
 40
0.0
  9
$USERR3
 40
0.0
  9
$USERR4
 40
0.0
  9
$USERR5
 40
0.0
  9
$WORLDVIEW
 70
     1
  9
$SHADEDGE
 70
     3
  9
$SHADEDIF
 70
    70
  9
$TILEMODE
 70
     1
  9
$MAXACTVP
 70
    16
  9
$PINSBASE
 10
0.0
 20
0.0
 30
0.0
  9
$PLIMCHECK
 70
     0
  9
$PEXTMIN
 10
-1.000000E+20
 20
-1.000000E+20
 30
-1.000000E+20
  9
$PEXTMAX
 10
-1.000000E+20
 20
-1.000000E+20
 30
-1.000000E+20
  9
$PLIMMIN
 10
0.0
 20
0.0
  9
$PLIMMAX
 10
12.0
 20
9.0
  9
$UNITMODE
 70
     0
  9
$VISRETAIN
 70
     0
  9
$PLINEGEN
 70
     1
  9
$PSLTSCALE
 70
     0
  9
$TREEDEPTH
 70
  3020
  9
$DWGCODEPAGE
  3
ansi_1252
  0
ENDSEC
  0
SECTION
  2
TABLES
  0
TABLE
  2
VPORT
 70
     1
  0
VPORT
  2
*ACTIVE
 70
     0
 10
0.0
 20
0.0
 11
1.0
 21
1.0
 12
98.022466
 22
43.293073
 13
0.0
 23
0.0
 14
0.0
 24
0.0
 15
0.0
 25
0.0
 16
0.0
 26
0.0
 36
1.0
 17
0.0
 27
0.0
 37
0.0
 40
153.789293
 41
1.673797
 42
50.0
 43
0.0
 44
0.0
 50
0.0
 51
0.0
 71
     0
 72
   100
 73
     1
 74
     0
 75
     0
 76
     0
 77
     0
 78
     0
  0
ENDTAB
  0
TABLE
  2
LTYPE
 70
     7
  0
LTYPE
  2
CONTINUOUS
 70
     0
  3
Solid line
 72
    65
 73
     0
 40
0.0
  0
LTYPE
  2
DOT
 70
     0
  3
. . . . . . . . . . . . . . . . . . . . . . . . . . . . . . . . .
 72
    65
 73
     2
 40
0.25
 49
0.0
 49
-0.25
  0
LTYPE
  2
HIDDEN
 70
     0
  3
__ __ __ __ __ __ __ __ __ __ __ __ __ __ __ __ __ __ __ __ __ 
 72
    65
 73
     2
 40
0.375
 49
0.25
 49
-0.125
  0
LTYPE
  2
DASHED
 70
     0
  3
__ __ __ __ __ __ __ __ __ __ __ __ __ __ __ __ __ __ __ __ __
 72
    65
 73
     2
 40
0.75
 49
0.5
 49
-0.25
  0
LTYPE
  2
DASHDOT
 70
     0
  3
__ . __ . __ . __ . __ . __ . __ . __ . __ . __ . __ . __ . _
 72
    65
 73
     4
 40
1.0
 49
0.5
 49
-0.25
 49
0.0
 49
-0.25
  0
LTYPE
  2
DIVIDE
 70
     0
  3
____ . . ____ . . ____ . . ____ . . ____ . . ____ . . ____ . .
 72
    65
 73
     6
 40
1.25
 49
0.5
 49
-0.25
 49
0.0
 49
-0.25
 49
0.0
 49
-0.25
  0
LTYPE
  2
CENTER
 70
     0
  3
____ _ ____ _ ____ _ ____ _ ____ _ ____ _ ____ _ ____ _ ____ _
 72
    65
 73
     4
 40
2.0
 49
1.25
 49
-0.25
 49
0.25
 49
-0.25
  0
ENDTAB
  0
TABLE
  2
LAYER
 70
     4
  0
LAYER
  2
0
 70
    64
 62
     7
  6
CONTINUOUS
  0
LAYER
  2
CONSTRUCTION_CLASS
 70
    64
 62
     7
  6
CONTINUOUS
  0
LAYER
  2
PATTERN_CLASS
 70
    64
 62
     7
  6
CONTINUOUS
  0
LAYER
  2
PROCEDIMIENTO
 70
    64
 62
     7
  6
CONTINUOUS
  0
ENDTAB
  0
TABLE
  2
STYLE
 70
     1
  0
STYLE
  2
STANDARD
 70
     0
 40
0.0
 41
1.0
 50
0.0
 71
     0
 42
0.0
  3
txt
  4

  0
ENDTAB
  0
TABLE
  2
VIEW
 70
     0
  0
ENDTAB
  0
TABLE
  2
UCS
 70
     0
  0
ENDTAB
  0
TABLE
  2
APPID
 70
     1
  0
APPID
  2
ACAD
 70
     0
  0
ENDTAB
  0
TABLE
  2
DIMSTYLE
 70
     2
  0
DIMSTYLE
  2
STANDARD
 70
     0
  3

  4

  5

  6

  7

 40
1.0
 41
0.18
 42
0.0625
 43
0.38
 44
0.18
 45
0.0
 46
0.0
 47
0.0
 48
0.0
 71
     0
 72
     0
 73
     1
 74
     1
 75
     0
 76
     0
 77
     0
 78
     1
140
0.18
141
0.0
142
0.0
143
25.4
144
1.0
145
0.0
146
1.0
147
0.09
170
     0
171
     2
172
     0
173
     0
174
     0
175
     0
176
     0
177
     0
178
     0
  0
DIMSTYLE
  2
MSACTIVE
 70
     0
  3

  4

  5

  6

  7

 40
1.0
 41
0.18
 42
0.0625
 43
0.38
 44
0.18
 45
0.0
 46
0.0
 47
0.0
 48
0.0
 71
     0
 72
     0
 73
     1
 74
     1
 75
     0
 76
     0
 77
     0
 78
     1
140
0.18
141
0.0
142
0.0
143
25.4
144
1.0
145
0.0
146
1.0
147
0.09
170
     0
171
     2
172
     0
173
     0
174
     0
175
     0
176
     0
177
     0
178
     0
  0
ENDTAB
  0
ENDSEC
  0
SECTION
  2
BLOCKS
  0
BLOCK
  8
0
  5
F4
  2
$MODEL_SPACE
 70
     0
 10
0.0
 20
0.0
 30
0.0
  3
$MODEL_SPACE
  0
ENDBLK
  8
0
  5
BA
  0
BLOCK
  8
0
  5
F5
  2
$PAPER_SPACE
 70
     0
 10
0.0
 20
0.0
 30
0.0
  3
$PAPER_SPACE
  0
ENDBLK
  8
0
  5
B7
  0
ENDSEC
  0
SECTION
  2
ENTITIES
  0
LINE
  8
PROCEDIMIENTO
  6
CONTINUOUS
 62
     7
  5
29
 10
38.8054
 20
14.6573
 30
0.0
 11
84.3466
 21
51.3732
 31
0.0
  0
LINE
  8
PROCEDIMIENTO
  6
CONTINUOUS
 62
     7
  5
2A
 10
38.8054
 20
64.4596
 30
0.0
 11
84.3466
 21
1.5709
 31
0.0
  0
LINE
  8
PROCEDIMIENTO
  6
CONTINUOUS
 62
     7
  5
2B
 10
38.8054
 20
64.4596
 30
0.0
 11
120.7918
 21
90.5115
 31
0.0
  0
LINE
  8
PROCEDIMIENTO
  6
CONTINUOUS
 62
     7
  5
2C
 10
75.2507
 20
103.5979
 30
0.0
 11
84.3466
 21
51.3732
 31
0.0
  0
LINE
  8
PROCEDIMIENTO
  6
CONTINUOUS
 62
     7
  5
2D
 10
111.6959
 20
110.1383
 30
0.0
 11
120.7918
 21
90.5115
 31
0.0
  0
LINE
  8
PROCEDIMIENTO
  6
CONTINUOUS
 62
     7
  5
2E
 10
157.2371
 20
97.052
 30
0.0
 11
75.2507
 21
103.5979
 31
0.0
  0
LINE
  8
PROCEDIMIENTO
  6
CONTINUOUS
 62
     7
  5
2F
 10
111.6959
 20
60.3361
 30
0.0
 11
157.2371
 21
97.052
 31
0.0
  0
LINE
  8
PROCEDIMIENTO
  6
CONTINUOUS
 62
     7
  5
30
 10
157.2371
 20
47.2497
 30
0.0
 11
111.6959
 21
110.1383
 31
0.0
  0
LINE
  8
PROCEDIMIENTO
  6
CONTINUOUS
 62
     7
  5
31
 10
148.1258
 20
95.4168
 30
0.0
 11
102.5846
 21
108.5032
 31
0.0
  0
LINE
  8
PROCEDIMIENTO
  6
CONTINUOUS
 62
     7
  5
32
 10
93.4733
 20
106.8681
 30
0.0
 11
139.0145
 21
93.7817
 31
0.0
  0
LINE
  8
PROCEDIMIENTO
  6
CONTINUOUS
 62
     7
  5
33
 10
84.362
 20
105.233
 30
0.0
 11
129.9032
 21
92.1466
 31
0.0
  0
LINE
  8
PROCEDIMIENTO
  6
CONTINUOUS
 62
     7
  5
34
 10
75.2507
 20
103.5979
 30
0.0
 11
120.7918
 21
90.5115
 31
0.0
  0
LINE
  8
PROCEDIMIENTO
  6
CONTINUOUS
 62
     7
  5
35
 10
66.1393
 20
93.8133
 30
0.0
 11
111.6805
 21
80.7269
 31
0.0
  0
LINE
  8
PROCEDIMIENTO
  6
CONTINUOUS
 62
     7
  5
36
 10
57.028
 20
84.0287
 30
0.0
 11
102.5692
 21
70.9423
 31
0.0
  0
LINE
  8
PROCEDIMIENTO
  6
CONTINUOUS
 62
     7
  5
37
 10
47.9167
 20
74.2442
 30
0.0
 11
93.4579
 21
61.1578
 31
0.0
  0
LINE
  8
PROCEDIMIENTO
  6
CONTINUOUS
 62
     7
  5
38
 10
157.2371
 20
97.052
 30
0.0
 11
111.6959
 21
110.1383
 31
0.0
  0
LINE
  8
PROCEDIMIENTO
  6
CONTINUOUS
 62
     7
  5
39
 10
38.8054
 20
64.4596
 30
0.0
 11
84.3466
 21
51.3732
 31
0.0
  0
LINE
  8
PROCEDIMIENTO
  6
CONTINUOUS
 62
     7
  5
3A
 10
75.2507
 20
103.5979
 30
0.0
 11
38.8054
 21
64.4596
 31
0.0
  0
LINE
  8
PROCEDIMIENTO
  6
CONTINUOUS
 62
     7
  5
3B
 10
66.1393
 20
81.5891
 30
0.0
 11
75.2507
 21
103.5979
 31
0.0
  0
LINE
  8
PROCEDIMIENTO
  6
CONTINUOUS
 62
     7
  5
3D
 10
111.6959
 20
60.3361
 30
0.0
 11
111.6959
 21
110.1383
 31
0.0
  0
LINE
  8
PROCEDIMIENTO
  6
CONTINUOUS
 62
     7
  5
3E
 10
75.2507
 20
103.5979
 30
0.0
 11
111.6959
 21
110.1383
 31
0.0
  0
LINE
  8
PROCEDIMIENTO
  6
CONTINUOUS
 62
     7
  5
3F
 10
93.4733
 20
106.8681
 30
0.0
 11
102.5846
 21
104.4285
 31
0.0
  0
LINE
  8
PROCEDIMIENTO
  6
CONTINUOUS
 62
     7
  5
40
 10
102.5846
 20
108.5032
 30
0.0
 11
102.5846
 21
104.4285
 31
0.0
  0
LINE
  8
PROCEDIMIENTO
  6
CONTINUOUS
 62
     7
  5
41
 10
75.2507
 20
87.299
 30
0.0
 11
75.2507
 21
103.5979
 31
0.0
  0
LINE
  8
PROCEDIMIENTO
  6
CONTINUOUS
 62
     7
  5
42
 10
84.362
 20
105.233
 30
0.0
 11
84.362
 21
93.0088
 31
0.0
  0
LINE
  8
PROCEDIMIENTO
  6
CONTINUOUS
 62
     7
  5
43
 10
75.2507
 20
103.5979
 30
0.0
 11
84.362
 21
93.0088
 31
0.0
  0
LINE
  8
PROCEDIMIENTO
  6
CONTINUOUS
 62
     7
  5
44
 10
84.362
 20
105.233
 30
0.0
 11
93.4733
 21
98.7187
 31
0.0
  0
LINE
  8
PROCEDIMIENTO
  6
CONTINUOUS
 62
     7
  5
45
 10
93.4733
 20
106.8681
 30
0.0
 11
93.4733
 21
98.7187
 31
0.0
  0
LINE
  8
PROCEDIMIENTO
  6
CONTINUOUS
 62
     7
  5
46
 10
38.8054
 20
14.6573
 30
0.0
 11
38.8054
 21
64.4596
 31
0.0
  0
LINE
  8
PROCEDIMIENTO
  6
CONTINUOUS
 62
     7
  5
47
 10
66.1393
 20
93.8133
 30
0.0
 11
66.1393
 21
81.5891
 31
0.0
  0
LINE
  8
PROCEDIMIENTO
  6
CONTINUOUS
 62
     7
  5
48
 10
57.028
 20
75.8793
 30
0.0
 11
66.1393
 21
93.8133
 31
0.0
  0
LINE
  8
PROCEDIMIENTO
  6
CONTINUOUS
 62
     7
  5
49
 10
47.9167
 20
70.1694
 30
0.0
 11
57.028
 21
84.0287
 31
0.0
  0
LINE
  8
PROCEDIMIENTO
  6
CONTINUOUS
 62
     7
  5
4A
 10
57.028
 20
84.0287
 30
0.0
 11
57.028
 21
75.8793
 31
0.0
  0
LINE
  8
PROCEDIMIENTO
  6
CONTINUOUS
 62
     7
  5
4B
 10
47.9167
 20
74.2442
 30
0.0
 11
47.9167
 21
70.1694
 31
0.0
  0
LINE
  8
PROCEDIMIENTO
  6
CONTINUOUS
 62
     7
  5
4C
 10
111.6805
 20
68.5027
 30
0.0
 11
120.7918
 21
90.5115
 31
0.0
  0
LINE
  8
PROCEDIMIENTO
  6
CONTINUOUS
 62
     7
  5
4D
 10
120.7918
 20
90.5115
 30
0.0
 11
84.3466
 21
51.3732
 31
0.0
  0
LINE
  8
PROCEDIMIENTO
  6
CONTINUOUS
 62
     7
  5
4F
 10
157.2371
 20
47.2497
 30
0.0
 11
157.2371
 21
97.052
 31
0.0
  0
LINE
  8
PROCEDIMIENTO
  6
CONTINUOUS
 62
     7
  5
50
 10
139.0145
 20
93.7817
 30
0.0
 11
148.1258
 21
91.3421
 31
0.0
  0
LINE
  8
PROCEDIMIENTO
  6
CONTINUOUS
 62
     7
  5
51
 10
120.7918
 20
90.5115
 30
0.0
 11
157.2371
 21
97.052
 31
0.0
  0
LINE
  8
PROCEDIMIENTO
  6
CONTINUOUS
 62
     7
  5
52
 10
148.1258
 20
95.4168
 30
0.0
 11
148.1258
 21
91.3421
 31
0.0
  0
LINE
  8
PROCEDIMIENTO
  6
CONTINUOUS
 62
     7
  5
53
 10
129.9032
 20
92.1466
 30
0.0
 11
139.0145
 21
85.6323
 31
0.0
  0
LINE
  8
PROCEDIMIENTO
  6
CONTINUOUS
 62
     7
  5
54
 10
120.7918
 20
90.5115
 30
0.0
 11
129.9032
 21
79.9224
 31
0.0
  0
LINE
  8
PROCEDIMIENTO
  6
CONTINUOUS
 62
     7
  5
55
 10
129.9032
 20
92.1466
 30
0.0
 11
129.9032
 21
79.9224
 31
0.0
  0
LINE
  8
PROCEDIMIENTO
  6
CONTINUOUS
 62
     7
  5
56
 10
120.7918
 20
74.2126
 30
0.0
 11
120.7918
 21
90.5115
 31
0.0
  0
LINE
  8
PROCEDIMIENTO
  6
CONTINUOUS
 62
     7
  5
57
 10
139.0145
 20
93.7817
 30
0.0
 11
139.0145
 21
85.6323
 31
0.0
  0
LINE
  8
PROCEDIMIENTO
  6
CONTINUOUS
 62
     7
  5
58
 10
84.3466
 20
1.5709
 30
0.0
 11
84.3466
 21
51.3732
 31
0.0
  0
LINE
  8
PROCEDIMIENTO
  6
CONTINUOUS
 62
     7
  5
59
 10
102.5692
 20
62.7929
 30
0.0
 11
111.6805
 21
80.7269
 31
0.0
  0
LINE
  8
PROCEDIMIENTO
  6
CONTINUOUS
 62
     7
  5
5A
 10
111.6805
 20
80.7269
 30
0.0
 11
111.6805
 21
68.5027
 31
0.0
  0
LINE
  8
PROCEDIMIENTO
  6
CONTINUOUS
 62
     7
  5
5B
 10
93.4579
 20
57.083
 30
0.0
 11
102.5692
 21
70.9423
 31
0.0
  0
LINE
  8
PROCEDIMIENTO
  6
CONTINUOUS
 62
     7
  5
5C
 10
102.5692
 20
70.9423
 30
0.0
 11
102.5692
 21
62.7929
 31
0.0
  0
LINE
  8
PROCEDIMIENTO
  6
CONTINUOUS
 62
     7
  5
5D
 10
93.4579
 20
61.1578
 30
0.0
 11
93.4579
 21
57.083
 31
0.0
  0
LINE
  8
0
  6
CONTINUOUS
 62
     7
  5
90
 10
84.3466
 20
51.3732
 30
0.0
 11
93.4579
 21
57.083
 31
0.0
  0
LINE
  8
0
  6
CONTINUOUS
 62
     7
  5
91
 10
93.4579
 20
57.083
 30
0.0
 11
102.5692
 21
62.7929
 31
0.0
  0
LINE
  8
0
  6
CONTINUOUS
 62
     7
  5
92
 10
102.5692
 20
62.7929
 30
0.0
 11
111.6805
 21
68.5027
 31
0.0
  0
LINE
  8
0
  6
CONTINUOUS
 62
     7
  5
93
 10
111.6805
 20
68.5027
 30
0.0
 11
120.7918
 21
74.2126
 31
0.0
  0
LINE
  8
0
  6
CONTINUOUS
 62
     7
  5
94
 10
120.7918
 20
74.2126
 30
0.0
 11
129.9032
 21
79.9224
 31
0.0
  0
LINE
  8
0
  6
CONTINUOUS
 62
     7
  5
95
 10
129.9032
 20
79.9224
 30
0.0
 11
139.0145
 21
85.6323
 31
0.0
  0
LINE
  8
0
  6
CONTINUOUS
 62
     7
  5
96
 10
139.0145
 20
85.6323
 30
0.0
 11
148.1258
 21
91.3421
 31
0.0
  0
LINE
  8
0
  6
CONTINUOUS
 62
     7
  5
97
 10
148.1258
 20
91.3421
 30
0.0
 11
157.2371
 21
97.052
 31
0.0
  0
LINE
  8
0
  6
CONTINUOUS
 62
     7
  5
98
 10
38.8054
 20
64.4596
 30
0.0
 11
47.9167
 21
70.1694
 31
0.0
  0
LINE
  8
0
  6
CONTINUOUS
 62
     7
  5
99
 10
47.9167
 20
70.1694
 30
0.0
 11
57.028
 21
75.8793
 31
0.0
  0
LINE
  8
0
  6
CONTINUOUS
 62
     7
  5
9A
 10
57.028
 20
75.8793
 30
0.0
 11
66.1393
 21
81.5891
 31
0.0
  0
LINE
  8
0
  6
CONTINUOUS
 62
     7
  5
9B
 10
66.1393
 20
81.5891
 30
0.0
 11
75.2507
 21
87.299
 31
0.0
  0
LINE
  8
0
  6
CONTINUOUS
 62
     7
  5
9C
 10
75.2507
 20
87.299
 30
0.0
 11
84.362
 21
93.0088
 31
0.0
  0
LINE
  8
0
  6
CONTINUOUS
 62
     7
  5
9D
 10
84.362
 20
93.0088
 30
0.0
 11
93.4733
 21
98.7187
 31
0.0
  0
LINE
  8
0
  6
CONTINUOUS
 62
     7
  5
9E
 10
93.4733
 20
98.7187
 30
0.0
 11
102.5846
 21
104.4285
 31
0.0
  0
LINE
  8
0
  6
CONTINUOUS
 62
     7
  5
9F
 10
102.5846
 20
104.4285
 30
0.0
 11
111.6959
 21
110.1383
 31
0.0
  0
ENDSEC
  0
EOF
