  0
SECTION
  2
HEADER
  9
$ACADVER
  1
AC1009
  9
$INSBASE
 10
0.0
 20
0.0
 30
0.0
  9
$EXTMIN
 10
634.132141
 20
31.215275
 30
0.0
  9
$EXTMAX
 10
877.194125
 20
223.543514
 30
0.0
  9
$LIMMIN
 10
0.0
 20
0.0
  9
$LIMMAX
 10
420.0
 20
297.0
  9
$ORTHOMODE
 70
     0
  9
$REGENMODE
 70
     1
  9
$FILLMODE
 70
     1
  9
$QTEXTMODE
 70
     0
  9
$MIRRTEXT
 70
     1
  9
$DRAGMODE
 70
     2
  9
$LTSCALE
 40
1.0
  9
$OSMODE
 70
     0
  9
$ATTMODE
 70
     1
  9
$TEXTSIZE
 40
2.5
  9
$TRACEWID
 40
1.0
  9
$TEXTSTYLE
  7
STANDARD
  9
$CLAYER
  8
0
  9
$CELTYPE
  6
BYLAYER
  9
$CECOLOR
 62
     2
  9
$DIMSCALE
 40
1.0
  9
$DIMASZ
 40
2.5
  9
$DIMEXO
 40
0.625
  9
$DIMDLI
 40
3.75
  9
$DIMRND
 40
0.0
  9
$DIMDLE
 40
0.0
  9
$DIMEXE
 40
1.25
  9
$DIMTP
 40
0.0
  9
$DIMTM
 40
0.0
  9
$DIMTXT
 40
2.5
  9
$DIMCEN
 40
2.5
  9
$DIMTSZ
 40
0.0
  9
$DIMTOL
 70
     0
  9
$DIMLIM
 70
     0
  9
$DIMTIH
 70
     0
  9
$DIMTOH
 70
     0
  9
$DIMSE1
 70
     0
  9
$DIMSE2
 70
     0
  9
$DIMTAD
 70
     1
  9
$DIMZIN
 70
     8
  9
$DIMBLK
  1

  9
$DIMASO
 70
     1
  9
$DIMSHO
 70
     1
  9
$DIMPOST
  1

  9
$DIMAPOST
  1

  9
$DIMALT
 70
     0
  9
$DIMALTD
 70
     4
  9
$DIMALTF
 40
0.0394
  9
$DIMLFAC
 40
1.0
  9
$DIMTOFL
 70
     1
  9
$DIMTVP
 40
0.0
  9
$DIMTIX
 70
     0
  9
$DIMSOXD
 70
     0
  9
$DIMSAH
 70
     0
  9
$DIMBLK1
  1

  9
$DIMBLK2
  1

  9
$DIMSTYLE
  2
STANDARD
  9
$DIMCLRD
 70
     0
  9
$DIMCLRE
 70
     0
  9
$DIMCLRT
 70
     0
  9
$DIMTFAC
 40
1.0
  9
$DIMGAP
 40
0.625
  9
$LUNITS
 70
     2
  9
$LUPREC
 70
     4
  9
$SKETCHINC
 40
1.0
  9
$FILLETRAD
 40
10.0
  9
$AUNITS
 70
     0
  9
$AUPREC
 70
     0
  9
$MENU
  1
.
  9
$ELEVATION
 40
0.0
  9
$PELEVATION
 40
0.0
  9
$THICKNESS
 40
0.0
  9
$LIMCHECK
 70
     0
  9
$BLIPMODE
 70
     0
  9
$CHAMFERA
 40
0.0
  9
$CHAMFERB
 40
0.0
  9
$SKPOLY
 70
     0
  9
$TDCREATE
 40
2451319.472807
  9
$TDUPDATE
 40
2451709.704949
  9
$TDINDWG
 40
0.001616
  9
$TDUSRTIMER
 40
0.001616
  9
$USRTIMER
 70
     1
  9
$ANGBASE
 50
0.0
  9
$ANGDIR
 70
     0
  9
$PDMODE
 70
     0
  9
$PDSIZE
 40
0.0
  9
$PLINEWID
 40
0.0
  9
$COORDS
 70
     1
  9
$SPLFRAME
 70
     0
  9
$SPLINETYPE
 70
     6
  9
$SPLINESEGS
 70
     8
  9
$ATTDIA
 70
     0
  9
$ATTREQ
 70
     1
  9
$HANDLING
 70
     1
  9
$HANDSEED
  5
254
  9
$SURFTAB1
 70
     6
  9
$SURFTAB2
 70
     6
  9
$SURFTYPE
 70
     6
  9
$SURFU
 70
     6
  9
$SURFV
 70
     6
  9
$UCSNAME
  2

  9
$UCSORG
 10
0.0
 20
0.0
 30
0.0
  9
$UCSXDIR
 10
1.0
 20
0.0
 30
0.0
  9
$UCSYDIR
 10
0.0
 20
1.0
 30
0.0
  9
$PUCSNAME
  2

  9
$PUCSORG
 10
0.0
 20
0.0
 30
0.0
  9
$PUCSXDIR
 10
1.0
 20
0.0
 30
0.0
  9
$PUCSYDIR
 10
0.0
 20
1.0
 30
0.0
  9
$USERI1
 70
     0
  9
$USERI2
 70
     0
  9
$USERI3
 70
     0
  9
$USERI4
 70
     0
  9
$USERI5
 70
     0
  9
$USERR1
 40
0.0
  9
$USERR2
 40
0.0
  9
$USERR3
 40
0.0
  9
$USERR4
 40
0.0
  9
$USERR5
 40
0.0
  9
$WORLDVIEW
 70
     1
  9
$SHADEDGE
 70
     3
  9
$SHADEDIF
 70
    70
  9
$TILEMODE
 70
     1
  9
$MAXACTVP
 70
    48
  9
$PLIMCHECK
 70
     0
  9
$PEXTMIN
 10
1.000000E+020
 20
1.000000E+020
 30
1.000000E+020
  9
$PEXTMAX
 10
-1.000000E+020
 20
-1.000000E+020
 30
-1.000000E+020
  9
$PLIMMIN
 10
0.0
 20
0.0
  9
$PLIMMAX
 10
420.0
 20
297.0
  9
$UNITMODE
 70
     0
  9
$VISRETAIN
 70
     1
  9
$PLINEGEN
 70
     0
  9
$PSLTSCALE
 70
     1
  0
ENDSEC
  0
SECTION
  2
TABLES
  0
TABLE
  2
VPORT
 70
     2
  0
VPORT
  2
*ACTIVE
 70
     0
 10
0.0
 20
0.0
 11
1.0
 21
1.0
 12
607.060127
 22
131.653694
 13
0.0
 23
0.0
 14
10.0
 24
10.0
 15
10.0
 25
10.0
 16
0.0
 26
0.0
 36
1.0
 17
0.0
 27
0.0
 37
0.0
 40
614.328646
 41
1.438757
 42
50.0
 43
0.0
 44
0.0
 50
0.0
 51
0.0
 71
     0
 72
   100
 73
     1
 74
     1
 75
     0
 76
     0
 77
     0
 78
     0
  0
ENDTAB
  0
TABLE
  2
LTYPE
 70
     1
  0
LTYPE
  2
CONTINUOUS
 70
     0
  3
Solid line
 72
    65
 73
     0
 40
0.0
  0
ENDTAB
  0
TABLE
  2
LAYER
 70
     1
  0
LAYER
  2
0
 70
     0
 62
     7
  6
CONTINUOUS
  0
ENDTAB
  0
TABLE
  2
STYLE
 70
     1
  0
STYLE
  2
STANDARD
 70
     0
 40
0.0
 41
1.0
 50
0.0
 71
     0
 42
2.5
  3
txt
  4

  0
ENDTAB
  0
TABLE
  2
VIEW
 70
     0
  0
ENDTAB
  0
TABLE
  2
UCS
 70
     0
  0
ENDTAB
  0
TABLE
  2
APPID
 70
     1
  0
APPID
  2
ACAD
 70
     0
  0
ENDTAB
  0
TABLE
  2
DIMSTYLE
 70
     1
  0
DIMSTYLE
  2
STANDARD
 70
     0
  3

  4

  5

  6

  7

 40
1.0
 41
0.18
 42
0.0625
 43
0.38
 44
0.18
 45
0.0
 46
0.0
 47
0.0
 48
0.0
140
0.18
141
0.09
142
0.0
143
25.4
144
1.0
145
0.0
146
1.0
147
0.09
 71
     0
 72
     0
 73
     1
 74
     1
 75
     0
 76
     0
 77
     0
 78
     0
170
     0
171
     2
172
     0
173
     0
174
     0
175
     0
176
     0
177
     0
178
     0
  0
ENDTAB
  0
ENDSEC
  0
SECTION
  2
BLOCKS
  0
BLOCK
  8
0
  2
$MODEL_SPACE
 70
     0
 10
0.0
 20
0.0
 30
0.0
  3
$MODEL_SPACE
  1

  0
ENDBLK
  5
249
  8
0
  0
BLOCK
 67
     1
  8
0
  2
$PAPER_SPACE
 70
     0
 10
0.0
 20
0.0
 30
0.0
  3
$PAPER_SPACE
  1

  0
ENDBLK
  5
246
 67
     1
  8
0
  0
ENDSEC
  0
SECTION
  2
ENTITIES
  0
LINE
  5
1F1
  8
0
 62
     7
 10
683.896129
 20
31.215275
 30
0.0
 11
634.132141
 21
47.100846
 31
0.0
  0
LINE
  5
1F2
  8
0
 62
     7
 10
683.896129
 20
31.215275
 30
0.0
 11
683.896129
 21
62.453641
 31
0.0
  0
LINE
  5
1F3
  8
0
 62
     7
 10
634.132141
 20
47.100846
 30
0.0
 11
634.132141
 21
78.339212
 31
0.0
  0
LINE
  5
1F4
  8
0
 62
     7
 10
683.896129
 20
31.215275
 30
0.0
 11
732.220628
 21
58.043206
 31
0.0
  0
LINE
  5
1F5
  8
0
 62
     7
 10
634.132141
 20
47.100846
 30
0.0
 11
682.45664
 21
73.928777
 31
0.0
  0
LINE
  5
1F6
  8
0
 62
     7
 10
634.132141
 20
78.339212
 30
0.0
 11
695.866064
 21
112.611547
 31
0.0
  0
LINE
  5
1F7
  8
0
 62
     7
 10
683.896129
 20
62.453641
 30
0.0
 11
745.630053
 21
96.725976
 31
0.0
  0
LINE
  5
1F8
  8
0
 62
     7
 10
764.207788
 20
47.832322
 30
0.0
 11
732.220628
 21
58.043206
 31
0.0
  0
LINE
  5
1FB
  8
0
 62
     7
 10
745.630053
 20
96.725976
 30
0.0
 11
732.220628
 21
58.043206
 31
0.0
  0
LINE
  5
1FC
  8
0
 62
     7
 10
695.866064
 20
112.611547
 30
0.0
 11
682.45664
 21
73.928777
 31
0.0
  0
LINE
  5
1FE
  8
0
 62
     7
 10
812.532287
 20
187.236177
 30
0.0
 11
764.207788
 21
47.832322
 31
0.0
  0
LINE
  5
1FF
  8
0
 62
     7
 10
745.630053
 20
96.725976
 30
0.0
 11
695.866064
 21
112.611547
 31
0.0
  0
LINE
  5
203
  8
0
 62
     7
 10
860.856786
 20
101.488183
 30
0.0
 11
812.532287
 21
187.236177
 31
0.0
  0
LINE
  5
204
  8
0
 62
     7
 10
764.207788
 20
47.832322
 30
0.0
 11
860.856786
 21
101.488183
 31
0.0
  0
LINE
  5
206
  8
0
 62
     7
 10
682.45664
 20
73.928777
 30
0.0
 11
650.46948
 21
84.13966
 31
0.0
  0
LINE
  5
207
  8
0
 62
     7
 10
698.793979
 20
223.543514
 30
0.0
 11
650.46948
 21
84.13966
 31
0.0
  0
LINE
  5
208
  8
0
 62
     7
 10
683.896129
 20
62.453641
 30
0.0
 11
634.132141
 21
78.339212
 31
0.0
  0
LINE
  5
209
  8
0
 62
     7
 10
750.24047
 20
129.705901
 30
0.0
 11
712.761297
 21
141.669935
 31
0.0
  0
LINE
  5
20B
  8
0
 62
     7
 10
774.402719
 20
199.407828
 30
0.0
 11
750.24047
 21
129.705901
 31
0.0
  0
LINE
  5
20D
  8
0
 62
     7
 10
736.923546
 20
211.371863
 30
0.0
 11
712.761297
 21
141.669935
 31
0.0
  0
LINE
  5
20E
  8
0
 62
     7
 10
812.532287
 20
187.236177
 30
0.0
 11
774.402719
 21
199.407828
 31
0.0
  0
LINE
  5
213
  8
0
 62
     7
 10
774.402719
 20
199.407828
 30
0.0
 11
798.564969
 21
156.533832
 31
0.0
  0
LINE
  5
214
  8
0
 62
     7
 10
736.923546
 20
211.371863
 30
0.0
 11
761.085796
 21
168.497866
 31
0.0
  0
LINE
  5
215
  8
0
 62
     7
 10
798.564969
 20
156.533832
 30
0.0
 11
761.085796
 21
168.497866
 31
0.0
  0
LINE
  5
21B
  8
0
 62
     7
 10
828.869626
 20
111.699067
 30
0.0
 11
815.460201
 21
135.493028
 31
0.0
  0
LINE
  5
21C
  8
0
 62
     7
 10
779.105637
 20
127.584637
 30
0.0
 11
765.696213
 21
151.378599
 31
0.0
  0
LINE
  5
21E
  8
0
 62
     7
 10
650.46948
 20
84.13966
 30
0.0
 11
747.118478
 21
137.795521
 31
0.0
  0
LINE
  5
21F
  8
0
 62
     7
 10
779.105637
 20
127.584637
 30
0.0
 11
747.118478
 21
137.795521
 31
0.0
  0
LINE
  5
220
  8
0
 62
     7
 10
747.118478
 20
137.795521
 30
0.0
 11
698.793979
 21
223.543514
 31
0.0
  0
LINE
  5
221
  8
0
 62
     7
 10
815.460201
 20
135.493028
 30
0.0
 11
765.696213
 21
151.378599
 31
0.0
  0
LINE
  5
222
  8
0
 62
     7
 10
860.856786
 20
101.488183
 30
0.0
 11
828.869626
 21
111.699067
 31
0.0
  0
LINE
  5
223
  8
0
 62
     7
 10
828.869626
 20
111.699067
 30
0.0
 11
877.194125
 21
138.526997
 31
0.0
  0
LINE
  5
224
  8
0
 62
     7
 10
779.105637
 20
127.584637
 30
0.0
 11
827.430136
 21
154.412568
 31
0.0
  0
LINE
  5
225
  8
0
 62
     7
 10
815.460201
 20
135.493028
 30
0.0
 11
877.194125
 21
169.765363
 31
0.0
  0
LINE
  5
226
  8
0
 62
     7
 10
765.696213
 20
151.378599
 30
0.0
 11
827.430136
 21
185.650933
 31
0.0
  0
LINE
  5
227
  8
0
 62
     7
 10
877.194125
 20
169.765363
 30
0.0
 11
877.194125
 21
138.526997
 31
0.0
  0
LINE
  5
228
  8
0
 62
     7
 10
827.430136
 20
185.650933
 30
0.0
 11
827.430136
 21
154.412568
 31
0.0
  0
LINE
  5
229
  8
0
 62
     7
 10
827.430136
 20
154.412568
 30
0.0
 11
877.194125
 21
138.526997
 31
0.0
  0
LINE
  5
22A
  8
0
 62
     7
 10
877.194125
 20
169.765363
 30
0.0
 11
827.430136
 21
185.650933
 31
0.0
  0
LINE
  5
22C
  8
0
 62
     7
 10
736.923546
 20
211.371863
 30
0.0
 11
698.793979
 21
223.543514
 31
0.0
  0
LINE
  5
22D
  8
0
 62
     7
 10
750.24047
 20
129.705901
 30
0.0
 11
798.564969
 21
156.533832
 31
0.0
  0
LINE
  5
22E
  8
0
 62
     7
 10
712.761297
 20
141.669935
 30
0.0
 11
761.085796
 21
168.497866
 31
0.0
  0
ENDSEC
  0
EOF
