  0
SECTION
  2
HEADER
  9
$ACADVER
  1
AC1009
  9
$INSBASE
 10
0.0
 20
0.0
 30
0.0
  9
$EXTMIN
 10
131.705961
 20
-28.212396
 30
0.0
  9
$EXTMAX
 10
478.97333
 20
257.974959
 30
0.0
  9
$LIMMIN
 10
0.0
 20
0.0
  9
$LIMMAX
 10
420.0
 20
297.0
  9
$ORTHOMODE
 70
     1
  9
$REGENMODE
 70
     1
  9
$FILLMODE
 70
     1
  9
$QTEXTMODE
 70
     0
  9
$MIRRTEXT
 70
     1
  9
$DRAGMODE
 70
     2
  9
$LTSCALE
 40
1.0
  9
$OSMODE
 70
     0
  9
$ATTMODE
 70
     1
  9
$TEXTSIZE
 40
2.5
  9
$TRACEWID
 40
1.0
  9
$TEXTSTYLE
  7
STANDARD
  9
$CLAYER
  8
0
  9
$CELTYPE
  6
BYLAYER
  9
$CECOLOR
 62
   256
  9
$DIMSCALE
 40
1.0
  9
$DIMASZ
 40
2.5
  9
$DIMEXO
 40
0.625
  9
$DIMDLI
 40
3.75
  9
$DIMRND
 40
0.0
  9
$DIMDLE
 40
0.0
  9
$DIMEXE
 40
1.25
  9
$DIMTP
 40
0.0
  9
$DIMTM
 40
0.0
  9
$DIMTXT
 40
2.5
  9
$DIMCEN
 40
2.5
  9
$DIMTSZ
 40
0.0
  9
$DIMTOL
 70
     0
  9
$DIMLIM
 70
     0
  9
$DIMTIH
 70
     0
  9
$DIMTOH
 70
     0
  9
$DIMSE1
 70
     0
  9
$DIMSE2
 70
     0
  9
$DIMTAD
 70
     1
  9
$DIMZIN
 70
     8
  9
$DIMBLK
  1

  9
$DIMASO
 70
     1
  9
$DIMSHO
 70
     1
  9
$DIMPOST
  1

  9
$DIMAPOST
  1

  9
$DIMALT
 70
     0
  9
$DIMALTD
 70
     4
  9
$DIMALTF
 40
0.0394
  9
$DIMLFAC
 40
1.0
  9
$DIMTOFL
 70
     1
  9
$DIMTVP
 40
0.0
  9
$DIMTIX
 70
     0
  9
$DIMSOXD
 70
     0
  9
$DIMSAH
 70
     0
  9
$DIMBLK1
  1

  9
$DIMBLK2
  1

  9
$DIMSTYLE
  2
STANDARD
  9
$DIMCLRD
 70
     0
  9
$DIMCLRE
 70
     0
  9
$DIMCLRT
 70
     0
  9
$DIMTFAC
 40
1.0
  9
$DIMGAP
 40
0.625
  9
$LUNITS
 70
     2
  9
$LUPREC
 70
     4
  9
$SKETCHINC
 40
1.0
  9
$FILLETRAD
 40
10.0
  9
$AUNITS
 70
     0
  9
$AUPREC
 70
     0
  9
$MENU
  1
.
  9
$ELEVATION
 40
0.0
  9
$PELEVATION
 40
0.0
  9
$THICKNESS
 40
0.0
  9
$LIMCHECK
 70
     0
  9
$BLIPMODE
 70
     0
  9
$CHAMFERA
 40
0.0
  9
$CHAMFERB
 40
0.0
  9
$SKPOLY
 70
     0
  9
$TDCREATE
 40
2451978.773716
  9
$TDUPDATE
 40
2451978.773716
  9
$TDINDWG
 40
0.0
  9
$TDUSRTIMER
 40
0.0
  9
$USRTIMER
 70
     1
  9
$ANGBASE
 50
0.0
  9
$ANGDIR
 70
     0
  9
$PDMODE
 70
     0
  9
$PDSIZE
 40
0.0
  9
$PLINEWID
 40
0.0
  9
$COORDS
 70
     1
  9
$SPLFRAME
 70
     0
  9
$SPLINETYPE
 70
     6
  9
$SPLINESEGS
 70
     8
  9
$ATTDIA
 70
     0
  9
$ATTREQ
 70
     1
  9
$HANDLING
 70
     1
  9
$HANDSEED
  5
CD
  9
$SURFTAB1
 70
     6
  9
$SURFTAB2
 70
     6
  9
$SURFTYPE
 70
     6
  9
$SURFU
 70
     6
  9
$SURFV
 70
     6
  9
$UCSNAME
  2

  9
$UCSORG
 10
0.0
 20
0.0
 30
0.0
  9
$UCSXDIR
 10
1.0
 20
0.0
 30
0.0
  9
$UCSYDIR
 10
0.0
 20
1.0
 30
0.0
  9
$PUCSNAME
  2

  9
$PUCSORG
 10
0.0
 20
0.0
 30
0.0
  9
$PUCSXDIR
 10
1.0
 20
0.0
 30
0.0
  9
$PUCSYDIR
 10
0.0
 20
1.0
 30
0.0
  9
$USERI1
 70
     0
  9
$USERI2
 70
     0
  9
$USERI3
 70
     0
  9
$USERI4
 70
     0
  9
$USERI5
 70
     0
  9
$USERR1
 40
0.0
  9
$USERR2
 40
0.0
  9
$USERR3
 40
0.0
  9
$USERR4
 40
0.0
  9
$USERR5
 40
0.0
  9
$WORLDVIEW
 70
     1
  9
$SHADEDGE
 70
     3
  9
$SHADEDIF
 70
    70
  9
$TILEMODE
 70
     1
  9
$MAXACTVP
 70
    48
  9
$PLIMCHECK
 70
     0
  9
$PEXTMIN
 10
1.000000E+020
 20
1.000000E+020
 30
1.000000E+020
  9
$PEXTMAX
 10
-1.000000E+020
 20
-1.000000E+020
 30
-1.000000E+020
  9
$PLIMMIN
 10
0.0
 20
0.0
  9
$PLIMMAX
 10
420.0
 20
297.0
  9
$UNITMODE
 70
     0
  9
$VISRETAIN
 70
     1
  9
$PLINEGEN
 70
     0
  9
$PSLTSCALE
 70
     1
  0
ENDSEC
  0
SECTION
  2
TABLES
  0
TABLE
  2
VPORT
 70
     2
  0
VPORT
  2
*ACTIVE
 70
     0
 10
0.0
 20
0.0
 11
1.0
 21
1.0
 12
314.432062
 22
121.701436
 13
0.0
 23
0.0
 14
10.0
 24
10.0
 15
10.0
 25
10.0
 16
0.0
 26
0.0
 36
1.0
 17
0.0
 27
0.0
 37
0.0
 40
328.792716
 41
1.700368
 42
50.0
 43
0.0
 44
0.0
 50
0.0
 51
0.0
 71
     0
 72
   100
 73
     1
 74
     1
 75
     0
 76
     0
 77
     0
 78
     0
  0
ENDTAB
  0
TABLE
  2
LTYPE
 70
     1
  0
LTYPE
  2
CONTINUOUS
 70
     0
  3
Solid line
 72
    65
 73
     0
 40
0.0
  0
ENDTAB
  0
TABLE
  2
LAYER
 70
     1
  0
LAYER
  2
0
 70
     0
 62
     7
  6
CONTINUOUS
  0
ENDTAB
  0
TABLE
  2
STYLE
 70
     1
  0
STYLE
  2
STANDARD
 70
     0
 40
0.0
 41
1.0
 50
0.0
 71
     0
 42
2.5
  3
txt
  4

  0
ENDTAB
  0
TABLE
  2
VIEW
 70
     0
  0
ENDTAB
  0
TABLE
  2
UCS
 70
     0
  0
ENDTAB
  0
TABLE
  2
APPID
 70
     1
  0
APPID
  2
ACAD
 70
     0
  0
ENDTAB
  0
TABLE
  2
DIMSTYLE
 70
     1
  0
DIMSTYLE
  2
STANDARD
 70
     0
  3

  4

  5

  6

  7

 40
1.0
 41
0.18
 42
0.0625
 43
0.38
 44
0.18
 45
0.0
 46
0.0
 47
0.0
 48
0.0
140
0.18
141
0.09
142
0.0
143
25.4
144
1.0
145
0.0
146
1.0
147
0.09
 71
     0
 72
     0
 73
     1
 74
     1
 75
     0
 76
     0
 77
     0
 78
     0
170
     0
171
     2
172
     0
173
     0
174
     0
175
     0
176
     0
177
     0
178
     0
  0
ENDTAB
  0
ENDSEC
  0
SECTION
  2
BLOCKS
  0
BLOCK
  8
0
  2
$MODEL_SPACE
 70
     0
 10
0.0
 20
0.0
 30
0.0
  3
$MODEL_SPACE
  1

  0
ENDBLK
  5
C2
  8
0
  0
BLOCK
 67
     1
  8
0
  2
$PAPER_SPACE
 70
     0
 10
0.0
 20
0.0
 30
0.0
  3
$PAPER_SPACE
  1

  0
ENDBLK
  5
BF
 67
     1
  8
0
  0
ENDSEC
  0
SECTION
  2
ENTITIES
  0
LINE
  5
20
  8
0
 62
     7
 10
131.705961
 20
132.69633
 30
0.0
 11
328.765451
 21
237.648659
 31
0.0
  0
LINE
  5
22
  8
0
 62
     7
 10
131.705961
 20
132.69633
 30
0.0
 11
190.060155
 21
87.465138
 31
0.0
  0
LINE
  5
23
  8
0
 62
     7
 10
190.060155
 20
87.465138
 30
0.0
 11
226.848795
 21
107.058477
 31
0.0
  0
LINE
  5
24
  8
0
 62
     7
 10
181.965184
 20
141.848423
 30
0.0
 11
226.848795
 21
107.058477
 31
0.0
  0
LINE
  5
25
  8
0
 62
     7
 10
181.965184
 20
141.848423
 30
0.0
 11
287.937964
 21
198.288689
 31
0.0
  0
LINE
  5
26
  8
0
 62
     7
 10
328.765451
 20
237.648659
 30
0.0
 11
457.29296
 21
138.025101
 31
0.0
  0
LINE
  5
29
  8
0
 62
     7
 10
190.060155
 20
87.465138
 30
0.0
 11
190.060155
 21
-28.212396
 31
0.0
  0
LINE
  5
2B
  8
0
 62
     7
 10
226.848795
 20
107.058477
 30
0.0
 11
226.848795
 21
-8.619056
 31
0.0
  0
LINE
  5
2C
  8
0
 62
     7
 10
190.060155
 20
-28.212396
 30
0.0
 11
226.848795
 21
-8.619056
 31
0.0
  0
LINE
  5
2D
  8
0
 62
     7
 10
131.705961
 20
17.018797
 30
0.0
 11
190.060155
 21
-28.212396
 31
0.0
  0
LINE
  5
2E
  8
0
 62
     7
 10
131.705961
 20
17.018797
 30
0.0
 11
328.765451
 21
121.971126
 31
0.0
  0
LINE
  5
2F
  8
0
 62
     7
 10
131.705961
 20
132.69633
 30
0.0
 11
131.705961
 21
17.018797
 31
0.0
  0
LINE
  5
31
  8
0
 62
     7
 10
205.399091
 20
8.006924
 30
0.0
 11
258.385481
 21
36.227057
 31
0.0
  0
LINE
  5
33
  8
0
 62
     7
 10
181.965184
 20
141.848423
 30
0.0
 11
205.399091
 21
70.378847
 31
0.0
  0
LINE
  5
34
  8
0
 62
     7
 10
205.399091
 20
8.006924
 30
0.0
 11
205.399091
 21
70.378847
 31
0.0
  0
LINE
  5
35
  8
0
 62
     7
 10
205.399091
 20
70.378847
 30
0.0
 11
258.385481
 21
98.598979
 31
0.0
  0
LINE
  5
36
  8
0
 62
     7
 10
258.385481
 20
98.598979
 30
0.0
 11
279.835185
 21
33.180898
 31
0.0
  0
LINE
  5
37
  8
0
 62
     7
 10
258.385481
 20
36.227057
 30
0.0
 11
258.385481
 21
98.598979
 31
0.0
  0
LINE
  5
38
  8
0
 62
     7
 10
258.385481
 20
36.227057
 30
0.0
 11
279.835185
 21
19.601077
 31
0.0
  0
LINE
  5
3A
  8
0
 62
     7
 10
279.835185
 20
19.601077
 30
0.0
 11
279.835185
 21
33.180898
 31
0.0
  0
LINE
  5
3C
  8
0
 62
     7
 10
226.848795
 20
-8.619056
 30
0.0
 11
205.399091
 21
8.006924
 31
0.0
  0
LINE
  5
40
  8
0
 62
     7
 10
279.835185
 20
19.601077
 30
0.0
 11
332.821575
 21
47.82121
 31
0.0
  0
LINE
  5
41
  8
0
 62
     7
 10
332.821575
 20
47.82121
 30
0.0
 11
332.821575
 21
61.401031
 31
0.0
  0
LINE
  5
42
  8
0
 62
     7
 10
279.835185
 20
33.180898
 30
0.0
 11
332.821575
 21
61.401031
 31
0.0
  0
LINE
  5
43
  8
0
 62
     7
 10
332.821575
 20
61.401031
 30
0.0
 11
287.937964
 21
198.288689
 31
0.0
  0
LINE
  5
4E
  8
0
 62
     7
 10
328.765451
 20
237.648659
 30
0.0
 11
328.765451
 21
121.971126
 31
0.0
  0
LINE
  5
50
  8
0
 62
     7
 10
427.299282
 20
6.373171
 30
0.0
 11
457.29296
 21
22.347567
 31
0.0
  0
LINE
  5
53
  8
0
 62
     7
 10
328.765451
 20
121.971126
 30
0.0
 11
457.29296
 21
22.347567
 31
0.0
  0
LINE
  5
5A
  8
0
 62
     7
 10
442.296121
 20
130.037903
 30
0.0
 11
457.29296
 21
138.025101
 31
0.0
  0
LINE
  5
63
  8
0
 62
     7
 10
457.29296
 20
22.347567
 30
0.0
 11
457.29296
 21
138.025101
 31
0.0
  0
LINE
  5
64
  8
0
 62
     7
 10
427.299282
 20
6.373171
 30
0.0
 11
332.821575
 21
47.82121
 31
0.0
  0
LINE
  5
65
  8
0
 62
     7
 10
427.299282
 20
6.373171
 30
0.0
 11
427.299282
 21
19.952992
 31
0.0
  0
LINE
  5
67
  8
0
 62
     7
 10
427.299282
 20
19.952992
 30
0.0
 11
332.821575
 21
61.401031
 31
0.0
  0
LINE
  5
6F
  8
0
 62
     7
 10
442.296121
 20
130.037903
 30
0.0
 11
346.961271
 21
165.194043
 31
0.0
  0
LINE
  5
71
  8
0
 62
     7
 10
427.299282
 20
19.952992
 30
0.0
 11
442.296121
 21
130.037903
 31
0.0
  0
LINE
  5
72
  8
0
 62
     7
 10
332.821575
 20
61.401031
 30
0.0
 11
346.961271
 21
165.194043
 31
0.0
  0
LINE
  5
73
  8
0
 62
     7
 10
346.961271
 20
165.194043
 30
0.0
 11
287.937964
 21
198.288689
 31
0.0
  0
LINE
  5
9C
  8
0
 62
     7
 10
457.29296
 20
22.347567
 30
0.0
 11
465.866276
 21
15.702264
 31
0.0
  0
LINE
  5
9D
  8
0
 62
     7
 10
465.866276
 20
15.702264
 30
0.0
 11
478.97333
 21
22.682978
 31
0.0
  0
LINE
  5
9E
  8
0
 62
     7
 10
457.29296
 20
22.347567
 30
0.0
 11
470.400014
 21
29.32828
 31
0.0
  0
LINE
  5
9F
  8
0
 62
     7
 10
470.400014
 20
29.32828
 30
0.0
 11
478.97333
 21
22.682978
 31
0.0
  0
LINE
  5
A0
  8
0
 62
     7
 10
470.400014
 20
257.974959
 30
0.0
 11
478.97333
 21
251.329656
 31
0.0
  0
LINE
  5
A1
  8
0
 62
     7
 10
465.866276
 20
244.348943
 30
0.0
 11
478.97333
 21
251.329656
 31
0.0
  0
LINE
  5
A2
  8
0
 62
     7
 10
457.29296
 20
250.994245
 30
0.0
 11
465.866276
 21
244.348943
 31
0.0
  0
LINE
  5
A3
  8
0
 62
     7
 10
457.29296
 20
250.994245
 30
0.0
 11
470.400014
 21
257.974959
 31
0.0
  0
LINE
  5
A4
  8
0
 62
     7
 10
457.29296
 20
250.994245
 30
0.0
 11
457.29296
 21
138.025101
 31
0.0
  0
LINE
  5
A5
  8
0
 62
     7
 10
465.866276
 20
15.702264
 30
0.0
 11
465.866276
 21
244.348943
 31
0.0
  0
LINE
  5
A6
  8
0
 62
     7
 10
470.400014
 20
257.974959
 30
0.0
 11
470.400014
 21
29.32828
 31
0.0
  0
LINE
  5
A7
  8
0
 62
     7
 10
478.97333
 20
22.682978
 30
0.0
 11
478.97333
 21
251.329656
 31
0.0
  0
ENDSEC
  0
EOF
