999
DXF created from <REFER>
  0
SECTION
  2
ENTITIES
  0
LINE
 62
  0
  6
SOLID
 10
414.164708
 20
699.116283
 30
0.000000
 11
514.221592
 21
682.264229
 31
0.000000
  0
LINE
 62
  0
  6
SOLID
 10
602.804854
 20
522.152789
 30
0.000000
 11
601.086666
 21
436.117159
 31
0.000000
  0
LINE
 62
  0
  6
SOLID
 10
355.907870
 20
639.679873
 30
0.000000
 11
297.651032
 21
580.243463
 31
0.000000
  0
LINE
 62
  0
  6
SOLID
 10
446.774518
 20
620.332845
 30
0.000000
 11
379.327443
 21
558.401461
 31
0.000000
  0
LINE
 62
  0
  6
SOLID
 10
297.651032
 20
580.243463
 30
0.000000
 11
379.327443
 21
558.401461
 31
0.000000
  0
LINE
 62
  0
  6
SOLID
 10
528.323461
 20
455.444164
 30
0.000000
 11
602.804854
 21
522.152789
 31
0.000000
  0
LINE
 62
  0
  6
SOLID
 10
453.842068
 20
388.735539
 30
0.000000
 11
446.531633
 21
316.541917
 31
0.000000
  0
LINE
 62
  0
  6
SOLID
 10
523.809150
 20
376.329538
 30
0.000000
 11
601.086666
 21
436.117159
 31
0.000000
  0
LINE
 62
  0
  6
SOLID
 10
297.651032
 20
580.243463
 30
0.000000
 11
286.206596
 21
362.979164
 31
0.000000
  0
LINE
 62
  0
  6
SOLID
 10
286.206596
 20
362.979164
 30
0.000000
 11
446.531633
 21
316.541917
 31
0.000000
  0
LINE
 62
  0
  6
SOLID
 10
510.052901
 20
460.158234
 30
0.000000
 11
520.460397
 21
471.453402
 31
0.000000
  0
LINE
 62
  0
  6
SOLID
 10
435.928928
 20
468.107175
 30
0.000000
 11
436.912921
 21
568.080958
 31
0.000000
  0
LINE
 62
  0
  6
SOLID
 10
447.579150
 20
575.323915
 30
0.000000
 11
458.245380
 21
582.566872
 31
0.000000
  0
LINE
 62
  0
  6
SOLID
 10
379.327443
 20
558.401461
 30
0.000000
 11
373.652408
 21
416.081736
 31
0.000000
  0
LINE
 62
  0
  6
SOLID
 10
373.652408
 20
416.081736
 30
0.000000
 11
453.842068
 21
388.735539
 31
0.000000
  0
LINE
 62
  0
  6
SOLID
 10
435.928928
 20
468.107175
 30
0.000000
 11
499.645405
 21
448.863066
 31
0.000000
  0
LINE
 62
  0
  6
SOLID
 10
461.218679
 20
489.184493
 30
0.000000
 11
520.460397
 21
471.453402
 31
0.000000
  0
LINE
 62
  0
  6
SOLID
 10
373.652408
 20
416.081736
 30
0.000000
 11
435.928928
 21
468.107175
 31
0.000000
  0
LINE
 62
  0
  6
SOLID
 10
458.245380
 20
582.566872
 30
0.000000
 11
461.218679
 21
489.184493
 31
0.000000
  0
LINE
 62
  0
  6
SOLID
 10
420.414367
 20
486.553189
 30
0.000000
 11
601.086666
 21
436.117159
 31
0.000000
  0
LINE
 62
  0
  6
SOLID
 10
353.310482
 20
424.766176
 30
0.000000
 11
420.414367
 21
486.553189
 31
0.000000
  0
LINE
 62
  0
  6
SOLID
 10
514.285357
 20
536.534268
 30
0.000000
 11
602.804854
 21
522.152789
 31
0.000000
  0
LINE
 62
  0
  6
SOLID
 10
514.221592
 20
682.264229
 30
0.000000
 11
514.285357
 21
536.534268
 31
0.000000
  0
LINE
 62
  0
  6
SOLID
 10
461.218679
 20
489.184493
 30
0.000000
 11
514.285357
 21
536.534268
 31
0.000000
  0
LINE
 62
  0
  6
SOLID
 10
414.164708
 20
699.116283
 30
0.000000
 11
420.414367
 21
486.553189
 31
0.000000
  0
LINE
 62
  0
  6
SOLID
 10
458.245380
 20
582.566872
 30
0.000000
 11
520.460397
 21
471.453402
 31
0.000000
  0
LINE
 62
  0
  6
SOLID
 10
436.912921
 20
568.080958
 30
0.000000
 11
499.645405
 21
448.863066
 31
0.000000
  0
LINE
 62
  0
  6
SOLID
 10
436.912921
 20
568.080958
 30
0.000000
 11
447.579150
 21
575.323915
 31
0.000000
  0
LINE
 62
  0
  6
SOLID
 10
499.645405
 20
448.863066
 30
0.000000
 11
510.052901
 21
460.158234
 31
0.000000
  0
LINE
 62
  0
  6
SOLID
 10
447.579150
 20
575.323915
 30
0.000000
 11
510.052901
 21
460.158234
 31
0.000000
  0
LINE
 62
  0
  6
SOLID
 10
453.842068
 20
388.735539
 30
0.000000
 11
528.323461
 21
455.444164
 31
0.000000
  0
LINE
 62
  0
  6
SOLID
 10
510.052901
 20
460.158234
 30
0.000000
 11
528.323461
 21
455.444164
 31
0.000000
  0
LINE
 62
  0
  6
SOLID
 10
446.531633
 20
316.541917
 30
0.000000
 11
523.809150
 21
376.329538
 31
0.000000
  0
LINE
 62
  0
  6
SOLID
 10
528.323461
 20
455.444164
 30
0.000000
 11
523.809150
 21
376.329538
 31
0.000000
  0
LINE
 62
  0
  6
SOLID
 10
286.206596
 20
362.979164
 30
0.000000
 11
353.310482
 21
424.766176
 31
0.000000
  0
LINE
 62
  0
  6
SOLID
 10
523.809150
 20
376.329538
 30
0.000000
 11
353.310482
 21
424.766176
 31
0.000000
  0
LINE
 62
  0
  6
SOLID
 10
414.164708
 20
699.116283
 30
0.000000
 11
355.907870
 21
639.679873
 31
0.000000
  0
LINE
 62
  0
  6
SOLID
 10
353.310482
 20
424.766176
 30
0.000000
 11
355.907870
 21
639.679873
 31
0.000000
  0
LINE
 62
  0
  6
SOLID
 10
514.221592
 20
682.264229
 30
0.000000
 11
446.774518
 21
620.332845
 31
0.000000
  0
LINE
 62
  0
  6
SOLID
 10
355.907870
 20
639.679873
 30
0.000000
 11
446.774518
 21
620.332845
 31
0.000000
  0
LINE
 62
  0
  6
SOLID
 10
446.774518
 20
620.332845
 30
0.000000
 11
447.579150
 21
575.323915
 31
0.000000
  0
LINE
 62
  0
  6
SOLID
 10
448.573804
 20
478.645834
 30
0.000000
 11
461.218679
 21
489.184493
 31
0.000000
  0
LINE
 62
  0
  6
SOLID
 10
435.928928
 20
468.107175
 30
0.000000
 11
448.573804
 21
478.645834
 31
0.000000
  0
LINE
 62
  0
  6
SOLID
 10
510.052901
 20
460.158234
 30
0.000000
 11
448.573804
 21
478.645834
 31
0.000000
  0
LINE
 62
  0
  6
SOLID
 10
373.652408
 20
416.081736
 30
0.000000
 11
443.968883
 21
476.308002
 31
0.000000
  0
LINE
 62
  0
  6
SOLID
 10
443.968883
 20
476.308002
 30
0.000000
 11
514.285357
 21
536.534268
 31
0.000000
  0
ENDSEC
  0
EOF
