  0
SECTION
  2
ENTITIES
  0
LINE
 62
  0
 10
-325.000000
 20
41.500000
 30
0.000000
 11
-90.000000
 21
133.500000
 31
0.000000
  0
LINE
 62
  0
 10
-253.000000
 20
145.500000
 30
0.000000
 11
16.000000
 21
104.500000
 31
0.000000
  0
LINE
 62
  0
 10
-185.000000
 20
161.500000
 30
0.000000
 11
90.000000
 21
140.500000
 31
0.000000
  0
LINE
 62
  0
 10
-247.000000
 20
145.500000
 30
0.000000
 11
-247.000000
 21
116.500000
 31
0.000000
  0
LINE
 62
  0
 10
-248.000000
 20
117.500000
 30
0.000000
 11
-186.000000
 21
135.500000
 31
0.000000
  0
LINE
 62
  0
 10
-182.000000
 20
161.500000
 30
0.000000
 11
-181.000000
 21
135.500000
 31
0.000000
  0
LINE
 62
  0
 10
19.000000
 20
103.500000
 30
0.000000
 11
20.000000
 21
56.500000
 31
0.000000
  0
LINE
 62
  0
 10
94.000000
 20
139.500000
 30
0.000000
 11
93.000000
 21
106.500000
 31
0.000000
  0
LINE
 62
  0
 10
20.000000
 20
55.500000
 30
0.000000
 11
97.000000
 21
105.500000
 31
0.000000
  0
LINE
 62
  0
 10
-247.000000
 20
116.500000
 30
0.000000
 11
16.000000
 21
56.500000
 31
0.000000
  0
LINE
 62
  0
 10
-179.000000
 20
135.500000
 30
0.000000
 11
88.000000
 21
101.500000
 31
0.000000
  0
LINE
 62
  0
 10
-69.000000
 20
-87.500000
 30
0.000000
 11
212.000000
 21
108.500000
 31
0.000000
  0
LINE
 62
  0
 10
-35.000000
 20
81.500000
 30
0.000000
 11
-34.000000
 21
31.500000
 31
0.000000
  0
LINE
 62
  0
 10
-75.000000
 20
6.500000
 30
0.000000
 11
-30.000000
 21
33.500000
 31
0.000000
  0
LINE
 62
  0
 10
-328.000000
 20
93.500000
 30
0.000000
 11
-294.000000
 21
107.500000
 31
0.000000
  0
LINE
 62
  0
 10
-294.000000
 20
135.500000
 30
0.000000
 11
-295.000000
 21
104.500000
 31
0.000000
  0
LINE
 62
  0
 10
-293.000000
 20
134.500000
 30
0.000000
 11
-41.000000
 21
78.500000
 31
0.000000
  0
LINE
 62
  0
 10
-326.000000
 20
94.500000
 30
0.000000
 11
-76.000000
 21
5.500000
 31
0.000000
  0
LINE
 62
  0
 10
-325.000000
 20
94.500000
 30
0.000000
 11
-326.000000
 21
41.500000
 31
0.000000
  0
LINE
 62
  0
 10
-293.000000
 20
135.500000
 30
0.000000
 11
-247.000000
 21
144.500000
 31
0.000000
  0
LINE
 62
  0
 10
-293.000000
 20
105.500000
 30
0.000000
 11
-36.000000
 21
32.500000
 31
0.000000
  0
LINE
 62
  0
 10
-74.000000
 20
8.500000
 30
0.000000
 11
-70.000000
 21
-78.500000
 31
0.000000
  0
LINE
 62
  0
 10
-40.000000
 20
78.500000
 30
0.000000
 11
21.000000
 21
106.500000
 31
0.000000
  0
LINE
 62
  0
 10
-92.000000
 20
158.500000
 30
0.000000
 11
215.000000
 21
155.500000
 31
0.000000
  0
LINE
 62
  0
 10
171.000000
 20
181.500000
 30
0.000000
 11
169.000000
 21
137.500000
 31
0.000000
  0
LINE
 62
  0
 10
167.000000
 20
135.500000
 30
0.000000
 11
217.000000
 21
156.500000
 31
0.000000
  0
LINE
 62
  0
 10
-130.000000
 20
172.500000
 30
0.000000
 11
-129.000000
 21
147.500000
 31
0.000000
  0
LINE
 62
  0
 10
-132.000000
 20
146.500000
 30
0.000000
 11
-92.000000
 21
157.500000
 31
0.000000
  0
LINE
 62
  0
 10
-91.000000
 20
160.500000
 30
0.000000
 11
-91.000000
 21
134.500000
 31
0.000000
  0
LINE
 62
  0
 10
-184.000000
 20
160.500000
 30
0.000000
 11
-129.000000
 21
174.500000
 31
0.000000
  0
LINE
 62
  0
 10
94.000000
 20
140.500000
 30
0.000000
 11
170.000000
 21
177.500000
 31
0.000000
  0
LINE
 62
  0
 10
214.000000
 20
156.500000
 30
0.000000
 11
217.000000
 21
110.500000
 31
0.000000
  0
LINE
 62
  0
 10
-128.000000
 20
173.500000
 30
0.000000
 11
167.000000
 21
178.500000
 31
0.000000
  0
LINE
 62
  0
 10
-131.000000
 20
146.500000
 30
0.000000
 11
166.000000
 21
134.500000
 31
0.000000
  0
LINE
 62
  0
 10
-265.000000
 20
17.500000
 30
0.000000
 11
-267.000000
 21
-46.500000
 31
0.000000
  0
LINE
 62
  0
 10
-159.000000
 20
-38.500000
 30
0.000000
 11
-157.000000
 21
-122.500000
 31
0.000000
  0
LINE
 62
  0
 10
-160.000000
 20
-37.500000
 30
0.000000
 11
96.000000
 21
117.500000
 31
0.000000
  0
LINE
 62
  0
 10
-264.000000
 20
16.500000
 30
0.000000
 11
-3.000000
 21
128.500000
 31
0.000000
  0
LINE
 62
  0
 10
-4.000000
 20
128.500000
 30
0.000000
 11
-5.000000
 21
87.500000
 31
0.000000
  0
LINE
 62
  0
 10
-269.000000
 20
-48.500000
 30
0.000000
 11
-7.000000
 21
89.500000
 31
0.000000
  0
LINE
 62
  0
 10
-159.000000
 20
-124.500000
 30
0.000000
 11
87.000000
 21
65.500000
 31
0.000000
  0
LINE
 62
  0
 10
-328.000000
 20
40.500000
 30
0.000000
 11
-268.000000
 21
11.500000
 31
0.000000
  0
LINE
 62
  0
 10
-161.000000
 20
-37.500000
 30
0.000000
 11
-73.000000
 21
-85.500000
 31
0.000000
  0
LINE
 62
  0
 10
89.000000
 20
116.500000
 30
0.000000
 11
214.000000
 21
107.500000
 31
0.000000
  0
LINE
 62
  0
 10
-92.000000
 20
131.500000
 30
0.000000
 11
-6.000000
 21
124.500000
 31
0.000000
  0
LINE
 62
  0
 10
13.000000
 20
83.500000
 30
0.000000
 11
13.000000
 21
66.500000
 31
0.000000
  0
LINE
 62
  0
 10
46.000000
 20
74.500000
 30
0.000000
 11
46.000000
 21
50.500000
 31
0.000000
  0
LINE
 62
  0
 10
13.000000
 20
62.500000
 30
0.000000
 11
46.000000
 21
51.500000
 31
0.000000
  0
LINE
 62
  0
 10
-201.000000
 20
-127.500000
 30
0.000000
 11
43.000000
 21
50.500000
 31
0.000000
  0
LINE
 62
  0
 10
-201.000000
 20
-92.500000
 30
0.000000
 11
-201.000000
 21
-128.500000
 31
0.000000
  0
LINE
 62
  0
 10
-239.000000
 20
-67.500000
 30
0.000000
 11
-241.000000
 21
-97.500000
 31
0.000000
  0
LINE
 62
  0
 10
-239.000000
 20
-96.500000
 30
0.000000
 11
-198.000000
 21
-126.500000
 31
0.000000
  0
LINE
 62
  0
 10
-240.000000
 20
-66.500000
 30
0.000000
 11
12.000000
 21
84.500000
 31
0.000000
  0
LINE
 62
  0
 10
-201.000000
 20
-94.500000
 30
0.000000
 11
45.000000
 21
73.500000
 31
0.000000
  0
LINE
 62
  0
 10
-267.000000
 20
-48.500000
 30
0.000000
 11
-235.000000
 21
-66.500000
 31
0.000000
  0
LINE
 62
  0
 10
-200.000000
 20
-93.500000
 30
0.000000
 11
-155.000000
 21
-122.500000
 31
0.000000
  0
LINE
 62
  0
 10
46.000000
 20
76.500000
 30
0.000000
 11
92.000000
 21
68.500000
 31
0.000000
  0
LINE
 62
  0
 10
-7.000000
 20
89.500000
 30
0.000000
 11
10.000000
 21
83.500000
 31
0.000000
  0
LINE
 62
  0
 10
-240.000000
 20
-95.500000
 30
0.000000
 11
12.000000
 21
61.500000
 31
0.000000
  0
LINE
 62
  0
 10
90.500000
 20
117.750000
 30
0.000000
 11
90.000000
 21
68.250000
 31
0.000000
  0
ENDSEC
  0
EOF
