  0
SECTION
  2
ENTITIES
  0
LINE
 62
  0
 10
-237.000000
 20
146.500000
 30
0.000000
 11
-115.000000
 21
168.500000
 31
0.000000
  0
LINE
 62
  0
 10
-114.000000
 20
169.500000
 30
0.000000
 11
111.000000
 21
139.500000
 31
0.000000
  0
LINE
 62
  0
 10
7.000000
 20
134.500000
 30
0.000000
 11
106.000000
 21
137.500000
 31
0.000000
  0
LINE
 62
  0
 10
-236.000000
 20
146.500000
 30
0.000000
 11
7.000000
 21
133.500000
 31
0.000000
  0
LINE
 62
  0
 10
-111.379646
 20
124.820351
 30
0.000000
 11
106.433266
 21
102.570648
 31
0.000000
  0
LINE
 62
  0
 10
-162.905289
 20
110.767906
 30
0.000000
 11
-110.208611
 21
121.307243
 31
0.000000
  0
LINE
 62
  0
 10
-162.905289
 20
110.767906
 30
0.000000
 11
-161.734253
 21
28.795303
 31
0.000000
  0
LINE
 62
  0
 10
-161.734253
 20
29.966341
 30
0.000000
 11
-110.208611
 21
17.084932
 31
0.000000
  0
LINE
 62
  0
 10
-107.866539
 20
17.084932
 30
0.000000
 11
106.433266
 21
61.584343
 31
0.000000
  0
LINE
 62
  0
 10
-159.392166
 20
29.966341
 30
0.000000
 11
40.855186
 21
60.413307
 31
0.000000
  0
LINE
 62
  0
 10
40.855186
 20
63.926418
 30
0.000000
 11
105.262230
 21
60.413307
 31
0.000000
  0
LINE
 62
  0
 10
-109.037575
 20
168.148727
 30
0.000000
 11
-109.037575
 21
125.991386
 31
0.000000
  0
LINE
 62
  0
 10
109.946381
 20
138.872803
 30
0.000000
 11
108.775345
 21
104.912720
 31
0.000000
  0
LINE
 62
  0
 10
-10.670450
 20
-163.254791
 30
0.000000
 11
-13.012524
 21
-196.043839
 31
0.000000
  0
LINE
 62
  0
 10
-11.841487
 20
-164.425827
 30
0.000000
 11
50.223484
 21
-186.675537
 31
0.000000
  0
LINE
 62
  0
 10
303.167511
 20
-21.559296
 30
0.000000
 11
304.338562
 21
-59.032486
 31
0.000000
  0
LINE
 62
  0
 10
52.565559
 20
-123.439529
 30
0.000000
 11
50.223484
 21
-179.649323
 31
0.000000
  0
LINE
 62
  0
 10
250.470840
 20
-52.006264
 30
0.000000
 11
303.167511
 21
-57.861446
 31
0.000000
  0
LINE
 62
  0
 10
-9.499413
 20
-164.425827
 30
0.000000
 11
249.299805
 21
-53.177299
 31
0.000000
  0
LINE
 62
  0
 10
-236.680634
 20
-42.637966
 30
0.000000
 11
2.210959
 21
5.374560
 31
0.000000
  0
LINE
 62
  0
 10
-229.654404
 20
145.899017
 30
0.000000
 11
-235.509583
 21
-34.440704
 31
0.000000
  0
LINE
 62
  0
 10
-33.262230
 20
-93.821526
 30
0.000000
 11
189.234833
 21
-18.875147
 31
0.000000
  0
LINE
 62
  0
 10
-163.247360
 20
-68.058708
 30
0.000000
 11
85.012527
 21
-2.480626
 31
0.000000
  0
LINE
 62
  0
 10
-162.076324
 20
-65.716637
 30
0.000000
 11
-164.418396
 21
-121.926422
 31
0.000000
  0
LINE
 62
  0
 10
-237.022705
 20
-42.295891
 30
0.000000
 11
-163.247360
 21
-68.058708
 31
0.000000
  0
LINE
 62
  0
 10
86.183563
 20
-0.138552
 30
0.000000
 11
85.012527
 21
-42.295891
 31
0.000000
  0
LINE
 62
  0
 10
-163.247360
 20
-121.926422
 30
0.000000
 11
85.012527
 21
-38.782780
 31
0.000000
  0
LINE
 62
  0
 10
0.697847
 20
8.058708
 30
0.000000
 11
86.183563
 21
-2.480626
 31
0.000000
  0
LINE
 62
  0
 10
0.697847
 20
134.530731
 30
0.000000
 11
-1.644227
 21
8.058708
 31
0.000000
  0
LINE
 62
  0
 10
-163.247360
 20
-123.097458
 30
0.000000
 11
-12.183562
 21
-198.043839
 31
0.000000
  0
LINE
 62
  0
 10
107.204582
 20
60.868877
 30
0.000000
 11
106.253555
 21
39.946289
 31
0.000000
  0
LINE
 62
  0
 10
39.367298
 20
100.778831
 30
0.000000
 11
106.890205
 21
101.254341
 31
0.000000
  0
LINE
 62
  0
 10
40.318325
 20
102.205368
 30
0.000000
 11
40.318325
 21
62.737759
 31
0.000000
  0
LINE
 62
  0
 10
-162.113113
 20
110.969589
 30
0.000000
 11
37.193840
 21
100.887917
 31
0.000000
  0
LINE
 62
  0
 10
251.389313
 20
-52.172451
 30
0.000000
 11
249.352966
 21
-75.251068
 31
0.000000
  0
LINE
 62
  0
 10
-13.336020
 20
-198.789551
 30
0.000000
 11
248.674179
 21
-73.214722
 31
0.000000
  0
LINE
 62
  0
 10
84.408714
 20
-39.275578
 30
0.000000
 11
247.995392
 21
-74.572289
 31
0.000000
  0
LINE
 62
  0
 10
-61.200001
 20
4.500000
 30
0.000000
 11
1.200000
 21
-12.900000
 31
0.000000
  0
LINE
 62
  0
 10
1.200000
 20
-11.700000
 30
0.000000
 11
-31.200001
 21
-94.500000
 31
0.000000
  0
LINE
 62
  0
 10
-109.199997
 20
-65.099998
 30
0.000000
 11
48.599998
 21
-123.900002
 31
0.000000
  0
LINE
 62
  0
 10
-107.400002
 20
18.900000
 30
0.000000
 11
-108.599998
 21
-63.299999
 31
0.000000
  0
LINE
 62
  0
 10
-108.599998
 20
-64.500000
 30
0.000000
 11
-61.799999
 21
8.100000
 31
0.000000
  0
LINE
 62
  0
 10
162.600006
 20
28.500000
 30
0.000000
 11
187.199997
 21
-18.299999
 31
0.000000
  0
LINE
 62
  0
 10
105.000000
 20
-11.700000
 30
0.000000
 11
301.200012
 21
-23.700001
 31
0.000000
  0
LINE
 62
  0
 10
107.400002
 20
41.099998
 30
0.000000
 11
106.199997
 21
-11.700000
 31
0.000000
  0
LINE
 62
  0
 10
79.199997
 20
32.099998
 30
0.000000
 11
106.800003
 21
-12.900000
 31
0.000000
  0
LINE
 62
  0
 10
-62.400002
 20
3.900000
 30
0.000000
 11
78.599998
 21
31.500000
 31
0.000000
  0
LINE
 62
  0
 10
-1.200000
 20
-12.900000
 30
0.000000
 11
159.600006
 21
26.100000
 31
0.000000
  0
LINE
 62
  0
 10
79.199997
 20
32.099998
 30
0.000000
 11
162.600006
 21
29.100000
 31
0.000000
  0
LINE
 62
  0
 10
125.135689
 20
-39.275578
 30
0.000000
 11
220.165298
 21
-52.851234
 31
0.000000
  0
LINE
 62
  0
 10
223.559204
 20
-50.136101
 30
0.000000
 11
219.486511
 21
-98.329689
 31
0.000000
  0
LINE
 62
  0
 10
45.039310
 20
-66.426888
 30
0.000000
 11
127.850822
 21
-91.541862
 31
0.000000
  0
LINE
 62
  0
 10
126.493256
 20
-89.505508
 30
0.000000
 11
123.778122
 21
-146.523270
 31
0.000000
  0
LINE
 62
  0
 10
126.493256
 20
-37.918011
 30
0.000000
 11
214.735031
 21
-96.293343
 31
0.000000
  0
LINE
 62
  0
 10
45.718094
 20
-67.105675
 30
0.000000
 11
121.741776
 21
-145.844482
 31
0.000000
  0
LINE
 62
  0
 10
48.548355
 20
-183.793991
 30
0.000000
 11
122.053780
 21
-145.594330
 31
0.000000
  0
LINE
 62
  0
 10
219.289307
 20
-97.555344
 30
0.000000
 11
302.055267
 21
-56.461761
 31
0.000000
  0
LINE
 62
  0
 10
122.632568
 20
-146.173111
 30
0.000000
 11
218.131744
 21
-97.555344
 31
0.000000
  0
LINE
 62
  0
 10
50.284702
 20
-123.021790
 30
0.000000
 11
124.368912
 21
-91.767517
 31
0.000000
  0
LINE
 62
  0
 10
223.340790
 20
-51.831497
 30
0.000000
 11
298.582581
 21
-24.628700
 31
0.000000
  0
ENDSEC
  0
EOF
