  0
SECTION
  2
ENTITIES
  0
LINE
 62
  0
  6
CONTINUOUS
 10
-74.569401
 20
-200.106625
 30
0.000000
 11
-37.501893
 21
-156.957729
 31
0.000000
  0
LINE
 62
  0
  6
CONTINUOUS
 10
-23.891167
 20
-159.564038
 30
0.000000
 11
-51.112618
 21
-200.396215
 31
0.000000
  0
LINE
 62
  0
  6
CONTINUOUS
 10
-71.383912
 20
-199.527445
 30
0.000000
 11
-51.981388
 21
-200.685804
 31
0.000000
  0
LINE
 62
  0
  6
CONTINUOUS
 10
-51.691798
 20
-201.844164
 30
0.000000
 11
-51.112618
 21
-222.115457
 31
0.000000
  0
LINE
 62
  0
  6
CONTINUOUS
 10
-49.085489
 20
-222.984227
 30
0.000000
 11
-25.339117
 21
-224.142587
 31
0.000000
  0
LINE
 62
  0
  6
CONTINUOUS
 10
-25.918297
 20
-205.608833
 30
0.000000
 11
-25.918297
 21
-222.984227
 31
0.000000
  0
LINE
 62
  0
  6
CONTINUOUS
 10
-25.628707
 20
-204.160883
 30
0.000000
 11
3.040694
 21
-162.170347
 31
0.000000
  0
LINE
 62
  0
  6
CONTINUOUS
 10
4.488644
 20
-160.722397
 30
0.000000
 11
20.126498
 21
-161.880757
 31
0.000000
  0
LINE
 62
  0
  6
CONTINUOUS
 10
-7.094953
 20
-206.188013
 30
0.000000
 11
18.678549
 21
-165.066246
 31
0.000000
  0
LINE
 62
  0
  6
CONTINUOUS
 10
19.257729
 20
-163.618297
 30
0.000000
 11
22.443218
 21
-236.594953
 31
0.000000
  0
LINE
 62
  0
  6
CONTINUOUS
 10
9.411672
 20
-182.731230
 30
0.000000
 11
9.411672
 21
-182.731230
 31
0.000000
  0
LINE
 62
  0
  6
CONTINUOUS
 10
8.832492
 20
-183.020820
 30
0.000000
 11
20.416088
 21
-234.857413
 31
0.000000
  0
LINE
 62
  0
  6
CONTINUOUS
 10
10.859621
 20
-183.310410
 30
0.000000
 11
40.687382
 21
-186.495899
 31
0.000000
  0
LINE
 62
  0
  6
CONTINUOUS
 10
40.397792
 20
-188.523028
 30
0.000000
 11
19.257729
 21
-273.372871
 31
0.000000
  0
LINE
 62
  0
  6
CONTINUOUS
 10
41.845741
 20
-187.364669
 30
0.000000
 11
55.166877
 21
-247.020189
 31
0.000000
  0
LINE
 62
  0
  6
CONTINUOUS
 10
24.759937
 20
-236.594953
 30
0.000000
 11
52.560568
 21
-244.703470
 31
0.000000
  0
LINE
 62
  0
  6
CONTINUOUS
 10
56.904416
 20
-248.178549
 30
0.000000
 11
57.194006
 21
-273.083281
 31
0.000000
  0
LINE
 62
  0
  6
CONTINUOUS
 10
54.298107
 20
-273.662461
 30
0.000000
 11
21.864038
 21
-296.540063
 31
0.000000
  0
LINE
 62
  0
  6
CONTINUOUS
 10
18.678549
 20
-275.400000
 30
0.000000
 11
20.126498
 21
-295.671293
 31
0.000000
  0
LINE
 62
  0
  6
CONTINUOUS
 10
-53.718927
 20
-296.250473
 30
0.000000
 11
20.705678
 21
-297.698423
 31
0.000000
  0
LINE
 62
  0
  6
CONTINUOUS
 10
-6.226183
 20
-272.793691
 30
0.000000
 11
17.809779
 21
-273.952050
 31
0.000000
  0
LINE
 62
  0
  6
CONTINUOUS
 10
-5.357413
 20
-274.241640
 30
0.000000
 11
7.963722
 21
-184.179180
 31
0.000000
  0
LINE
 62
  0
  6
CONTINUOUS
 10
-10.570032
 20
-208.215142
 30
0.000000
 11
-6.226183
 21
-274.531230
 31
0.000000
  0
LINE
 62
  0
  6
CONTINUOUS
 10
-55.456467
 20
-298.277603
 30
0.000000
 11
-55.166877
 21
-280.033438
 31
0.000000
  0
LINE
 62
  0
  6
CONTINUOUS
 10
-73.121451
 20
-278.875079
 30
0.000000
 11
-55.166877
 21
-279.743849
 31
0.000000
  0
LINE
 62
  0
  6
CONTINUOUS
 10
-74.569401
 20
-277.716719
 30
0.000000
 11
-71.963091
 21
-201.554574
 31
0.000000
  0
LINE
 62
  0
  6
CONTINUOUS
 10
-69.356782
 20
-277.137539
 30
0.000000
 11
-35.764353
 21
-241.517981
 31
0.000000
  0
LINE
 62
  0
  6
CONTINUOUS
 10
-53.139748
 20
-281.770978
 30
0.000000
 11
-21.284858
 21
-243.834700
 31
0.000000
  0
LINE
 62
  0
  6
CONTINUOUS
 10
-53.429338
 20
-295.092114
 30
0.000000
 11
-21.864038
 21
-264.685174
 31
0.000000
  0
LINE
 62
  0
  6
CONTINUOUS
 10
-23.891167
 20
-178.387382
 30
0.000000
 11
1.013565
 21
-178.676972
 31
0.000000
  0
LINE
 62
  0
  6
CONTINUOUS
 10
-23.311987
 20
-159.853628
 30
0.000000
 11
-24.180757
 21
-177.518612
 31
0.000000
  0
LINE
 62
  0
  6
CONTINUOUS
 10
4.778233
 20
-162.170347
 30
0.000000
 11
3.040694
 21
-178.966562
 31
0.000000
  0
LINE
 62
  0
  6
CONTINUOUS
 10
-20.876438
 20
-242.688018
 30
0.000000
 11
-19.001247
 21
-262.565040
 31
0.000000
  0
LINE
 62
  0
  6
CONTINUOUS
 10
-16.000942
 20
-262.190002
 30
0.000000
 11
53.006080
 21
-272.316032
 31
0.000000
  0
LINE
 62
  0
  6
CONTINUOUS
 10
-36.628040
 20
-157.179317
 30
0.000000
 11
-24.251781
 21
-159.429546
 31
0.000000
  0
LINE
 62
  0
  6
CONTINUOUS
 10
-36.253002
 20
-159.429546
 30
0.000000
 11
-35.502926
 21
-237.812522
 31
0.000000
  0
LINE
 62
  0
  6
CONTINUOUS
 10
-34.002773
 20
-240.437789
 30
0.000000
 11
-20.501400
 21
-243.063056
 31
0.000000
  0
LINE
 62
  0
  6
CONTINUOUS
 10
-25.376896
 20
-222.435957
 30
0.000000
 11
2.000890
 21
-180.056645
 31
0.000000
  0
LINE
 62
  0
  6
CONTINUOUS
 10
-25.751934
 20
-204.434125
 30
0.000000
 11
-8.875217
 21
-207.434431
 31
0.000000
  0
ENDSEC
  0
EOF
