  0
SECTION
  2
ENTITIES
  0
LINE
 62
  0
  6
CONTINUOUS
 10
549.358428
 20
488.425265
 30
0.000000
 11
549.492897
 21
488.436460
 31
0.000000
  0
LINE
 62
  0
  6
CONTINUOUS
 10
549.486920
 20
488.431236
 30
0.000000
 11
549.752717
 21
488.624397
 31
0.000000
  0
LINE
 62
  0
  6
CONTINUOUS
 10
549.765681
 20
488.634699
 30
0.000000
 11
549.764797
 21
488.551108
 31
0.000000
  0
LINE
 62
  0
  6
CONTINUOUS
 10
549.769511
 20
488.544927
 30
0.000000
 11
549.508260
 21
488.325418
 31
0.000000
  0
LINE
 62
  0
  6
CONTINUOUS
 10
549.499699
 20
488.432802
 30
0.000000
 11
549.493040
 21
488.300710
 31
0.000000
  0
LINE
 62
  0
  6
CONTINUOUS
 10
549.516346
 20
488.306887
 30
0.000000
 11
549.648571
 21
488.309738
 31
0.000000
  0
LINE
 62
  0
  6
CONTINUOUS
 10
549.348448
 20
488.428051
 30
0.000000
 11
549.653854
 21
488.642584
 31
0.000000
  0
LINE
 62
  0
  6
CONTINUOUS
 10
549.768966
 20
488.647413
 30
0.000000
 11
549.655063
 21
488.644093
 31
0.000000
  0
LINE
 62
  0
  6
CONTINUOUS
 10
549.347503
 20
488.399753
 30
0.000000
 11
549.338608
 21
487.990237
 31
0.000000
  0
LINE
 62
  0
  6
CONTINUOUS
 10
549.353307
 20
487.983874
 30
0.000000
 11
549.628964
 21
488.194227
 31
0.000000
  0
LINE
 62
  0
  6
CONTINUOUS
 10
549.646684
 20
488.202586
 30
0.000000
 11
549.740699
 21
488.201111
 31
0.000000
  0
LINE
 62
  0
  6
CONTINUOUS
 10
549.747650
 20
488.195972
 30
0.000000
 11
549.468476
 21
487.972510
 31
0.000000
  0
LINE
 62
  0
  6
CONTINUOUS
 10
549.344929
 20
487.969560
 30
0.000000
 11
549.451741
 21
487.975461
 31
0.000000
  0
LINE
 62
  0
  6
CONTINUOUS
 10
549.462077
 20
487.963659
 30
0.000000
 11
549.456012
 21
487.843439
 31
0.000000
  0
LINE
 62
  0
  6
CONTINUOUS
 10
549.470352
 20
487.839981
 30
0.000000
 11
549.731537
 21
488.071394
 31
0.000000
  0
LINE
 62
  0
  6
CONTINUOUS
 10
549.740496
 20
488.200150
 30
0.000000
 11
549.733526
 21
488.073318
 31
0.000000
  0
LINE
 62
  0
  6
CONTINUOUS
 10
549.753441
 20
488.083266
 30
0.000000
 11
550.221591
 21
488.097455
 31
0.000000
  0
LINE
 62
  0
  6
CONTINUOUS
 10
549.775691
 20
487.957456
 30
0.000000
 11
549.929788
 21
488.511247
 31
0.000000
  0
LINE
 62
  0
  6
CONTINUOUS
 10
549.936790
 20
488.509748
 30
0.000000
 11
550.057036
 21
488.203223
 31
0.000000
  0
LINE
 62
  0
  6
CONTINUOUS
 10
550.083681
 20
488.208870
 30
0.000000
 11
550.245974
 21
488.210483
 31
0.000000
  0
LINE
 62
  0
  6
CONTINUOUS
 10
550.081360
 20
488.533626
 30
0.000000
 11
550.248406
 21
488.198278
 31
0.000000
  0
LINE
 62
  0
  6
CONTINUOUS
 10
550.090519
 20
488.547953
 30
0.000000
 11
549.901938
 21
487.944801
 31
0.000000
  0
LINE
 62
  0
  6
CONTINUOUS
 10
549.768090
 20
487.940137
 30
0.000000
 11
549.893637
 21
487.936509
 31
0.000000
  0
LINE
 62
  0
  6
CONTINUOUS
 10
549.914908
 20
487.932881
 30
0.000000
 11
549.918021
 21
487.841147
 31
0.000000
  0
LINE
 62
  0
  6
CONTINUOUS
 10
549.763939
 20
487.956722
 30
0.000000
 11
549.790653
 21
488.437613
 31
0.000000
  0
LINE
 62
  0
  6
CONTINUOUS
 10
549.780831
 20
488.429101
 30
0.000000
 11
550.034140
 21
488.605801
 31
0.000000
  0
LINE
 62
  0
  6
CONTINUOUS
 10
550.041574
 20
488.597343
 30
0.000000
 11
550.043107
 21
488.274029
 31
0.000000
  0
LINE
 62
  0
  6
CONTINUOUS
 10
549.666966
 20
488.442821
 30
0.000000
 11
549.766678
 21
488.445484
 31
0.000000
  0
LINE
 62
  0
  6
CONTINUOUS
 10
549.670165
 20
488.445484
 30
0.000000
 11
549.932092
 21
488.617897
 31
0.000000
  0
LINE
 62
  0
  6
CONTINUOUS
 10
549.938805
 20
488.622927
 30
0.000000
 11
550.045200
 21
488.615215
 31
0.000000
  0
LINE
 62
  0
  6
CONTINUOUS
 10
549.677841
 20
488.429997
 30
0.000000
 11
549.657811
 21
488.324522
 31
0.000000
  0
LINE
 62
  0
  6
CONTINUOUS
 10
549.471722
 20
487.834164
 30
0.000000
 11
549.801647
 21
487.846756
 31
0.000000
  0
LINE
 62
  0
  6
CONTINUOUS
 10
549.918649
 20
487.845289
 30
0.000000
 11
550.265793
 21
488.093662
 31
0.000000
  0
LINE
 62
  0
  6
CONTINUOUS
 10
550.245882
 20
488.200299
 30
0.000000
 11
550.241457
 21
488.106370
 31
0.000000
  0
LINE
 62
  0
  6
CONTINUOUS
 10
549.645251
 20
488.638317
 30
0.000000
 11
549.633795
 21
488.209857
 31
0.000000
  0
LINE
 62
  0
  6
CONTINUOUS
 10
549.658998
 20
488.324419
 30
0.000000
 11
549.911034
 21
488.544377
 31
0.000000
  0
LINE
 62
  0
  6
CONTINUOUS
 10
549.906451
 20
488.539794
 30
0.000000
 11
549.938528
 21
488.633735
 31
0.000000
  0
LINE
 62
  0
  6
CONTINUOUS
 10
549.758094
 20
488.551136
 30
0.000000
 11
549.913668
 21
488.551136
 31
0.000000
  0
LINE
 62
  0
  6
CONTINUOUS
 10
549.924895
 20
488.511039
 30
0.000000
 11
550.096509
 21
488.528682
 31
0.000000
  0
ENDSEC
  0
EOF
