  0
SECTION
  2
ENTITIES
  0
LINE
 62
  0
  6
CONTINUOUS
 10
-79.835962
 20
-165.282019
 30
0.000000
 11
-36.393691
 21
-129.607571
 31
0.000000
  0
LINE
 62
  0
  6
CONTINUOUS
 10
-36.969085
 20
-131.909148
 30
0.000000
 11
-41.284543
 21
-218.505994
 31
0.000000
  0
LINE
 62
  0
  6
CONTINUOUS
 10
-80.411356
 20
-166.720505
 30
0.000000
 11
-80.986751
 21
-260.797476
 31
0.000000
  0
LINE
 62
  0
  6
CONTINUOUS
 10
-78.397476
 20
-260.222082
 30
0.000000
 11
-59.409464
 21
-261.660568
 31
0.000000
  0
LINE
 62
  0
  6
CONTINUOUS
 10
-57.970978
 20
-258.783596
 30
0.000000
 11
-57.970978
 21
-286.402524
 31
0.000000
  0
LINE
 62
  0
  6
CONTINUOUS
 10
-55.957098
 20
-283.525552
 30
0.000000
 11
-17.981073
 21
-244.974132
 31
0.000000
  0
LINE
 62
  0
  6
CONTINUOUS
 10
-57.107886
 20
-257.632808
 30
0.000000
 11
-22.871924
 21
-228.575394
 31
0.000000
  0
LINE
 62
  0
  6
CONTINUOUS
 10
-78.397476
 20
-256.482019
 30
0.000000
 11
-43.586120
 21
-222.246057
 31
0.000000
  0
LINE
 62
  0
  6
CONTINUOUS
 10
-41.572240
 20
-221.670662
 30
0.000000
 11
-22.296530
 21
-223.684543
 31
0.000000
  0
LINE
 62
  0
  6
CONTINUOUS
 10
-22.008833
 20
-225.410726
 30
0.000000
 11
-21.433438
 21
-246.988013
 31
0.000000
  0
LINE
 62
  0
  6
CONTINUOUS
 10
-13.090221
 20
-243.823344
 30
0.000000
 11
74.369716
 21
-243.247950
 31
0.000000
  0
LINE
 62
  0
  6
CONTINUOUS
 10
-56.244795
 20
-286.402524
 30
0.000000
 11
30.064353
 21
-296.759621
 31
0.000000
  0
LINE
 62
  0
  6
CONTINUOUS
 10
32.941325
 20
-265.112934
 30
0.000000
 11
29.488959
 21
-297.047319
 31
0.000000
  0
LINE
 62
  0
  6
CONTINUOUS
 10
32.941325
 20
-294.458044
 30
0.000000
 11
71.780442
 21
-246.412618
 31
0.000000
  0
LINE
 62
  0
  6
CONTINUOUS
 10
72.931230
 20
-225.698423
 30
0.000000
 11
73.218927
 21
-246.988013
 31
0.000000
  0
LINE
 62
  0
  6
CONTINUOUS
 10
72.355836
 20
-235.480126
 30
0.000000
 11
43.873817
 21
-170.460568
 31
0.000000
  0
LINE
 62
  0
  6
CONTINUOUS
 10
44.736909
 20
-165.569716
 30
0.000000
 11
32.078233
 21
-262.811356
 31
0.000000
  0
LINE
 62
  0
  6
CONTINUOUS
 10
-2.157729
 20
-259.934385
 30
0.000000
 11
32.365931
 21
-263.674448
 31
0.000000
  0
LINE
 62
  0
  6
CONTINUOUS
 10
-3.308517
 20
-260.222082
 30
0.000000
 11
-2.445426
 21
-168.734385
 31
0.000000
  0
LINE
 62
  0
  6
CONTINUOUS
 10
-27.475079
 20
-169.309779
 30
0.000000
 11
1.294637
 21
-168.446688
 31
0.000000
  0
LINE
 62
  0
  6
CONTINUOUS
 10
-28.338170
 20
-170.172871
 30
0.000000
 11
-28.338170
 21
-186.571609
 31
0.000000
  0
LINE
 62
  0
  6
CONTINUOUS
 10
-50.778549
 20
-185.133123
 30
0.000000
 11
-25.461199
 21
-184.557729
 31
0.000000
  0
LINE
 62
  0
  6
CONTINUOUS
 10
-55.957098
 20
-171.323659
 30
0.000000
 11
-55.381703
 21
-185.133123
 31
0.000000
  0
LINE
 62
  0
  6
CONTINUOUS
 10
-80.123659
 20
-167.295899
 30
0.000000
 11
-55.381703
 21
-171.323659
 31
0.000000
  0
LINE
 62
  0
  6
CONTINUOUS
 10
-59.121767
 20
-169.597476
 30
0.000000
 11
-19.131861
 21
-135.361514
 31
0.000000
  0
LINE
 62
  0
  6
CONTINUOUS
 10
-34.955205
 20
-131.046057
 30
0.000000
 11
-19.707256
 21
-133.347634
 31
0.000000
  0
LINE
 62
  0
  6
CONTINUOUS
 10
-17.405678
 20
-134.786120
 30
0.000000
 11
-16.254890
 21
-143.992429
 31
0.000000
  0
LINE
 62
  0
  6
CONTINUOUS
 10
-53.655521
 20
-183.119243
 30
0.000000
 11
-14.528707
 21
-146.006309
 31
0.000000
  0
LINE
 62
  0
  6
CONTINUOUS
 10
-13.665615
 20
-146.581703
 30
0.000000
 11
9.637855
 21
-147.732492
 31
0.000000
  0
LINE
 62
  0
  6
CONTINUOUS
 10
-25.173502
 20
-183.982334
 30
0.000000
 11
10.788644
 21
-146.294006
 31
0.000000
  0
LINE
 62
  0
  6
CONTINUOUS
 10
-25.748896
 20
-166.720505
 30
0.000000
 11
7.336278
 21
-138.526183
 31
0.000000
  0
LINE
 62
  0
  6
CONTINUOUS
 10
7.336278
 20
-147.444795
 30
0.000000
 11
7.048580
 21
-137.375394
 31
0.000000
  0
LINE
 62
  0
  6
CONTINUOUS
 10
7.048580
 20
-136.512303
 30
0.000000
 11
29.488959
 21
-136.512303
 31
0.000000
  0
LINE
 62
  0
  6
CONTINUOUS
 10
-1.294637
 20
-167.583596
 30
0.000000
 11
26.899685
 21
-140.827760
 31
0.000000
  0
LINE
 62
  0
  6
CONTINUOUS
 10
11.939432
 20
-158.952681
 30
0.000000
 11
-1.294637
 21
-261.948265
 31
0.000000
  0
LINE
 62
  0
  6
CONTINUOUS
 10
11.651735
 20
-157.801893
 30
0.000000
 11
26.899685
 21
-233.178549
 31
0.000000
  0
LINE
 62
  0
  6
CONTINUOUS
 10
27.762776
 20
-235.480126
 30
0.000000
 11
27.762776
 21
-141.690852
 31
0.000000
  0
LINE
 62
  0
  6
CONTINUOUS
 10
9.062461
 20
-154.061830
 30
0.000000
 11
43.873817
 21
-164.706625
 31
0.000000
  0
LINE
 62
  0
  6
CONTINUOUS
 10
29.776656
 20
-229.726183
 30
0.000000
 11
70.629653
 21
-230.876972
 31
0.000000
  0
ENDSEC
  0
EOF
