  0
SECTION
  2
ENTITIES
  0
LINE
 62
  0
  6
CONTINUOUS
 10
38.774054
 20
-125.562303
 30
0.000000
 11
113.386041
 21
-50.432177
 31
0.000000
  0
LINE
 62
  0
  6
CONTINUOUS
 10
91.106073
 20
-216.754732
 30
0.000000
 11
114.422319
 21
-49.914038
 31
0.000000
  0
LINE
 62
  0
  6
CONTINUOUS
 10
116.494874
 20
-48.359621
 30
0.000000
 11
142.919953
 21
-58.722397
 31
0.000000
  0
LINE
 62
  0
  6
CONTINUOUS
 10
142.401814
 20
-58.204259
 30
0.000000
 11
66.753549
 21
-132.298107
 31
0.000000
  0
LINE
 62
  0
  6
CONTINUOUS
 10
38.255915
 20
-126.598580
 30
0.000000
 11
66.235410
 21
-131.261830
 31
0.000000
  0
LINE
 62
  0
  6
CONTINUOUS
 10
66.753549
 20
-132.816246
 30
0.000000
 11
65.199132
 21
-165.977129
 31
0.000000
  0
LINE
 62
  0
  6
CONTINUOUS
 10
66.753549
 20
-165.977129
 30
0.000000
 11
105.613959
 21
-170.640379
 31
0.000000
  0
LINE
 62
  0
  6
CONTINUOUS
 10
103.023265
 20
-170.122240
 30
0.000000
 11
105.095820
 21
-143.179022
 31
0.000000
  0
LINE
 62
  0
  6
CONTINUOUS
 10
106.132098
 20
-141.624606
 30
0.000000
 11
180.225946
 21
-77.893533
 31
0.000000
  0
LINE
 62
  0
  6
CONTINUOUS
 10
181.262224
 20
-79.966088
 30
0.000000
 11
180.225946
 21
-108.463722
 31
0.000000
  0
LINE
 62
  0
  6
CONTINUOUS
 10
146.028785
 20
-93.955836
 30
0.000000
 11
180.225946
 21
-109.500000
 31
0.000000
  0
LINE
 62
  0
  6
CONTINUOUS
 10
108.204653
 20
-168.567823
 30
0.000000
 11
178.153391
 21
-111.572555
 31
0.000000
  0
LINE
 62
  0
  6
CONTINUOUS
 10
67.789826
 20
-163.904574
 30
0.000000
 11
141.883675
 21
-92.401420
 31
0.000000
  0
LINE
 62
  0
  6
CONTINUOUS
 10
181.262224
 20
-76.857256
 30
0.000000
 11
215.459385
 21
-90.847003
 31
0.000000
  0
LINE
 62
  0
  6
CONTINUOUS
 10
105.095820
 20
-142.142744
 30
0.000000
 11
163.645505
 21
-162.868297
 31
0.000000
  0
LINE
 62
  0
  6
CONTINUOUS
 10
166.236199
 20
-152.505521
 30
0.000000
 11
221.677050
 21
-95.510252
 31
0.000000
  0
LINE
 62
  0
  6
CONTINUOUS
 10
223.749606
 20
-102.246057
 30
0.000000
 11
222.713328
 21
-237.998423
 31
0.000000
  0
LINE
 62
  0
  6
CONTINUOUS
 10
208.205442
 20
-112.608833
 30
0.000000
 11
294.216483
 21
-131.261830
 31
0.000000
  0
LINE
 62
  0
  6
CONTINUOUS
 10
292.143927
 20
-134.888801
 30
0.000000
 11
241.366325
 21
-302.765773
 31
0.000000
  0
LINE
 62
  0
  6
CONTINUOUS
 10
163.645505
 20
-286.703470
 30
0.000000
 11
241.884464
 21
-303.283912
 31
0.000000
  0
LINE
 62
  0
  6
CONTINUOUS
 10
137.738565
 20
-264.941640
 30
0.000000
 11
259.501183
 21
-287.739748
 31
0.000000
  0
LINE
 62
  0
  6
CONTINUOUS
 10
225.822161
 20
-245.252366
 30
0.000000
 11
278.154180
 21
-255.615142
 31
0.000000
  0
LINE
 62
  0
  6
CONTINUOUS
 10
284.371845
 20
-249.397476
 30
0.000000
 11
281.781151
 21
-291.884858
 31
0.000000
  0
LINE
 62
  0
  6
CONTINUOUS
 10
237.739353
 20
-334.890379
 30
0.000000
 11
280.226735
 21
-295.511830
 31
0.000000
  0
LINE
 62
  0
  6
CONTINUOUS
 10
293.698344
 20
-136.961356
 30
0.000000
 11
282.817429
 21
-243.179811
 31
0.000000
  0
LINE
 62
  0
  6
CONTINUOUS
 10
-125.475946
 20
-60.276814
 30
0.000000
 11
-125.475946
 21
-60.276814
 31
0.000000
  0
LINE
 62
  0
  6
CONTINUOUS
 10
-125.475946
 20
-60.276814
 30
0.000000
 11
-125.475946
 21
-60.276814
 31
0.000000
  0
LINE
 62
  0
  6
CONTINUOUS
 10
163.645505
 20
-170.640379
 30
0.000000
 11
160.536672
 21
-284.112776
 31
0.000000
  0
LINE
 62
  0
  6
CONTINUOUS
 10
207.687303
 20
-113.126972
 30
0.000000
 11
162.091088
 21
-282.040221
 31
0.000000
  0
LINE
 62
  0
  6
CONTINUOUS
 10
208.205442
 20
-114.163249
 30
0.000000
 11
217.013801
 21
-247.324921
 31
0.000000
  0
LINE
 62
  0
  6
CONTINUOUS
 10
37.737776
 20
-128.152997
 30
0.000000
 11
30.483833
 21
-256.133281
 31
0.000000
  0
LINE
 62
  0
  6
CONTINUOUS
 10
32.556388
 20
-255.097003
 30
0.000000
 11
89.033517
 21
-217.272871
 31
0.000000
  0
LINE
 62
  0
  6
CONTINUOUS
 10
93.696767
 20
-215.718454
 30
0.000000
 11
130.484621
 21
-224.526814
 31
0.000000
  0
LINE
 62
  0
  6
CONTINUOUS
 10
82.297713
 20
-268.050473
 30
0.000000
 11
137.738565
 21
-226.081230
 31
0.000000
  0
LINE
 62
  0
  6
CONTINUOUS
 10
33.074527
 20
-256.651420
 30
0.000000
 11
80.743297
 21
-268.050473
 31
0.000000
  0
LINE
 62
  0
  6
CONTINUOUS
 10
82.297713
 20
-268.050473
 30
0.000000
 11
81.779574
 21
-300.175079
 31
0.000000
  0
LINE
 62
  0
  6
CONTINUOUS
 10
84.370268
 20
-300.693218
 30
0.000000
 11
133.075315
 21
-264.941640
 31
0.000000
  0
LINE
 62
  0
  6
CONTINUOUS
 10
135.666009
 20
-233.335174
 30
0.000000
 11
136.702287
 21
-267.014196
 31
0.000000
  0
LINE
 62
  0
  6
CONTINUOUS
 10
85.406546
 20
-302.765773
 30
0.000000
 11
233.076104
 21
-333.854101
 31
0.000000
  0
LINE
 62
  0
  6
CONTINUOUS
 10
238.775631
 20
-305.356467
 30
0.000000
 11
236.184937
 21
-333.335962
 31
0.000000
  0
ENDSEC
  0
EOF
