  0
SECTION
  2
ENTITIES
  0
LINE
 62
  0
  6
CONTINUOUS
 10
-127.581625
 20
85.738959
 30
0.000000
 11
-65.972792
 21
143.240536
 31
0.000000
  0
LINE
 62
  0
  6
CONTINUOUS
 10
-62.892350
 20
136.052839
 30
0.000000
 11
-56.731467
 21
-14.375394
 31
0.000000
  0
LINE
 62
  0
  6
CONTINUOUS
 10
-17.199132
 20
-18.996057
 30
0.000000
 11
-18.739353
 21
-58.014984
 31
0.000000
  0
LINE
 62
  0
  6
CONTINUOUS
 10
-18.739353
 20
-62.122240
 30
0.000000
 11
117.313486
 21
-63.149054
 31
0.000000
  0
LINE
 62
  0
  6
CONTINUOUS
 10
119.367114
 20
-20.022871
 30
0.000000
 11
118.340300
 21
-62.635647
 31
0.000000
  0
LINE
 62
  0
  6
CONTINUOUS
 10
78.807965
 20
-127.838328
 30
0.000000
 11
118.340300
 21
-66.742902
 31
0.000000
  0
LINE
 62
  0
  6
CONTINUOUS
 10
12.065063
 20
-89.332808
 30
0.000000
 11
71.106861
 21
-85.225552
 31
0.000000
  0
LINE
 62
  0
  6
CONTINUOUS
 10
74.700710
 20
-88.819401
 30
0.000000
 11
75.727524
 21
-126.811514
 31
0.000000
  0
LINE
 62
  0
  6
CONTINUOUS
 10
-77.781151
 20
-137.079653
 30
0.000000
 11
75.214117
 21
-132.458991
 31
0.000000
  0
LINE
 62
  0
  6
CONTINUOUS
 10
73.160489
 20
-85.738959
 30
0.000000
 11
91.643139
 21
72.903785
 31
0.000000
  0
LINE
 62
  0
  6
CONTINUOUS
 10
92.156546
 20
70.336751
 30
0.000000
 11
119.367114
 21
-14.375394
 31
0.000000
  0
LINE
 62
  0
  6
CONTINUOUS
 10
50.570584
 20
-21.563091
 30
0.000000
 11
122.960962
 21
-16.429022
 31
0.000000
  0
LINE
 62
  0
  6
CONTINUOUS
 10
20.792981
 20
73.930599
 30
0.000000
 11
88.562697
 21
80.091483
 31
0.000000
  0
LINE
 62
  0
  6
CONTINUOUS
 10
10.524842
 20
85.738959
 30
0.000000
 11
7.444401
 21
-86.765773
 31
0.000000
  0
LINE
 62
  0
  6
CONTINUOUS
 10
9.498028
 20
84.712145
 30
0.000000
 11
65.459385
 21
-15.402208
 31
0.000000
  0
LINE
 62
  0
  6
CONTINUOUS
 10
18.739353
 20
83.685331
 30
0.000000
 11
68.539826
 21
126.298107
 31
0.000000
  0
LINE
 62
  0
  6
CONTINUOUS
 10
72.133675
 20
128.351735
 30
0.000000
 11
66.999606
 21
-10.268139
 31
0.000000
  0
LINE
 62
  0
  6
CONTINUOUS
 10
-31.061120
 20
85.738959
 30
0.000000
 11
12.065063
 21
87.792587
 31
0.000000
  0
LINE
 62
  0
  6
CONTINUOUS
 10
-32.601341
 20
84.198738
 30
0.000000
 11
-33.628155
 21
52.880915
 31
0.000000
  0
LINE
 62
  0
  6
CONTINUOUS
 10
-81.375000
 20
49.287066
 30
0.000000
 11
-32.087934
 21
49.287066
 31
0.000000
  0
LINE
 62
  0
  6
CONTINUOUS
 10
-81.375000
 20
52.880915
 30
0.000000
 11
-77.781151
 21
77.011041
 31
0.000000
  0
LINE
 62
  0
  6
CONTINUOUS
 10
-126.554811
 20
79.064669
 30
0.000000
 11
-82.401814
 21
74.444006
 31
0.000000
  0
LINE
 62
  0
  6
CONTINUOUS
 10
-72.133675
 20
86.765773
 30
0.000000
 11
-23.360016
 21
138.106467
 31
0.000000
  0
LINE
 62
  0
  6
CONTINUOUS
 10
-17.712539
 20
106.275237
 30
0.000000
 11
-18.739353
 21
137.079653
 31
0.000000
  0
LINE
 62
  0
  6
CONTINUOUS
 10
-79.321372
 20
51.340694
 30
0.000000
 11
-15.145505
 21
106.275237
 31
0.000000
  0
LINE
 62
  0
  6
CONTINUOUS
 10
-10.011435
 20
106.275237
 30
0.000000
 11
27.980678
 21
108.328864
 31
0.000000
  0
LINE
 62
  0
  6
CONTINUOUS
 10
25.927050
 20
104.221609
 30
0.000000
 11
-26.953864
 21
55.447950
 31
0.000000
  0
LINE
 62
  0
  6
CONTINUOUS
 10
-117.826893
 20
-75.470820
 30
0.000000
 11
-59.811909
 21
-19.509464
 31
0.000000
  0
LINE
 62
  0
  6
CONTINUOUS
 10
-83.942035
 20
-79.064669
 30
0.000000
 11
-19.766167
 21
-21.049685
 31
0.000000
  0
LINE
 62
  0
  6
CONTINUOUS
 10
-128.095032
 20
75.470820
 30
0.000000
 11
-127.068218
 21
-64.175868
 31
0.000000
  0
LINE
 62
  0
  6
CONTINUOUS
 10
-128.608438
 20
-85.738959
 30
0.000000
 11
-81.888407
 21
-84.712145
 31
0.000000
  0
LINE
 62
  0
  6
CONTINUOUS
 10
-59.811909
 20
141.700315
 30
0.000000
 11
-20.279574
 21
141.186909
 31
0.000000
  0
LINE
 62
  0
  6
CONTINUOUS
 10
41.329259
 20
133.999211
 30
0.000000
 11
70.593454
 21
132.972397
 31
0.000000
  0
LINE
 62
  0
  6
CONTINUOUS
 10
-81.888407
 20
-90.873028
 30
0.000000
 11
-82.915221
 21
-134.512618
 31
0.000000
  0
LINE
 62
  0
  6
CONTINUOUS
 10
28.015904
 20
108.532121
 30
0.000000
 11
39.290612
 21
132.407973
 31
0.000000
  0
LINE
 62
  0
  6
CONTINUOUS
 10
-59.033030
 20
-15.178628
 30
0.000000
 11
-18.934682
 21
-18.042796
 31
0.000000
  0
ENDSEC
  0
EOF
