  0
SECTION
  2
ENTITIES
  0
LINE
 62
  0
  6
CONTINUOUS
 10
548.808047
 20
488.287720
 30
0.000000
 11
549.066575
 21
488.450730
 31
0.000000
  0
LINE
 62
  0
  6
CONTINUOUS
 10
549.054537
 20
488.459476
 30
0.000000
 11
549.210207
 21
488.454283
 31
0.000000
  0
LINE
 62
  0
  6
CONTINUOUS
 10
549.067396
 20
488.463029
 30
0.000000
 11
549.061485
 21
487.962303
 31
0.000000
  0
LINE
 62
  0
  6
CONTINUOUS
 10
548.818367
 20
488.277435
 30
0.000000
 11
548.793310
 21
487.850328
 31
0.000000
  0
LINE
 62
  0
  6
CONTINUOUS
 10
548.790168
 20
487.857053
 30
0.000000
 11
549.076491
 21
487.974067
 31
0.000000
  0
LINE
 62
  0
  6
CONTINUOUS
 10
548.785681
 20
487.849432
 30
0.000000
 11
548.917622
 21
487.844948
 31
0.000000
  0
LINE
 62
  0
  6
CONTINUOUS
 10
549.063600
 20
487.967896
 30
0.000000
 11
549.193868
 21
487.959762
 31
0.000000
  0
LINE
 62
  0
  6
CONTINUOUS
 10
549.188735
 20
487.967719
 30
0.000000
 11
549.161711
 21
487.796183
 31
0.000000
  0
LINE
 62
  0
  6
CONTINUOUS
 10
548.925493
 20
487.841284
 30
0.000000
 11
548.896483
 21
487.644859
 31
0.000000
  0
LINE
 62
  0
  6
CONTINUOUS
 10
548.889507
 20
487.655581
 30
0.000000
 11
549.414530
 21
487.680613
 31
0.000000
  0
LINE
 62
  0
  6
CONTINUOUS
 10
548.930776
 20
487.670776
 30
0.000000
 11
549.196971
 21
487.790537
 31
0.000000
  0
LINE
 62
  0
  6
CONTINUOUS
 10
549.456216
 20
487.800827
 30
0.000000
 11
549.419324
 21
487.652668
 31
0.000000
  0
LINE
 62
  0
  6
CONTINUOUS
 10
549.423013
 20
487.654880
 30
0.000000
 11
549.741879
 21
487.901989
 31
0.000000
  0
LINE
 62
  0
  6
CONTINUOUS
 10
549.731549
 20
487.885035
 30
0.000000
 11
549.175946
 21
487.804690
 31
0.000000
  0
LINE
 62
  0
  6
CONTINUOUS
 10
548.807669
 20
488.286405
 30
0.000000
 11
548.985413
 21
488.277899
 31
0.000000
  0
LINE
 62
  0
  6
CONTINUOUS
 10
548.965351
 20
488.276500
 30
0.000000
 11
549.210214
 21
488.445658
 31
0.000000
  0
LINE
 62
  0
  6
CONTINUOUS
 10
549.211980
 20
488.456244
 30
0.000000
 11
549.187347
 21
488.303041
 31
0.000000
  0
LINE
 62
  0
  6
CONTINUOUS
 10
549.181729
 20
488.305995
 30
0.000000
 11
549.309470
 21
488.303632
 31
0.000000
  0
LINE
 62
  0
  6
CONTINUOUS
 10
548.941558
 20
488.126054
 30
0.000000
 11
549.195089
 21
488.311286
 31
0.000000
  0
LINE
 62
  0
  6
CONTINUOUS
 10
548.962843
 20
488.154878
 30
0.000000
 11
549.157722
 21
488.149208
 31
0.000000
  0
LINE
 62
  0
  6
CONTINUOUS
 10
549.114205
 20
488.138812
 30
0.000000
 11
549.125084
 21
488.265450
 31
0.000000
  0
LINE
 62
  0
  6
CONTINUOUS
 10
549.112754
 20
488.270502
 30
0.000000
 11
549.278911
 21
488.262148
 31
0.000000
  0
LINE
 62
  0
  6
CONTINUOUS
 10
549.269121
 20
488.277006
 30
0.000000
 11
549.211254
 21
487.840502
 31
0.000000
  0
LINE
 62
  0
  6
CONTINUOUS
 10
549.210326
 20
487.832900
 30
0.000000
 11
549.442711
 21
487.825615
 31
0.000000
  0
LINE
 62
  0
  6
CONTINUOUS
 10
549.443683
 20
487.822701
 30
0.000000
 11
549.586419
 21
488.319294
 31
0.000000
  0
LINE
 62
  0
  6
CONTINUOUS
 10
549.370063
 20
488.335395
 30
0.000000
 11
549.600094
 21
488.319782
 31
0.000000
  0
LINE
 62
  0
  6
CONTINUOUS
 10
549.586419
 20
488.315879
 30
0.000000
 11
549.723123
 21
488.021614
 31
0.000000
  0
LINE
 62
  0
  6
CONTINUOUS
 10
549.710566
 20
488.056112
 30
0.000000
 11
549.707724
 21
487.902703
 31
0.000000
  0
LINE
 62
  0
  6
CONTINUOUS
 10
549.415905
 20
488.045057
 30
0.000000
 11
549.689227
 21
488.040708
 31
0.000000
  0
LINE
 62
  0
  6
CONTINUOUS
 10
549.440541
 20
488.021817
 30
0.000000
 11
549.368166
 21
488.325901
 31
0.000000
  0
LINE
 62
  0
  6
CONTINUOUS
 10
549.366789
 20
488.325311
 30
0.000000
 11
549.233389
 21
487.816157
 31
0.000000
  0
LINE
 62
  0
  6
CONTINUOUS
 10
549.132785
 20
488.286447
 30
0.000000
 11
549.331963
 21
488.436295
 31
0.000000
  0
LINE
 62
  0
  6
CONTINUOUS
 10
549.340937
 20
488.437060
 30
0.000000
 11
549.451356
 21
488.447322
 31
0.000000
  0
LINE
 62
  0
  6
CONTINUOUS
 10
548.985403
 20
488.285613
 30
0.000000
 11
548.966227
 21
488.144779
 31
0.000000
  0
LINE
 62
  0
  6
CONTINUOUS
 10
549.455582
 20
488.425555
 30
0.000000
 11
549.411523
 21
488.060370
 31
0.000000
  0
LINE
 62
  0
  6
CONTINUOUS
 10
549.105775
 20
488.140888
 30
0.000000
 11
549.308088
 21
488.311433
 31
0.000000
  0
LINE
 62
  0
  6
CONTINUOUS
 10
549.271304
 20
488.254585
 30
0.000000
 11
549.476961
 21
488.460242
 31
0.000000
  0
LINE
 62
  0
  6
CONTINUOUS
 10
549.338212
 20
488.456823
 30
0.000000
 11
549.302768
 21
488.298507
 31
0.000000
  0
LINE
 62
  0
  6
CONTINUOUS
 10
548.936515
 20
487.849551
 30
0.000000
 11
549.172807
 21
487.953520
 31
0.000000
  0
ENDSEC
  0
EOF
