  0
SECTION
  2
ENTITIES
  0
LINE
 62
  0
  6
CONTINUOUS
 10
35.732413
 20
-93.358675
 30
0.000000
 11
31.601498
 21
-198.283912
 31
0.000000
  0
LINE
 62
  0
  6
CONTINUOUS
 10
32.427681
 20
-202.827918
 30
0.000000
 11
51.429890
 21
-208.198107
 31
0.000000
  0
LINE
 62
  0
  6
CONTINUOUS
 10
54.734621
 20
-208.198107
 30
0.000000
 11
113.806703
 21
-187.543533
 31
0.000000
  0
LINE
 62
  0
  6
CONTINUOUS
 10
34.080047
 20
-201.588644
 30
0.000000
 11
88.195032
 21
-176.803155
 31
0.000000
  0
LINE
 62
  0
  6
CONTINUOUS
 10
34.080047
 20
-91.706309
 30
0.000000
 11
96.043770
 21
-35.525868
 31
0.000000
  0
LINE
 62
  0
  6
CONTINUOUS
 10
97.283044
 20
-39.243691
 30
0.000000
 11
91.086672
 21
-173.498423
 31
0.000000
  0
LINE
 62
  0
  6
CONTINUOUS
 10
40.276420
 20
-93.358675
 30
0.000000
 11
64.648817
 21
-101.207413
 31
0.000000
  0
LINE
 62
  0
  6
CONTINUOUS
 10
64.648817
 20
-102.033596
 30
0.000000
 11
63.822634
 21
-126.405994
 31
0.000000
  0
LINE
 62
  0
  6
CONTINUOUS
 10
67.540457
 20
-101.207413
 30
0.000000
 11
120.003076
 21
-50.810252
 31
0.000000
  0
LINE
 62
  0
  6
CONTINUOUS
 10
99.348502
 20
-36.765142
 30
0.000000
 11
120.003076
 21
-49.984069
 31
0.000000
  0
LINE
 62
  0
  6
CONTINUOUS
 10
120.829259
 20
-49.984069
 30
0.000000
 11
120.829259
 21
-85.096845
 31
0.000000
  0
LINE
 62
  0
  6
CONTINUOUS
 10
89.434306
 20
-106.990694
 30
0.000000
 11
140.244558
 21
-57.006625
 31
0.000000
  0
LINE
 62
  0
  6
CONTINUOUS
 10
141.896924
 20
-55.767350
 30
0.000000
 11
139.831467
 21
-80.552839
 31
0.000000
  0
LINE
 62
  0
  6
CONTINUOUS
 10
86.542666
 20
-135.080915
 30
0.000000
 11
141.896924
 21
-80.139748
 31
0.000000
  0
LINE
 62
  0
  6
CONTINUOUS
 10
87.781940
 20
-109.056151
 30
0.000000
 11
85.303391
 21
-135.494006
 31
0.000000
  0
LINE
 62
  0
  6
CONTINUOUS
 10
65.061909
 20
-128.884543
 30
0.000000
 11
120.003076
 21
-83.857571
 31
0.000000
  0
LINE
 62
  0
  6
CONTINUOUS
 10
65.061909
 20
-128.471451
 30
0.000000
 11
81.172476
 21
-137.559464
 31
0.000000
  0
LINE
 62
  0
  6
CONTINUOUS
 10
142.310016
 20
-55.767350
 30
0.000000
 11
161.312224
 21
-71.877918
 31
0.000000
  0
LINE
 62
  0
  6
CONTINUOUS
 10
117.937618
 20
-118.144164
 30
0.000000
 11
160.486041
 21
-72.704101
 31
0.000000
  0
LINE
 62
  0
  6
CONTINUOUS
 10
90.260489
 20
-109.469243
 30
0.000000
 11
114.632886
 21
-118.970347
 31
0.000000
  0
LINE
 62
  0
  6
CONTINUOUS
 10
116.285252
 20
-118.970347
 30
0.000000
 11
108.849606
 21
-215.633754
 31
0.000000
  0
LINE
 62
  0
  6
CONTINUOUS
 10
112.154338
 20
-215.220662
 30
0.000000
 11
139.831467
 21
-96.663407
 31
0.000000
  0
LINE
 62
  0
  6
CONTINUOUS
 10
139.831467
 20
-94.597950
 30
0.000000
 11
170.813328
 21
-111.121609
 31
0.000000
  0
LINE
 62
  0
  6
CONTINUOUS
 10
161.312224
 20
-73.117192
 30
0.000000
 11
147.267114
 21
-192.087539
 31
0.000000
  0
LINE
 62
  0
  6
CONTINUOUS
 10
139.831467
 20
-95.837224
 30
0.000000
 11
145.201656
 21
-192.087539
 31
0.000000
  0
LINE
 62
  0
  6
CONTINUOUS
 10
150.158754
 20
-197.457729
 30
0.000000
 11
186.097713
 21
-217.699211
 31
0.000000
  0
LINE
 62
  0
  6
CONTINUOUS
 10
172.878785
 20
-113.187066
 30
0.000000
 11
153.050394
 21
-228.439590
 31
0.000000
  0
LINE
 62
  0
  6
CONTINUOUS
 10
173.704968
 20
-113.187066
 30
0.000000
 11
188.163170
 21
-216.459937
 31
0.000000
  0
LINE
 62
  0
  6
CONTINUOUS
 10
188.576262
 20
-218.525394
 30
0.000000
 11
184.858438
 21
-260.247634
 31
0.000000
  0
LINE
 62
  0
  6
CONTINUOUS
 10
152.637303
 20
-232.570505
 30
0.000000
 11
150.158754
 21
-274.292744
 31
0.000000
  0
LINE
 62
  0
  6
CONTINUOUS
 10
148.093297
 20
-277.184385
 30
0.000000
 11
183.206073
 21
-260.660726
 31
0.000000
  0
LINE
 62
  0
  6
CONTINUOUS
 10
109.675789
 20
-228.026498
 30
0.000000
 11
182.379890
 21
-260.247634
 31
0.000000
  0
LINE
 62
  0
  6
CONTINUOUS
 10
111.328155
 20
-216.459937
 30
0.000000
 11
153.463486
 21
-231.331230
 31
0.000000
  0
LINE
 62
  0
  6
CONTINUOUS
 10
114.219795
 20
-188.369716
 30
0.000000
 11
113.806703
 21
-228.026498
 31
0.000000
  0
LINE
 62
  0
  6
CONTINUOUS
 10
52.256073
 20
-211.915931
 30
0.000000
 11
50.603707
 21
-246.615615
 31
0.000000
  0
LINE
 62
  0
  6
CONTINUOUS
 10
52.256073
 20
-249.507256
 30
0.000000
 11
112.154338
 21
-231.331230
 31
0.000000
  0
LINE
 62
  0
  6
CONTINUOUS
 10
53.495347
 20
-248.267981
 30
0.000000
 11
149.332571
 21
-273.466562
 31
0.000000
  0
LINE
 62
  0
  6
CONTINUOUS
 10
90.673580
 20
-176.803155
 30
0.000000
 11
113.806703
 21
-186.304259
 31
0.000000
  0
ENDSEC
  0
EOF
