  0
SECTION
  2
ENTITIES
  0
LINE
 62
  0
  6
CONTINUOUS
 10
-84.460410
 20
-187.151735
 30
0.000000
 11
-57.683754
 21
-141.574448
 31
0.000000
  0
LINE
 62
  0
  6
CONTINUOUS
 10
-56.829180
 20
-141.004732
 30
0.000000
 11
-32.331388
 21
-142.713880
 31
0.000000
  0
LINE
 62
  0
  6
CONTINUOUS
 10
-33.755678
 20
-143.283596
 30
0.000000
 11
-33.185962
 21
-172.054259
 31
0.000000
  0
LINE
 62
  0
  6
CONTINUOUS
 10
-57.114038
 20
-182.594006
 30
0.000000
 11
-34.325394
 21
-146.132177
 31
0.000000
  0
LINE
 62
  0
  6
CONTINUOUS
 10
-82.466404
 20
-187.721451
 30
0.000000
 11
-57.683754
 21
-185.442587
 31
0.000000
  0
LINE
 62
  0
  6
CONTINUOUS
 10
-57.683754
 20
-183.733438
 30
0.000000
 11
-55.974606
 21
-208.231230
 31
0.000000
  0
LINE
 62
  0
  6
CONTINUOUS
 10
-54.550315
 20
-208.231230
 30
0.000000
 11
-24.070505
 21
-207.946372
 31
0.000000
  0
LINE
 62
  0
  6
CONTINUOUS
 10
-22.931073
 20
-188.576025
 30
0.000000
 11
-23.785647
 21
-209.655521
 31
0.000000
  0
LINE
 62
  0
  6
CONTINUOUS
 10
-22.931073
 20
-189.430599
 30
0.000000
 11
0.142429
 21
-188.860883
 31
0.000000
  0
LINE
 62
  0
  6
CONTINUOUS
 10
-21.791640
 20
-186.012303
 30
0.000000
 11
5.554732
 21
-138.156151
 31
0.000000
  0
LINE
 62
  0
  6
CONTINUOUS
 10
-4.130442
 20
-166.926814
 30
0.000000
 11
-24.355363
 21
-206.522082
 31
0.000000
  0
LINE
 62
  0
  6
CONTINUOUS
 10
7.263880
 20
-139.580442
 30
0.000000
 11
36.319401
 21
-143.568454
 31
0.000000
  0
LINE
 62
  0
  6
CONTINUOUS
 10
35.179968
 20
-142.144164
 30
0.000000
 11
1.851577
 21
-189.145741
 31
0.000000
  0
LINE
 62
  0
  6
CONTINUOUS
 10
1.851577
 20
-190.570032
 30
0.000000
 11
-6.694164
 21
-254.947950
 31
0.000000
  0
LINE
 62
  0
  6
CONTINUOUS
 10
-8.403312
 20
-254.947950
 30
0.000000
 11
11.536751
 21
-252.099369
 31
0.000000
  0
LINE
 62
  0
  6
CONTINUOUS
 10
13.245899
 20
-252.669085
 30
0.000000
 11
14.955047
 21
-273.748580
 31
0.000000
  0
LINE
 62
  0
  6
CONTINUOUS
 10
15.524763
 20
-248.396215
 30
0.000000
 11
47.713722
 21
-168.351104
 31
0.000000
  0
LINE
 62
  0
  6
CONTINUOUS
 10
-7.833596
 20
-253.238801
 30
0.000000
 11
22.361356
 21
-167.496530
 31
0.000000
  0
LINE
 62
  0
  6
CONTINUOUS
 10
12.676183
 20
-166.926814
 30
0.000000
 11
45.719716
 21
-166.641956
 31
0.000000
  0
LINE
 62
  0
  6
CONTINUOUS
 10
47.428864
 20
-168.066246
 30
0.000000
 11
69.362934
 21
-221.049842
 31
0.000000
  0
LINE
 62
  0
  6
CONTINUOUS
 10
32.331388
 20
-224.752997
 30
0.000000
 11
68.793218
 21
-221.619558
 31
0.000000
  0
LINE
 62
  0
  6
CONTINUOUS
 10
22.931073
 20
-169.490536
 30
0.000000
 11
32.901104
 21
-225.322713
 31
0.000000
  0
LINE
 62
  0
  6
CONTINUOUS
 10
35.749685
 20
-143.568454
 30
0.000000
 11
32.901104
 21
-223.613565
 31
0.000000
  0
LINE
 62
  0
  6
CONTINUOUS
 10
69.932650
 20
-223.898423
 30
0.000000
 11
70.502366
 21
-247.256782
 31
0.000000
  0
LINE
 62
  0
  6
CONTINUOUS
 10
18.088486
 20
-274.033438
 30
0.000000
 11
69.932650
 21
-246.117350
 31
0.000000
  0
LINE
 62
  0
  6
CONTINUOUS
 10
-67.084069
 20
-279.160883
 30
0.000000
 11
17.233912
 21
-274.603155
 31
0.000000
  0
LINE
 62
  0
  6
CONTINUOUS
 10
-67.368927
 20
-260.360252
 30
0.000000
 11
-67.938644
 21
-278.021451
 31
0.000000
  0
LINE
 62
  0
  6
CONTINUOUS
 10
-85.884700
 20
-258.651104
 30
0.000000
 11
-67.084069
 21
-259.220820
 31
0.000000
  0
LINE
 62
  0
  6
CONTINUOUS
 10
-81.042114
 20
-186.297161
 30
0.000000
 11
-83.605836
 21
-254.663091
 31
0.000000
  0
LINE
 62
  0
  6
CONTINUOUS
 10
-56.829180
 20
-143.283596
 30
0.000000
 11
-64.805205
 21
-216.492114
 31
0.000000
  0
LINE
 62
  0
  6
CONTINUOUS
 10
-66.514353
 20
-218.486120
 30
0.000000
 11
-84.745268
 21
-258.651104
 31
0.000000
  0
LINE
 62
  0
  6
CONTINUOUS
 10
-65.090063
 20
-217.631546
 30
0.000000
 11
-45.434858
 21
-218.770978
 31
0.000000
  0
LINE
 62
  0
  6
CONTINUOUS
 10
-66.229495
 20
-258.081388
 30
0.000000
 11
-47.428864
 21
-220.764984
 31
0.000000
  0
LINE
 62
  0
  6
CONTINUOUS
 10
-44.010568
 20
-219.625552
 30
0.000000
 11
-44.010568
 21
-243.268770
 31
0.000000
  0
LINE
 62
  0
  6
CONTINUOUS
 10
-61.956625
 20
-277.166877
 30
0.000000
 11
-43.440852
 21
-246.117350
 31
0.000000
  0
LINE
 62
  0
  6
CONTINUOUS
 10
-44.010568
 20
-244.693060
 30
0.000000
 11
68.223502
 21
-240.705047
 31
0.000000
  0
LINE
 62
  0
  6
CONTINUOUS
 10
-53.980599
 20
-204.812934
 30
0.000000
 11
-34.895110
 21
-171.484543
 31
0.000000
  0
LINE
 62
  0
  6
CONTINUOUS
 10
-32.617771
 20
-171.365226
 30
0.000000
 11
-2.087512
 21
-165.954800
 31
0.000000
  0
LINE
 62
  0
  6
CONTINUOUS
 10
4.482291
 20
-141.221426
 30
0.000000
 11
-2.087512
 21
-164.795423
 31
0.000000
  0
ENDSEC
  0
EOF
