  0
SECTION
  2
ENTITIES
  0
LINE
 62
  0
  6
CONTINUOUS
 10
-107.119874
 20
-195.147634
 30
0.000000
 11
-67.478233
 21
-132.187382
 31
0.000000
  0
LINE
 62
  0
  6
CONTINUOUS
 10
-64.563407
 20
-131.312934
 30
0.000000
 11
-49.697792
 21
-131.895899
 31
0.000000
  0
LINE
 62
  0
  6
CONTINUOUS
 10
-47.948896
 20
-135.393691
 30
0.000000
 11
-50.280757
 21
-163.958991
 31
0.000000
  0
LINE
 62
  0
  6
CONTINUOUS
 10
-86.716088
 20
-196.896530
 30
0.000000
 11
-50.280757
 21
-138.017035
 31
0.000000
  0
LINE
 62
  0
  6
CONTINUOUS
 10
-105.662461
 20
-196.022082
 30
0.000000
 11
-90.213880
 21
-196.896530
 31
0.000000
  0
LINE
 62
  0
  6
CONTINUOUS
 10
-88.464984
 20
-197.770978
 30
0.000000
 11
-89.047950
 21
-213.511041
 31
0.000000
  0
LINE
 62
  0
  6
CONTINUOUS
 10
-87.299054
 20
-213.802524
 30
0.000000
 11
-56.693375
 21
-215.259937
 31
0.000000
  0
LINE
 62
  0
  6
CONTINUOUS
 10
-63.397476
 20
-212.053628
 30
0.000000
 11
-61.648580
 21
-197.188013
 31
0.000000
  0
LINE
 62
  0
  6
CONTINUOUS
 10
-62.231546
 20
-195.730599
 30
0.000000
 11
-43.576656
 21
-197.479495
 31
0.000000
  0
LINE
 62
  0
  6
CONTINUOUS
 10
-61.940063
 20
-210.596215
 30
0.000000
 11
-32.500315
 21
-167.165300
 31
0.000000
  0
LINE
 62
  0
  6
CONTINUOUS
 10
-61.065615
 20
-192.524290
 30
0.000000
 11
-31.334385
 21
-149.384858
 31
0.000000
  0
LINE
 62
  0
  6
CONTINUOUS
 10
-26.962145
 20
-142.972240
 30
0.000000
 11
-12.096530
 21
-142.680757
 31
0.000000
  0
LINE
 62
  0
  6
CONTINUOUS
 10
-14.136909
 20
-144.429653
 30
0.000000
 11
-5.392429
 21
-230.708517
 31
0.000000
  0
LINE
 62
  0
  6
CONTINUOUS
 10
-41.827760
 20
-194.856151
 30
0.000000
 11
-17.051735
 21
-150.842271
 31
0.000000
  0
LINE
 62
  0
  6
CONTINUOUS
 10
-29.002524
 20
-174.160883
 30
0.000000
 11
-42.119243
 21
-268.892744
 31
0.000000
  0
LINE
 62
  0
  6
CONTINUOUS
 10
-28.711041
 20
-175.326814
 30
0.000000
 11
-3.060568
 21
-233.331861
 31
0.000000
  0
LINE
 62
  0
  6
CONTINUOUS
 10
-28.419558
 20
-174.160883
 30
0.000000
 11
7.141325
 21
-180.573502
 31
0.000000
  0
LINE
 62
  0
  6
CONTINUOUS
 10
8.890221
 20
-180.282019
 30
0.000000
 11
0.145741
 21
-275.305363
 31
0.000000
  0
LINE
 62
  0
  6
CONTINUOUS
 10
10.056151
 20
-179.407571
 30
0.000000
 11
40.078864
 21
-233.331861
 31
0.000000
  0
LINE
 62
  0
  6
CONTINUOUS
 10
41.244795
 20
-235.080757
 30
0.000000
 11
40.370347
 21
-252.569716
 31
0.000000
  0
LINE
 62
  0
  6
CONTINUOUS
 10
3.935016
 20
-298.623975
 30
0.000000
 11
36.289590
 21
-258.982334
 31
0.000000
  0
LINE
 62
  0
  6
CONTINUOUS
 10
-49.114826
 20
-247.614511
 30
0.000000
 11
40.078864
 21
-255.776025
 31
0.000000
  0
LINE
 62
  0
  6
CONTINUOUS
 10
-42.702208
 20
-268.601262
 30
0.000000
 11
-3.352050
 21
-276.179811
 31
0.000000
  0
LINE
 62
  0
  6
CONTINUOUS
 10
1.020189
 20
-275.305363
 30
0.000000
 11
1.020189
 21
-299.206940
 31
0.000000
  0
LINE
 62
  0
  6
CONTINUOUS
 10
-87.882019
 20
-290.753943
 30
0.000000
 11
-3.060568
 21
-300.664353
 31
0.000000
  0
LINE
 62
  0
  6
CONTINUOUS
 10
-90.213880
 20
-272.390536
 30
0.000000
 11
-89.922397
 21
-291.045426
 31
0.000000
  0
LINE
 62
  0
  6
CONTINUOUS
 10
-89.047950
 20
-290.170978
 30
0.000000
 11
-58.442271
 21
-251.986751
 31
0.000000
  0
LINE
 62
  0
  6
CONTINUOUS
 10
-90.796845
 20
-270.058675
 30
0.000000
 11
-55.527445
 21
-233.623344
 31
0.000000
  0
LINE
 62
  0
  6
CONTINUOUS
 10
-50.863722
 20
-231.000000
 30
0.000000
 11
-50.863722
 21
-231.000000
 31
0.000000
  0
LINE
 62
  0
  6
CONTINUOUS
 10
-52.029653
 20
-230.708517
 30
0.000000
 11
-52.029653
 21
-248.197476
 31
0.000000
  0
LINE
 62
  0
  6
CONTINUOUS
 10
-107.411356
 20
-269.767192
 30
0.000000
 11
-75.931230
 21
-231.291483
 31
0.000000
  0
LINE
 62
  0
  6
CONTINUOUS
 10
-105.370978
 20
-271.224606
 30
0.000000
 11
-93.128707
 21
-271.807571
 31
0.000000
  0
LINE
 62
  0
  6
CONTINUOUS
 10
-107.702839
 20
-197.188013
 30
0.000000
 11
-107.994322
 21
-267.435331
 31
0.000000
  0
LINE
 62
  0
  6
CONTINUOUS
 10
-86.133123
 20
-212.636593
 30
0.000000
 11
-50.280757
 21
-166.582334
 31
0.000000
  0
LINE
 62
  0
  6
CONTINUOUS
 10
-75.931230
 20
-225.461830
 30
0.000000
 11
-66.312303
 21
-135.685174
 31
0.000000
  0
LINE
 62
  0
  6
CONTINUOUS
 10
-42.702208
 20
-197.188013
 30
0.000000
 11
-42.993691
 21
-269.767192
 31
0.000000
  0
LINE
 62
  0
  6
CONTINUOUS
 10
-53.474101
 20
-164.541716
 30
0.000000
 11
-30.240004
 21
-165.648101
 31
0.000000
  0
LINE
 62
  0
  6
CONTINUOUS
 10
-5.899522
 20
-232.768824
 30
0.000000
 11
41.306261
 21
-234.244005
 31
0.000000
  0
LINE
 62
  0
  6
CONTINUOUS
 10
-78.183378
 20
-229.449668
 30
0.000000
 11
-50.154944
 21
-230.556053
 31
0.000000
  0
LINE
 62
  0
  6
CONTINUOUS
 10
-31.715185
 20
-166.754487
 30
0.000000
 11
-29.502414
 21
-143.151595
 31
0.000000
  0
ENDSEC
  0
EOF
