  0
SECTION
  2
ENTITIES
  0
LINE
 62
  0
  6
CONTINUOUS
 10
-107.081546
 20
-250.301262
 30
0.000000
 11
-106.192902
 21
-175.062776
 31
0.000000
  0
LINE
 62
  0
  6
CONTINUOUS
 10
-104.711830
 20
-172.100631
 30
0.000000
 11
-70.054732
 21
-171.508202
 31
0.000000
  0
LINE
 62
  0
  6
CONTINUOUS
 10
-105.008044
 20
-169.730915
 30
0.000000
 11
-77.460095
 21
-143.071609
 31
0.000000
  0
LINE
 62
  0
  6
CONTINUOUS
 10
-76.275237
 20
-142.479180
 30
0.000000
 11
-32.731703
 21
-145.441325
 31
0.000000
  0
LINE
 62
  0
  6
CONTINUOUS
 10
-67.685016
 20
-171.211987
 30
0.000000
 11
-33.916562
 21
-148.107256
 31
0.000000
  0
LINE
 62
  0
  6
CONTINUOUS
 10
-32.435489
 20
-146.033754
 30
0.000000
 11
-30.954416
 21
-167.064984
 31
0.000000
  0
LINE
 62
  0
  6
CONTINUOUS
 10
-68.277445
 20
-172.396845
 30
0.000000
 11
-68.573659
 21
-197.575079
 31
0.000000
  0
LINE
 62
  0
  6
CONTINUOUS
 10
-67.092587
 20
-198.167508
 30
0.000000
 11
-33.027918
 21
-197.278864
 31
0.000000
  0
LINE
 62
  0
  6
CONTINUOUS
 10
-31.843060
 20
-172.989274
 30
0.000000
 11
-32.435489
 21
-196.686435
 31
0.000000
  0
LINE
 62
  0
  6
CONTINUOUS
 10
-30.954416
 20
-172.693060
 30
0.000000
 11
1.925394
 21
-170.915773
 31
0.000000
  0
LINE
 62
  0
  6
CONTINUOUS
 10
2.814038
 20
-171.508202
 30
0.000000
 11
0.444322
 21
-258.891483
 31
0.000000
  0
LINE
 62
  0
  6
CONTINUOUS
 10
1.629180
 20
-258.595268
 30
0.000000
 11
37.471136
 21
-170.027129
 31
0.000000
  0
LINE
 62
  0
  6
CONTINUOUS
 10
37.174921
 20
-165.287697
 30
0.000000
 11
68.277445
 21
-165.583912
 31
0.000000
  0
LINE
 62
  0
  6
CONTINUOUS
 10
71.832019
 20
-166.176341
 30
0.000000
 11
37.471136
 21
-258.595268
 31
0.000000
  0
LINE
 62
  0
  6
CONTINUOUS
 10
0.444322
 20
-261.557413
 30
0.000000
 11
36.582492
 21
-260.668770
 31
0.000000
  0
LINE
 62
  0
  6
CONTINUOUS
 10
38.359779
 20
-260.668770
 30
0.000000
 11
37.174921
 21
-292.067508
 31
0.000000
  0
LINE
 62
  0
  6
CONTINUOUS
 10
38.359779
 20
-288.216719
 30
0.000000
 11
99.972397
 21
-250.301262
 31
0.000000
  0
LINE
 62
  0
  6
CONTINUOUS
 10
99.972397
 20
-226.011672
 30
0.000000
 11
101.453470
 21
-249.116404
 31
0.000000
  0
LINE
 62
  0
  6
CONTINUOUS
 10
72.720662
 20
-167.064984
 30
0.000000
 11
100.564826
 21
-225.715457
 31
0.000000
  0
LINE
 62
  0
  6
CONTINUOUS
 10
72.128233
 20
-235.194322
 30
0.000000
 11
98.491325
 21
-226.604101
 31
0.000000
  0
LINE
 62
  0
  6
CONTINUOUS
 10
41.321924
 20
-166.472555
 30
0.000000
 11
67.981230
 21
-235.194322
 31
0.000000
  0
LINE
 62
  0
  6
CONTINUOUS
 10
69.166088
 20
-235.194322
 30
0.000000
 11
67.092587
 21
-152.254259
 31
0.000000
  0
LINE
 62
  0
  6
CONTINUOUS
 10
-30.065773
 20
-167.064984
 30
0.000000
 11
4.295110
 21
-164.399054
 31
0.000000
  0
LINE
 62
  0
  6
CONTINUOUS
 10
6.664826
 20
-163.214196
 30
0.000000
 11
6.664826
 21
-142.775394
 31
0.000000
  0
LINE
 62
  0
  6
CONTINUOUS
 10
-29.473344
 20
-170.619558
 30
0.000000
 11
5.776183
 21
-143.367823
 31
0.000000
  0
LINE
 62
  0
  6
CONTINUOUS
 10
7.257256
 20
-141.590536
 30
0.000000
 11
63.241798
 21
-148.403470
 31
0.000000
  0
LINE
 62
  0
  6
CONTINUOUS
 10
-63.538013
 20
-195.501577
 30
0.000000
 11
-30.658202
 21
-167.657413
 31
0.000000
  0
LINE
 62
  0
  6
CONTINUOUS
 10
-76.571451
 20
-145.441325
 30
0.000000
 11
-76.275237
 21
-221.568454
 31
0.000000
  0
LINE
 62
  0
  6
CONTINUOUS
 10
-103.526972
 20
-247.635331
 30
0.000000
 11
-77.163880
 21
-224.530599
 31
0.000000
  0
LINE
 62
  0
  6
CONTINUOUS
 10
-106.785331
 20
-250.893691
 30
0.000000
 11
-75.979022
 21
-251.486120
 31
0.000000
  0
LINE
 62
  0
  6
CONTINUOUS
 10
-73.016877
 20
-251.486120
 30
0.000000
 11
-35.990063
 21
-225.715457
 31
0.000000
  0
LINE
 62
  0
  6
CONTINUOUS
 10
-75.386593
 20
-223.938170
 30
0.000000
 11
-38.952208
 21
-225.123028
 31
0.000000
  0
LINE
 62
  0
  6
CONTINUOUS
 10
-35.101420
 20
-226.900315
 30
0.000000
 11
-36.582492
 21
-254.448265
 31
0.000000
  0
LINE
 62
  0
  6
CONTINUOUS
 10
-34.508991
 20
-254.448265
 30
0.000000
 11
98.195110
 21
-249.116404
 31
0.000000
  0
LINE
 62
  0
  6
CONTINUOUS
 10
-74.794164
 20
-252.670978
 30
0.000000
 11
-75.979022
 21
-289.105363
 31
0.000000
  0
LINE
 62
  0
  6
CONTINUOUS
 10
-75.090379
 20
-289.994006
 30
0.000000
 11
34.805205
 21
-291.771293
 31
0.000000
  0
LINE
 62
  0
  6
CONTINUOUS
 10
1.050903
 20
-175.860652
 30
0.000000
 11
66.497230
 21
-149.579056
 31
0.000000
  0
LINE
 62
  0
  6
CONTINUOUS
 10
-31.414598
 20
-195.958343
 30
0.000000
 11
8.265458
 21
-160.916215
 31
0.000000
  0
ENDSEC
  0
EOF
