  0
SECTION
  2
ENTITIES
  0
LINE
 62
  0
  6
CONTINUOUS
 10
-92.907256
 20
143.500315
 30
0.000000
 11
-32.808833
 21
147.793060
 31
0.000000
  0
LINE
 62
  0
  6
CONTINUOUS
 10
-82.482019
 20
58.258675
 30
0.000000
 11
-38.328076
 21
144.726814
 31
0.000000
  0
LINE
 62
  0
  6
CONTINUOUS
 10
-87.388013
 20
150.246057
 30
0.000000
 11
-132.768454
 21
61.938170
 31
0.000000
  0
LINE
 62
  0
  6
CONTINUOUS
 10
-126.022713
 20
60.098423
 30
0.000000
 11
-130.315457
 21
-100.572871
 31
0.000000
  0
LINE
 62
  0
  6
CONTINUOUS
 10
-130.928707
 20
-102.412618
 30
0.000000
 11
-80.642271
 21
-98.119874
 31
0.000000
  0
LINE
 62
  0
  6
CONTINUOUS
 10
-88.001262
 20
137.981073
 30
0.000000
 11
-90.454259
 21
-44.767192
 31
0.000000
  0
LINE
 62
  0
  6
CONTINUOUS
 10
-88.001262
 20
-45.380442
 30
0.000000
 11
-34.035331
 21
-38.021451
 31
0.000000
  0
LINE
 62
  0
  6
CONTINUOUS
 10
-78.189274
 20
-96.280126
 30
0.000000
 11
-31.582334
 21
-42.314196
 31
0.000000
  0
LINE
 62
  0
  6
CONTINUOUS
 10
-78.189274
 20
-101.186120
 30
0.000000
 11
-81.255521
 21
-140.434069
 31
0.000000
  0
LINE
 62
  0
  6
CONTINUOUS
 10
-77.576025
 20
-146.566562
 30
0.000000
 11
59.178549
 21
-139.820820
 31
0.000000
  0
LINE
 62
  0
  6
CONTINUOUS
 10
73.283281
 20
-139.820820
 30
0.000000
 11
136.447950
 21
-90.147634
 31
0.000000
  0
LINE
 62
  0
  6
CONTINUOUS
 10
152.392429
 20
-29.435962
 30
0.000000
 11
148.712934
 21
-79.722397
 31
0.000000
  0
LINE
 62
  0
  6
CONTINUOUS
 10
29.129338
 20
94.440379
 30
0.000000
 11
109.464984
 21
96.893375
 31
0.000000
  0
LINE
 62
  0
  6
CONTINUOUS
 10
103.945741
 20
98.733123
 30
0.000000
 11
75.736278
 21
-87.694637
 31
0.000000
  0
LINE
 62
  0
  6
CONTINUOUS
 10
104.558991
 20
95.666877
 30
0.000000
 11
152.392429
 21
-27.596215
 31
0.000000
  0
LINE
 62
  0
  6
CONTINUOUS
 10
61.631546
 20
133.688328
 30
0.000000
 11
67.764038
 21
-30.049211
 31
0.000000
  0
LINE
 62
  0
  6
CONTINUOUS
 10
27.902839
 20
92.600631
 30
0.000000
 11
8.278864
 21
-61.938170
 31
0.000000
  0
LINE
 62
  0
  6
CONTINUOUS
 10
30.355836
 20
91.374132
 30
0.000000
 11
65.924290
 21
-24.529968
 31
0.000000
  0
LINE
 62
  0
  6
CONTINUOUS
 10
8.892114
 20
72.976656
 30
0.000000
 11
53.659306
 21
139.820820
 31
0.000000
  0
LINE
 62
  0
  6
CONTINUOUS
 10
11.345110
 20
139.820820
 30
0.000000
 11
59.178549
 21
142.273817
 31
0.000000
  0
LINE
 62
  0
  6
CONTINUOUS
 10
3.372871
 20
68.070662
 30
0.000000
 11
-38.328076
 21
59.485174
 31
0.000000
  0
LINE
 62
  0
  6
CONTINUOUS
 10
-39.554574
 20
58.258675
 30
0.000000
 11
-40.781073
 21
33.728707
 31
0.000000
  0
LINE
 62
  0
  6
CONTINUOUS
 10
-82.482019
 20
55.192429
 30
0.000000
 11
-83.708517
 21
32.502208
 31
0.000000
  0
LINE
 62
  0
  6
CONTINUOUS
 10
-28.319539
 20
-41.137222
 30
0.000000
 11
-27.476853
 21
-77.372705
 31
0.000000
  0
LINE
 62
  0
  6
CONTINUOUS
 10
74.909455
 20
-94.647762
 30
0.000000
 11
71.960056
 21
-137.203388
 31
0.000000
  0
LINE
 62
  0
  6
CONTINUOUS
 10
68.273306
 20
-32.218798
 30
0.000000
 11
143.412778
 21
-29.760965
 31
0.000000
  0
LINE
 62
  0
  6
CONTINUOUS
 10
-37.062403
 20
41.516198
 30
0.000000
 11
-2.652738
 21
102.610909
 31
0.000000
  0
LINE
 62
  0
  6
CONTINUOUS
 10
-34.955689
 20
104.717623
 30
0.000000
 11
-2.301619
 21
103.664266
 31
0.000000
  0
LINE
 62
  0
  6
CONTINUOUS
 10
-2.652738
 20
106.824337
 30
0.000000
 11
7.178595
 21
138.073931
 31
0.000000
  0
LINE
 62
  0
  6
CONTINUOUS
 10
-39.871355
 20
62.232220
 30
0.000000
 11
6.827476
 21
139.829526
 31
0.000000
  0
LINE
 62
  0
  6
CONTINUOUS
 10
-82.707877
 20
31.684865
 30
0.000000
 11
-41.275831
 21
32.035984
 31
0.000000
  0
LINE
 62
  0
  6
CONTINUOUS
 10
-36.009046
 20
144.042954
 30
0.000000
 11
-36.360165
 21
104.366504
 31
0.000000
  0
LINE
 62
  0
  6
CONTINUOUS
 10
-125.368839
 20
-96.122462
 30
0.000000
 11
-90.397383
 21
-49.774750
 31
0.000000
  0
LINE
 62
  0
  6
CONTINUOUS
 10
1.532857
 20
-79.980993
 30
0.000000
 11
74.636821
 21
-88.335732
 31
0.000000
  0
LINE
 62
  0
  6
CONTINUOUS
 10
-38.152152
 20
101.316838
 30
0.000000
 11
-80.761320
 21
36.149876
 31
0.000000
  0
LINE
 62
  0
  6
CONTINUOUS
 10
-27.465049
 20
-78.588537
 30
0.000000
 11
148.611071
 21
-81.094958
 31
0.000000
  0
LINE
 62
  0
  6
CONTINUOUS
 10
-128.975125
 20
62.397680
 30
0.000000
 11
-85.112746
 21
57.384837
 31
0.000000
  0
LINE
 62
  0
  6
CONTINUOUS
 10
5.849472
 20
70.682796
 30
0.000000
 11
2.368331
 21
-76.917589
 31
0.000000
  0
ENDSEC
  0
EOF
