  0
SECTION
  2
ENTITIES
  0
LINE
 62
  0
  6
CONTINUOUS
 10
60.898344
 20
-123.405047
 30
0.000000
 11
81.075946
 21
-126.036909
 31
0.000000
  0
LINE
 62
  0
  6
CONTINUOUS
 10
81.514590
 20
-127.352839
 30
0.000000
 11
82.391877
 21
-143.144006
 31
0.000000
  0
LINE
 62
  0
  6
CONTINUOUS
 10
84.146451
 20
-144.021293
 30
0.000000
 11
101.692192
 21
-144.459937
 31
0.000000
  0
LINE
 62
  0
  6
CONTINUOUS
 10
103.446767
 20
-131.739274
 30
0.000000
 11
105.201341
 21
-145.337224
 31
0.000000
  0
LINE
 62
  0
  6
CONTINUOUS
 10
103.885410
 20
-130.423344
 30
0.000000
 11
125.817587
 21
-131.739274
 31
0.000000
  0
LINE
 62
  0
  6
CONTINUOUS
 10
126.694874
 20
-132.177918
 30
0.000000
 11
134.590457
 21
-249.295741
 31
0.000000
  0
LINE
 62
  0
  6
CONTINUOUS
 10
126.694874
 20
-129.546057
 30
0.000000
 11
148.188407
 21
-90.068139
 31
0.000000
  0
LINE
 62
  0
  6
CONTINUOUS
 10
128.010804
 20
-90.068139
 30
0.000000
 11
145.995189
 21
-88.752208
 31
0.000000
  0
LINE
 62
  0
  6
CONTINUOUS
 10
103.008123
 20
-128.668770
 30
0.000000
 11
127.572161
 21
-91.384069
 31
0.000000
  0
LINE
 62
  0
  6
CONTINUOUS
 10
105.201341
 20
-141.828076
 30
0.000000
 11
125.817587
 21
-111.123028
 31
0.000000
  0
LINE
 62
  0
  6
CONTINUOUS
 10
128.010804
 20
-92.261356
 30
0.000000
 11
128.449448
 21
-108.929811
 31
0.000000
  0
LINE
 62
  0
  6
CONTINUOUS
 10
109.149132
 20
-111.123028
 30
0.000000
 11
125.817587
 21
-110.245741
 31
0.000000
  0
LINE
 62
  0
  6
CONTINUOUS
 10
85.901025
 20
-141.828076
 30
0.000000
 11
108.710489
 21
-113.316246
 31
0.000000
  0
LINE
 62
  0
  6
CONTINUOUS
 10
82.830521
 20
-125.159621
 30
0.000000
 11
106.517271
 21
-96.209148
 31
0.000000
  0
LINE
 62
  0
  6
CONTINUOUS
 10
62.652918
 20
-119.895899
 30
0.000000
 11
89.410174
 21
-86.997634
 31
0.000000
  0
LINE
 62
  0
  6
CONTINUOUS
 10
91.164748
 20
-86.558991
 30
0.000000
 11
106.517271
 21
-92.261356
 31
0.000000
  0
LINE
 62
  0
  6
CONTINUOUS
 10
138.538249
 20
-108.052524
 30
0.000000
 11
135.029101
 21
-246.663880
 31
0.000000
  0
LINE
 62
  0
  6
CONTINUOUS
 10
139.415536
 20
-107.613880
 30
0.000000
 11
167.050079
 21
-108.052524
 31
0.000000
  0
LINE
 62
  0
  6
CONTINUOUS
 10
148.627050
 20
-92.700000
 30
0.000000
 11
153.452129
 21
-204.992744
 31
0.000000
  0
LINE
 62
  0
  6
CONTINUOUS
 10
138.538249
 20
-109.368454
 30
0.000000
 11
154.329416
 21
-212.449685
 31
0.000000
  0
LINE
 62
  0
  6
CONTINUOUS
 10
154.768060
 20
-212.449685
 30
0.000000
 11
189.859543
 21
-212.449685
 31
0.000000
  0
LINE
 62
  0
  6
CONTINUOUS
 10
85.462382
 20
-272.543849
 30
0.000000
 11
168.366009
 21
-273.421136
 31
0.000000
  0
LINE
 62
  0
  6
CONTINUOUS
 10
169.681940
 20
-273.859779
 30
0.000000
 11
190.736830
 21
-236.575079
 31
0.000000
  0
LINE
 62
  0
  6
CONTINUOUS
 10
115.290142
 20
-229.556782
 30
0.000000
 11
188.543612
 21
-233.504574
 31
0.000000
  0
LINE
 62
  0
  6
CONTINUOUS
 10
192.491404
 20
-214.642902
 30
0.000000
 11
193.807334
 21
-232.627287
 31
0.000000
  0
LINE
 62
  0
  6
CONTINUOUS
 10
167.050079
 20
-112.438959
 30
0.000000
 11
192.052760
 21
-210.256467
 31
0.000000
  0
LINE
 62
  0
  6
CONTINUOUS
 10
60.898344
 20
-127.352839
 30
0.000000
 11
67.039353
 21
-256.752681
 31
0.000000
  0
LINE
 62
  0
  6
CONTINUOUS
 10
68.355284
 20
-258.945899
 30
0.000000
 11
81.514590
 21
-260.261830
 31
0.000000
  0
LINE
 62
  0
  6
CONTINUOUS
 10
82.830521
 20
-260.700473
 30
0.000000
 11
83.269164
 21
-272.105205
 31
0.000000
  0
LINE
 62
  0
  6
CONTINUOUS
 10
68.355284
 20
-256.314038
 30
0.000000
 11
96.428470
 21
-206.308675
 31
0.000000
  0
LINE
 62
  0
  6
CONTINUOUS
 10
96.428470
 20
-203.238170
 30
0.000000
 11
90.726104
 21
-89.190852
 31
0.000000
  0
LINE
 62
  0
  6
CONTINUOUS
 10
99.937618
 20
-207.185962
 30
0.000000
 11
110.026420
 21
-211.133754
 31
0.000000
  0
LINE
 62
  0
  6
CONTINUOUS
 10
84.146451
 20
-257.191325
 30
0.000000
 11
109.587776
 21
-214.204259
 31
0.000000
  0
LINE
 62
  0
  6
CONTINUOUS
 10
113.096924
 20
-212.011041
 30
0.000000
 11
112.219637
 21
-229.556782
 31
0.000000
  0
LINE
 62
  0
  6
CONTINUOUS
 10
88.094243
 20
-269.473344
 30
0.000000
 11
113.096924
 21
-230.872713
 31
0.000000
  0
LINE
 62
  0
  6
CONTINUOUS
 10
168.764334
 20
-272.648528
 30
0.000000
 11
174.658105
 21
-254.967215
 31
0.000000
  0
LINE
 62
  0
  6
CONTINUOUS
 10
134.952701
 20
-248.763246
 30
0.000000
 11
175.588700
 21
-253.726421
 31
0.000000
  0
LINE
 62
  0
  6
CONTINUOUS
 10
173.795179
 20
-252.308311
 30
0.000000
 11
168.217759
 21
-107.605250
 31
0.000000
  0
LINE
 62
  0
  6
CONTINUOUS
 10
107.485853
 20
-94.591270
 30
0.000000
 11
108.725280
 21
-112.253100
 31
0.000000
  0
ENDSEC
  0
EOF
