  0
SECTION
  2
ENTITIES
  0
LINE
 62
  0
  6
CONTINUOUS
 10
-150.842271
 20
85.324921
 30
0.000000
 11
-72.221451
 21
154.194322
 31
0.000000
  0
LINE
 62
  0
  6
CONTINUOUS
 10
-71.002524
 20
152.975394
 30
0.000000
 11
-36.872555
 21
144.442902
 31
0.000000
  0
LINE
 62
  0
  6
CONTINUOUS
 10
-103.304101
 20
78.620820
 30
0.000000
 11
-38.700946
 21
144.442902
 31
0.000000
  0
LINE
 62
  0
  6
CONTINUOUS
 10
-38.700946
 20
140.176656
 30
0.000000
 11
-39.310410
 21
110.922397
 31
0.000000
  0
LINE
 62
  0
  6
CONTINUOUS
 10
-37.482019
 20
110.922397
 30
0.000000
 11
-10.056151
 21
104.827760
 31
0.000000
  0
LINE
 62
  0
  6
CONTINUOUS
 10
-10.056151
 20
107.265615
 30
0.000000
 11
-1.523659
 21
135.300946
 31
0.000000
  0
LINE
 62
  0
  6
CONTINUOUS
 10
0.914196
 20
142.614511
 30
0.000000
 11
-57.594322
 21
76.792429
 31
0.000000
  0
LINE
 62
  0
  6
CONTINUOUS
 10
-53.937539
 20
76.792429
 30
0.000000
 11
-5.789905
 21
70.697792
 31
0.000000
  0
LINE
 62
  0
  6
CONTINUOUS
 10
-3.961514
 20
74.354574
 30
0.000000
 11
37.482019
 21
129.815773
 31
0.000000
  0
LINE
 62
  0
  6
CONTINUOUS
 10
2.133123
 20
140.786120
 30
0.000000
 11
34.434700
 21
127.987382
 31
0.000000
  0
LINE
 62
  0
  6
CONTINUOUS
 10
-149.623344
 20
83.496530
 30
0.000000
 11
-104.523028
 21
79.230284
 31
0.000000
  0
LINE
 62
  0
  6
CONTINUOUS
 10
-100.866246
 20
79.230284
 30
0.000000
 11
-96.600000
 21
46.319243
 31
0.000000
  0
LINE
 62
  0
  6
CONTINUOUS
 10
-95.990536
 20
43.271924
 30
0.000000
 11
-61.251104
 21
39.615142
 31
0.000000
  0
LINE
 62
  0
  6
CONTINUOUS
 10
-58.813249
 20
73.135647
 30
0.000000
 11
-60.641640
 21
42.662461
 31
0.000000
  0
LINE
 62
  0
  6
CONTINUOUS
 10
-56.375394
 20
43.881388
 30
0.000000
 11
-8.837224
 21
104.218297
 31
0.000000
  0
LINE
 62
  0
  6
CONTINUOUS
 10
-94.771609
 20
46.928707
 30
0.000000
 11
-39.919874
 21
108.484543
 31
0.000000
  0
LINE
 62
  0
  6
CONTINUOUS
 10
-149.623344
 20
80.449211
 30
0.000000
 11
-154.499054
 21
-79.230284
 31
0.000000
  0
LINE
 62
  0
  6
CONTINUOUS
 10
-153.889590
 20
-76.792429
 30
0.000000
 11
-77.706625
 21
-7.923028
 31
0.000000
  0
LINE
 62
  0
  6
CONTINUOUS
 10
-72.221451
 20
150.537539
 30
0.000000
 11
-74.659306
 21
-13.408202
 31
0.000000
  0
LINE
 62
  0
  6
CONTINUOUS
 10
-74.659306
 20
-2.437855
 30
0.000000
 11
-40.529338
 21
-11.579811
 31
0.000000
  0
LINE
 62
  0
  6
CONTINUOUS
 10
-116.102839
 20
-87.153312
 30
0.000000
 11
-48.452366
 21
-12.798738
 31
0.000000
  0
LINE
 62
  0
  6
CONTINUOUS
 10
-155.108517
 20
-80.449211
 30
0.000000
 11
-106.351420
 21
-84.105994
 31
0.000000
  0
LINE
 62
  0
  6
CONTINUOUS
 10
-102.694637
 20
-132.253628
 30
0.000000
 11
-20.417035
 21
-42.662461
 31
0.000000
  0
LINE
 62
  0
  6
CONTINUOUS
 10
-105.741956
 20
-135.910410
 30
0.000000
 11
58.813249
 21
-159.070032
 31
0.000000
  0
LINE
 62
  0
  6
CONTINUOUS
 10
61.860568
 20
-157.851104
 30
0.000000
 11
65.517350
 21
-105.437224
 31
0.000000
  0
LINE
 62
  0
  6
CONTINUOUS
 10
64.907886
 20
-163.336278
 30
0.000000
 11
114.274448
 21
-75.573502
 31
0.000000
  0
LINE
 62
  0
  6
CONTINUOUS
 10
116.712303
 20
-74.964038
 30
0.000000
 11
124.635331
 21
-42.662461
 31
0.000000
  0
LINE
 62
  0
  6
CONTINUOUS
 10
-21.635962
 20
-92.029022
 30
0.000000
 11
67.345741
 21
-102.389905
 31
0.000000
  0
LINE
 62
  0
  6
CONTINUOUS
 10
61.251104
 20
-106.046688
 30
0.000000
 11
121.588013
 21
104.218297
 31
0.000000
  0
LINE
 62
  0
  6
CONTINUOUS
 10
122.806940
 20
106.046688
 30
0.000000
 11
125.854259
 21
-42.662461
 31
0.000000
  0
LINE
 62
  0
  6
CONTINUOUS
 10
123.416404
 20
-33.520505
 30
0.000000
 11
17.369716
 21
-17.674448
 31
0.000000
  0
LINE
 62
  0
  6
CONTINUOUS
 10
15.541325
 20
-15.846057
 30
0.000000
 11
36.872555
 21
138.957729
 31
0.000000
  0
LINE
 62
  0
  6
CONTINUOUS
 10
14.322397
 20
-15.846057
 30
0.000000
 11
27.121136
 21
117.017035
 31
0.000000
  0
LINE
 62
  0
  6
CONTINUOUS
 10
30.168454
 20
120.064353
 30
0.000000
 11
116.712303
 21
100.561514
 31
0.000000
  0
LINE
 62
  0
  6
CONTINUOUS
 10
27.730599
 20
118.845426
 30
0.000000
 11
-19.198107
 21
-90.200631
 31
0.000000
  0
LINE
 62
  0
  6
CONTINUOUS
 10
-20.417035
 20
-90.200631
 30
0.000000
 11
-4.570978
 21
69.478864
 31
0.000000
  0
LINE
 62
  0
  6
CONTINUOUS
 10
-19.198107
 20
-40.224606
 30
0.000000
 11
106.960883
 21
-70.088328
 31
0.000000
  0
LINE
 62
  0
  6
CONTINUOUS
 10
-111.739914
 20
-84.759543
 30
0.000000
 11
-105.292592
 21
-133.920372
 31
0.000000
  0
LINE
 62
  0
  6
CONTINUOUS
 10
-44.043035
 20
-13.033088
 30
0.000000
 11
-20.671493
 21
-39.628290
 31
0.000000
  0
ENDSEC
  0
EOF
