  0
SECTION
  2
ENTITIES
  0
LINE
 62
  0
  6
CONTINUOUS
 10
-92.413249
 20
-175.585174
 30
0.000000
 11
-56.342271
 21
-174.988959
 31
0.000000
  0
LINE
 62
  0
  6
CONTINUOUS
 10
-56.640379
 20
-175.883281
 30
0.000000
 11
-55.746057
 21
-201.222397
 31
0.000000
  0
LINE
 62
  0
  6
CONTINUOUS
 10
-56.342271
 20
-199.135647
 30
0.000000
 11
-23.550473
 21
-198.539432
 31
0.000000
  0
LINE
 62
  0
  6
CONTINUOUS
 10
-22.059937
 20
-176.181388
 30
0.000000
 11
-22.358044
 21
-202.712934
 31
0.000000
  0
LINE
 62
  0
  6
CONTINUOUS
 10
-21.463722
 20
-176.777603
 30
0.000000
 11
8.347003
 21
-177.671924
 31
0.000000
  0
LINE
 62
  0
  6
CONTINUOUS
 10
8.943218
 20
-179.758675
 30
0.000000
 11
5.962145
 21
-284.692429
 31
0.000000
  0
LINE
 62
  0
  6
CONTINUOUS
 10
7.154574
 20
-284.096215
 30
0.000000
 11
32.493691
 21
-283.201893
 31
0.000000
  0
LINE
 62
  0
  6
CONTINUOUS
 10
54.851735
 20
-163.362776
 30
0.000000
 11
32.791798
 21
-282.903785
 31
0.000000
  0
LINE
 62
  0
  6
CONTINUOUS
 10
54.851735
 20
-164.555205
 30
0.000000
 11
70.055205
 21
-260.247634
 31
0.000000
  0
LINE
 62
  0
  6
CONTINUOUS
 10
70.949527
 20
-261.738170
 30
0.000000
 11
71.545741
 21
-279.922713
 31
0.000000
  0
LINE
 62
  0
  6
CONTINUOUS
 10
36.070978
 20
-313.310726
 30
0.000000
 11
74.228707
 21
-276.941640
 31
0.000000
  0
LINE
 62
  0
  6
CONTINUOUS
 10
-64.391167
 20
-305.559937
 30
0.000000
 11
33.388013
 21
-311.522082
 31
0.000000
  0
LINE
 62
  0
  6
CONTINUOUS
 10
-63.496845
 20
-280.220820
 30
0.000000
 11
-66.179811
 21
-306.752366
 31
0.000000
  0
LINE
 62
  0
  6
CONTINUOUS
 10
-59.025237
 20
-277.537855
 30
0.000000
 11
-33.686120
 21
-242.361199
 31
0.000000
  0
LINE
 62
  0
  6
CONTINUOUS
 10
-29.810726
 20
-238.485804
 30
0.000000
 11
-25.637224
 21
-259.949527
 31
0.000000
  0
LINE
 62
  0
  6
CONTINUOUS
 10
-56.640379
 20
-299.895899
 30
0.000000
 11
-26.233438
 21
-264.719243
 31
0.000000
  0
LINE
 62
  0
  6
CONTINUOUS
 10
-23.848580
 20
-259.949527
 30
0.000000
 11
67.074132
 21
-276.643533
 31
0.000000
  0
LINE
 62
  0
  6
CONTINUOUS
 10
42.331230
 20
-255.776025
 30
0.000000
 11
66.776025
 21
-259.055205
 31
0.000000
  0
LINE
 62
  0
  6
CONTINUOUS
 10
38.455836
 20
-144.880126
 30
0.000000
 11
36.965300
 21
-251.006309
 31
0.000000
  0
LINE
 62
  0
  6
CONTINUOUS
 10
8.645110
 20
-175.585174
 30
0.000000
 11
37.561514
 21
-143.687697
 31
0.000000
  0
LINE
 62
  0
  6
CONTINUOUS
 10
-22.358044
 20
-175.585174
 30
0.000000
 11
5.664038
 21
-139.812303
 31
0.000000
  0
LINE
 62
  0
  6
CONTINUOUS
 10
6.558360
 20
-138.917981
 30
0.000000
 11
36.965300
 21
-141.004732
 31
0.000000
  0
LINE
 62
  0
  6
CONTINUOUS
 10
3.875394
 20
-143.389590
 30
0.000000
 11
0.298107
 21
-172.305994
 31
0.000000
  0
LINE
 62
  0
  6
CONTINUOUS
 10
-21.463722
 20
-197.048896
 30
0.000000
 11
-4.769716
 21
-173.200315
 31
0.000000
  0
LINE
 62
  0
  6
CONTINUOUS
 10
-33.686120
 20
-168.132492
 30
0.000000
 11
-4.173502
 21
-170.219243
 31
0.000000
  0
LINE
 62
  0
  6
CONTINUOUS
 10
-35.474763
 20
-141.600946
 30
0.000000
 11
-34.282334
 21
-167.536278
 31
0.000000
  0
LINE
 62
  0
  6
CONTINUOUS
 10
-55.447950
 20
-196.452681
 30
0.000000
 11
-34.580442
 21
-169.623028
 31
0.000000
  0
LINE
 62
  0
  6
CONTINUOUS
 10
-56.044164
 20
-173.796530
 30
0.000000
 11
-36.369085
 21
-140.706625
 31
0.000000
  0
LINE
 62
  0
  6
CONTINUOUS
 10
-89.432177
 20
-171.709779
 30
0.000000
 11
-60.515773
 21
-137.427445
 31
0.000000
  0
LINE
 62
  0
  6
CONTINUOUS
 10
-62.304416
 20
-140.706625
 30
0.000000
 11
-37.263407
 21
-139.216088
 31
0.000000
  0
LINE
 62
  0
  6
CONTINUOUS
 10
-61.410095
 20
-143.091483
 30
0.000000
 11
-55.746057
 21
-228.350158
 31
0.000000
  0
LINE
 62
  0
  6
CONTINUOUS
 10
-92.115142
 20
-174.988959
 30
0.000000
 11
-91.817035
 21
-273.364353
 31
0.000000
  0
LINE
 62
  0
  6
CONTINUOUS
 10
-93.307571
 20
-275.152997
 30
0.000000
 11
-62.900631
 21
-279.624606
 31
0.000000
  0
LINE
 62
  0
  6
CONTINUOUS
 10
-87.047319
 20
-269.787066
 30
0.000000
 11
-57.832808
 21
-236.399054
 31
0.000000
  0
LINE
 62
  0
  6
CONTINUOUS
 10
25.041009
 20
-161.872240
 30
0.000000
 11
52.764984
 21
-163.660883
 31
0.000000
  0
LINE
 62
  0
  6
CONTINUOUS
 10
24.742902
 20
-162.468454
 30
0.000000
 11
7.452681
 21
-281.413249
 31
0.000000
  0
LINE
 62
  0
  6
CONTINUOUS
 10
25.339117
 20
-162.766562
 30
0.000000
 11
36.070978
 21
-255.477918
 31
0.000000
  0
LINE
 62
  0
  6
CONTINUOUS
 10
-58.599685
 20
-231.786249
 30
0.000000
 11
-30.032955
 21
-238.410419
 31
0.000000
  0
LINE
 62
  0
  6
CONTINUOUS
 10
32.482641
 20
-284.365592
 30
0.000000
 11
34.966704
 21
-313.760343
 31
0.000000
  0
ENDSEC
  0
EOF
