  0
SECTION
  2
ENTITIES
  0
LINE
 62
  0
  6
CONTINUOUS
 10
-113.682965
 20
-184.239748
 30
0.000000
 11
-77.011041
 21
-139.353312
 31
0.000000
  0
LINE
 62
  0
  6
CONTINUOUS
 10
-75.544164
 20
-139.059937
 30
0.000000
 11
-61.462145
 21
-141.406940
 31
0.000000
  0
LINE
 62
  0
  6
CONTINUOUS
 10
-60.875394
 20
-141.406940
 30
0.000000
 11
-67.623028
 21
-168.104101
 31
0.000000
  0
LINE
 62
  0
  6
CONTINUOUS
 10
-67.623028
 20
-163.996845
 30
0.000000
 11
-51.194006
 21
-163.410095
 31
0.000000
  0
LINE
 62
  0
  6
CONTINUOUS
 10
-50.313880
 20
-164.290221
 30
0.000000
 11
-40.925868
 21
-143.167192
 31
0.000000
  0
LINE
 62
  0
  6
CONTINUOUS
 10
-42.686120
 20
-141.993691
 30
0.000000
 11
-22.149842
 21
-145.220820
 31
0.000000
  0
LINE
 62
  0
  6
CONTINUOUS
 10
-47.966877
 20
-185.119874
 30
0.000000
 11
-22.149842
 21
-148.154574
 31
0.000000
  0
LINE
 62
  0
  6
CONTINUOUS
 10
-71.436909
 20
-183.359621
 30
0.000000
 11
-41.805994
 21
-141.406940
 31
0.000000
  0
LINE
 62
  0
  6
CONTINUOUS
 10
-92.853312
 20
-184.533123
 30
0.000000
 11
-62.048896
 21
-142.287066
 31
0.000000
  0
LINE
 62
  0
  6
CONTINUOUS
 10
-113.682965
 20
-185.119874
 30
0.000000
 11
-95.787066
 21
-188.053628
 31
0.000000
  0
LINE
 62
  0
  6
CONTINUOUS
 10
-94.613565
 20
-185.706625
 30
0.000000
 11
-94.320189
 21
-207.709779
 31
0.000000
  0
LINE
 62
  0
  6
CONTINUOUS
 10
-93.146688
 20
-207.416404
 30
0.000000
 11
-74.077287
 21
-205.362776
 31
0.000000
  0
LINE
 62
  0
  6
CONTINUOUS
 10
-72.610410
 20
-186.586751
 30
0.000000
 11
-74.077287
 21
-206.242902
 31
0.000000
  0
LINE
 62
  0
  6
CONTINUOUS
 10
-70.850158
 20
-186.293375
 30
0.000000
 11
-50.313880
 21
-187.466877
 31
0.000000
  0
LINE
 62
  0
  6
CONTINUOUS
 10
-49.140379
 20
-187.466877
 30
0.000000
 11
-48.847003
 21
-280.760252
 31
0.000000
  0
LINE
 62
  0
  6
CONTINUOUS
 10
-48.553628
 20
-278.119874
 30
0.000000
 11
-33.298107
 21
-161.943218
 31
0.000000
  0
LINE
 62
  0
  6
CONTINUOUS
 10
-35.938486
 20
-164.876972
 30
0.000000
 11
-5.720820
 21
-171.624606
 31
0.000000
  0
LINE
 62
  0
  6
CONTINUOUS
 10
-3.373817
 20
-167.810726
 30
0.000000
 11
-23.616719
 21
-282.813880
 31
0.000000
  0
LINE
 62
  0
  6
CONTINUOUS
 10
-48.847003
 20
-281.933754
 30
0.000000
 11
-22.443218
 21
-284.280757
 31
0.000000
  0
LINE
 62
  0
  6
CONTINUOUS
 10
-20.976341
 20
-147.861199
 30
0.000000
 11
-27.430599
 21
-231.179811
 31
0.000000
  0
LINE
 62
  0
  6
CONTINUOUS
 10
-35.938486
 20
-164.876972
 30
0.000000
 11
-27.137224
 21
-234.406940
 31
0.000000
  0
LINE
 62
  0
  6
CONTINUOUS
 10
-25.376972
 20
-234.700315
 30
0.000000
 11
5.134069
 21
-235.580442
 31
0.000000
  0
LINE
 62
  0
  6
CONTINUOUS
 10
-4.840694
 20
-174.558360
 30
0.000000
 11
5.720820
 21
-233.820189
 31
0.000000
  0
LINE
 62
  0
  6
CONTINUOUS
 10
5.720820
 20
-235.873817
 30
0.000000
 11
7.187697
 21
-252.889590
 31
0.000000
  0
LINE
 62
  0
  6
CONTINUOUS
 10
-23.616719
 20
-285.454259
 30
0.000000
 11
-23.616719
 21
-303.936909
 31
0.000000
  0
LINE
 62
  0
  6
CONTINUOUS
 10
-22.443218
 20
-303.350158
 30
0.000000
 11
7.187697
 21
-255.529968
 31
0.000000
  0
LINE
 62
  0
  6
CONTINUOUS
 10
-63.222397
 20
-254.649842
 30
0.000000
 11
8.361199
 21
-254.356467
 31
0.000000
  0
LINE
 62
  0
  6
CONTINUOUS
 10
-63.515773
 20
-233.526814
 30
0.000000
 11
-63.809148
 21
-254.356467
 31
0.000000
  0
LINE
 62
  0
  6
CONTINUOUS
 10
-85.518927
 20
-279.293375
 30
0.000000
 11
-86.399054
 21
-303.936909
 31
0.000000
  0
LINE
 62
  0
  6
CONTINUOUS
 10
-85.812303
 20
-301.589905
 30
0.000000
 11
-63.222397
 21
-254.649842
 31
0.000000
  0
LINE
 62
  0
  6
CONTINUOUS
 10
-85.518927
 20
-275.479495
 30
0.000000
 11
-64.102524
 21
-234.993691
 31
0.000000
  0
LINE
 62
  0
  6
CONTINUOUS
 10
-117.496845
 20
-276.359621
 30
0.000000
 11
-87.865931
 21
-231.179811
 31
0.000000
  0
LINE
 62
  0
  6
CONTINUOUS
 10
-86.692429
 20
-231.473186
 30
0.000000
 11
-64.102524
 21
-232.353312
 31
0.000000
  0
LINE
 62
  0
  6
CONTINUOUS
 10
-116.616719
 20
-278.119874
 30
0.000000
 11
-87.279180
 21
-276.946372
 31
0.000000
  0
LINE
 62
  0
  6
CONTINUOUS
 10
-84.638801
 20
-303.350158
 30
0.000000
 11
-25.083596
 21
-303.936909
 31
0.000000
  0
LINE
 62
  0
  6
CONTINUOUS
 10
-114.563091
 20
-187.173502
 30
0.000000
 11
-119.550473
 21
-277.239748
 31
0.000000
  0
LINE
 62
  0
  6
CONTINUOUS
 10
-85.518927
 20
-228.246057
 30
0.000000
 11
-75.837539
 21
-141.113565
 31
0.000000
  0
ENDSEC
  0
EOF
