  0
SECTION
  2
ENTITIES
  0
LINE
 62
  0
  6
CONTINUOUS
 10
42.297161
 20
-121.798107
 30
0.000000
 11
81.272555
 21
-88.580442
 31
0.000000
  0
LINE
 62
  0
  6
CONTINUOUS
 10
82.601262
 20
-89.023344
 30
0.000000
 11
105.632177
 21
-89.909148
 31
0.000000
  0
LINE
 62
  0
  6
CONTINUOUS
 10
107.403785
 20
-89.909148
 30
0.000000
 11
71.085804
 21
-132.870662
 31
0.000000
  0
LINE
 62
  0
  6
CONTINUOUS
 10
43.182965
 20
-122.683912
 30
0.000000
 11
70.642902
 21
-133.313565
 31
0.000000
  0
LINE
 62
  0
  6
CONTINUOUS
 10
69.757098
 20
-134.199369
 30
0.000000
 11
70.200000
 21
-154.129968
 31
0.000000
  0
LINE
 62
  0
  6
CONTINUOUS
 10
71.085804
 20
-155.458675
 30
0.000000
 11
97.217035
 21
-164.759621
 31
0.000000
  0
LINE
 62
  0
  6
CONTINUOUS
 10
98.988644
 20
-145.271924
 30
0.000000
 11
96.774132
 21
-162.988013
 31
0.000000
  0
LINE
 62
  0
  6
CONTINUOUS
 10
99.874448
 20
-144.829022
 30
0.000000
 11
120.247950
 21
-144.829022
 31
0.000000
  0
LINE
 62
  0
  6
CONTINUOUS
 10
120.247950
 20
-146.157729
 30
0.000000
 11
130.877603
 21
-217.907886
 31
0.000000
  0
LINE
 62
  0
  6
CONTINUOUS
 10
127.334385
 20
-237.838486
 30
0.000000
 11
144.607571
 21
-121.355205
 31
0.000000
  0
LINE
 62
  0
  6
CONTINUOUS
 10
145.050473
 20
-120.026498
 30
0.000000
 11
180.482650
 21
-210.378549
 31
0.000000
  0
LINE
 62
  0
  6
CONTINUOUS
 10
181.368454
 20
-209.492744
 30
0.000000
 11
210.157098
 21
-207.721136
 31
0.000000
  0
LINE
 62
  0
  6
CONTINUOUS
 10
211.485804
 20
-207.721136
 30
0.000000
 11
210.600000
 21
-221.451104
 31
0.000000
  0
LINE
 62
  0
  6
CONTINUOUS
 10
170.295899
 20
-245.367823
 30
0.000000
 11
179.596845
 21
-266.184227
 31
0.000000
  0
LINE
 62
  0
  6
CONTINUOUS
 10
180.925552
 20
-264.412618
 30
0.000000
 11
209.714196
 21
-224.994322
 31
0.000000
  0
LINE
 62
  0
  6
CONTINUOUS
 10
210.157098
 20
-223.222713
 30
0.000000
 11
125.119874
 21
-217.464984
 31
0.000000
  0
LINE
 62
  0
  6
CONTINUOUS
 10
115.818927
 20
-178.046688
 30
0.000000
 11
126.891483
 21
-213.921767
 31
0.000000
  0
LINE
 62
  0
  6
CONTINUOUS
 10
126.005678
 20
-214.364669
 30
0.000000
 11
79.943849
 21
-262.198107
 31
0.000000
  0
LINE
 62
  0
  6
CONTINUOUS
 10
118.033438
 20
-174.503470
 30
0.000000
 11
78.615142
 21
-228.537539
 31
0.000000
  0
LINE
 62
  0
  6
CONTINUOUS
 10
89.244795
 20
-175.389274
 30
0.000000
 11
46.283281
 21
-224.551420
 31
0.000000
  0
LINE
 62
  0
  6
CONTINUOUS
 10
50.269401
 20
-224.551420
 30
0.000000
 11
76.400631
 21
-228.537539
 31
0.000000
  0
LINE
 62
  0
  6
CONTINUOUS
 10
79.058044
 20
-229.866246
 30
0.000000
 11
79.058044
 21
-264.855521
 31
0.000000
  0
LINE
 62
  0
  6
CONTINUOUS
 10
78.172240
 20
-267.070032
 30
0.000000
 11
177.382334
 21
-267.070032
 31
0.000000
  0
LINE
 62
  0
  6
CONTINUOUS
 10
128.220189
 20
-240.052997
 30
0.000000
 11
168.524290
 21
-247.139432
 31
0.000000
  0
LINE
 62
  0
  6
CONTINUOUS
 10
168.967192
 20
-243.596215
 30
0.000000
 11
184.025868
 21
-132.870662
 31
0.000000
  0
LINE
 62
  0
  6
CONTINUOUS
 10
186.240379
 20
-130.213249
 30
0.000000
 11
211.485804
 21
-205.063722
 31
0.000000
  0
LINE
 62
  0
  6
CONTINUOUS
 10
145.936278
 20
-119.583596
 30
0.000000
 11
181.811356
 21
-127.998738
 31
0.000000
  0
LINE
 62
  0
  6
CONTINUOUS
 10
164.095268
 20
-95.223975
 30
0.000000
 11
162.766562
 21
-140.400000
 31
0.000000
  0
LINE
 62
  0
  6
CONTINUOUS
 10
108.289590
 20
-91.680757
 30
0.000000
 11
109.618297
 21
-115.597476
 31
0.000000
  0
LINE
 62
  0
  6
CONTINUOUS
 10
109.618297
 20
-117.369085
 30
0.000000
 11
133.535016
 21
-120.912303
 31
0.000000
  0
LINE
 62
  0
  6
CONTINUOUS
 10
137.521136
 20
-119.140694
 30
0.000000
 11
137.078233
 21
-87.694637
 31
0.000000
  0
LINE
 62
  0
  6
CONTINUOUS
 10
139.292744
 20
-88.580442
 30
0.000000
 11
165.423975
 21
-91.237855
 31
0.000000
  0
LINE
 62
  0
  6
CONTINUOUS
 10
45.397476
 20
-126.670032
 30
0.000000
 11
48.940694
 21
-222.779811
 31
0.000000
  0
LINE
 62
  0
  6
CONTINUOUS
 10
84.815773
 20
-89.466246
 30
0.000000
 11
90.130599
 21
-173.617666
 31
0.000000
  0
LINE
 62
  0
  6
CONTINUOUS
 10
93.230915
 20
-174.503470
 30
0.000000
 11
117.590536
 21
-174.946372
 31
0.000000
  0
LINE
 62
  0
  6
CONTINUOUS
 10
71.190330
 20
-154.507728
 30
0.000000
 11
109.215650
 21
-116.482407
 31
0.000000
  0
LINE
 62
  0
  6
CONTINUOUS
 10
134.763912
 20
-91.528291
 30
0.000000
 11
96.738592
 21
-142.624815
 31
0.000000
  0
LINE
 62
  0
  6
CONTINUOUS
 10
98.818101
 20
-164.014058
 30
0.000000
 11
158.826810
 21
-98.955111
 31
0.000000
  0
ENDSEC
  0
EOF
