  0
SECTION
  2
ENTITIES
  0
LINE
 62
  0
  6
CONTINUOUS
 10
-91.446293
 20
-266.567035
 30
0.000000
 11
-51.352287
 21
-224.729811
 31
0.000000
  0
LINE
 62
  0
  6
CONTINUOUS
 10
-49.609069
 20
-225.601420
 30
0.000000
 11
-29.562066
 21
-228.652050
 31
0.000000
  0
LINE
 62
  0
  6
CONTINUOUS
 10
-68.348659
 20
-267.874448
 30
0.000000
 11
-33.920110
 21
-229.523659
 31
0.000000
  0
LINE
 62
  0
  6
CONTINUOUS
 10
-90.138880
 20
-267.438644
 30
0.000000
 11
-72.706703
 21
-267.438644
 31
0.000000
  0
LINE
 62
  0
  6
CONTINUOUS
 10
-67.477050
 20
-287.049842
 30
0.000000
 11
-29.997871
 21
-249.134858
 31
0.000000
  0
LINE
 62
  0
  6
CONTINUOUS
 10
-68.348659
 20
-287.485647
 30
0.000000
 11
9.660331
 21
-301.431388
 31
0.000000
  0
LINE
 62
  0
  6
CONTINUOUS
 10
10.967744
 20
-276.154732
 30
0.000000
 11
10.531940
 21
-299.252366
 31
0.000000
  0
LINE
 62
  0
  6
CONTINUOUS
 10
12.710962
 20
-297.944953
 30
0.000000
 11
51.061751
 21
-266.131230
 31
0.000000
  0
LINE
 62
  0
  6
CONTINUOUS
 10
52.804968
 20
-246.084227
 30
0.000000
 11
52.804968
 21
-263.952208
 31
0.000000
  0
LINE
 62
  0
  6
CONTINUOUS
 10
13.146767
 20
-273.104101
 30
0.000000
 11
41.038249
 21
-162.845584
 31
0.000000
  0
LINE
 62
  0
  6
CONTINUOUS
 10
41.038249
 20
-161.538170
 30
0.000000
 11
52.804968
 21
-243.905205
 31
0.000000
  0
LINE
 62
  0
  6
CONTINUOUS
 10
28.835726
 20
-239.547161
 30
0.000000
 11
51.933360
 21
-243.469401
 31
0.000000
  0
LINE
 62
  0
  6
CONTINUOUS
 10
29.271530
 20
-241.726183
 30
0.000000
 11
34.501183
 21
-146.720820
 31
0.000000
  0
LINE
 62
  0
  6
CONTINUOUS
 10
21.862855
 20
-159.359148
 30
0.000000
 11
28.399921
 21
-240.854574
 31
0.000000
  0
LINE
 62
  0
  6
CONTINUOUS
 10
23.170268
 20
-158.923344
 30
0.000000
 11
42.345662
 21
-162.845584
 31
0.000000
  0
LINE
 62
  0
  6
CONTINUOUS
 10
21.427050
 20
-158.923344
 30
0.000000
 11
-6.900237
 21
-270.925079
 31
0.000000
  0
LINE
 62
  0
  6
CONTINUOUS
 10
-5.157019
 20
-273.539905
 30
0.000000
 11
3.559069
 21
-171.125868
 31
0.000000
  0
LINE
 62
  0
  6
CONTINUOUS
 10
4.430678
 20
-168.511041
 30
0.000000
 11
33.629574
 21
-145.413407
 31
0.000000
  0
LINE
 62
  0
  6
CONTINUOUS
 10
-8.643454
 20
-272.232492
 30
0.000000
 11
10.967744
 21
-273.539905
 31
0.000000
  0
LINE
 62
  0
  6
CONTINUOUS
 10
-29.997871
 20
-169.382650
 30
0.000000
 11
2.251656
 21
-169.818454
 31
0.000000
  0
LINE
 62
  0
  6
CONTINUOUS
 10
-29.562066
 20
-170.254259
 30
0.000000
 11
-30.433675
 21
-190.737066
 31
0.000000
  0
LINE
 62
  0
  6
CONTINUOUS
 10
-55.274527
 20
-188.558044
 30
0.000000
 11
-32.176893
 21
-191.172871
 31
0.000000
  0
LINE
 62
  0
  6
CONTINUOUS
 10
-56.581940
 20
-168.511041
 30
0.000000
 11
-56.146136
 21
-195.530915
 31
0.000000
  0
LINE
 62
  0
  6
CONTINUOUS
 10
-56.146136
 20
-168.511041
 30
0.000000
 11
-19.974369
 21
-137.133123
 31
0.000000
  0
LINE
 62
  0
  6
CONTINUOUS
 10
-19.974369
 20
-138.440536
 30
0.000000
 11
-22.153391
 21
-157.180126
 31
0.000000
  0
LINE
 62
  0
  6
CONTINUOUS
 10
-54.838722
 20
-186.814826
 30
0.000000
 11
-22.589196
 21
-157.615931
 31
0.000000
  0
LINE
 62
  0
  6
CONTINUOUS
 10
-21.281782
 20
-156.308517
 30
0.000000
 11
0.944243
 21
-161.102366
 31
0.000000
  0
LINE
 62
  0
  6
CONTINUOUS
 10
4.866483
 20
-142.362776
 30
0.000000
 11
1.815852
 21
-161.538170
 31
0.000000
  0
LINE
 62
  0
  6
CONTINUOUS
 10
-28.690457
 20
-189.429653
 30
0.000000
 11
0.944243
 21
-161.973975
 31
0.000000
  0
LINE
 62
  0
  6
CONTINUOUS
 10
-27.383044
 20
-167.203628
 30
0.000000
 11
3.994874
 21
-141.926972
 31
0.000000
  0
LINE
 62
  0
  6
CONTINUOUS
 10
6.173896
 20
-139.747950
 30
0.000000
 11
31.014748
 21
-144.977603
 31
0.000000
  0
LINE
 62
  0
  6
CONTINUOUS
 10
-40.021372
 20
-132.339274
 30
0.000000
 11
-22.153391
 21
-136.261514
 31
0.000000
  0
LINE
 62
  0
  6
CONTINUOUS
 10
-42.200394
 20
-132.339274
 30
0.000000
 11
-81.858596
 21
-158.487539
 31
0.000000
  0
LINE
 62
  0
  6
CONTINUOUS
 10
-82.730205
 20
-159.794953
 30
0.000000
 11
-91.010489
 21
-264.823817
 31
0.000000
  0
LINE
 62
  0
  6
CONTINUOUS
 10
-81.422792
 20
-160.666562
 30
0.000000
 11
-57.889353
 21
-165.024606
 31
0.000000
  0
LINE
 62
  0
  6
CONTINUOUS
 10
-54.402918
 20
-222.550789
 30
0.000000
 11
-41.764590
 21
-134.954101
 31
0.000000
  0
LINE
 62
  0
  6
CONTINUOUS
 10
-24.332413
 20
-249.570662
 30
0.000000
 11
48.882729
 21
-261.773186
 31
0.000000
  0
LINE
 62
  0
  6
CONTINUOUS
 10
-32.410280
 20
-229.116613
 30
0.000000
 11
-28.976938
 21
-251.004171
 31
0.000000
  0
LINE
 62
  0
  6
CONTINUOUS
 10
-70.606215
 20
-265.595877
 30
0.000000
 11
-68.460376
 21
-288.341770
 31
0.000000
  0
ENDSEC
  0
EOF
