  0
SECTION
  2
ENTITIES
  0
LINE
 62
  0
  6
CONTINUOUS
 10
62.469795
 20
-120.922240
 30
0.000000
 11
113.088407
 21
-66.688013
 31
0.000000
  0
LINE
 62
  0
  6
CONTINUOUS
 10
114.695347
 20
-65.482808
 30
0.000000
 11
113.088407
 21
-188.011987
 31
0.000000
  0
LINE
 62
  0
  6
CONTINUOUS
 10
68.094085
 20
-227.783754
 30
0.000000
 11
113.088407
 21
-191.225868
 31
0.000000
  0
LINE
 62
  0
  6
CONTINUOUS
 10
115.097082
 20
-189.618927
 30
0.000000
 11
138.397713
 21
-188.011987
 31
0.000000
  0
LINE
 62
  0
  6
CONTINUOUS
 10
139.201183
 20
-187.208517
 30
0.000000
 11
137.594243
 21
-218.543849
 31
0.000000
  0
LINE
 62
  0
  6
CONTINUOUS
 10
92.599921
 20
-225.775079
 30
0.000000
 11
137.192508
 21
-190.824132
 31
0.000000
  0
LINE
 62
  0
  6
CONTINUOUS
 10
61.666325
 20
-121.725710
 30
0.000000
 11
66.888880
 21
-226.176814
 31
0.000000
  0
LINE
 62
  0
  6
CONTINUOUS
 10
63.273265
 20
-121.323975
 30
0.000000
 11
89.386041
 21
-116.101420
 31
0.000000
  0
LINE
 62
  0
  6
CONTINUOUS
 10
90.591246
 20
-116.101420
 30
0.000000
 11
90.591246
 21
-149.043691
 31
0.000000
  0
LINE
 62
  0
  6
CONTINUOUS
 10
92.599921
 20
-115.297950
 30
0.000000
 11
131.568218
 21
-68.294953
 31
0.000000
  0
LINE
 62
  0
  6
CONTINUOUS
 10
115.900552
 20
-64.679338
 30
0.000000
 11
129.961278
 21
-67.089748
 31
0.000000
  0
LINE
 62
  0
  6
CONTINUOUS
 10
131.568218
 20
-69.500158
 30
0.000000
 11
132.371688
 21
-95.612934
 31
0.000000
  0
LINE
 62
  0
  6
CONTINUOUS
 10
90.591246
 20
-147.035016
 30
0.000000
 11
131.568218
 21
-97.621609
 31
0.000000
  0
LINE
 62
  0
  6
CONTINUOUS
 10
111.481467
 20
-118.511830
 30
0.000000
 11
148.441088
 21
-74.722713
 31
0.000000
  0
LINE
 62
  0
  6
CONTINUOUS
 10
148.842823
 20
-77.133123
 30
0.000000
 11
148.441088
 21
-96.014669
 31
0.000000
  0
LINE
 62
  0
  6
CONTINUOUS
 10
149.646293
 20
-74.320978
 30
0.000000
 11
171.741719
 21
-73.115773
 31
0.000000
  0
LINE
 62
  0
  6
CONTINUOUS
 10
172.143454
 20
-73.517508
 30
0.000000
 11
137.192508
 21
-122.127445
 31
0.000000
  0
LINE
 62
  0
  6
CONTINUOUS
 10
134.380363
 20
-120.118770
 30
0.000000
 11
141.611593
 21
-219.749054
 31
0.000000
  0
LINE
 62
  0
  6
CONTINUOUS
 10
154.868849
 20
-95.211199
 30
0.000000
 11
145.227208
 21
-220.552524
 31
0.000000
  0
LINE
 62
  0
  6
CONTINUOUS
 10
111.481467
 20
-119.717035
 30
0.000000
 11
111.079732
 21
-144.624606
 31
0.000000
  0
LINE
 62
  0
  6
CONTINUOUS
 10
91.394716
 20
-148.641956
 30
0.000000
 11
109.874527
 21
-145.026341
 31
0.000000
  0
LINE
 62
  0
  6
CONTINUOUS
 10
113.088407
 20
-142.214196
 30
0.000000
 11
151.253233
 21
-96.818139
 31
0.000000
  0
LINE
 62
  0
  6
CONTINUOUS
 10
133.978628
 20
-97.621609
 30
0.000000
 11
146.834148
 21
-98.826814
 31
0.000000
  0
LINE
 62
  0
  6
CONTINUOUS
 10
154.868849
 20
-96.014669
 30
0.000000
 11
180.178155
 21
-170.737382
 31
0.000000
  0
LINE
 62
  0
  6
CONTINUOUS
 10
173.750394
 20
-73.919243
 30
0.000000
 11
179.776420
 21
-170.737382
 31
0.000000
  0
LINE
 62
  0
  6
CONTINUOUS
 10
180.981625
 20
-172.344322
 30
0.000000
 11
224.770741
 21
-177.566877
 31
0.000000
  0
LINE
 62
  0
  6
CONTINUOUS
 10
210.710016
 20
-95.612934
 30
0.000000
 11
209.504811
 21
-212.517823
 31
0.000000
  0
LINE
 62
  0
  6
CONTINUOUS
 10
210.710016
 20
-95.211199
 30
0.000000
 11
223.163801
 21
-173.147792
 31
0.000000
  0
LINE
 62
  0
  6
CONTINUOUS
 10
156.074054
 20
-95.211199
 30
0.000000
 11
207.897871
 21
-93.604259
 31
0.000000
  0
LINE
 62
  0
  6
CONTINUOUS
 10
225.975946
 20
-182.387697
 30
0.000000
 11
225.975946
 21
-209.705678
 31
0.000000
  0
LINE
 62
  0
  6
CONTINUOUS
 10
231.198502
 20
-212.517823
 30
0.000000
 11
218.342981
 21
-246.263565
 31
0.000000
  0
LINE
 62
  0
  6
CONTINUOUS
 10
69.299290
 20
-228.988959
 30
0.000000
 11
86.975631
 21
-230.595899
 31
0.000000
  0
LINE
 62
  0
  6
CONTINUOUS
 10
88.582571
 20
-231.399369
 30
0.000000
 11
89.787776
 21
-252.289590
 31
0.000000
  0
LINE
 62
  0
  6
CONTINUOUS
 10
92.599921
 20
-251.887855
 30
0.000000
 11
209.504811
 21
-246.665300
 31
0.000000
  0
LINE
 62
  0
  6
CONTINUOUS
 10
213.923896
 20
-217.740379
 30
0.000000
 11
215.530836
 21
-247.067035
 31
0.000000
  0
LINE
 62
  0
  6
CONTINUOUS
 10
210.308281
 20
-216.535174
 30
0.000000
 11
146.030678
 21
-220.150789
 31
0.000000
  0
LINE
 62
  0
  6
CONTINUOUS
 10
139.201183
 20
-220.150789
 30
0.000000
 11
227.984621
 21
-212.517823
 31
0.000000
  0
ENDSEC
  0
EOF
