  0
SECTION
  2
ENTITIES
  0
LINE
 62
  0
  6
CONTINUOUS
 10
-116.684148
 20
90.177445
 30
0.000000
 11
-73.508281
 21
90.723975
 31
0.000000
  0
LINE
 62
  0
  6
CONTINUOUS
 10
-74.601341
 20
86.898265
 30
0.000000
 11
-71.322161
 21
49.734227
 31
0.000000
  0
LINE
 62
  0
  6
CONTINUOUS
 10
-84.438880
 20
78.700315
 30
0.000000
 11
-16.669164
 21
137.725552
 31
0.000000
  0
LINE
 62
  0
  6
CONTINUOUS
 10
-11.750394
 20
139.911672
 30
0.000000
 11
-16.669164
 21
97.828864
 31
0.000000
  0
LINE
 62
  0
  6
CONTINUOUS
 10
-14.483044
 20
98.375394
 30
0.000000
 11
31.972003
 21
97.282334
 31
0.000000
  0
LINE
 62
  0
  6
CONTINUOUS
 10
33.065063
 20
99.468454
 30
0.000000
 11
36.344243
 21
139.365142
 31
0.000000
  0
LINE
 62
  0
  6
CONTINUOUS
 10
37.983833
 20
139.911672
 30
0.000000
 11
80.613170
 21
127.341483
 31
0.000000
  0
LINE
 62
  0
  6
CONTINUOUS
 10
-13.936514
 20
81.979495
 30
0.000000
 11
34.704653
 21
137.179022
 31
0.000000
  0
LINE
 62
  0
  6
CONTINUOUS
 10
-15.029574
 20
80.886435
 30
0.000000
 11
-18.308754
 21
47.548107
 31
0.000000
  0
LINE
 62
  0
  6
CONTINUOUS
 10
-19.948344
 20
43.175868
 30
0.000000
 11
27.053233
 21
95.642744
 31
0.000000
  0
LINE
 62
  0
  6
CONTINUOUS
 10
-67.496451
 20
48.641167
 30
0.000000
 11
-17.762224
 21
95.642744
 31
0.000000
  0
LINE
 62
  0
  6
CONTINUOUS
 10
-47.821372
 20
150.842271
 30
0.000000
 11
-47.274842
 21
-19.675079
 31
0.000000
  0
LINE
 62
  0
  6
CONTINUOUS
 10
-10.110804
 20
-33.338328
 30
0.000000
 11
-5.192035
 21
-68.862776
 31
0.000000
  0
LINE
 62
  0
  6
CONTINUOUS
 10
-6.285095
 20
-69.955836
 30
0.000000
 11
129.254338
 21
-59.571767
 31
0.000000
  0
LINE
 62
  0
  6
CONTINUOUS
 10
26.506703
 20
71.595426
 30
0.000000
 11
78.427050
 21
123.515773
 31
0.000000
  0
LINE
 62
  0
  6
CONTINUOUS
 10
59.298502
 20
101.654574
 30
0.000000
 11
93.729890
 21
102.747634
 31
0.000000
  0
LINE
 62
  0
  6
CONTINUOUS
 10
58.751972
 20
99.468454
 30
0.000000
 11
82.252760
 21
-20.221609
 31
0.000000
  0
LINE
 62
  0
  6
CONTINUOUS
 10
58.205442
 20
92.363565
 30
0.000000
 11
25.413644
 21
-105.480284
 31
0.000000
  0
LINE
 62
  0
  6
CONTINUOUS
 10
25.413644
 20
70.502366
 30
0.000000
 11
22.134464
 21
-100.014984
 31
0.000000
  0
LINE
 62
  0
  6
CONTINUOUS
 10
24.867114
 20
-104.387224
 30
0.000000
 11
70.775631
 21
-101.108044
 31
0.000000
  0
LINE
 62
  0
  6
CONTINUOUS
 10
72.415221
 20
-96.735804
 30
0.000000
 11
96.462539
 21
100.561514
 31
0.000000
  0
LINE
 62
  0
  6
CONTINUOUS
 10
96.462539
 20
100.561514
 30
0.000000
 11
140.184937
 21
-6.011830
 31
0.000000
  0
LINE
 62
  0
  6
CONTINUOUS
 10
141.824527
 20
-8.197950
 30
0.000000
 11
140.184937
 21
-59.571767
 31
0.000000
  0
LINE
 62
  0
  6
CONTINUOUS
 10
74.054811
 20
-104.387224
 30
0.000000
 11
72.961751
 21
-144.830442
 31
0.000000
  0
LINE
 62
  0
  6
CONTINUOUS
 10
76.240931
 20
-143.737382
 30
0.000000
 11
140.731467
 21
-59.571767
 31
0.000000
  0
LINE
 62
  0
  6
CONTINUOUS
 10
-123.789038
 20
93.456625
 30
0.000000
 11
-51.647082
 21
148.656151
 31
0.000000
  0
LINE
 62
  0
  6
CONTINUOUS
 10
-45.088722
 20
150.295741
 30
0.000000
 11
-13.389984
 21
143.190852
 31
0.000000
  0
LINE
 62
  0
  6
CONTINUOUS
 10
-121.602918
 20
97.282334
 30
0.000000
 11
-127.614748
 21
-107.666404
 31
0.000000
  0
LINE
 62
  0
  6
CONTINUOUS
 10
-122.695978
 20
-104.387224
 30
0.000000
 11
-45.635252
 21
-22.954259
 31
0.000000
  0
LINE
 62
  0
  6
CONTINUOUS
 10
-125.428628
 20
-106.026814
 30
0.000000
 11
-74.054811
 21
-104.933754
 31
0.000000
  0
LINE
 62
  0
  6
CONTINUOUS
 10
-73.508281
 20
-107.119874
 30
0.000000
 11
-74.054811
 21
-150.295741
 31
0.000000
  0
LINE
 62
  0
  6
CONTINUOUS
 10
-69.136041
 20
-103.294164
 30
0.000000
 11
-10.110804
 21
-31.698738
 31
0.000000
  0
LINE
 62
  0
  6
CONTINUOUS
 10
-70.775631
 20
-146.470032
 30
0.000000
 11
-4.645505
 21
-72.688486
 31
0.000000
  0
LINE
 62
  0
  6
CONTINUOUS
 10
-71.322161
 20
-149.202681
 30
0.000000
 11
70.229101
 21
-147.563091
 31
0.000000
  0
LINE
 62
  0
  6
CONTINUOUS
 10
82.799290
 20
125.155363
 30
0.000000
 11
81.706230
 21
-6.011830
 31
0.000000
  0
LINE
 62
  0
  6
CONTINUOUS
 10
-45.428100
 20
-21.583526
 30
0.000000
 11
-10.917377
 21
-30.786386
 31
0.000000
  0
ENDSEC
  0
EOF
