  0
SECTION
  2
ENTITIES
  0
LINE
 62
  0
  6
CONTINUOUS
 10
-32.185647
 20
-163.644322
 30
0.000000
 11
-4.209937
 21
-149.249054
 31
0.000000
  0
LINE
 62
  0
  6
CONTINUOUS
 10
-4.209937
 20
-151.150315
 30
0.000000
 11
-6.382808
 21
-218.509306
 31
0.000000
  0
LINE
 62
  0
  6
CONTINUOUS
 10
-30.555994
 20
-165.273975
 30
0.000000
 11
-15.345899
 21
-168.533281
 31
0.000000
  0
LINE
 62
  0
  6
CONTINUOUS
 10
-15.345899
 20
-169.891325
 30
0.000000
 11
-15.345899
 21
-186.731073
 31
0.000000
  0
LINE
 62
  0
  6
CONTINUOUS
 10
-15.074290
 20
-185.644637
 30
0.000000
 11
-0.679022
 21
-190.261987
 31
0.000000
  0
LINE
 62
  0
  6
CONTINUOUS
 10
0.135804
 20
-173.422240
 30
0.000000
 11
-0.950631
 21
-188.089117
 31
0.000000
  0
LINE
 62
  0
  6
CONTINUOUS
 10
31.099211
 20
-157.940536
 30
0.000000
 11
44.951262
 21
-157.397319
 31
0.000000
  0
LINE
 62
  0
  6
CONTINUOUS
 10
2.851893
 20
-172.607413
 30
0.000000
 11
19.963249
 21
-173.965457
 31
0.000000
  0
LINE
 62
  0
  6
CONTINUOUS
 10
21.049685
 20
-173.150631
 30
0.000000
 11
41.963565
 21
-160.385016
 31
0.000000
  0
LINE
 62
  0
  6
CONTINUOUS
 10
19.691640
 20
-179.126025
 30
0.000000
 11
19.691640
 21
-234.534227
 31
0.000000
  0
LINE
 62
  0
  6
CONTINUOUS
 10
19.691640
 20
-232.089748
 30
0.000000
 11
43.050000
 21
-179.940852
 31
0.000000
  0
LINE
 62
  0
  6
CONTINUOUS
 10
44.408044
 20
-179.940852
 30
0.000000
 11
61.519401
 21
-185.644637
 31
0.000000
  0
LINE
 62
  0
  6
CONTINUOUS
 10
42.778391
 20
-181.842114
 30
0.000000
 11
47.667350
 21
-217.151262
 31
0.000000
  0
LINE
 62
  0
  6
CONTINUOUS
 10
44.679653
 20
-157.940536
 30
0.000000
 11
48.753785
 21
-216.879653
 31
0.000000
  0
LINE
 62
  0
  6
CONTINUOUS
 10
61.247792
 20
-186.459464
 30
0.000000
 11
40.062303
 21
-234.805836
 31
0.000000
  0
LINE
 62
  0
  6
CONTINUOUS
 10
19.420032
 20
-234.534227
 30
0.000000
 11
38.432650
 21
-234.534227
 31
0.000000
  0
LINE
 62
  0
  6
CONTINUOUS
 10
39.519085
 20
-234.262618
 30
0.000000
 11
43.593218
 21
-269.028549
 31
0.000000
  0
LINE
 62
  0
  6
CONTINUOUS
 10
44.136435
 20
-265.497634
 30
0.000000
 11
44.136435
 21
-265.226025
 31
0.000000
  0
LINE
 62
  0
  6
CONTINUOUS
 10
81.075237
 20
-228.287224
 30
0.000000
 11
81.890063
 21
-244.040536
 31
0.000000
  0
LINE
 62
  0
  6
CONTINUOUS
 10
61.791009
 20
-186.731073
 30
0.000000
 11
79.717192
 21
-226.657571
 31
0.000000
  0
LINE
 62
  0
  6
CONTINUOUS
 10
52.013091
 20
-222.311830
 30
0.000000
 11
78.359148
 21
-228.015615
 31
0.000000
  0
LINE
 62
  0
  6
CONTINUOUS
 10
75.643060
 20
-242.954101
 30
0.000000
 11
14.531073
 21
-237.521924
 31
0.000000
  0
LINE
 62
  0
  6
CONTINUOUS
 10
-9.913722
 20
-263.324763
 30
0.000000
 11
11.814984
 21
-237.521924
 31
0.000000
  0
LINE
 62
  0
  6
CONTINUOUS
 10
10.728549
 20
-220.953785
 30
0.000000
 11
11.543375
 21
-235.620662
 31
0.000000
  0
LINE
 62
  0
  6
CONTINUOUS
 10
-9.642114
 20
-238.336751
 30
0.000000
 11
8.284069
 21
-222.583438
 31
0.000000
  0
LINE
 62
  0
  6
CONTINUOUS
 10
-6.111199
 20
-219.052524
 30
0.000000
 11
9.642114
 21
-221.768612
 31
0.000000
  0
LINE
 62
  0
  6
CONTINUOUS
 10
-28.926341
 20
-236.163880
 30
0.000000
 11
-10.456940
 21
-219.052524
 31
0.000000
  0
LINE
 62
  0
  6
CONTINUOUS
 10
-33.272082
 20
-165.817192
 30
0.000000
 11
-30.827603
 21
-237.521924
 31
0.000000
  0
LINE
 62
  0
  6
CONTINUOUS
 10
-31.099211
 20
-238.608360
 30
0.000000
 11
-13.444637
 21
-240.509621
 31
0.000000
  0
LINE
 62
  0
  6
CONTINUOUS
 10
-12.629811
 20
-242.682492
 30
0.000000
 11
-12.629811
 21
-266.855678
 31
0.000000
  0
LINE
 62
  0
  6
CONTINUOUS
 10
-9.098896
 20
-266.584069
 30
0.000000
 11
40.333912
 21
-269.843375
 31
0.000000
  0
LINE
 62
  0
  6
CONTINUOUS
 10
-12.901420
 20
-167.446845
 30
0.000000
 11
5.024763
 21
-154.681230
 31
0.000000
  0
LINE
 62
  0
  6
CONTINUOUS
 10
7.197634
 20
-153.594795
 30
0.000000
 11
7.197634
 21
-165.273975
 31
0.000000
  0
LINE
 62
  0
  6
CONTINUOUS
 10
-3.123502
 20
-149.520662
 30
0.000000
 11
6.926025
 21
-151.421924
 31
0.000000
  0
LINE
 62
  0
  6
CONTINUOUS
 10
-13.987855
 20
-181.842114
 30
0.000000
 11
6.926025
 21
-165.002366
 31
0.000000
  0
LINE
 62
  0
  6
CONTINUOUS
 10
30.284385
 20
-157.668927
 30
0.000000
 11
30.012776
 21
-165.273975
 31
0.000000
  0
LINE
 62
  0
  6
CONTINUOUS
 10
0.872292
 20
-188.076232
 30
0.000000
 11
29.389673
 21
-164.475641
 31
0.000000
  0
LINE
 62
  0
  6
CONTINUOUS
 10
1.527864
 20
-172.014718
 30
0.000000
 11
28.734101
 21
-157.264349
 31
0.000000
  0
LINE
 62
  0
  6
CONTINUOUS
 10
46.106759
 20
-266.417084
 30
0.000000
 11
79.868716
 21
-244.455423
 31
0.000000
  0
ENDSEC
  0
EOF
