  0
SECTION
  2
ENTITIES
  0
LINE
 62
  0
  6
CONTINUOUS
 10
-98.283123
 20
-160.485804
 30
0.000000
 11
-79.232650
 21
-159.619874
 31
0.000000
  0
LINE
 62
  0
  6
CONTINUOUS
 10
-76.346215
 20
-160.197161
 30
0.000000
 11
-76.346215
 21
-179.536278
 31
0.000000
  0
LINE
 62
  0
  6
CONTINUOUS
 10
-75.768927
 20
-180.979495
 30
0.000000
 11
-52.388801
 21
-180.979495
 31
0.000000
  0
LINE
 62
  0
  6
CONTINUOUS
 10
-51.234227
 20
-160.774448
 30
0.000000
 11
-50.368297
 21
-178.958991
 31
0.000000
  0
LINE
 62
  0
  6
CONTINUOUS
 10
-51.522871
 20
-160.485804
 30
0.000000
 11
-22.947161
 21
-161.063091
 31
0.000000
  0
LINE
 62
  0
  6
CONTINUOUS
 10
-22.947161
 20
-161.063091
 30
0.000000
 11
-19.483438
 21
-249.099369
 31
0.000000
  0
LINE
 62
  0
  6
CONTINUOUS
 10
-18.617508
 20
-250.542587
 30
0.000000
 11
-10.824132
 21
-156.156151
 31
0.000000
  0
LINE
 62
  0
  6
CONTINUOUS
 10
-11.690063
 20
-155.867508
 30
0.000000
 11
12.844637
 21
-154.712934
 31
0.000000
  0
LINE
 62
  0
  6
CONTINUOUS
 10
12.844637
 20
-155.001577
 30
0.000000
 11
9.669558
 21
-256.604101
 31
0.000000
  0
LINE
 62
  0
  6
CONTINUOUS
 10
13.133281
 20
-154.712934
 30
0.000000
 11
50.945584
 21
-228.605678
 31
0.000000
  0
LINE
 62
  0
  6
CONTINUOUS
 10
-17.174290
 20
-252.563091
 30
0.000000
 11
9.958202
 21
-258.047319
 31
0.000000
  0
LINE
 62
  0
  6
CONTINUOUS
 10
10.824132
 20
-256.315457
 30
0.000000
 11
14.865142
 21
-274.788644
 31
0.000000
  0
LINE
 62
  0
  6
CONTINUOUS
 10
13.710568
 20
-275.654574
 30
0.000000
 11
52.388801
 21
-248.233438
 31
0.000000
  0
LINE
 62
  0
  6
CONTINUOUS
 10
50.945584
 20
-230.914826
 30
0.000000
 11
52.966088
 21
-248.233438
 31
0.000000
  0
LINE
 62
  0
  6
CONTINUOUS
 10
15.442429
 20
-235.244479
 30
0.000000
 11
48.925079
 21
-229.760252
 31
0.000000
  0
LINE
 62
  0
  6
CONTINUOUS
 10
11.978707
 20
-124.405363
 30
0.000000
 11
16.885647
 21
-233.801262
 31
0.000000
  0
LINE
 62
  0
  6
CONTINUOUS
 10
-22.658517
 20
-160.485804
 30
0.000000
 11
8.803628
 21
-129.023659
 31
0.000000
  0
LINE
 62
  0
  6
CONTINUOUS
 10
-48.925079
 20
-159.042587
 30
0.000000
 11
-16.019716
 21
-131.621451
 31
0.000000
  0
LINE
 62
  0
  6
CONTINUOUS
 10
-74.037066
 20
-158.176656
 30
0.000000
 11
-46.038644
 21
-134.507886
 31
0.000000
  0
LINE
 62
  0
  6
CONTINUOUS
 10
-65.955047
 20
-133.641956
 30
0.000000
 11
-46.615931
 21
-133.064669
 31
0.000000
  0
LINE
 62
  0
  6
CONTINUOUS
 10
-101.458202
 20
-159.331230
 30
0.000000
 11
-68.264196
 21
-135.951104
 31
0.000000
  0
LINE
 62
  0
  6
CONTINUOUS
 10
-99.437697
 20
-161.351735
 30
0.000000
 11
-101.169558
 21
-254.006309
 31
0.000000
  0
LINE
 62
  0
  6
CONTINUOUS
 10
-100.303628
 20
-254.006309
 30
0.000000
 11
-78.366719
 21
-252.563091
 31
0.000000
  0
LINE
 62
  0
  6
CONTINUOUS
 10
-76.923502
 20
-252.851735
 30
0.000000
 11
-76.634858
 21
-272.768139
 31
0.000000
  0
LINE
 62
  0
  6
CONTINUOUS
 10
-75.191640
 20
-273.634069
 30
0.000000
 11
13.133281
 21
-274.500000
 31
0.000000
  0
LINE
 62
  0
  6
CONTINUOUS
 10
-73.459779
 20
-267.861199
 30
0.000000
 11
-42.863565
 21
-241.594637
 31
0.000000
  0
LINE
 62
  0
  6
CONTINUOUS
 10
-74.902997
 20
-250.831230
 30
0.000000
 11
-45.172713
 21
-224.564669
 31
0.000000
  0
LINE
 62
  0
  6
CONTINUOUS
 10
-43.729495
 20
-224.564669
 30
0.000000
 11
-42.286278
 21
-240.440063
 31
0.000000
  0
LINE
 62
  0
  6
CONTINUOUS
 10
-66.532334
 20
-136.528391
 30
0.000000
 11
-62.779968
 21
-223.698738
 31
0.000000
  0
LINE
 62
  0
  6
CONTINUOUS
 10
-97.417192
 20
-250.542587
 30
0.000000
 11
-68.552839
 21
-228.605678
 31
0.000000
  0
LINE
 62
  0
  6
CONTINUOUS
 10
-65.268984
 20
-225.406942
 30
0.000000
 11
-42.754075
 21
-223.498899
 31
0.000000
  0
LINE
 62
  0
  6
CONTINUOUS
 10
-15.278254
 20
-130.386395
 30
0.000000
 11
11.052741
 21
-126.570308
 31
0.000000
  0
ENDSEC
  0
EOF
