  0
SECTION
  2
ENTITIES
  0
LINE
 62
  0
 10
-178.000000
 20
170.500000
 30
0.000000
 11
-35.000000
 21
146.500000
 31
0.000000
  0
LINE
 62
  0
 10
-250.000000
 20
154.500000
 30
0.000000
 11
-118.000000
 21
123.500000
 31
0.000000
  0
LINE
 62
  0
 10
-331.000000
 20
138.500000
 30
0.000000
 11
-225.000000
 21
87.500000
 31
0.000000
  0
LINE
 62
  0
 10
-329.000000
 20
140.500000
 30
0.000000
 11
-332.000000
 21
97.500000
 31
0.000000
  0
LINE
 62
  0
 10
-422.000000
 20
115.500000
 30
0.000000
 11
-334.000000
 21
137.500000
 31
0.000000
  0
LINE
 62
  0
 10
-245.000000
 20
153.500000
 30
0.000000
 11
-181.000000
 21
167.500000
 31
0.000000
  0
LINE
 62
  0
 10
-123.000000
 20
124.500000
 30
0.000000
 11
-41.000000
 21
144.500000
 31
0.000000
  0
LINE
 62
  0
 10
-231.000000
 20
91.500000
 30
0.000000
 11
-100.000000
 21
-203.500000
 31
0.000000
  0
LINE
 62
  0
 10
-332.000000
 20
99.500000
 30
0.000000
 11
-258.000000
 21
68.500000
 31
0.000000
  0
LINE
 62
  0
 10
-334.000000
 20
98.500000
 30
0.000000
 11
-248.000000
 21
117.500000
 31
0.000000
  0
LINE
 62
  0
 10
-246.000000
 20
152.500000
 30
0.000000
 11
-244.000000
 21
117.500000
 31
0.000000
  0
LINE
 62
  0
 10
-245.000000
 20
119.500000
 30
0.000000
 11
-146.000000
 21
99.500000
 31
0.000000
  0
LINE
 62
  0
 10
-148.000000
 20
95.500000
 30
0.000000
 11
-14.000000
 21
-106.500000
 31
0.000000
  0
LINE
 62
  0
 10
-153.000000
 20
-169.500000
 30
0.000000
 11
-105.000000
 21
-200.500000
 31
0.000000
  0
LINE
 62
  0
 10
-257.000000
 20
67.500000
 30
0.000000
 11
-148.000000
 21
-171.500000
 31
0.000000
  0
LINE
 62
  0
 10
-260.000000
 20
70.500000
 30
0.000000
 11
-148.000000
 21
103.500000
 31
0.000000
  0
LINE
 62
  0
 10
-419.000000
 20
116.500000
 30
0.000000
 11
-353.000000
 21
61.500000
 31
0.000000
  0
LINE
 62
  0
 10
-349.000000
 20
60.500000
 30
0.000000
 11
-222.000000
 21
-284.500000
 31
0.000000
  0
LINE
 62
  0
 10
-349.000000
 20
63.500000
 30
0.000000
 11
-235.000000
 21
89.500000
 31
0.000000
  0
LINE
 62
  0
 10
-251.000000
 20
-72.500000
 30
0.000000
 11
-190.000000
 21
-260.500000
 31
0.000000
  0
LINE
 62
  0
 10
-212.000000
 20
-58.500000
 30
0.000000
 11
-135.000000
 21
-222.500000
 31
0.000000
  0
LINE
 62
  0
 10
-254.000000
 20
-74.500000
 30
0.000000
 11
-217.000000
 21
-56.500000
 31
0.000000
  0
LINE
 62
  0
 10
-212.000000
 20
-158.500000
 30
0.000000
 11
-215.000000
 21
-55.500000
 31
0.000000
  0
LINE
 62
  0
 10
-243.000000
 20
-175.500000
 30
0.000000
 11
-212.000000
 21
-159.500000
 31
0.000000
  0
LINE
 62
  0
 10
-251.000000
 20
-74.500000
 30
0.000000
 11
-248.000000
 21
-178.500000
 31
0.000000
  0
LINE
 62
  0
 10
-248.000000
 20
-180.500000
 30
0.000000
 11
-190.000000
 21
-261.500000
 31
0.000000
  0
LINE
 62
  0
 10
-211.000000
 20
-159.500000
 30
0.000000
 11
-134.000000
 21
-221.500000
 31
0.000000
  0
LINE
 62
  0
 10
-225.000000
 20
-284.500000
 30
0.000000
 11
-191.000000
 21
-258.500000
 31
0.000000
  0
LINE
 62
  0
 10
-135.000000
 20
-222.500000
 30
0.000000
 11
-104.000000
 21
-201.500000
 31
0.000000
  0
LINE
 62
  0
 10
20.245874
 20
48.280361
 30
0.000000
 11
112.711220
 21
-46.239769
 31
0.000000
  0
LINE
 62
  0
 10
-19.822441
 20
30.814686
 30
0.000000
 11
17.163696
 21
46.225578
 31
0.000000
  0
LINE
 62
  0
 10
-14.685479
 20
28.759901
 30
0.000000
 11
70.588120
 21
-75.006767
 31
0.000000
  0
LINE
 62
  0
 10
35.656765
 20
-107.883331
 30
0.000000
 11
75.725082
 21
-78.088943
 31
0.000000
  0
LINE
 62
  0
 10
-22.904619
 20
-94.527229
 30
0.000000
 11
34.629372
 21
-110.965515
 31
0.000000
  0
LINE
 62
  0
 10
113.738617
 20
-48.294556
 30
0.000000
 11
143.533005
 21
-26.719307
 31
0.000000
  0
LINE
 62
  0
 10
-35.233334
 20
145.882675
 30
0.000000
 11
145.587784
 21
-23.637129
 31
0.000000
  0
LINE
 62
  0
 10
-422.561371
 20
0.091832
 30
0.000000
 11
-179.668320
 21
80.370049
 31
0.000000
  0
LINE
 62
  0
 10
-383.451477
 20
-83.274010
 30
0.000000
 11
-113.799011
 21
43.318565
 31
0.000000
  0
LINE
 62
  0
 10
-179.668320
 20
80.370049
 30
0.000000
 11
-116.886635
 21
66.990349
 31
0.000000
  0
LINE
 62
  0
 10
-419.473755
 20
-0.937376
 30
0.000000
 11
-380.363861
 21
-49.310150
 31
0.000000
  0
LINE
 62
  0
 10
-378.305450
 20
-45.193317
 30
0.000000
 11
-380.363861
 21
-85.332428
 31
0.000000
  0
LINE
 62
  0
 10
-380.363861
 20
-48.280941
 30
0.000000
 11
-113.799011
 21
66.990349
 31
0.000000
  0
LINE
 62
  0
 10
-415.356934
 20
117.421532
 30
0.000000
 11
-422.561371
 21
0.091832
 31
0.000000
  0
LINE
 62
  0
 10
-177.609894
 20
170.940353
 30
0.000000
 11
-181.726730
 21
81.399254
 31
0.000000
  0
LINE
 62
  0
 10
-381.393066
 20
-86.361633
 30
0.000000
 11
-225.982666
 21
-281.911133
 31
0.000000
  0
LINE
 62
  0
 10
-113.799011
 20
42.289356
 30
0.000000
 11
137.327728
 21
-25.638367
 31
0.000000
  0
LINE
 62
  0
 10
18.968813
 20
47.464603
 30
0.000000
 11
15.881188
 21
-24.579950
 31
0.000000
  0
LINE
 62
  0
 10
16.910397
 20
-26.638367
 30
0.000000
 11
112.626732
 21
-47.222527
 31
0.000000
  0
LINE
 62
  0
 10
-19.111881
 20
33.055695
 30
0.000000
 11
-19.111881
 21
-46.193317
 31
0.000000
  0
LINE
 62
  0
 10
-19.111881
 20
-44.134899
 30
0.000000
 11
73.516830
 21
-77.069557
 31
0.000000
  0
LINE
 62
  0
 10
-22.199505
 20
-45.164108
 30
0.000000
 11
16.910397
 21
-25.609158
 31
0.000000
  0
LINE
 62
  0
 10
-122.721169
 20
125.245499
 30
0.000000
 11
36.645023
 21
-106.703316
 31
0.000000
  0
LINE
 62
  0
 10
-143.646042
 20
-82.215591
 30
0.000000
 11
-113.799011
 21
-149.114105
 31
0.000000
  0
LINE
 62
  0
 10
-91.156433
 20
-57.514603
 30
0.000000
 11
-55.134159
 21
-114.121040
 31
0.000000
  0
LINE
 62
  0
 10
-144.675247
 20
-82.215591
 30
0.000000
 11
-89.098022
 21
-55.456188
 31
0.000000
  0
LINE
 62
  0
 10
-90.127228
 20
-57.514603
 30
0.000000
 11
-92.185646
 21
-100.741341
 31
0.000000
  0
LINE
 62
  0
 10
-91.156433
 20
-102.799751
 30
0.000000
 11
-55.134159
 21
-113.091835
 31
0.000000
  0
LINE
 62
  0
 10
-143.646042
 20
-81.186386
 30
0.000000
 11
-142.616837
 21
-127.500740
 31
0.000000
  0
LINE
 62
  0
 10
-142.616837
 20
-128.529953
 30
0.000000
 11
-90.127228
 21
-100.741341
 31
0.000000
  0
LINE
 62
  0
 10
-143.646042
 20
-126.471535
 30
0.000000
 11
-114.828217
 21
-146.026489
 31
0.000000
  0
LINE
 62
  0
 10
-152.908905
 20
-169.698273
 30
0.000000
 11
-116.886635
 21
-149.114105
 31
0.000000
  0
LINE
 62
  0
 10
-56.163364
 20
-115.150246
 30
0.000000
 11
-24.257921
 21
-97.653709
 31
0.000000
  0
LINE
 62
  0
 10
-113.470573
 20
66.613976
 30
0.000000
 11
-113.327957
 21
41.014084
 31
0.000000
  0
ENDSEC
  0
EOF
