  0
SECTION
  2
ENTITIES
  0
LINE
 62
  0
 10
-107.000000
 20
-119.500000
 30
0.000000
 11
-111.000000
 21
-148.500000
 31
0.000000
  0
LINE
 62
  0
 10
-131.000000
 20
-219.500000
 30
0.000000
 11
-135.000000
 21
-264.500000
 31
0.000000
  0
LINE
 62
  0
 10
-169.000000
 20
-286.500000
 30
0.000000
 11
-134.000000
 21
-264.500000
 31
0.000000
  0
LINE
 62
  0
 10
-133.000000
 20
-265.500000
 30
0.000000
 11
-81.000000
 21
-277.500000
 31
0.000000
  0
LINE
 62
  0
 10
-83.000000
 20
-225.500000
 30
0.000000
 11
-80.000000
 21
-280.500000
 31
0.000000
  0
LINE
 62
  0
 10
-54.000000
 20
-138.500000
 30
0.000000
 11
-50.000000
 21
-229.500000
 31
0.000000
  0
LINE
 62
  0
 10
-104.000000
 20
-97.500000
 30
0.000000
 11
3.000000
 21
-93.500000
 31
0.000000
  0
LINE
 62
  0
 10
-103.000000
 20
-92.500000
 30
0.000000
 11
-110.000000
 21
-152.500000
 31
0.000000
  0
LINE
 62
  0
 10
-137.399994
 20
-123.699997
 30
0.000000
 11
-41.400002
 21
-126.099998
 31
0.000000
  0
LINE
 62
  0
 10
-120.000000
 20
-108.099998
 30
0.000000
 11
-11.400000
 21
-104.500000
 31
0.000000
  0
LINE
 62
  0
 10
-112.199997
 20
-48.700001
 30
0.000000
 11
-117.599998
 21
-109.300003
 31
0.000000
  0
LINE
 62
  0
 10
-117.000000
 20
-108.099998
 30
0.000000
 11
-104.400002
 21
-95.500000
 31
0.000000
  0
LINE
 62
  0
 10
-55.799999
 20
-141.100006
 30
0.000000
 11
-37.200001
 21
-124.900002
 31
0.000000
  0
LINE
 62
  0
 10
-250.100006
 20
-263.950012
 30
0.000000
 11
-172.000000
 21
-288.149994
 31
0.000000
  0
LINE
 62
  0
 10
31.500000
 20
-236.449997
 30
0.000000
 11
79.900002
 21
-159.449997
 31
0.000000
  0
LINE
 62
  0
 10
-51.000000
 20
70.449997
 30
0.000000
 11
-42.200001
 21
-37.349998
 31
0.000000
  0
LINE
 62
  0
 10
-80.800003
 20
64.800003
 30
0.000000
 11
-51.599998
 21
70.800003
 31
0.000000
  0
LINE
 62
  0
 10
-80.699997
 20
65.449997
 30
0.000000
 11
-84.900002
 21
-44.950001
 31
0.000000
  0
LINE
 62
  0
 10
-126.900002
 20
-56.950001
 30
0.000000
 11
-103.500000
 21
-54.549999
 31
0.000000
  0
LINE
 62
  0
 10
-53.000000
 20
-49.750000
 30
0.000000
 11
-54.000000
 21
-68.250000
 31
0.000000
  0
LINE
 62
  0
 10
-55.000000
 20
-69.250000
 30
0.000000
 11
-40.500000
 21
-68.250000
 31
0.000000
  0
LINE
 62
  0
 10
-41.500000
 20
-69.750000
 30
0.000000
 11
-20.000000
 21
-50.250000
 31
0.000000
  0
LINE
 62
  0
 10
-41.000000
 20
-68.250000
 30
0.000000
 11
-37.500000
 21
-125.250000
 31
0.000000
  0
LINE
 62
  0
 10
-19.000000
 20
-49.750000
 30
0.000000
 11
-12.500000
 21
-105.250000
 31
0.000000
  0
LINE
 62
  0
 10
-109.800003
 20
-151.300003
 30
0.000000
 11
77.400002
 21
-159.100006
 31
0.000000
  0
LINE
 62
  0
 10
-111.900002
 20
-149.449997
 30
0.000000
 11
9.900000
 21
-150.649994
 31
0.000000
  0
LINE
 62
  0
 10
-32.142651
 20
-37.095341
 30
0.000000
 11
-31.706810
 21
-50.715412
 31
0.000000
  0
LINE
 62
  0
 10
-31.924730
 20
-50.606453
 30
0.000000
 11
-18.849463
 21
-49.843727
 31
0.000000
  0
LINE
 62
  0
 10
-54.588531
 20
-69.020790
 30
0.000000
 11
-30.726166
 21
-50.388531
 31
0.000000
  0
LINE
 62
  0
 10
-12.868100
 20
-106.206093
 30
0.000000
 11
6.287455
 21
-91.993904
 31
0.000000
  0
LINE
 62
  0
 10
-126.714699
 20
-55.678493
 30
0.000000
 11
-139.073120
 21
-122.413979
 31
0.000000
  0
LINE
 62
  0
 10
-42.365589
 20
-37.906811
 30
0.000000
 11
-32.014336
 21
-37.144085
 31
0.000000
  0
LINE
 62
  0
 10
-63.503944
 20
-50.219357
 30
0.000000
 11
-52.825806
 21
-50.110394
 31
0.000000
  0
LINE
 62
  0
 10
-63.394981
 20
-49.565590
 30
0.000000
 11
-41.602867
 21
-37.579929
 31
0.000000
  0
LINE
 62
  0
 10
-53.152687
 20
-50.001434
 30
0.000000
 11
-32.232258
 21
-36.817204
 31
0.000000
  0
LINE
 62
  0
 10
-127.099998
 20
-57.349998
 30
0.000000
 11
-110.900002
 21
-48.250000
 31
0.000000
  0
LINE
 62
  0
 10
-247.199997
 20
-263.399994
 30
0.000000
 11
-109.599998
 21
-151.399994
 31
0.000000
  0
LINE
 62
  0
 10
-187.699997
 20
-209.250000
 30
0.000000
 11
-111.199997
 21
-149.550003
 31
0.000000
  0
LINE
 62
  0
 10
-188.899994
 20
-208.949997
 30
0.000000
 11
-131.899994
 21
-218.250000
 31
0.000000
  0
LINE
 62
  0
 10
-157.100006
 20
-136.050003
 30
0.000000
 11
-140.000000
 21
-122.250000
 31
0.000000
  0
LINE
 62
  0
 10
-157.500000
 20
-136.250000
 30
0.000000
 11
-53.500000
 21
-140.250000
 31
0.000000
  0
LINE
 62
  0
 10
-158.000000
 20
-135.250000
 30
0.000000
 11
-187.500000
 21
-209.250000
 31
0.000000
  0
LINE
 62
  0
 10
2.500000
 20
-178.250000
 30
0.000000
 11
57.000000
 21
-122.750000
 31
0.000000
  0
LINE
 62
  0
 10
57.000000
 20
-123.250000
 30
0.000000
 11
59.500000
 21
-142.750000
 31
0.000000
  0
LINE
 62
  0
 10
58.500000
 20
-144.250000
 30
0.000000
 11
78.000000
 21
-144.250000
 31
0.000000
  0
LINE
 62
  0
 10
27.500000
 20
-205.750000
 30
0.000000
 11
78.500000
 21
-142.250000
 31
0.000000
  0
LINE
 62
  0
 10
3.500000
 20
-176.750000
 30
0.000000
 11
7.000000
 21
-201.250000
 31
0.000000
  0
LINE
 62
  0
 10
5.500000
 20
-200.750000
 30
0.000000
 11
27.500000
 21
-203.250000
 31
0.000000
  0
LINE
 62
  0
 10
27.500000
 20
-204.250000
 30
0.000000
 11
32.500000
 21
-230.750000
 31
0.000000
  0
LINE
 62
  0
 10
6.500000
 20
-201.250000
 30
0.000000
 11
59.500000
 21
-142.250000
 31
0.000000
  0
LINE
 62
  0
 10
-106.500000
 20
-122.750000
 30
0.000000
 11
53.500000
 21
-123.750000
 31
0.000000
  0
LINE
 62
  0
 10
4.700000
 20
-92.150002
 30
0.000000
 11
8.600000
 21
-150.649994
 31
0.000000
  0
LINE
 62
  0
 10
-13.200000
 20
-175.850006
 30
0.000000
 11
3.600000
 21
-177.050003
 31
0.000000
  0
LINE
 62
  0
 10
-13.200000
 20
-176.149994
 30
0.000000
 11
9.000000
 21
-148.850006
 31
0.000000
  0
LINE
 62
  0
 10
-38.700001
 20
-212.149994
 30
0.000000
 11
-51.000000
 21
-225.949997
 31
0.000000
  0
LINE
 62
  0
 10
77.000000
 20
-143.350006
 30
0.000000
 11
78.699997
 21
-161.050003
 31
0.000000
  0
LINE
 62
  0
 10
-96.000000
 20
-5.750000
 30
0.000000
 11
-65.500000
 21
-2.250000
 31
0.000000
  0
LINE
 62
  0
 10
-59.000000
 20
66.750000
 30
0.000000
 11
-56.000000
 21
1.750000
 31
0.000000
  0
LINE
 62
  0
 10
-89.000000
 20
-0.750000
 30
0.000000
 11
-56.500000
 21
2.750000
 31
0.000000
  0
LINE
 62
  0
 10
-85.500000
 20
63.250000
 30
0.000000
 11
-89.400002
 21
-0.950000
 31
0.000000
  0
LINE
 62
  0
 10
-64.800003
 20
-2.150000
 30
0.000000
 11
-62.700001
 21
-48.049999
 31
0.000000
  0
LINE
 62
  0
 10
-86.400002
 20
62.049999
 30
0.000000
 11
-60.900002
 21
66.250000
 31
0.000000
  0
LINE
 62
  0
 10
-96.599998
 20
-5.500000
 30
0.000000
 11
-102.000000
 21
-55.099998
 31
0.000000
  0
LINE
 62
  0
 10
-222.500000
 20
-215.750000
 30
0.000000
 11
-145.500000
 21
-229.250000
 31
0.000000
  0
LINE
 62
  0
 10
-144.000000
 20
-228.250000
 30
0.000000
 11
-148.000000
 21
-253.750000
 31
0.000000
  0
LINE
 62
  0
 10
-220.500000
 20
-215.250000
 30
0.000000
 11
-228.500000
 21
-235.750000
 31
0.000000
  0
LINE
 62
  0
 10
-243.500000
 20
-246.750000
 30
0.000000
 11
-226.500000
 21
-234.750000
 31
0.000000
  0
LINE
 62
  0
 10
-242.500000
 20
-243.750000
 30
0.000000
 11
-166.500000
 21
-267.250000
 31
0.000000
  0
LINE
 62
  0
 10
-228.500000
 20
-236.750000
 30
0.000000
 11
-148.500000
 21
-255.750000
 31
0.000000
  0
LINE
 62
  0
 10
-145.000000
 20
-228.750000
 30
0.000000
 11
-128.500000
 21
-218.250000
 31
0.000000
  0
LINE
 62
  0
 10
-167.000000
 20
-267.750000
 30
0.000000
 11
-168.500000
 21
-285.750000
 31
0.000000
  0
LINE
 62
  0
 10
-241.000000
 20
-244.750000
 30
0.000000
 11
-247.000000
 21
-261.750000
 31
0.000000
  0
LINE
 62
  0
 10
-222.000000
 20
-216.250000
 30
0.000000
 11
-107.000000
 21
-123.250000
 31
0.000000
  0
LINE
 62
  0
 10
-98.500000
 20
-236.250000
 30
0.000000
 11
-84.500000
 21
-223.750000
 31
0.000000
  0
LINE
 62
  0
 10
-97.500000
 20
-235.750000
 30
0.000000
 11
-95.000000
 21
-265.250000
 31
0.000000
  0
LINE
 62
  0
 10
-95.000000
 20
-265.250000
 30
0.000000
 11
-114.500000
 21
-280.250000
 31
0.000000
  0
LINE
 62
  0
 10
-114.000000
 20
-281.750000
 30
0.000000
 11
-40.000000
 21
-293.750000
 31
0.000000
  0
LINE
 62
  0
 10
-111.500000
 20
-304.250000
 30
0.000000
 11
-79.000000
 21
-275.750000
 31
0.000000
  0
LINE
 62
  0
 10
-112.500000
 20
-279.750000
 30
0.000000
 11
-111.000000
 21
-305.750000
 31
0.000000
  0
LINE
 62
  0
 10
-111.000000
 20
-302.750000
 30
0.000000
 11
-35.000000
 21
-323.750000
 31
0.000000
  0
LINE
 62
  0
 10
-41.000000
 20
-292.250000
 30
0.000000
 11
-37.500000
 21
-322.250000
 31
0.000000
  0
LINE
 62
  0
 10
-84.000000
 20
-222.750000
 30
0.000000
 11
-51.500000
 21
-225.750000
 31
0.000000
  0
LINE
 62
  0
 10
-45.200001
 20
-240.500000
 30
0.000000
 11
-38.599998
 21
-273.500000
 31
0.000000
  0
LINE
 62
  0
 10
-98.000000
 20
-235.699997
 30
0.000000
 11
-42.200001
 21
-242.300003
 31
0.000000
  0
LINE
 62
  0
 10
-94.800003
 20
-263.850006
 30
0.000000
 11
-39.599998
 21
-271.350006
 31
0.000000
  0
LINE
 62
  0
 10
-39.000000
 20
-212.250000
 30
0.000000
 11
-19.799999
 21
-214.050003
 31
0.000000
  0
LINE
 62
  0
 10
-45.599998
 20
-241.649994
 30
0.000000
 11
-17.700001
 21
-214.649994
 31
0.000000
  0
LINE
 62
  0
 10
-34.200001
 20
-256.350006
 30
0.000000
 11
8.100000
 21
-264.149994
 31
0.000000
  0
LINE
 62
  0
 10
-37.500000
 20
-322.950012
 30
0.000000
 11
8.700000
 21
-265.649994
 31
0.000000
  0
LINE
 62
  0
 10
4.800000
 20
-241.949997
 30
0.000000
 11
9.300000
 21
-265.649994
 31
0.000000
  0
LINE
 62
  0
 10
-40.799999
 20
-293.850006
 30
0.000000
 11
5.700000
 21
-242.550003
 31
0.000000
  0
LINE
 62
  0
 10
-17.700001
 20
-213.750000
 30
0.000000
 11
-13.200000
 21
-242.850006
 31
0.000000
  0
LINE
 62
  0
 10
-39.000000
 20
-270.149994
 30
0.000000
 11
-12.900000
 21
-241.649994
 31
0.000000
  0
LINE
 62
  0
 10
-38.400002
 20
-212.250000
 30
0.000000
 11
-34.500000
 21
-254.550003
 31
0.000000
  0
LINE
 62
  0
 10
-13.600000
 20
-241.500000
 30
0.000000
 11
4.200000
 21
-243.500000
 31
0.000000
  0
LINE
 62
  0
 10
-34.302807
 20
-255.652313
 30
0.000000
 11
-9.259076
 21
-229.228210
 31
0.000000
  0
LINE
 62
  0
 10
-12.414191
 20
-175.985641
 30
0.000000
 11
-9.456271
 21
-229.031021
 31
0.000000
  0
LINE
 62
  0
 10
-9.850660
 20
-228.833832
 30
0.000000
 11
31.165842
 21
-233.566498
 31
0.000000
  0
LINE
 62
  0
 10
-101.658417
 20
-54.099503
 30
0.000000
 11
-84.699669
 21
-45.817326
 31
0.000000
  0
LINE
 62
  0
 10
-111.320953
 20
-48.775246
 30
0.000000
 11
-85.094063
 21
-45.028545
 31
0.000000
  0
LINE
 62
  0
 10
-64.640266
 20
-2.087128
 30
0.000000
 11
-55.963696
 21
2.645545
 31
0.000000
  0
LINE
 62
  0
 10
-59.200001
 20
66.949997
 30
0.000000
 11
-49.900002
 21
70.550003
 31
0.000000
  0
LINE
 62
  0
 10
-86.099998
 20
62.450001
 30
0.000000
 11
-80.800003
 21
64.949997
 31
0.000000
  0
ENDSEC
  0
EOF
