999
DXF created from <REFER>
  0
SECTION
  2
ENTITIES
  0
LINE
 62
  0
  6
SOLID
 10
2148.791115
 20
2614.814118
 30
0.000000
 11
2148.791115
 21
1402.550122
 31
0.000000
  0
LINE
 62
  0
  6
SOLID
 10
2148.791115
 20
1402.550122
 30
0.000000
 11
2883.557686
 21
905.211045
 31
0.000000
  0
LINE
 62
  0
  6
SOLID
 10
2148.791115
 20
1402.550122
 30
0.000000
 11
1250.743088
 21
1115.025967
 31
0.000000
  0
LINE
 62
  0
  6
SOLID
 10
2148.791115
 20
2614.814118
 30
0.000000
 11
1838.611496
 21
2515.505250
 31
0.000000
  0
LINE
 62
  0
  6
SOLID
 10
1250.743088
 20
2327.289963
 30
0.000000
 11
1250.743088
 21
1115.025967
 31
0.000000
  0
LINE
 62
  0
  6
SOLID
 10
2368.436952
 20
2466.143150
 30
0.000000
 11
2368.436952
 21
1385.984842
 31
0.000000
  0
LINE
 62
  0
  6
SOLID
 10
2368.436952
 20
2466.143150
 30
0.000000
 11
2058.257332
 21
2366.834282
 31
0.000000
  0
LINE
 62
  0
  6
SOLID
 10
1470.388924
 20
2178.618995
 30
0.000000
 11
1470.388924
 21
1098.460687
 31
0.000000
  0
LINE
 62
  0
  6
SOLID
 10
2148.791115
 20
2614.814118
 30
0.000000
 11
2368.436952
 21
2466.143150
 31
0.000000
  0
LINE
 62
  0
  6
SOLID
 10
1560.922707
 20
2426.598831
 30
0.000000
 11
1780.568543
 21
2277.927863
 31
0.000000
  0
LINE
 62
  0
  6
SOLID
 10
1838.611496
 20
2515.505250
 30
0.000000
 11
2058.257332
 21
2366.834282
 31
0.000000
  0
LINE
 62
  0
  6
SOLID
 10
1560.922707
 20
2426.598831
 30
0.000000
 11
1560.922707
 21
2348.199899
 31
0.000000
  0
LINE
 62
  0
  6
SOLID
 10
1560.922707
 20
2348.199899
 30
0.000000
 11
1838.611496
 21
2437.106318
 31
0.000000
  0
LINE
 62
  0
  6
SOLID
 10
1838.611496
 20
2437.106318
 30
0.000000
 11
2058.257332
 21
2288.435350
 31
0.000000
  0
LINE
 62
  0
  6
SOLID
 10
2058.257332
 20
2288.435350
 30
0.000000
 11
1780.568543
 21
2199.528931
 31
0.000000
  0
LINE
 62
  0
  6
SOLID
 10
1560.922707
 20
2426.598831
 30
0.000000
 11
1250.743088
 21
2327.289963
 31
0.000000
  0
LINE
 62
  0
  6
SOLID
 10
1780.568543
 20
2277.927863
 30
0.000000
 11
1470.388924
 21
2178.618995
 31
0.000000
  0
LINE
 62
  0
  6
SOLID
 10
1780.568543
 20
2199.528931
 30
0.000000
 11
1560.922707
 21
2348.199899
 31
0.000000
  0
LINE
 62
  0
  6
SOLID
 10
1250.743088
 20
1115.025967
 30
0.000000
 11
1985.509659
 21
617.686890
 31
0.000000
  0
LINE
 62
  0
  6
SOLID
 10
2883.557686
 20
905.211045
 30
0.000000
 11
1985.509659
 21
617.686890
 31
0.000000
  0
LINE
 62
  0
  6
SOLID
 10
2368.436952
 20
1385.984842
 30
0.000000
 11
2883.557686
 21
1037.316733
 31
0.000000
  0
LINE
 62
  0
  6
SOLID
 10
1470.388924
 20
1098.460687
 30
0.000000
 11
1985.509659
 21
749.792578
 31
0.000000
  0
LINE
 62
  0
  6
SOLID
 10
2883.557686
 20
1037.316733
 30
0.000000
 11
1985.509659
 21
749.792578
 31
0.000000
  0
LINE
 62
  0
  6
SOLID
 10
1985.509659
 20
749.792578
 30
0.000000
 11
1985.509659
 21
617.686890
 31
0.000000
  0
LINE
 62
  0
  6
SOLID
 10
2883.557686
 20
1037.316733
 30
0.000000
 11
2883.557686
 21
905.211045
 31
0.000000
  0
LINE
 62
  0
  6
SOLID
 10
1470.388924
 20
1098.460687
 30
0.000000
 11
1852.761333
 21
1220.883208
 31
0.000000
  0
LINE
 62
  0
  6
SOLID
 10
1986.064543
 20
1263.562321
 30
0.000000
 11
1986.064543
 21
1862.946828
 31
0.000000
  0
LINE
 62
  0
  6
SOLID
 10
1986.064543
 20
1263.562321
 30
0.000000
 11
2243.624910
 21
1089.228266
 31
0.000000
  0
LINE
 62
  0
  6
SOLID
 10
1986.064543
 20
1862.946828
 30
0.000000
 11
2243.624910
 21
1089.228266
 31
0.000000
  0
LINE
 62
  0
  6
SOLID
 10
1852.761333
 20
1220.883208
 30
0.000000
 11
1852.761333
 21
1820.267715
 31
0.000000
  0
LINE
 62
  0
  6
SOLID
 10
1852.761333
 20
1220.883208
 30
0.000000
 11
2110.321701
 21
1046.549154
 31
0.000000
  0
LINE
 62
  0
  6
SOLID
 10
1852.761333
 20
1820.267715
 30
0.000000
 11
2110.321701
 21
1046.549154
 31
0.000000
  0
LINE
 62
  0
  6
SOLID
 10
1852.761333
 20
1820.267715
 30
0.000000
 11
1986.064543
 21
1862.946828
 31
0.000000
  0
LINE
 62
  0
  6
SOLID
 10
2110.321701
 20
1046.549154
 30
0.000000
 11
2243.624910
 21
1089.228266
 31
0.000000
  0
LINE
 62
  0
  6
SOLID
 10
1986.064543
 20
1263.562321
 30
0.000000
 11
2368.436952
 21
1385.984842
 31
0.000000
  0
LINE
 62
  0
  6
SOLID
 10
2058.257332
 20
2366.834282
 30
0.000000
 11
2058.257332
 21
2288.435350
 31
0.000000
  0
LINE
 62
  0
  6
SOLID
 10
1250.743088
 20
2327.289963
 30
0.000000
 11
1470.388924
 21
2178.618995
 31
0.000000
  0
LINE
 62
  0
  6
SOLID
 10
1780.568543
 20
2277.927863
 30
0.000000
 11
1780.568543
 21
2199.528931
 31
0.000000
  0
LINE
 62
  0
  6
SOLID
 10
1838.611496
 20
2515.505250
 30
0.000000
 11
1838.611496
 21
2437.106318
 31
0.000000
  0
ENDSEC
  0
EOF
