  0
SECTION
  2
HEADER
  9
$ACADVER
  1
AC1009
  9
$INSBASE
 10
0.0
 20
0.0
 30
0.0
  9
$EXTMIN
 10
131.42898403147279
 20
106.11049740375979
 30
0.0
  9
$EXTMAX
 10
274.0394006981395
 20
239.72508073709321
 30
0.0
  9
$LIMMIN
 10
0.0
 20
0.0
  9
$LIMMAX
 10
420.0
 20
297.0
  9
$ORTHOMODE
 70
     0
  9
$REGENMODE
 70
     1
  9
$FILLMODE
 70
     1
  9
$QTEXTMODE
 70
     0
  9
$MIRRTEXT
 70
     0
  9
$DRAGMODE
 70
     2
  9
$LTSCALE
 40
1.0
  9
$OSMODE
 70
    37
  9
$ATTMODE
 70
     1
  9
$TEXTSIZE
 40
2.5
  9
$TRACEWID
 40
1.0
  9
$TEXTSTYLE
  7
STANDARD
  9
$CLAYER
  8
SCAFFOLDING
  9
$CELTYPE
  6
BYLAYER
  9
$CECOLOR
 62
   256
  9
$DIMSCALE
 40
1.0
  9
$DIMASZ
 40
2.5
  9
$DIMEXO
 40
0.625
  9
$DIMDLI
 40
3.75
  9
$DIMRND
 40
0.0
  9
$DIMDLE
 40
0.0
  9
$DIMEXE
 40
1.25
  9
$DIMTP
 40
0.0
  9
$DIMTM
 40
0.0
  9
$DIMTXT
 40
2.5
  9
$DIMCEN
 40
2.5
  9
$DIMTSZ
 40
0.0
  9
$DIMTOL
 70
     0
  9
$DIMLIM
 70
     0
  9
$DIMTIH
 70
     0
  9
$DIMTOH
 70
     0
  9
$DIMSE1
 70
     0
  9
$DIMSE2
 70
     0
  9
$DIMTAD
 70
     1
  9
$DIMZIN
 70
     8
  9
$DIMBLK
  1

  9
$DIMASO
 70
     1
  9
$DIMSHO
 70
     1
  9
$DIMPOST
  1

  9
$DIMAPOST
  1

  9
$DIMALT
 70
     0
  9
$DIMALTD
 70
     3
  9
$DIMALTF
 40
0.03937007874016
  9
$DIMLFAC
 40
1.0
  9
$DIMTOFL
 70
     1
  9
$DIMTVP
 40
0.0
  9
$DIMTIX
 70
     0
  9
$DIMSOXD
 70
     0
  9
$DIMSAH
 70
     0
  9
$DIMBLK1
  1

  9
$DIMBLK2
  1

  9
$DIMSTYLE
  2
ISO-25
  9
$DIMCLRD
 70
     0
  9
$DIMCLRE
 70
     0
  9
$DIMCLRT
 70
     0
  9
$DIMTFAC
 40
1.0
  9
$DIMGAP
 40
0.625
  9
$LUNITS
 70
     2
  9
$LUPREC
 70
     4
  9
$SKETCHINC
 40
1.0
  9
$FILLETRAD
 40
0.0
  9
$AUNITS
 70
     0
  9
$AUPREC
 70
     0
  9
$MENU
  1
.
  9
$ELEVATION
 40
0.0
  9
$PELEVATION
 40
0.0
  9
$THICKNESS
 40
0.0
  9
$LIMCHECK
 70
     0
  9
$BLIPMODE
 70
     0
  9
$CHAMFERA
 40
0.0
  9
$CHAMFERB
 40
0.0
  9
$SKPOLY
 70
     0
  9
$TDCREATE
 40
2455233.4834102429
  9
$TDUPDATE
 40
2455233.4980880669
  9
$TDINDWG
 40
0.014679294
  9
$TDUSRTIMER
 40
0.0146781944
  9
$USRTIMER
 70
     1
  9
$ANGBASE
 50
0.0
  9
$ANGDIR
 70
     0
  9
$PDMODE
 70
     0
  9
$PDSIZE
 40
0.0
  9
$PLINEWID
 40
0.0
  9
$COORDS
 70
     1
  9
$SPLFRAME
 70
     0
  9
$SPLINETYPE
 70
     6
  9
$SPLINESEGS
 70
     8
  9
$ATTDIA
 70
     0
  9
$ATTREQ
 70
     1
  9
$HANDLING
 70
     1
  9
$HANDSEED
  5
16B
  9
$SURFTAB1
 70
     6
  9
$SURFTAB2
 70
     6
  9
$SURFTYPE
 70
     6
  9
$SURFU
 70
     6
  9
$SURFV
 70
     6
  9
$UCSNAME
  2

  9
$UCSORG
 10
0.0
 20
0.0
 30
0.0
  9
$UCSXDIR
 10
1.0
 20
0.0
 30
0.0
  9
$UCSYDIR
 10
0.0
 20
1.0
 30
0.0
  9
$PUCSNAME
  2

  9
$PUCSORG
 10
0.0
 20
0.0
 30
0.0
  9
$PUCSXDIR
 10
1.0
 20
0.0
 30
0.0
  9
$PUCSYDIR
 10
0.0
 20
1.0
 30
0.0
  9
$USERI1
 70
     0
  9
$USERI2
 70
     0
  9
$USERI3
 70
     0
  9
$USERI4
 70
     0
  9
$USERI5
 70
     0
  9
$USERR1
 40
0.0
  9
$USERR2
 40
0.0
  9
$USERR3
 40
0.0
  9
$USERR4
 40
0.0
  9
$USERR5
 40
0.0
  9
$WORLDVIEW
 70
     1
  9
$SHADEDGE
 70
     3
  9
$SHADEDIF
 70
    70
  9
$TILEMODE
 70
     1
  9
$MAXACTVP
 70
    64
  9
$PLIMCHECK
 70
     0
  9
$PEXTMIN
 10
1.0000000000000000E+020
 20
1.0000000000000000E+020
 30
1.0000000000000000E+020
  9
$PEXTMAX
 10
-1.0000000000000000E+020
 20
-1.0000000000000000E+020
 30
-1.0000000000000000E+020
  9
$PLIMMIN
 10
0.0
 20
0.0
  9
$PLIMMAX
 10
420.0
 20
297.0
  9
$UNITMODE
 70
     0
  9
$VISRETAIN
 70
     1
  9
$PLINEGEN
 70
     0
  9
$PSLTSCALE
 70
     1
  0
ENDSEC
  0
SECTION
  2
TABLES
  0
TABLE
  2
VPORT
 70
     1
  0
VPORT
  2
*ACTIVE
 70
     0
 10
0.0
 20
0.0
 11
1.0
 21
1.0
 12
216.224787732198
 22
164.86096566925849
 13
0.0
 23
0.0
 14
10.0
 24
10.0
 15
10.0
 25
10.0
 16
0.0
 26
0.0
 36
1.0
 17
0.0
 27
0.0
 37
0.0
 40
180.86854940361269
 41
1.7538975501113581
 42
50.0
 43
0.0
 44
0.0
 50
0.0
 51
0.0
 71
     0
 72
  1000
 73
     1
 74
     3
 75
     0
 76
     0
 77
     0
 78
     0
  0
ENDTAB
  0
TABLE
  2
LTYPE
 70
     3
  0
LTYPE
  2
CONTINUOUS
 70
     0
  3
Solid line
 72
    65
 73
     0
 40
0.0
  0
LTYPE
  2
ACAD_ISO02W100
 70
     0
  3
 ISO trazo __ __ __ __ __ __ __ __ __ __ __ __ __
 72
    65
 73
     2
 40
15.0
 49
12.0
 49
-3.0
  0
ENDTAB
  0
TABLE
  2
LAYER
 70
     3
  0
LAYER
  2
0
 70
     0
 62
     1
  6
CONTINUOUS
  0
LAYER
  2
EDGES
 70
     0
 62
     7
  6
CONTINUOUS
  0
LAYER
  2
SCAFFOLDING
 70
     0
 62
     7
  6
ACAD_ISO02W100
  0
ENDTAB
  0
TABLE
  2
STYLE
 70
     3
  0
STYLE
  2
STANDARD
 70
     0
 40
0.0
 41
1.0
 50
0.0
 71
     0
 42
2.5
  3
txt
  4

  0
STYLE
  2
ANNOTATIVE
 70
     0
 40
0.0
 41
1.0
 50
0.0
 71
     0
 42
0.2
  3
txt
  4

  0
STYLE
  2

 70
     1
 40
0.0
 41
1.0
 50
0.0
 71
     0
 42
2.5
  3
ltypeshp.shx
  4

  0
ENDTAB
  0
TABLE
  2
VIEW
 70
     1
  0
ENDTAB
  0
TABLE
  2
UCS
 70
     0
  0
ENDTAB
  0
TABLE
  2
APPID
 70
     5
  0
APPID
  2
ACAD
 70
     0
  0
APPID
  2
ACADANNOTATIVE
 70
     0
  0
APPID
  2
ACAD_EXEMPT_FROM_CAD_STANDARDS
 70
     0
  0
APPID
  2
ACAECLAYERSTANDARD
 70
     0
  0
APPID
  2
ACAD_MLEADERVER
 70
     0
  0
ENDTAB
  0
TABLE
  2
DIMSTYLE
 70
     3
  0
DIMSTYLE
  2
ISO-25
 70
     0
  3

  4

  5

  6

  7

 40
1.0
 41
2.5
 42
0.625
 43
3.75
 44
1.25
 45
0.0
 46
0.0
 47
0.0
 48
0.0
140
2.5
141
2.5
142
0.0
143
0.03937007874016
144
1.0
145
0.0
146
1.0
147
0.625
 71
     0
 72
     0
 73
     0
 74
     0
 75
     0
 76
     0
 77
     1
 78
     8
170
     0
171
     3
172
     1
173
     0
174
     0
175
     0
176
     0
177
     0
178
     0
  0
DIMSTYLE
  2
ANNOTATIVE
 70
     0
  3

  4

  5

  6

  7

 40
1.0
 41
0.18
 42
0.0625
 43
0.38
 44
0.18
 45
0.0
 46
0.0
 47
0.0
 48
0.0
140
0.18
141
0.09
142
0.0
143
25.399999999999999
144
1.0
145
0.0
146
1.0
147
0.09
 71
     0
 72
     0
 73
     1
 74
     1
 75
     0
 76
     0
 77
     0
 78
     0
170
     0
171
     2
172
     0
173
     0
174
     0
175
     0
176
     0
177
     0
178
     0
  0
ENDTAB
  0
ENDSEC
  0
SECTION
  2
BLOCKS
  0
BLOCK
  8
0
  2
$MODEL_SPACE
 70
     0
 10
0.0
 20
0.0
 30
0.0
  3
$MODEL_SPACE
  1

  0
ENDBLK
  5
69
  8
0
  0
BLOCK
 67
     1
  8
0
  2
$PAPER_SPACE
 70
     0
 10
0.0
 20
0.0
 30
0.0
  3
$PAPER_SPACE
  1

  0
ENDBLK
  5
65
 67
     1
  8
0
  0
ENDSEC
  0
SECTION
  2
ENTITIES
  0
LINE
  5
85
  8
EDGES
 10
160.38024777570641
 20
238.95995070292639
 30
0.0
 11
154.8932172603763
 21
221.90251403828421
 31
0.0
  0
LINE
  5
86
  8
EDGES
 10
154.8932172603763
 20
221.90251403828421
 30
0.0
 11
180.1428592478637
 21
216.69697510399601
 31
0.0
  0
LINE
  5
87
  8
EDGES
 10
180.1428592478637
 20
216.69697510399601
 30
0.0
 11
160.38024777570641
 21
238.95995070292639
 31
0.0
  0
LINE
  5
88
  8
EDGES
 10
160.38024777570641
 20
238.95995070292639
 30
0.0
 11
166.92913861377579
 21
195.77880638421411
 31
0.0
  0
LINE
  5
89
  8
EDGES
 10
166.92913861377579
 20
195.77880638421411
 30
0.0
 11
141.65714700811779
 21
200.9489629154171
 31
0.0
  0
LINE
  5
8A
  8
EDGES
 10
141.65714700811779
 20
200.9489629154171
 30
0.0
 11
160.38024777570641
 21
238.95995070292639
 31
0.0
  0
LINE
  5
8B
  8
EDGES
 10
166.92913861377579
 20
195.77880638421411
 30
0.0
 11
180.1428592478637
 21
216.69697510399601
 31
0.0
  0
LINE
  5
8C
  8
EDGES
 10
141.65714700811779
 20
200.9489629154171
 30
0.0
 11
154.8932172603763
 21
221.90251403828421
 31
0.0
  0
LINE
  5
8D
  8
EDGES
 10
154.8932172603763
 20
221.90251403828421
 30
0.0
 11
154.8932172603763
 21
165.9696892883812
 31
0.0
  0
LINE
  5
8E
  8
EDGES
 10
154.8932172603763
 20
165.9696892883812
 30
0.0
 11
141.65714700811779
 21
144.79304216247331
 31
0.0
  0
LINE
  5
8F
  8
EDGES
 10
141.65714700811779
 20
144.79304216247331
 30
0.0
 11
141.65714700811779
 21
200.9489629154171
 31
0.0
  0
LINE
  5
90
  8
EDGES
 10
154.8932172603763
 20
221.90251403828421
 30
0.0
 11
154.8932172603763
 21
165.9696892883812
 31
0.0
  0
LINE
  5
91
  8
EDGES
 10
154.8932172603763
 20
165.9696892883812
 30
0.0
 11
180.1428592478637
 21
160.69624782302071
 31
0.0
  0
LINE
  5
92
  8
EDGES
 10
180.1428592478637
 20
160.69624782302071
 30
0.0
 11
180.1428592478637
 21
216.69697510399601
 31
0.0
  0
LINE
  5
93
  8
EDGES
 10
166.92913861377579
 20
195.77880638421411
 30
0.0
 11
166.92913861377579
 21
139.68791834445469
 31
0.0
  0
LINE
  5
94
  8
EDGES
 10
166.92913861377579
 20
139.68791834445469
 30
0.0
 11
141.65714700811779
 21
144.79304216247331
 31
0.0
  0
LINE
  5
95
  8
EDGES
 10
166.92913861377579
 20
139.68791834445469
 30
0.0
 11
180.1428592478637
 21
160.69624782302071
 31
0.0
  0
LINE
  5
96
  8
EDGES
 10
180.1428592478637
 20
160.69624782302071
 30
0.0
 11
186.382286421657
 21
146.9296301027569
 31
0.0
  0
LINE
  5
97
  8
EDGES
 10
186.382286421657
 20
146.9296301027569
 30
0.0
 11
153.20398162406181
 21
153.99891942809231
 31
0.0
  0
LINE
  5
98
  8
EDGES
 10
153.20398162406181
 20
153.99891942809231
 30
0.0
 11
154.8932172603763
 21
165.9696892883812
 31
0.0
  0
LINE
  5
99
  8
EDGES
 10
186.382286421657
 20
146.9296301027569
 30
0.0
 11
167.64739099817319
 21
117.3242102275361
 31
0.0
  0
LINE
  5
9A
  8
EDGES
 10
167.64739099817319
 20
117.3242102275361
 30
0.0
 11
132.83436897711289
 21
124.86995065037151
 31
0.0
  0
LINE
  5
9B
  8
EDGES
 10
132.83436897711289
 20
124.86995065037151
 30
0.0
 11
141.65714700811779
 21
144.79304216247331
 31
0.0
  0
LINE
  5
9C
  8
EDGES
 10
153.20398162406181
 20
153.99891942809231
 30
0.0
 11
132.83436897711289
 21
124.86995065037151
 31
0.0
  0
LINE
  5
9E
  8
EDGES
 10
166.92913861377579
 20
139.68791834445469
 30
0.0
 11
167.64739099817319
 21
117.3242102275361
 31
0.0
  0
LINE
  5
9F
  8
EDGES
 10
171.46276844677681
 20
178.10652801520811
 30
0.0
 11
171.46276844677681
 21
188.0595322766431
 31
0.0
  0
LINE
  5
A0
  8
EDGES
 10
171.46276844677681
 20
188.0595322766431
 30
0.0
 11
175.8247985840087
 21
194.4012697866666
 31
0.0
  0
LINE
  5
A1
  8
EDGES
 10
175.8247985840087
 20
194.4012697866666
 30
0.0
 11
175.8247985840087
 21
184.31614619546221
 31
0.0
  0
LINE
  5
A2
  8
EDGES
 10
175.8247985840087
 20
184.31614619546221
 30
0.0
 11
171.46276844677681
 21
178.10652801520811
 31
0.0
  0
LINE
  5
A3
  8
EDGES
 10
171.46276844677681
 20
178.10652801520811
 30
0.0
 11
232.3116863009102
 21
168.1768773285923
 31
0.0
  0
LINE
  5
A4
  8
EDGES
 10
232.3116863009102
 20
168.1768773285923
 30
0.0
 11
236.48899907741659
 21
174.3170460765875
 31
0.0
  0
LINE
  5
A5
  8
EDGES
 10
236.48899907741659
 20
174.3170460765875
 30
0.0
 11
236.48899907741659
 21
184.27776479025181
 31
0.0
  0
LINE
  5
A6
  8
EDGES
 10
236.48899907741659
 20
184.27776479025181
 30
0.0
 11
232.28438393106401
 21
178.21946494045631
 31
0.0
  0
LINE
  5
A7
  8
EDGES
 10
232.28438393106401
 20
178.21946494045631
 30
0.0
 11
232.3116863009102
 21
168.1768773285923
 31
0.0
  0
LINE
  5
A8
  8
EDGES
 10
232.28438393106401
 20
178.21946494045631
 30
0.0
 11
171.46276844677681
 21
188.0595322766431
 31
0.0
  0
LINE
  5
A9
  8
EDGES
 10
236.48899907741659
 20
174.3170460765875
 30
0.0
 11
175.8247985840087
 21
184.31614619546221
 31
0.0
  0
LINE
  5
AA
  8
EDGES
 10
236.48899907741659
 20
184.27776479025181
 30
0.0
 11
175.8247985840087
 21
194.4012697866666
 31
0.0
  0
LINE
  5
AB
  8
EDGES
 10
247.07234581978969
 20
228.9334855770542
 30
0.0
 11
267.0920476650461
 21
206.662596371875
 31
0.0
  0
LINE
  5
AC
  8
EDGES
 10
267.0920476650461
 20
206.662596371875
 30
0.0
 11
241.6343027765445
 21
211.85753381215761
 31
0.0
  0
LINE
  5
AD
  8
EDGES
 10
241.6343027765445
 20
211.85753381215761
 30
0.0
 11
247.07234581978969
 21
228.9334855770542
 31
0.0
  0
LINE
  5
AE
  8
EDGES
 10
247.07234581978969
 20
228.9334855770542
 30
0.0
 11
253.7719442537859
 21
185.78686405442369
 31
0.0
  0
LINE
  5
AF
  8
EDGES
 10
253.7719442537859
 20
185.78686405442369
 30
0.0
 11
228.3526890917224
 21
190.93644070922079
 31
0.0
  0
LINE
  5
B0
  8
EDGES
 10
228.3526890917224
 20
190.93644070922079
 30
0.0
 11
247.07234581978969
 21
228.9334855770542
 31
0.0
  0
LINE
  5
B1
  8
EDGES
 10
253.7719442537859
 20
185.78686405442369
 30
0.0
 11
267.0920476650461
 21
206.662596371875
 31
0.0
  0
LINE
  5
B2
  8
EDGES
 10
267.0920476650461
 20
206.662596371875
 30
0.0
 11
267.0920476650461
 21
150.64333877749121
 31
0.0
  0
LINE
  5
B3
  8
EDGES
 10
267.0920476650461
 20
150.64333877749121
 30
0.0
 11
241.6343027765445
 21
155.8806192666577
 31
0.0
  0
LINE
  5
B4
  8
EDGES
 10
241.6343027765445
 20
155.8806192666577
 30
0.0
 11
241.6343027765445
 21
211.85753381215761
 31
0.0
  0
LINE
  5
B5
  8
EDGES
 10
228.3526890917224
 20
190.93644070922079
 30
0.0
 11
228.3526890917224
 21
134.7884189770914
 31
0.0
  0
LINE
  5
B6
  8
EDGES
 10
228.3526890917224
 20
134.7884189770914
 30
0.0
 11
253.7719442537859
 21
129.82835811709819
 31
0.0
  0
LINE
  5
B7
  8
EDGES
 10
253.7719442537859
 20
129.82835811709819
 30
0.0
 11
253.7719442537859
 21
185.78686405442369
 31
0.0
  0
LINE
  5
B8
  8
EDGES
 10
267.0920476650461
 20
150.64333877749121
 30
0.0
 11
253.7719442537859
 21
129.82835811709819
 31
0.0
  0
LINE
  5
B9
  8
EDGES
 10
267.0920476650461
 20
150.64333877749121
 30
0.0
 11
273.15260762743787
 21
136.93651843460879
 31
0.0
  0
LINE
  5
BA
  8
EDGES
 10
273.15260762743787
 20
136.93651843460879
 30
0.0
 11
254.46111553384779
 21
107.2945109233673
 31
0.0
  0
LINE
  5
BB
  8
EDGES
 10
254.46111553384779
 20
107.2945109233673
 30
0.0
 11
253.7719442537859
 21
129.82835811709819
 31
0.0
  0
LINE
  5
BC
  8
EDGES
 10
273.15260762743787
 20
136.93651843460879
 30
0.0
 11
240.03775908235929
 21
143.99764106212899
 31
0.0
  0
LINE
  5
BD
  8
EDGES
 10
240.03775908235929
 20
143.99764106212899
 30
0.0
 11
219.65372985260481
 21
114.6498476563949
 31
0.0
  0
LINE
  5
BE
  8
EDGES
 10
219.65372985260481
 20
114.6498476563949
 30
0.0
 11
254.46111553384779
 21
107.2945109233673
 31
0.0
  0
LINE
  5
BF
  8
EDGES
 10
219.65372985260481
 20
114.6498476563949
 30
0.0
 11
228.3526890917224
 21
134.7884189770914
 31
0.0
  0
LINE
  5
C0
  8
EDGES
 10
228.3526890917224
 20
134.7884189770914
 30
0.0
 11
241.6343027765445
 21
155.8806192666577
 31
0.0
  0
LINE
  5
C1
  8
EDGES
 10
241.6343027765445
 20
155.8806192666577
 30
0.0
 11
240.03775908235929
 21
143.99764106212899
 31
0.0
  0
LINE
  5
C2
  8
SCAFFOLDING
 10
241.6343027765445
 20
184.27776479025181
 30
0.0
 11
236.48899907741659
 21
178.91259422820309
 31
0.0
  0
LINE
  5
C3
  8
SCAFFOLDING
 10
234.95447238258481
 20
172.0614685417757
 30
0.0
 11
235.62042001573829
 21
146.33012166004161
 31
0.0
  0
LINE
  5
C8
  8
SCAFFOLDING
 10
172.1487082082551
 20
204.0417203995365
 30
0.0
 11
173.27120511549381
 21
190.68872792538809
 31
0.0
  0
LINE
  5
C9
  8
SCAFFOLDING
 10
174.0732341292634
 20
181.8226864668747
 30
0.0
 11
175.8249366774931
 21
153.83123663251101
 31
0.0
  0
LINE
  5
D4
  8
EDGES
 10
241.6343027765445
 20
211.85753381215761
 30
0.0
 11
228.3526890917224
 21
190.93644070922079
 31
0.0
  0
ENDSEC
  0
EOF
