  0
SECTION
  2
ENTITIES
  0
LINE
 62
  0
 10
-378.299988
 20
-7.150000
 30
0.000000
 11
-235.300003
 21
-321.750000
 31
0.000000
  0
LINE
 62
  0
 10
-201.500000
 20
-55.250000
 30
0.000000
 11
-62.400002
 21
-125.449997
 31
0.000000
  0
LINE
 62
  0
 10
-301.600006
 20
27.950001
 30
0.000000
 11
-158.600006
 21
-225.550003
 31
0.000000
  0
LINE
 62
  0
 10
-300.299988
 20
30.549999
 30
0.000000
 11
-305.500000
 21
-126.750000
 31
0.000000
  0
LINE
 62
  0
 10
-306.799988
 20
-125.449997
 30
0.000000
 11
-200.199997
 21
-55.250000
 31
0.000000
  0
LINE
 62
  0
 10
-301.600006
 20
-125.449997
 30
0.000000
 11
-148.199997
 21
-221.649994
 31
0.000000
  0
LINE
 62
  0
 10
-198.899994
 20
-56.549999
 30
0.000000
 11
-192.399994
 21
78.650002
 31
0.000000
  0
LINE
 62
  0
 10
-195.000000
 20
77.349998
 30
0.000000
 11
-62.400002
 21
-125.449997
 31
0.000000
  0
LINE
 62
  0
 10
-119.599998
 20
105.949997
 30
0.000000
 11
26.000000
 21
-34.450001
 31
0.000000
  0
LINE
 62
  0
 10
-115.699997
 20
108.550003
 30
0.000000
 11
-104.000000
 21
-3.250000
 31
0.000000
  0
LINE
 62
  0
 10
-102.699997
 20
1.950000
 30
0.000000
 11
32.500000
 21
-40.950001
 31
0.000000
  0
LINE
 62
  0
 10
-13.000000
 20
148.850006
 30
0.000000
 11
101.400002
 21
31.850000
 31
0.000000
  0
LINE
 62
  0
 10
-10.400000
 20
150.149994
 30
0.000000
 11
46.799999
 21
172.250000
 31
0.000000
  0
LINE
 62
  0
 10
46.799999
 20
173.550003
 30
0.000000
 11
152.100006
 21
70.849998
 31
0.000000
  0
LINE
 62
  0
 10
45.500000
 20
176.149994
 30
0.000000
 11
53.299999
 21
95.550003
 31
0.000000
  0
LINE
 62
  0
 10
158.600006
 20
77.349998
 30
0.000000
 11
156.000000
 21
-11.050000
 31
0.000000
  0
LINE
 62
  0
 10
-235.199997
 20
-316.000000
 30
0.000000
 11
-227.199997
 21
-482.399994
 31
0.000000
  0
LINE
 62
  0
 10
-225.600006
 20
-488.799988
 30
0.000000
 11
156.800003
 21
-8.800000
 31
0.000000
  0
LINE
 62
  0
 10
54.400002
 20
96.800003
 30
0.000000
 11
54.400002
 21
23.200001
 31
0.000000
  0
LINE
 62
  0
 10
49.599998
 20
21.600000
 30
0.000000
 11
145.600006
 21
-10.400000
 31
0.000000
  0
LINE
 62
  0
 10
-384.000000
 20
-351.200012
 30
0.000000
 11
56.000000
 21
18.400000
 31
0.000000
  0
LINE
 62
  0
 10
-17.600000
 20
55.200001
 30
0.000000
 11
102.400002
 21
31.200001
 31
0.000000
  0
LINE
 62
  0
 10
-14.400000
 20
56.799999
 30
0.000000
 11
-14.400000
 21
151.199997
 31
0.000000
  0
LINE
 62
  0
 10
-104.000000
 20
0.800000
 30
0.000000
 11
-0.000000
 21
60.000000
 31
0.000000
  0
LINE
 62
  0
 10
-196.800003
 20
76.000000
 30
0.000000
 11
-123.199997
 21
104.800003
 31
0.000000
  0
LINE
 62
  0
 10
-392.899994
 20
-363.437836
 30
0.000000
 11
-216.932434
 21
-487.902710
 31
0.000000
  0
LINE
 62
  0
 10
-243.537842
 20
-315.302704
 30
0.000000
 11
-149.321625
 21
-218.394592
 31
0.000000
  0
LINE
 62
  0
 10
-152.013519
 20
-223.778381
 30
0.000000
 11
-60.489189
 21
-125.524323
 31
0.000000
  0
LINE
 62
  0
 10
-61.835136
 20
-128.216217
 30
0.000000
 11
29.689190
 21
-38.037838
 31
0.000000
  0
LINE
 62
  0
 10
22.959459
 20
-43.421623
 30
0.000000
 11
101.024323
 21
29.259459
 31
0.000000
  0
LINE
 62
  0
 10
99.678375
 20
27.913513
 30
0.000000
 11
153.516220
 21
72.329727
 31
0.000000
  0
LINE
 62
  0
 10
-381.000000
 20
-3.750000
 30
0.000000
 11
-384.000000
 21
-357.750000
 31
0.000000
  0
LINE
 62
  0
 10
-380.000000
 20
-5.300000
 30
0.000000
 11
-305.000000
 21
28.900000
 31
0.000000
  0
ENDSEC
  0
EOF
