  0
SECTION
  2
HEADER
  9
$ACADVER
  1
AC1009
  9
$INSBASE
 10
0.0
 20
0.0
 30
0.0
  9
$EXTMIN
 10
169.881601
 20
92.914679
 30
0.0
  9
$EXTMAX
 10
356.893208
 20
248.506713
 30
0.0
  9
$LIMMIN
 10
0.0
 20
0.0
  9
$LIMMAX
 10
420.0
 20
297.0
  9
$ORTHOMODE
 70
     0
  9
$REGENMODE
 70
     1
  9
$FILLMODE
 70
     1
  9
$QTEXTMODE
 70
     0
  9
$MIRRTEXT
 70
     1
  9
$DRAGMODE
 70
     2
  9
$LTSCALE
 40
1.0
  9
$OSMODE
 70
     0
  9
$ATTMODE
 70
     1
  9
$TEXTSIZE
 40
2.5
  9
$TRACEWID
 40
1.0
  9
$TEXTSTYLE
  7
STANDARD
  9
$CLAYER
  8
0
  9
$CELTYPE
  6
BYLAYER
  9
$CECOLOR
 62
   256
  9
$DIMSCALE
 40
1.0
  9
$DIMASZ
 40
2.5
  9
$DIMEXO
 40
0.625
  9
$DIMDLI
 40
3.75
  9
$DIMRND
 40
0.0
  9
$DIMDLE
 40
0.0
  9
$DIMEXE
 40
1.25
  9
$DIMTP
 40
0.0
  9
$DIMTM
 40
0.0
  9
$DIMTXT
 40
2.5
  9
$DIMCEN
 40
2.5
  9
$DIMTSZ
 40
0.0
  9
$DIMTOL
 70
     0
  9
$DIMLIM
 70
     0
  9
$DIMTIH
 70
     0
  9
$DIMTOH
 70
     0
  9
$DIMSE1
 70
     0
  9
$DIMSE2
 70
     0
  9
$DIMTAD
 70
     1
  9
$DIMZIN
 70
     8
  9
$DIMBLK
  1

  9
$DIMASO
 70
     1
  9
$DIMSHO
 70
     1
  9
$DIMPOST
  1

  9
$DIMAPOST
  1

  9
$DIMALT
 70
     0
  9
$DIMALTD
 70
     4
  9
$DIMALTF
 40
0.0394
  9
$DIMLFAC
 40
1.0
  9
$DIMTOFL
 70
     1
  9
$DIMTVP
 40
0.0
  9
$DIMTIX
 70
     0
  9
$DIMSOXD
 70
     0
  9
$DIMSAH
 70
     0
  9
$DIMBLK1
  1

  9
$DIMBLK2
  1

  9
$DIMSTYLE
  2
STANDARD
  9
$DIMCLRD
 70
     0
  9
$DIMCLRE
 70
     0
  9
$DIMCLRT
 70
     0
  9
$DIMTFAC
 40
1.0
  9
$DIMGAP
 40
0.625
  9
$LUNITS
 70
     2
  9
$LUPREC
 70
     4
  9
$SKETCHINC
 40
1.0
  9
$FILLETRAD
 40
10.0
  9
$AUNITS
 70
     0
  9
$AUPREC
 70
     0
  9
$MENU
  1
.
  9
$ELEVATION
 40
0.0
  9
$PELEVATION
 40
0.0
  9
$THICKNESS
 40
0.0
  9
$LIMCHECK
 70
     0
  9
$BLIPMODE
 70
     0
  9
$CHAMFERA
 40
0.0
  9
$CHAMFERB
 40
0.0
  9
$SKPOLY
 70
     0
  9
$TDCREATE
 40
2451981.547723
  9
$TDUPDATE
 40
2451981.547723
  9
$TDINDWG
 40
0.0
  9
$TDUSRTIMER
 40
0.0
  9
$USRTIMER
 70
     1
  9
$ANGBASE
 50
0.0
  9
$ANGDIR
 70
     0
  9
$PDMODE
 70
     0
  9
$PDSIZE
 40
0.0
  9
$PLINEWID
 40
0.0
  9
$COORDS
 70
     1
  9
$SPLFRAME
 70
     0
  9
$SPLINETYPE
 70
     6
  9
$SPLINESEGS
 70
     8
  9
$ATTDIA
 70
     0
  9
$ATTREQ
 70
     1
  9
$HANDLING
 70
     1
  9
$HANDSEED
  5
93
  9
$SURFTAB1
 70
     6
  9
$SURFTAB2
 70
     6
  9
$SURFTYPE
 70
     6
  9
$SURFU
 70
     6
  9
$SURFV
 70
     6
  9
$UCSNAME
  2

  9
$UCSORG
 10
0.0
 20
0.0
 30
0.0
  9
$UCSXDIR
 10
1.0
 20
0.0
 30
0.0
  9
$UCSYDIR
 10
0.0
 20
1.0
 30
0.0
  9
$PUCSNAME
  2

  9
$PUCSORG
 10
0.0
 20
0.0
 30
0.0
  9
$PUCSXDIR
 10
1.0
 20
0.0
 30
0.0
  9
$PUCSYDIR
 10
0.0
 20
1.0
 30
0.0
  9
$USERI1
 70
     0
  9
$USERI2
 70
     0
  9
$USERI3
 70
     0
  9
$USERI4
 70
     0
  9
$USERI5
 70
     0
  9
$USERR1
 40
0.0
  9
$USERR2
 40
0.0
  9
$USERR3
 40
0.0
  9
$USERR4
 40
0.0
  9
$USERR5
 40
0.0
  9
$WORLDVIEW
 70
     1
  9
$SHADEDGE
 70
     3
  9
$SHADEDIF
 70
    70
  9
$TILEMODE
 70
     1
  9
$MAXACTVP
 70
    48
  9
$PLIMCHECK
 70
     0
  9
$PEXTMIN
 10
1.000000E+020
 20
1.000000E+020
 30
1.000000E+020
  9
$PEXTMAX
 10
-1.000000E+020
 20
-1.000000E+020
 30
-1.000000E+020
  9
$PLIMMIN
 10
0.0
 20
0.0
  9
$PLIMMAX
 10
420.0
 20
297.0
  9
$UNITMODE
 70
     0
  9
$VISRETAIN
 70
     1
  9
$PLINEGEN
 70
     0
  9
$PSLTSCALE
 70
     1
  0
ENDSEC
  0
SECTION
  2
TABLES
  0
TABLE
  2
VPORT
 70
     2
  0
VPORT
  2
*ACTIVE
 70
     0
 10
0.0
 20
0.0
 11
1.0
 21
1.0
 12
278.060369
 22
187.626984
 13
0.0
 23
0.0
 14
10.0
 24
10.0
 15
10.0
 25
10.0
 16
0.0
 26
0.0
 36
1.0
 17
0.0
 27
0.0
 37
0.0
 40
163.333653
 41
1.700368
 42
50.0
 43
0.0
 44
0.0
 50
0.0
 51
0.0
 71
     0
 72
   100
 73
     1
 74
     1
 75
     0
 76
     0
 77
     0
 78
     0
  0
ENDTAB
  0
TABLE
  2
LTYPE
 70
     1
  0
LTYPE
  2
CONTINUOUS
 70
     0
  3
Solid line
 72
    65
 73
     0
 40
0.0
  0
ENDTAB
  0
TABLE
  2
LAYER
 70
     1
  0
LAYER
  2
0
 70
     0
 62
     7
  6
CONTINUOUS
  0
ENDTAB
  0
TABLE
  2
STYLE
 70
     1
  0
STYLE
  2
STANDARD
 70
     0
 40
0.0
 41
1.0
 50
0.0
 71
     0
 42
2.5
  3
txt
  4

  0
ENDTAB
  0
TABLE
  2
VIEW
 70
     0
  0
ENDTAB
  0
TABLE
  2
UCS
 70
     0
  0
ENDTAB
  0
TABLE
  2
APPID
 70
     1
  0
APPID
  2
ACAD
 70
     0
  0
ENDTAB
  0
TABLE
  2
DIMSTYLE
 70
     1
  0
DIMSTYLE
  2
STANDARD
 70
     0
  3

  4

  5

  6

  7

 40
1.0
 41
0.18
 42
0.0625
 43
0.38
 44
0.18
 45
0.0
 46
0.0
 47
0.0
 48
0.0
140
0.18
141
0.09
142
0.0
143
25.4
144
1.0
145
0.0
146
1.0
147
0.09
 71
     0
 72
     0
 73
     1
 74
     1
 75
     0
 76
     0
 77
     0
 78
     0
170
     0
171
     2
172
     0
173
     0
174
     0
175
     0
176
     0
177
     0
178
     0
  0
ENDTAB
  0
ENDSEC
  0
SECTION
  2
BLOCKS
  0
BLOCK
  8
0
  2
$MODEL_SPACE
 70
     0
 10
0.0
 20
0.0
 30
0.0
  3
$MODEL_SPACE
  1

  0
ENDBLK
  5
1A
  8
0
  0
BLOCK
 67
     1
  8
0
  2
$PAPER_SPACE
 70
     0
 10
0.0
 20
0.0
 30
0.0
  3
$PAPER_SPACE
  1

  0
ENDBLK
  5
17
 67
     1
  8
0
  0
ENDSEC
  0
SECTION
  2
ENTITIES
  0
LINE
  5
28
  8
0
 62
     7
 10
200.422114
 20
158.309175
 30
0.0
 11
277.864129
 21
116.892661
 31
0.0
  0
LINE
  5
41
  8
0
 62
     7
 10
200.422114
 20
158.309175
 30
0.0
 11
200.422114
 21
187.807822
 31
0.0
  0
LINE
  5
42
  8
0
 62
     7
 10
277.864129
 20
116.892661
 30
0.0
 11
277.864129
 21
146.391308
 31
0.0
  0
LINE
  5
43
  8
0
 62
     7
 10
251.178205
 20
160.66312
 30
0.0
 11
277.864129
 21
146.391308
 31
0.0
  0
LINE
  5
44
  8
0
 62
     7
 10
251.178205
 20
149.221939
 30
0.0
 11
251.178205
 21
160.66312
 31
0.0
  0
LINE
  5
45
  8
0
 62
     7
 10
200.422114
 20
187.807822
 30
0.0
 11
227.108037
 21
173.536009
 31
0.0
  0
LINE
  5
46
  8
0
 62
     7
 10
227.108037
 20
162.094828
 30
0.0
 11
227.108037
 21
173.536009
 31
0.0
  0
LINE
  5
47
  8
0
 62
     7
 10
227.108037
 20
162.094828
 30
0.0
 11
251.178205
 21
149.221939
 31
0.0
  0
LINE
  5
48
  8
0
 62
     7
 10
239.627862
 20
183.36558
 30
0.0
 11
227.108037
 21
173.536009
 31
0.0
  0
LINE
  5
49
  8
0
 62
     7
 10
225.865373
 20
190.725852
 30
0.0
 11
239.627862
 21
183.36558
 31
0.0
  0
LINE
  5
4A
  8
0
 62
     7
 10
233.153344
 20
213.505781
 30
0.0
 11
200.422114
 21
187.807822
 31
0.0
  0
LINE
  5
4B
  8
0
 62
     7
 10
246.076778
 20
206.594241
 30
0.0
 11
225.865373
 21
190.725852
 31
0.0
  0
LINE
  5
4C
  8
0
 62
     7
 10
239.627862
 20
171.924398
 30
0.0
 11
239.627862
 21
183.36558
 31
0.0
  0
LINE
  5
4D
  8
0
 62
     7
 10
263.698029
 20
170.492691
 30
0.0
 11
251.178205
 21
160.66312
 31
0.0
  0
LINE
  5
4E
  8
0
 62
     7
 10
263.698029
 20
159.05151
 30
0.0
 11
263.698029
 21
170.492691
 31
0.0
  0
LINE
  5
4F
  8
0
 62
     7
 10
239.627862
 20
171.924398
 30
0.0
 11
263.698029
 21
159.05151
 31
0.0
  0
LINE
  5
50
  8
0
 62
     7
 10
239.627862
 20
171.924398
 30
0.0
 11
227.108037
 21
162.094828
 31
0.0
  0
LINE
  5
51
  8
0
 62
     7
 10
263.698029
 20
159.05151
 30
0.0
 11
251.178205
 21
149.221939
 31
0.0
  0
LINE
  5
52
  8
0
 62
     7
 10
263.698029
 20
170.492691
 30
0.0
 11
277.460518
 21
163.132419
 31
0.0
  0
LINE
  5
53
  8
0
 62
     7
 10
295.481206
 20
177.28083
 30
0.0
 11
277.460518
 21
163.132419
 31
0.0
  0
LINE
  5
54
  8
0
 62
     7
 10
308.404641
 20
170.36929
 30
0.0
 11
277.864129
 21
146.391308
 31
0.0
  0
LINE
  5
55
  8
0
 62
     7
 10
246.076778
 20
195.15306
 30
0.0
 11
246.076778
 21
206.594241
 31
0.0
  0
LINE
  5
57
  8
0
 62
     7
 10
264.024834
 20
209.244446
 30
0.0
 11
246.076778
 21
195.15306
 31
0.0
  0
LINE
  5
59
  8
0
 62
     7
 10
264.024834
 20
209.244446
 30
0.0
 11
264.024834
 21
219.337168
 31
0.0
  0
LINE
  5
60
  8
0
 62
     7
 10
251.101399
 20
216.155986
 30
0.0
 11
233.153344
 21
202.0646
 31
0.0
  0
LINE
  5
63
  8
0
 62
     7
 10
233.153344
 20
213.505781
 30
0.0
 11
246.076778
 21
206.594241
 31
0.0
  0
LINE
  5
64
  8
0
 62
     7
 10
233.153344
 20
202.0646
 30
0.0
 11
233.153344
 21
213.505781
 31
0.0
  0
LINE
  5
65
  8
0
 62
     7
 10
233.153344
 20
202.0646
 30
0.0
 11
246.076778
 21
195.15306
 31
0.0
  0
LINE
  5
66
  8
0
 62
     7
 10
251.101399
 20
216.155986
 30
0.0
 11
264.024834
 21
209.244446
 31
0.0
  0
LINE
  5
67
  8
0
 62
     7
 10
251.101399
 20
216.155986
 30
0.0
 11
251.101399
 21
226.248709
 31
0.0
  0
LINE
  5
68
  8
0
 62
     7
 10
313.429261
 20
179.931035
 30
0.0
 11
295.481206
 21
165.839649
 31
0.0
  0
LINE
  5
69
  8
0
 62
     7
 10
295.481206
 20
165.839649
 30
0.0
 11
308.404641
 21
158.928109
 31
0.0
  0
LINE
  5
6A
  8
0
 62
     7
 10
295.481206
 20
177.28083
 30
0.0
 11
308.404641
 21
170.36929
 31
0.0
  0
LINE
  5
6B
  8
0
 62
     7
 10
295.481206
 20
165.839649
 30
0.0
 11
295.481206
 21
177.28083
 31
0.0
  0
LINE
  5
6C
  8
0
 62
     7
 10
313.429261
 20
179.931035
 30
0.0
 11
313.429261
 21
190.023758
 31
0.0
  0
LINE
  5
6D
  8
0
 62
     7
 10
326.352696
 20
173.019495
 30
0.0
 11
326.352696
 21
183.112217
 31
0.0
  0
LINE
  5
6E
  8
0
 62
     7
 10
313.429261
 20
179.931035
 30
0.0
 11
326.352696
 21
173.019495
 31
0.0
  0
LINE
  5
6F
  8
0
 62
     7
 10
326.352696
 20
173.019495
 30
0.0
 11
308.404641
 21
158.928109
 31
0.0
  0
LINE
  5
70
  8
0
 62
     7
 10
308.404641
 20
158.928109
 30
0.0
 11
308.404641
 21
170.36929
 31
0.0
  0
LINE
  5
71
  8
0
 62
     7
 10
356.893208
 20
207.090199
 30
0.0
 11
326.352696
 21
183.112217
 31
0.0
  0
LINE
  5
72
  8
0
 62
     7
 10
331.44995
 20
204.172169
 30
0.0
 11
313.429261
 21
190.023758
 31
0.0
  0
LINE
  5
73
  8
0
 62
     7
 10
330.207285
 20
221.362012
 30
0.0
 11
356.893208
 21
207.090199
 31
0.0
  0
LINE
  5
74
  8
0
 62
     7
 10
317.687461
 20
211.532441
 30
0.0
 11
331.44995
 21
204.172169
 31
0.0
  0
LINE
  5
75
  8
0
 62
     7
 10
330.207285
 20
209.920831
 30
0.0
 11
317.687461
 21
200.09126
 31
0.0
  0
LINE
  5
76
  8
0
 62
     7
 10
330.207285
 20
221.362012
 30
0.0
 11
317.687461
 21
211.532441
 31
0.0
  0
LINE
  5
77
  8
0
 62
     7
 10
317.687461
 20
200.09126
 30
0.0
 11
317.687461
 21
211.532441
 31
0.0
  0
LINE
  5
78
  8
0
 62
     7
 10
330.207285
 20
209.920831
 30
0.0
 11
330.207285
 21
221.362012
 31
0.0
  0
LINE
  5
79
  8
0
 62
     7
 10
306.137117
 20
222.793719
 30
0.0
 11
330.207285
 21
209.920831
 31
0.0
  0
LINE
  5
7A
  8
0
 62
     7
 10
293.617293
 20
212.964149
 30
0.0
 11
317.687461
 21
200.09126
 31
0.0
  0
LINE
  5
7B
  8
0
 62
     7
 10
306.137117
 20
222.793719
 30
0.0
 11
293.617293
 21
212.964149
 31
0.0
  0
LINE
  5
7C
  8
0
 62
     7
 10
293.617293
 20
212.964149
 30
0.0
 11
293.617293
 21
224.40533
 31
0.0
  0
LINE
  5
7D
  8
0
 62
     7
 10
306.137117
 20
234.234901
 30
0.0
 11
293.617293
 21
224.40533
 31
0.0
  0
LINE
  5
7E
  8
0
 62
     7
 10
306.137117
 20
222.793719
 30
0.0
 11
306.137117
 21
234.234901
 31
0.0
  0
LINE
  5
7F
  8
0
 62
     7
 10
279.451194
 20
248.506713
 30
0.0
 11
306.137117
 21
234.234901
 31
0.0
  0
LINE
  5
80
  8
0
 62
     7
 10
279.854804
 20
231.765602
 30
0.0
 11
293.617293
 21
224.40533
 31
0.0
  0
LINE
  5
81
  8
0
 62
     7
 10
279.854804
 20
231.765602
 30
0.0
 11
264.024834
 21
219.337168
 31
0.0
  0
LINE
  5
82
  8
0
 62
     7
 10
279.451194
 20
248.506713
 30
0.0
 11
251.101399
 21
226.248709
 31
0.0
  0
LINE
  5
83
  8
0
 62
     7
 10
251.101399
 20
226.248709
 30
0.0
 11
264.024834
 21
219.337168
 31
0.0
  0
LINE
  5
84
  8
0
 62
     7
 10
313.429261
 20
190.023758
 30
0.0
 11
326.352696
 21
183.112217
 31
0.0
  0
LINE
  5
85
  8
0
 62
     7
 10
225.865373
 20
161.227205
 30
0.0
 11
225.865373
 21
190.725852
 31
0.0
  0
LINE
  5
86
  8
0
 62
     7
 10
279.854804
 20
203.615414
 30
0.0
 11
225.865373
 21
161.227205
 31
0.0
  0
LINE
  5
87
  8
0
 62
     7
 10
279.854804
 20
203.615414
 30
0.0
 11
279.854804
 21
231.765602
 31
0.0
  0
LINE
  5
88
  8
0
 62
     7
 10
277.460518
 20
133.633772
 30
0.0
 11
277.460518
 21
163.132419
 31
0.0
  0
LINE
  5
89
  8
0
 62
     7
 10
331.44995
 20
176.021981
 30
0.0
 11
277.460518
 21
133.633772
 31
0.0
  0
LINE
  5
8A
  8
0
 62
     7
 10
331.44995
 20
176.021981
 30
0.0
 11
331.44995
 21
204.172169
 31
0.0
  0
LINE
  5
8B
  8
0
 62
     7
 10
225.865373
 20
161.227205
 30
0.0
 11
277.460518
 21
133.633772
 31
0.0
  0
LINE
  5
8C
  8
0
 62
     7
 10
279.451194
 20
219.008066
 30
0.0
 11
279.451194
 21
248.506713
 31
0.0
  0
LINE
  5
8D
  8
0
 62
     7
 10
356.893208
 20
177.591552
 30
0.0
 11
356.893208
 21
207.090199
 31
0.0
  0
LINE
  5
8E
  8
0
 62
     7
 10
277.864129
 20
116.892661
 30
0.0
 11
356.893208
 21
177.591552
 31
0.0
  0
LINE
  5
8F
  8
0
 62
     7
 10
356.893208
 20
177.591552
 30
0.0
 11
279.451194
 21
219.008066
 31
0.0
  0
LINE
  5
90
  8
0
 62
     7
 10
200.422114
 20
158.309175
 30
0.0
 11
279.451194
 21
219.008066
 31
0.0
  0
LINE
  5
91
  8
0
 62
     7
 10
331.44995
 20
176.021981
 30
0.0
 11
279.854804
 21
203.615414
 31
0.0
  0
ENDSEC
  0
EOF
