  0
SECTION
  2
HEADER
  9
$ACADVER
  1
AC1009
  9
$INSBASE
 10
0.0
 20
0.0
 30
0.0
  9
$EXTMIN
 10
139.656517
 20
106.576826
 30
0.0
  9
$EXTMAX
 10
253.279901
 20
247.409174
 30
0.0
  9
$LIMMIN
 10
0.0
 20
0.0
  9
$LIMMAX
 10
420.0
 20
297.0
  9
$ORTHOMODE
 70
     1
  9
$REGENMODE
 70
     1
  9
$FILLMODE
 70
     1
  9
$QTEXTMODE
 70
     0
  9
$MIRRTEXT
 70
     1
  9
$DRAGMODE
 70
     2
  9
$LTSCALE
 40
1.0
  9
$OSMODE
 70
     0
  9
$ATTMODE
 70
     1
  9
$TEXTSIZE
 40
2.5
  9
$TRACEWID
 40
1.0
  9
$TEXTSTYLE
  7
STANDARD
  9
$CLAYER
  8
0
  9
$CELTYPE
  6
BYLAYER
  9
$CECOLOR
 62
   256
  9
$DIMSCALE
 40
1.0
  9
$DIMASZ
 40
2.5
  9
$DIMEXO
 40
0.625
  9
$DIMDLI
 40
3.75
  9
$DIMRND
 40
0.0
  9
$DIMDLE
 40
0.0
  9
$DIMEXE
 40
1.25
  9
$DIMTP
 40
0.0
  9
$DIMTM
 40
0.0
  9
$DIMTXT
 40
2.5
  9
$DIMCEN
 40
2.5
  9
$DIMTSZ
 40
0.0
  9
$DIMTOL
 70
     0
  9
$DIMLIM
 70
     0
  9
$DIMTIH
 70
     0
  9
$DIMTOH
 70
     0
  9
$DIMSE1
 70
     0
  9
$DIMSE2
 70
     0
  9
$DIMTAD
 70
     1
  9
$DIMZIN
 70
     8
  9
$DIMBLK
  1

  9
$DIMASO
 70
     1
  9
$DIMSHO
 70
     1
  9
$DIMPOST
  1

  9
$DIMAPOST
  1

  9
$DIMALT
 70
     0
  9
$DIMALTD
 70
     4
  9
$DIMALTF
 40
0.0394
  9
$DIMLFAC
 40
1.0
  9
$DIMTOFL
 70
     1
  9
$DIMTVP
 40
0.0
  9
$DIMTIX
 70
     0
  9
$DIMSOXD
 70
     0
  9
$DIMSAH
 70
     0
  9
$DIMBLK1
  1

  9
$DIMBLK2
  1

  9
$DIMSTYLE
  2
STANDARD
  9
$DIMCLRD
 70
     0
  9
$DIMCLRE
 70
     0
  9
$DIMCLRT
 70
     0
  9
$DIMTFAC
 40
1.0
  9
$DIMGAP
 40
0.625
  9
$LUNITS
 70
     2
  9
$LUPREC
 70
     4
  9
$SKETCHINC
 40
1.0
  9
$FILLETRAD
 40
10.0
  9
$AUNITS
 70
     0
  9
$AUPREC
 70
     0
  9
$MENU
  1
.
  9
$ELEVATION
 40
0.0
  9
$PELEVATION
 40
0.0
  9
$THICKNESS
 40
0.0
  9
$LIMCHECK
 70
     0
  9
$BLIPMODE
 70
     0
  9
$CHAMFERA
 40
0.0
  9
$CHAMFERB
 40
0.0
  9
$SKPOLY
 70
     0
  9
$TDCREATE
 40
2451603.813433
  9
$TDUPDATE
 40
2451603.813433
  9
$TDINDWG
 40
0.0
  9
$TDUSRTIMER
 40
0.0
  9
$USRTIMER
 70
     1
  9
$ANGBASE
 50
0.0
  9
$ANGDIR
 70
     0
  9
$PDMODE
 70
     0
  9
$PDSIZE
 40
0.0
  9
$PLINEWID
 40
0.0
  9
$COORDS
 70
     1
  9
$SPLFRAME
 70
     0
  9
$SPLINETYPE
 70
     6
  9
$SPLINESEGS
 70
     8
  9
$ATTDIA
 70
     0
  9
$ATTREQ
 70
     1
  9
$HANDLING
 70
     1
  9
$HANDSEED
  5
8A
  9
$SURFTAB1
 70
     6
  9
$SURFTAB2
 70
     6
  9
$SURFTYPE
 70
     6
  9
$SURFU
 70
     6
  9
$SURFV
 70
     6
  9
$UCSNAME
  2

  9
$UCSORG
 10
0.0
 20
0.0
 30
0.0
  9
$UCSXDIR
 10
1.0
 20
0.0
 30
0.0
  9
$UCSYDIR
 10
0.0
 20
1.0
 30
0.0
  9
$PUCSNAME
  2

  9
$PUCSORG
 10
0.0
 20
0.0
 30
0.0
  9
$PUCSXDIR
 10
1.0
 20
0.0
 30
0.0
  9
$PUCSYDIR
 10
0.0
 20
1.0
 30
0.0
  9
$USERI1
 70
     0
  9
$USERI2
 70
     0
  9
$USERI3
 70
     0
  9
$USERI4
 70
     0
  9
$USERI5
 70
     0
  9
$USERR1
 40
0.0
  9
$USERR2
 40
0.0
  9
$USERR3
 40
0.0
  9
$USERR4
 40
0.0
  9
$USERR5
 40
0.0
  9
$WORLDVIEW
 70
     1
  9
$SHADEDGE
 70
     3
  9
$SHADEDIF
 70
    70
  9
$TILEMODE
 70
     1
  9
$MAXACTVP
 70
    48
  9
$PLIMCHECK
 70
     0
  9
$PEXTMIN
 10
1.000000E+020
 20
1.000000E+020
 30
1.000000E+020
  9
$PEXTMAX
 10
-1.000000E+020
 20
-1.000000E+020
 30
-1.000000E+020
  9
$PLIMMIN
 10
0.0
 20
0.0
  9
$PLIMMAX
 10
420.0
 20
297.0
  9
$UNITMODE
 70
     0
  9
$VISRETAIN
 70
     1
  9
$PLINEGEN
 70
     0
  9
$PSLTSCALE
 70
     1
  0
ENDSEC
  0
SECTION
  2
TABLES
  0
TABLE
  2
VPORT
 70
     2
  0
VPORT
  2
*ACTIVE
 70
     0
 10
0.0
 20
0.0
 11
1.0
 21
1.0
 12
213.655393
 22
148.5
 13
0.0
 23
0.0
 14
10.0
 24
10.0
 15
10.0
 25
10.0
 16
0.0
 26
0.0
 36
1.0
 17
0.0
 27
0.0
 37
0.0
 40
297.0
 41
1.438757
 42
50.0
 43
0.0
 44
0.0
 50
0.0
 51
0.0
 71
     0
 72
   100
 73
     1
 74
     1
 75
     0
 76
     0
 77
     0
 78
     0
  0
ENDTAB
  0
TABLE
  2
LTYPE
 70
     1
  0
LTYPE
  2
CONTINUOUS
 70
     0
  3
Solid line
 72
    65
 73
     0
 40
0.0
  0
ENDTAB
  0
TABLE
  2
LAYER
 70
     1
  0
LAYER
  2
0
 70
     0
 62
     7
  6
CONTINUOUS
  0
ENDTAB
  0
TABLE
  2
STYLE
 70
     1
  0
STYLE
  2
STANDARD
 70
     0
 40
0.0
 41
1.0
 50
0.0
 71
     0
 42
2.5
  3
txt
  4

  0
ENDTAB
  0
TABLE
  2
VIEW
 70
     0
  0
ENDTAB
  0
TABLE
  2
UCS
 70
     0
  0
ENDTAB
  0
TABLE
  2
APPID
 70
     1
  0
APPID
  2
ACAD
 70
     0
  0
ENDTAB
  0
TABLE
  2
DIMSTYLE
 70
     1
  0
DIMSTYLE
  2
STANDARD
 70
     0
  3

  4

  5

  6

  7

 40
1.0
 41
0.18
 42
0.0625
 43
0.38
 44
0.18
 45
0.0
 46
0.0
 47
0.0
 48
0.0
140
0.18
141
0.09
142
0.0
143
25.4
144
1.0
145
0.0
146
1.0
147
0.09
 71
     0
 72
     0
 73
     1
 74
     1
 75
     0
 76
     0
 77
     0
 78
     0
170
     0
171
     2
172
     0
173
     0
174
     0
175
     0
176
     0
177
     0
178
     0
  0
ENDTAB
  0
ENDSEC
  0
SECTION
  2
BLOCKS
  0
BLOCK
  8
0
  2
$MODEL_SPACE
 70
     0
 10
0.0
 20
0.0
 30
0.0
  3
$MODEL_SPACE
  1

  0
ENDBLK
  5
7F
  8
0
  0
BLOCK
 67
     1
  8
0
  2
$PAPER_SPACE
 70
     0
 10
0.0
 20
0.0
 30
0.0
  3
$PAPER_SPACE
  1

  0
ENDBLK
  5
7C
 67
     1
  8
0
  0
ENDSEC
  0
SECTION
  2
ENTITIES
  0
LINE
  5
3E
  8
0
 62
     7
 10
175.335265
 20
236.782569
 30
0.0
 11
204.239678
 21
224.793578
 31
0.0
  0
LINE
  5
3F
  8
0
 62
     7
 10
204.239678
 20
224.793578
 30
0.0
 11
204.239678
 21
177.382569
 31
0.0
  0
LINE
  5
40
  8
0
 62
     7
 10
204.239678
 20
177.382569
 30
0.0
 11
168.56093
 21
149.00666
 31
0.0
  0
LINE
  5
41
  8
0
 62
     7
 10
175.335265
 20
189.371559
 30
0.0
 11
204.239678
 21
177.382569
 31
0.0
  0
LINE
  5
42
  8
0
 62
     7
 10
175.335265
 20
236.782569
 30
0.0
 11
175.335265
 21
189.371559
 31
0.0
  0
LINE
  5
43
  8
0
 62
     7
 10
175.335265
 20
189.371559
 30
0.0
 11
139.656517
 21
160.99565
 31
0.0
  0
LINE
  5
44
  8
0
 62
     7
 10
139.656517
 20
160.99565
 30
0.0
 11
168.56093
 21
149.00666
 31
0.0
  0
LINE
  5
45
  8
0
 62
     7
 10
217.601153
 20
235.420184
 30
0.0
 11
204.239678
 21
224.793578
 31
0.0
  0
LINE
  5
46
  8
0
 62
     7
 10
188.696739
 20
247.409174
 30
0.0
 11
175.335265
 21
236.782569
 31
0.0
  0
LINE
  5
47
  8
0
 62
     7
 10
188.696739
 20
247.409174
 30
0.0
 11
217.601153
 21
235.420184
 31
0.0
  0
LINE
  5
48
  8
0
 62
     7
 10
188.696739
 20
247.409174
 30
0.0
 11
188.696739
 21
199.998164
 31
0.0
  0
LINE
  5
49
  8
0
 62
     7
 10
217.601153
 20
235.420184
 30
0.0
 11
217.601153
 21
188.009174
 31
0.0
  0
LINE
  5
4A
  8
0
 62
     7
 10
188.696739
 20
199.998164
 30
0.0
 11
217.601153
 21
188.009174
 31
0.0
  0
LINE
  5
4E
  8
0
 62
     7
 10
253.279901
 20
216.385083
 30
0.0
 11
217.601153
 21
188.009174
 31
0.0
  0
LINE
  5
4F
  8
0
 62
     7
 10
224.375487
 20
228.374073
 30
0.0
 11
188.696739
 21
199.998164
 31
0.0
  0
LINE
  5
50
  8
0
 62
     7
 10
224.375487
 20
228.374073
 30
0.0
 11
253.279901
 21
216.385083
 31
0.0
  0
LINE
  5
51
  8
0
 62
     7
 10
168.56093
 20
149.00666
 30
0.0
 11
168.56093
 21
125.611927
 31
0.0
  0
LINE
  5
52
  8
0
 62
     7
 10
139.656517
 20
160.99565
 30
0.0
 11
139.656517
 21
137.600917
 31
0.0
  0
LINE
  5
53
  8
0
 62
     7
 10
175.335265
 20
165.976826
 30
0.0
 11
139.656517
 21
137.600917
 31
0.0
  0
LINE
  5
54
  8
0
 62
     7
 10
204.239678
 20
153.987835
 30
0.0
 11
168.56093
 21
125.611927
 31
0.0
  0
LINE
  5
55
  8
0
 62
     7
 10
139.656517
 20
137.600917
 30
0.0
 11
168.56093
 21
125.611927
 31
0.0
  0
LINE
  5
56
  8
0
 62
     7
 10
253.279901
 20
216.385083
 30
0.0
 11
253.279901
 21
192.990349
 31
0.0
  0
LINE
  5
57
  8
0
 62
     7
 10
224.375487
 20
228.374073
 30
0.0
 11
224.375487
 21
204.97934
 31
0.0
  0
LINE
  5
58
  8
0
 62
     7
 10
224.375487
 20
204.97934
 30
0.0
 11
253.279901
 21
192.990349
 31
0.0
  0
LINE
  5
59
  8
0
 62
     7
 10
204.239678
 20
153.987835
 30
0.0
 11
204.239678
 21
106.576826
 31
0.0
  0
LINE
  5
5A
  8
0
 62
     7
 10
175.335265
 20
165.976826
 30
0.0
 11
175.335265
 21
118.565816
 31
0.0
  0
LINE
  5
5B
  8
0
 62
     7
 10
175.335265
 20
165.976826
 30
0.0
 11
204.239678
 21
153.987835
 31
0.0
  0
LINE
  5
5C
  8
0
 62
     7
 10
253.279901
 20
192.990349
 30
0.0
 11
217.601153
 21
164.614441
 31
0.0
  0
LINE
  5
5D
  8
0
 62
     7
 10
224.375487
 20
204.97934
 30
0.0
 11
188.696739
 21
176.603431
 31
0.0
  0
LINE
  5
5E
  8
0
 62
     7
 10
188.696739
 20
176.603431
 30
0.0
 11
217.601153
 21
164.614441
 31
0.0
  0
LINE
  5
5F
  8
0
 62
     7
 10
217.601153
 20
164.614441
 30
0.0
 11
217.601153
 21
117.203431
 31
0.0
  0
LINE
  5
60
  8
0
 62
     7
 10
188.696739
 20
176.603431
 30
0.0
 11
188.696739
 21
129.192421
 31
0.0
  0
LINE
  5
61
  8
0
 62
     7
 10
175.335265
 20
118.565816
 30
0.0
 11
204.239678
 21
106.576826
 31
0.0
  0
LINE
  5
62
  8
0
 62
     7
 10
188.696739
 20
129.192421
 30
0.0
 11
217.601153
 21
117.203431
 31
0.0
  0
LINE
  5
63
  8
0
 62
     7
 10
217.601153
 20
117.203431
 30
0.0
 11
204.239678
 21
106.576826
 31
0.0
  0
LINE
  5
64
  8
0
 62
     7
 10
188.696739
 20
129.192421
 30
0.0
 11
175.335265
 21
118.565816
 31
0.0
  0
ENDSEC
  0
EOF
