  0
SECTION
  2
HEADER
  9
$ACADVER
  1
AC1009
  9
$INSBASE
 10
0.0
 20
0.0
 30
0.0
  9
$EXTMIN
 10
71.166919
 20
85.285321
 30
0.0
  9
$EXTMAX
 10
218.408819
 20
242.23211
 30
0.0
  9
$LIMMIN
 10
0.0
 20
0.0
  9
$LIMMAX
 10
420.0
 20
297.0
  9
$ORTHOMODE
 70
     1
  9
$REGENMODE
 70
     1
  9
$FILLMODE
 70
     1
  9
$QTEXTMODE
 70
     0
  9
$MIRRTEXT
 70
     1
  9
$DRAGMODE
 70
     2
  9
$LTSCALE
 40
1.0
  9
$OSMODE
 70
     0
  9
$ATTMODE
 70
     1
  9
$TEXTSIZE
 40
2.5
  9
$TRACEWID
 40
1.0
  9
$TEXTSTYLE
  7
STANDARD
  9
$CLAYER
  8
0
  9
$CELTYPE
  6
BYLAYER
  9
$CECOLOR
 62
   256
  9
$DIMSCALE
 40
1.0
  9
$DIMASZ
 40
2.5
  9
$DIMEXO
 40
0.625
  9
$DIMDLI
 40
3.75
  9
$DIMRND
 40
0.0
  9
$DIMDLE
 40
0.0
  9
$DIMEXE
 40
1.25
  9
$DIMTP
 40
0.0
  9
$DIMTM
 40
0.0
  9
$DIMTXT
 40
2.5
  9
$DIMCEN
 40
2.5
  9
$DIMTSZ
 40
0.0
  9
$DIMTOL
 70
     0
  9
$DIMLIM
 70
     0
  9
$DIMTIH
 70
     0
  9
$DIMTOH
 70
     0
  9
$DIMSE1
 70
     0
  9
$DIMSE2
 70
     0
  9
$DIMTAD
 70
     1
  9
$DIMZIN
 70
     8
  9
$DIMBLK
  1

  9
$DIMASO
 70
     1
  9
$DIMSHO
 70
     1
  9
$DIMPOST
  1

  9
$DIMAPOST
  1

  9
$DIMALT
 70
     0
  9
$DIMALTD
 70
     4
  9
$DIMALTF
 40
0.0394
  9
$DIMLFAC
 40
1.0
  9
$DIMTOFL
 70
     1
  9
$DIMTVP
 40
0.0
  9
$DIMTIX
 70
     0
  9
$DIMSOXD
 70
     0
  9
$DIMSAH
 70
     0
  9
$DIMBLK1
  1

  9
$DIMBLK2
  1

  9
$DIMSTYLE
  2
STANDARD
  9
$DIMCLRD
 70
     0
  9
$DIMCLRE
 70
     0
  9
$DIMCLRT
 70
     0
  9
$DIMTFAC
 40
1.0
  9
$DIMGAP
 40
0.625
  9
$LUNITS
 70
     2
  9
$LUPREC
 70
     4
  9
$SKETCHINC
 40
1.0
  9
$FILLETRAD
 40
10.0
  9
$AUNITS
 70
     0
  9
$AUPREC
 70
     0
  9
$MENU
  1
.
  9
$ELEVATION
 40
0.0
  9
$PELEVATION
 40
0.0
  9
$THICKNESS
 40
0.0
  9
$LIMCHECK
 70
     0
  9
$BLIPMODE
 70
     0
  9
$CHAMFERA
 40
10.0
  9
$CHAMFERB
 40
10.0
  9
$SKPOLY
 70
     0
  9
$TDCREATE
 40
2451319.472807
  9
$TDUPDATE
 40
2451319.472807
  9
$TDINDWG
 40
0.0
  9
$TDUSRTIMER
 40
0.0
  9
$USRTIMER
 70
     1
  9
$ANGBASE
 50
0.0
  9
$ANGDIR
 70
     0
  9
$PDMODE
 70
     0
  9
$PDSIZE
 40
0.0
  9
$PLINEWID
 40
0.0
  9
$COORDS
 70
     1
  9
$SPLFRAME
 70
     0
  9
$SPLINETYPE
 70
     6
  9
$SPLINESEGS
 70
     8
  9
$ATTDIA
 70
     0
  9
$ATTREQ
 70
     1
  9
$HANDLING
 70
     1
  9
$HANDSEED
  5
93
  9
$SURFTAB1
 70
     6
  9
$SURFTAB2
 70
     6
  9
$SURFTYPE
 70
     6
  9
$SURFU
 70
     6
  9
$SURFV
 70
     6
  9
$UCSNAME
  2

  9
$UCSORG
 10
0.0
 20
0.0
 30
0.0
  9
$UCSXDIR
 10
1.0
 20
0.0
 30
0.0
  9
$UCSYDIR
 10
0.0
 20
1.0
 30
0.0
  9
$PUCSNAME
  2

  9
$PUCSORG
 10
0.0
 20
0.0
 30
0.0
  9
$PUCSXDIR
 10
1.0
 20
0.0
 30
0.0
  9
$PUCSYDIR
 10
0.0
 20
1.0
 30
0.0
  9
$USERI1
 70
     0
  9
$USERI2
 70
     0
  9
$USERI3
 70
     0
  9
$USERI4
 70
     0
  9
$USERI5
 70
     0
  9
$USERR1
 40
0.0
  9
$USERR2
 40
0.0
  9
$USERR3
 40
0.0
  9
$USERR4
 40
0.0
  9
$USERR5
 40
0.0
  9
$WORLDVIEW
 70
     1
  9
$SHADEDGE
 70
     3
  9
$SHADEDIF
 70
    70
  9
$TILEMODE
 70
     1
  9
$MAXACTVP
 70
    48
  9
$PLIMCHECK
 70
     0
  9
$PEXTMIN
 10
1.000000E+020
 20
1.000000E+020
 30
1.000000E+020
  9
$PEXTMAX
 10
-1.000000E+020
 20
-1.000000E+020
 30
-1.000000E+020
  9
$PLIMMIN
 10
0.0
 20
0.0
  9
$PLIMMAX
 10
420.0
 20
297.0
  9
$UNITMODE
 70
     0
  9
$VISRETAIN
 70
     1
  9
$PLINEGEN
 70
     0
  9
$PSLTSCALE
 70
     1
  0
ENDSEC
  0
SECTION
  2
TABLES
  0
TABLE
  2
VPORT
 70
     2
  0
VPORT
  2
*ACTIVE
 70
     0
 10
0.0
 20
0.0
 11
1.0
 21
1.0
 12
213.655393
 22
148.5
 13
0.0
 23
0.0
 14
10.0
 24
10.0
 15
10.0
 25
10.0
 16
0.0
 26
0.0
 36
1.0
 17
0.0
 27
0.0
 37
0.0
 40
297.0
 41
1.438757
 42
50.0
 43
0.0
 44
0.0
 50
0.0
 51
0.0
 71
     0
 72
   100
 73
     1
 74
     1
 75
     0
 76
     0
 77
     0
 78
     0
  0
ENDTAB
  0
TABLE
  2
LTYPE
 70
     1
  0
LTYPE
  2
CONTINUOUS
 70
     0
  3
Solid line
 72
    65
 73
     0
 40
0.0
  0
ENDTAB
  0
TABLE
  2
LAYER
 70
     1
  0
LAYER
  2
0
 70
     0
 62
     7
  6
CONTINUOUS
  0
ENDTAB
  0
TABLE
  2
STYLE
 70
     1
  0
STYLE
  2
STANDARD
 70
     0
 40
0.0
 41
1.0
 50
0.0
 71
     0
 42
2.5
  3
txt
  4

  0
ENDTAB
  0
TABLE
  2
VIEW
 70
     0
  0
ENDTAB
  0
TABLE
  2
UCS
 70
     0
  0
ENDTAB
  0
TABLE
  2
APPID
 70
     1
  0
APPID
  2
ACAD
 70
     0
  0
ENDTAB
  0
TABLE
  2
DIMSTYLE
 70
     1
  0
DIMSTYLE
  2
STANDARD
 70
     0
  3

  4

  5

  6

  7

 40
1.0
 41
0.18
 42
0.0625
 43
0.38
 44
0.18
 45
0.0
 46
0.0
 47
0.0
 48
0.0
140
0.18
141
0.09
142
0.0
143
25.4
144
1.0
145
0.0
146
1.0
147
0.09
 71
     0
 72
     0
 73
     1
 74
     1
 75
     0
 76
     0
 77
     0
 78
     0
170
     0
171
     2
172
     0
173
     0
174
     0
175
     0
176
     0
177
     0
178
     0
  0
ENDTAB
  0
ENDSEC
  0
SECTION
  2
BLOCKS
  0
BLOCK
  8
0
  2
$MODEL_SPACE
 70
     0
 10
0.0
 20
0.0
 30
0.0
  3
$MODEL_SPACE
  1

  0
ENDBLK
  5
88
  8
0
  0
BLOCK
 67
     1
  8
0
  2
$PAPER_SPACE
 70
     0
 10
0.0
 20
0.0
 30
0.0
  3
$PAPER_SPACE
  1

  0
ENDBLK
  5
85
 67
     1
  8
0
  0
ENDSEC
  0
SECTION
  2
ENTITIES
  0
LINE
  5
20
  8
0
 62
     7
 10
149.695933
 20
85.285321
 30
0.0
 11
218.408819
 21
123.43211
 31
0.0
  0
LINE
  5
21
  8
0
 62
     7
 10
218.408819
 20
123.43211
 30
0.0
 11
218.408819
 21
217.16422
 31
0.0
  0
LINE
  5
22
  8
0
 62
     7
 10
149.695933
 20
179.017432
 30
0.0
 11
169.328186
 21
189.916514
 31
0.0
  0
LINE
  5
23
  8
0
 62
     7
 10
149.695933
 20
85.285321
 30
0.0
 11
149.695933
 21
179.017432
 31
0.0
  0
LINE
  5
24
  8
0
 62
     7
 10
71.166919
 20
204.085321
 30
0.0
 11
139.879806
 21
242.23211
 31
0.0
  0
LINE
  5
25
  8
0
 62
     7
 10
71.166919
 20
110.353211
 30
0.0
 11
71.166919
 21
204.085321
 31
0.0
  0
LINE
  5
26
  8
0
 62
     7
 10
71.166919
 20
110.353211
 30
0.0
 11
139.879806
 21
148.5
 31
0.0
  0
LINE
  5
27
  8
0
 62
     7
 10
139.879806
 20
148.5
 30
0.0
 11
139.879806
 21
242.23211
 31
0.0
  0
LINE
  5
28
  8
0
 62
     7
 10
139.879806
 20
148.5
 30
0.0
 11
218.408819
 21
123.43211
 31
0.0
  0
LINE
  5
29
  8
0
 62
     7
 10
139.879806
 20
242.23211
 30
0.0
 11
218.408819
 21
217.16422
 31
0.0
  0
LINE
  5
2A
  8
0
 62
     7
 10
71.166919
 20
110.353211
 30
0.0
 11
97.412507
 21
101.975142
 31
0.0
  0
LINE
  5
2B
  8
0
 62
     7
 10
71.166919
 20
204.085321
 30
0.0
 11
149.695933
 21
179.017432
 31
0.0
  0
LINE
  5
2C
  8
0
 62
     7
 10
123.173347
 20
93.751813
 30
0.0
 11
138.442878
 21
102.228877
 31
0.0
  0
LINE
  5
2D
  8
0
 62
     7
 10
97.412507
 20
101.975142
 30
0.0
 11
112.682038
 21
110.452206
 31
0.0
  0
LINE
  5
2E
  8
0
 62
     7
 10
123.173347
 20
93.751813
 30
0.0
 11
123.173347
 21
123.179336
 31
0.0
  0
LINE
  5
2F
  8
0
 62
     7
 10
138.442878
 20
102.228877
 30
0.0
 11
138.442878
 21
131.6564
 31
0.0
  0
LINE
  5
30
  8
0
 62
     7
 10
123.173347
 20
93.751813
 30
0.0
 11
149.695933
 21
85.285321
 31
0.0
  0
LINE
  5
31
  8
0
 62
     7
 10
123.173347
 20
123.179336
 30
0.0
 11
138.442878
 21
131.6564
 31
0.0
  0
LINE
  5
32
  8
0
 62
     7
 10
97.412507
 20
101.975142
 30
0.0
 11
97.412507
 21
131.402665
 31
0.0
  0
LINE
  5
33
  8
0
 62
     7
 10
97.412507
 20
131.402665
 30
0.0
 11
112.682038
 21
139.879729
 31
0.0
  0
LINE
  5
34
  8
0
 62
     7
 10
112.682038
 20
110.452206
 30
0.0
 11
112.682038
 21
139.879729
 31
0.0
  0
LINE
  5
35
  8
0
 62
     7
 10
112.682038
 20
139.879729
 30
0.0
 11
138.442878
 21
131.6564
 31
0.0
  0
LINE
  5
36
  8
0
 62
     7
 10
123.173347
 20
123.179336
 30
0.0
 11
97.412507
 21
131.402665
 31
0.0
  0
LINE
  5
37
  8
0
 62
     7
 10
112.682038
 20
110.452206
 30
0.0
 11
138.442878
 21
102.228877
 31
0.0
  0
LINE
  5
38
  8
0
 62
     7
 10
169.328186
 20
189.916514
 30
0.0
 11
169.328186
 21
162.668808
 31
0.0
  0
LINE
  5
39
  8
0
 62
     7
 10
195.089027
 20
154.445479
 30
0.0
 11
169.328186
 21
162.668808
 31
0.0
  0
LINE
  5
3A
  8
0
 62
     7
 10
184.597717
 20
171.145872
 30
0.0
 11
210.358558
 21
162.922543
 31
0.0
  0
LINE
  5
3B
  8
0
 62
     7
 10
150.284555
 20
195.995588
 30
0.0
 11
169.328186
 21
189.916514
 31
0.0
  0
LINE
  5
3C
  8
0
 62
     7
 10
150.284555
 20
195.995588
 30
0.0
 11
165.554086
 21
204.472652
 31
0.0
  0
LINE
  5
3D
  8
0
 62
     7
 10
184.597717
 20
198.393579
 30
0.0
 11
184.597717
 21
171.145872
 31
0.0
  0
LINE
  5
3E
  8
0
 62
     7
 10
184.597717
 20
171.145872
 30
0.0
 11
169.328186
 21
162.668808
 31
0.0
  0
LINE
  5
3F
  8
0
 62
     7
 10
210.358558
 20
162.922543
 30
0.0
 11
195.089027
 21
154.445479
 31
0.0
  0
LINE
  5
40
  8
0
 62
     7
 10
150.284555
 20
223.243295
 30
0.0
 11
150.284555
 21
195.995588
 31
0.0
  0
LINE
  5
41
  8
0
 62
     7
 10
150.284555
 20
223.243295
 30
0.0
 11
195.089027
 21
208.940892
 31
0.0
  0
LINE
  5
42
  8
0
 62
     7
 10
195.089027
 20
154.445479
 30
0.0
 11
195.089027
 21
208.940892
 31
0.0
  0
LINE
  5
43
  8
0
 62
     7
 10
210.358558
 20
162.922543
 30
0.0
 11
210.358558
 21
217.417956
 31
0.0
  0
LINE
  5
44
  8
0
 62
     7
 10
165.554086
 20
231.720359
 30
0.0
 11
210.358558
 21
217.417956
 31
0.0
  0
LINE
  5
45
  8
0
 62
     7
 10
165.554086
 20
231.720359
 30
0.0
 11
165.554086
 21
204.472652
 31
0.0
  0
LINE
  5
46
  8
0
 62
     7
 10
150.284555
 20
223.243295
 30
0.0
 11
165.554086
 21
231.720359
 31
0.0
  0
LINE
  5
47
  8
0
 62
     7
 10
165.554086
 20
204.472652
 30
0.0
 11
184.597717
 21
198.393579
 31
0.0
  0
LINE
  5
48
  8
0
 62
     7
 10
184.597717
 20
198.393579
 30
0.0
 11
218.408819
 21
217.16422
 31
0.0
  0
LINE
  5
6D
  8
0
 62
     7
 10
210.358558
 20
217.417956
 30
0.0
 11
195.089027
 21
208.940892
 31
0.0
  0
ENDSEC
  0
EOF
