  0
SECTION
  2
HEADER
  9
$ACADVER
  1
AC1012
  9
$DWGCODEPAGE
  3
ANSI_1252
  9
$INSBASE
 10
0.0
 20
0.0
 30
0.0
  9
$EXTMIN
 10
31.902412
 20
96.030743
 30
0.0
  9
$EXTMAX
 10
218.408819
 20
254.766055
 30
0.0
  9
$LIMMIN
 10
0.0
 20
0.0
  9
$LIMMAX
 10
420.0
 20
297.0
  9
$ORTHOMODE
 70
     1
  9
$REGENMODE
 70
     1
  9
$FILLMODE
 70
     1
  9
$QTEXTMODE
 70
     0
  9
$MIRRTEXT
 70
     1
  9
$DRAGMODE
 70
     2
  9
$LTSCALE
 40
1.0
  9
$OSMODE
 70
     0
  9
$ATTMODE
 70
     1
  9
$TEXTSIZE
 40
2.5
  9
$TRACEWID
 40
1.0
  9
$TEXTSTYLE
  7
STANDARD
  9
$CLAYER
  8
0
  9
$CELTYPE
  6
BYLAYER
  9
$CECOLOR
 62
   256
  9
$CELTSCALE
 40
1.0
  9
$DELOBJ
 70
     1
  9
$DISPSILH
 70
     0
  9
$DIMSCALE
 40
1.0
  9
$DIMASZ
 40
2.5
  9
$DIMEXO
 40
0.625
  9
$DIMDLI
 40
3.75
  9
$DIMRND
 40
0.0
  9
$DIMDLE
 40
0.0
  9
$DIMEXE
 40
1.25
  9
$DIMTP
 40
0.0
  9
$DIMTM
 40
0.0
  9
$DIMTXT
 40
2.5
  9
$DIMCEN
 40
2.5
  9
$DIMTSZ
 40
0.0
  9
$DIMTOL
 70
     0
  9
$DIMLIM
 70
     0
  9
$DIMTIH
 70
     0
  9
$DIMTOH
 70
     0
  9
$DIMSE1
 70
     0
  9
$DIMSE2
 70
     0
  9
$DIMTAD
 70
     1
  9
$DIMZIN
 70
     8
  9
$DIMBLK
  1

  9
$DIMASO
 70
     1
  9
$DIMSHO
 70
     1
  9
$DIMPOST
  1

  9
$DIMAPOST
  1

  9
$DIMALT
 70
     0
  9
$DIMALTD
 70
     4
  9
$DIMALTF
 40
0.0394
  9
$DIMLFAC
 40
1.0
  9
$DIMTOFL
 70
     1
  9
$DIMTVP
 40
0.0
  9
$DIMTIX
 70
     0
  9
$DIMSOXD
 70
     0
  9
$DIMSAH
 70
     0
  9
$DIMBLK1
  1

  9
$DIMBLK2
  1

  9
$DIMSTYLE
  2
STANDARD
  9
$DIMCLRD
 70
     0
  9
$DIMCLRE
 70
     0
  9
$DIMCLRT
 70
     0
  9
$DIMTFAC
 40
1.0
  9
$DIMGAP
 40
0.625
  9
$DIMJUST
 70
     0
  9
$DIMSD1
 70
     0
  9
$DIMSD2
 70
     0
  9
$DIMTOLJ
 70
     1
  9
$DIMTZIN
 70
     0
  9
$DIMALTZ
 70
     0
  9
$DIMALTTZ
 70
     0
  9
$DIMFIT
 70
     3
  9
$DIMUPT
 70
     0
  9
$DIMUNIT
 70
     2
  9
$DIMDEC
 70
     4
  9
$DIMTDEC
 70
     4
  9
$DIMALTU
 70
     2
  9
$DIMALTTD
 70
     2
  9
$DIMTXSTY
  7
STANDARD
  9
$DIMAUNIT
 70
     0
  9
$LUNITS
 70
     2
  9
$LUPREC
 70
     4
  9
$SKETCHINC
 40
1.0
  9
$FILLETRAD
 40
10.0
  9
$AUNITS
 70
     0
  9
$AUPREC
 70
     0
  9
$MENU
  1
.
  9
$ELEVATION
 40
0.0
  9
$PELEVATION
 40
0.0
  9
$THICKNESS
 40
0.0
  9
$LIMCHECK
 70
     0
  9
$BLIPMODE
 70
     0
  9
$CHAMFERA
 40
0.0
  9
$CHAMFERB
 40
0.0
  9
$CHAMFERC
 40
0.0
  9
$CHAMFERD
 40
0.0
  9
$SKPOLY
 70
     0
  9
$TDCREATE
 40
2451319.472807002
  9
$TDUPDATE
 40
2451709.563472998
  9
$TDINDWG
 40
0.0015040046
  9
$TDUSRTIMER
 40
0.0015040046
  9
$USRTIMER
 70
     1
  9
$ANGBASE
 50
0.0
  9
$ANGDIR
 70
     0
  9
$PDMODE
 70
     0
  9
$PDSIZE
 40
0.0
  9
$PLINEWID
 40
0.0
  9
$COORDS
 70
     1
  9
$SPLFRAME
 70
     0
  9
$SPLINETYPE
 70
     6
  9
$SPLINESEGS
 70
     8
  9
$ATTDIA
 70
     0
  9
$ATTREQ
 70
     1
  9
$HANDLING
 70
     1
  9
$HANDSEED
  5
194
  9
$SURFTAB1
 70
     6
  9
$SURFTAB2
 70
     6
  9
$SURFTYPE
 70
     6
  9
$SURFU
 70
     6
  9
$SURFV
 70
     6
  9
$UCSNAME
  2

  9
$UCSORG
 10
0.0
 20
0.0
 30
0.0
  9
$UCSXDIR
 10
1.0
 20
0.0
 30
0.0
  9
$UCSYDIR
 10
0.0
 20
1.0
 30
0.0
  9
$PUCSNAME
  2

  9
$PUCSORG
 10
0.0
 20
0.0
 30
0.0
  9
$PUCSXDIR
 10
1.0
 20
0.0
 30
0.0
  9
$PUCSYDIR
 10
0.0
 20
1.0
 30
0.0
  9
$USERI1
 70
     0
  9
$USERI2
 70
     0
  9
$USERI3
 70
     0
  9
$USERI4
 70
     0
  9
$USERI5
 70
     0
  9
$USERR1
 40
0.0
  9
$USERR2
 40
0.0
  9
$USERR3
 40
0.0
  9
$USERR4
 40
0.0
  9
$USERR5
 40
0.0
  9
$WORLDVIEW
 70
     1
  9
$SHADEDGE
 70
     3
  9
$SHADEDIF
 70
    70
  9
$TILEMODE
 70
     1
  9
$MAXACTVP
 70
    48
  9
$PINSBASE
 10
0.0
 20
0.0
 30
0.0
  9
$PLIMCHECK
 70
     0
  9
$PEXTMIN
 10
1.000000E+20
 20
1.000000E+20
 30
1.000000E+20
  9
$PEXTMAX
 10
-1.000000E+20
 20
-1.000000E+20
 30
-1.000000E+20
  9
$PLIMMIN
 10
0.0
 20
0.0
  9
$PLIMMAX
 10
420.0
 20
297.0
  9
$UNITMODE
 70
     0
  9
$VISRETAIN
 70
     1
  9
$PLINEGEN
 70
     0
  9
$PSLTSCALE
 70
     1
  9
$TREEDEPTH
 70
  3020
  9
$PICKSTYLE
 70
     1
  9
$CMLSTYLE
  2
STANDARD
  9
$CMLJUST
 70
     0
  9
$CMLSCALE
 40
1.0
  9
$SAVEIMAGES
 70
     1
  0
ENDSEC
  0
SECTION
  2
CLASSES
  0
ENDSEC
  0
SECTION
  2
TABLES
  0
TABLE
  2
VPORT
  5
177
100
AcDbSymbolTable
 70
     2
  0
VPORT
  5
193
100
AcDbSymbolTableRecord
100
AcDbViewportTableRecord
  2
*ACTIVE
 70
     0
 10
0.0
 20
0.0
 11
1.0
 21
1.0
 12
213.655393
 22
148.5
 13
0.0
 23
0.0
 14
10.0
 24
10.0
 15
10.0
 25
10.0
 16
0.0
 26
0.0
 36
1.0
 17
0.0
 27
0.0
 37
0.0
 40
297.0
 41
1.438757
 42
50.0
 43
0.0
 44
0.0
 50
0.0
 51
0.0
 71
     0
 72
   100
 73
     1
 74
     1
 75
     0
 76
     0
 77
     0
 78
     0
  0
ENDTAB
  0
TABLE
  2
LTYPE
  5
174
100
AcDbSymbolTable
 70
     1
  0
LTYPE
  5
181
100
AcDbSymbolTableRecord
100
AcDbLinetypeTableRecord
  2
BYBLOCK
 70
     0
  3

 72
    65
 73
     0
 40
0.0
  0
LTYPE
  5
182
100
AcDbSymbolTableRecord
100
AcDbLinetypeTableRecord
  2
BYLAYER
 70
     0
  3

 72
    65
 73
     0
 40
0.0
  0
LTYPE
  5
183
100
AcDbSymbolTableRecord
100
AcDbLinetypeTableRecord
  2
CONTINUOUS
 70
     0
  3
Solid line
 72
    65
 73
     0
 40
0.0
  0
ENDTAB
  0
TABLE
  2
LAYER
  5
171
100
AcDbSymbolTable
 70
     1
  0
LAYER
  5
17D
100
AcDbSymbolTableRecord
100
AcDbLayerTableRecord
  2
0
 70
     0
 62
     7
  6
CONTINUOUS
  0
ENDTAB
  0
TABLE
  2
STYLE
  5
172
100
AcDbSymbolTable
 70
     1
  0
STYLE
  5
17E
100
AcDbSymbolTableRecord
100
AcDbTextStyleTableRecord
  2
STANDARD
 70
     0
 40
0.0
 41
1.0
 50
0.0
 71
     0
 42
2.5
  3
txt
  4

  0
ENDTAB
  0
TABLE
  2
VIEW
  5
175
100
AcDbSymbolTable
 70
     0
  0
ENDTAB
  0
TABLE
  2
UCS
  5
176
100
AcDbSymbolTable
 70
     0
  0
ENDTAB
  0
TABLE
  2
APPID
  5
178
100
AcDbSymbolTable
 70
     1
  0
APPID
  5
17F
100
AcDbSymbolTableRecord
100
AcDbRegAppTableRecord
  2
ACAD
 70
     0
  0
ENDTAB
  0
TABLE
  2
DIMSTYLE
  5
179
100
AcDbSymbolTable
 70
     1
  0
DIMSTYLE
105
18E
100
AcDbSymbolTableRecord
100
AcDbDimStyleTableRecord
  2
STANDARD
 70
     0
  3

  4

  5

  6

  7

 40
1.0
 41
0.18
 42
0.0625
 43
0.38
 44
0.18
 45
0.0
 46
0.0
 47
0.0
 48
0.0
140
0.18
141
0.09
142
0.0
143
25.4
144
1.0
145
0.0
146
1.0
147
0.09
 71
     0
 72
     0
 73
     1
 74
     1
 75
     0
 76
     0
 77
     0
 78
     0
170
     0
171
     2
172
     0
173
     0
174
     0
175
     0
176
     0
177
     0
178
     0
270
     2
271
     4
272
     4
273
     2
274
     2
340
17E
275
     0
280
     0
281
     0
282
     0
283
     1
284
     0
285
     0
286
     0
287
     3
288
     0
  0
ENDTAB
  0
TABLE
  2
BLOCK_RECORD
  5
170
100
AcDbSymbolTable
 70
     2
  0
BLOCK_RECORD
  5
187
100
AcDbSymbolTableRecord
100
AcDbBlockTableRecord
  2
*MODEL_SPACE
  0
BLOCK_RECORD
  5
184
100
AcDbSymbolTableRecord
100
AcDbBlockTableRecord
  2
*PAPER_SPACE
  0
BLOCK_RECORD
  5
18F
100
AcDbSymbolTableRecord
100
AcDbBlockTableRecord
  2
$MODEL_SPACE
  0
BLOCK_RECORD
  5
191
100
AcDbSymbolTableRecord
100
AcDbBlockTableRecord
  2
$PAPER_SPACE
  0
ENDTAB
  0
ENDSEC
  0
SECTION
  2
BLOCKS
  0
BLOCK
  5
188
100
AcDbEntity
  8
0
100
AcDbBlockBegin
  2
*MODEL_SPACE
 70
     0
 10
0.0
 20
0.0
 30
0.0
  3
*MODEL_SPACE
  1

  0
ENDBLK
  5
189
100
AcDbEntity
  8
0
100
AcDbBlockEnd
  0
BLOCK
  5
185
100
AcDbEntity
 67
     1
  8
0
100
AcDbBlockBegin
  2
*PAPER_SPACE
 70
     0
 10
0.0
 20
0.0
 30
0.0
  3
*PAPER_SPACE
  1

  0
ENDBLK
  5
186
100
AcDbEntity
 67
     1
  8
0
100
AcDbBlockEnd
  0
BLOCK
  5
190
100
AcDbEntity
  8
0
100
AcDbBlockBegin
  2
$MODEL_SPACE
 70
     0
 10
0.0
 20
0.0
 30
0.0
  3
$MODEL_SPACE
  1

  0
ENDBLK
  5
161
100
AcDbEntity
  8
0
100
AcDbBlockEnd
  0
BLOCK
  5
192
100
AcDbEntity
  8
0
100
AcDbBlockBegin
  2
$PAPER_SPACE
 70
     0
 10
0.0
 20
0.0
 30
0.0
  3
$PAPER_SPACE
  1

  0
ENDBLK
  5
15E
100
AcDbEntity
  8
0
100
AcDbBlockEnd
  0
ENDSEC
  0
SECTION
  2
ENTITIES
  0
LINE
  5
20
100
AcDbEntity
  8
0
 62
     7
100
AcDbLine
 10
179.056815
 20
101.585369
 30
0.0
 11
218.408819
 21
123.43211
 31
0.0
  0
LINE
  5
21
100
AcDbEntity
  8
0
 62
     7
100
AcDbLine
 10
218.408819
 20
123.43211
 30
0.0
 11
218.408819
 21
217.16422
 31
0.0
  0
LINE
  5
26
100
AcDbEntity
  8
0
 62
     7
100
AcDbLine
 10
31.902412
 20
122.887156
 30
0.0
 11
100.615299
 21
161.033945
 31
0.0
  0
LINE
  5
28
100
AcDbEntity
  8
0
 62
     7
100
AcDbLine
 10
100.615299
 20
161.033945
 30
0.0
 11
218.408819
 21
123.43211
 31
0.0
  0
LINE
  5
30
100
AcDbEntity
  8
0
 62
     7
100
AcDbLine
 10
31.902412
 20
122.887156
 30
0.0
 11
116.03425
 21
96.030743
 31
0.0
  0
LINE
  5
48
100
AcDbEntity
  8
0
 62
     7
100
AcDbLine
 10
201.021861
 20
207.51164
 30
0.0
 11
218.408819
 21
217.16422
 31
0.0
  0
LINE
  5
9D
100
AcDbEntity
  8
0
 62
     7
100
AcDbLine
 10
100.615299
 20
254.766055
 30
0.0
 11
100.615299
 21
161.033945
 31
0.0
  0
LINE
  5
CD
100
AcDbEntity
  8
0
 62
     7
100
AcDbLine
 10
100.615299
 20
254.766055
 30
0.0
 11
218.408819
 21
217.16422
 31
0.0
  0
LINE
  5
CF
100
AcDbEntity
  8
0
 62
     7
100
AcDbLine
 10
31.902412
 20
216.619266
 30
0.0
 11
31.902412
 21
122.887156
 31
0.0
  0
LINE
  5
D0
100
AcDbEntity
  8
0
 62
     7
100
AcDbLine
 10
31.902412
 20
216.619266
 30
0.0
 11
100.615299
 21
254.766055
 31
0.0
  0
LINE
  5
109
100
AcDbEntity
  8
0
 62
     7
100
AcDbLine
 10
201.021861
 20
143.380566
 30
0.0
 11
201.021861
 21
207.51164
 31
0.0
  0
LINE
  5
10B
100
AcDbEntity
  8
0
 62
     7
100
AcDbLine
 10
179.056815
 20
101.585369
 30
0.0
 11
179.056815
 21
131.186406
 31
0.0
  0
LINE
  5
10C
100
AcDbEntity
  8
0
 62
     7
100
AcDbLine
 10
179.056815
 20
131.186406
 30
0.0
 11
201.021861
 21
143.380566
 31
0.0
  0
LINE
  5
10D
100
AcDbEntity
  8
0
 62
     7
100
AcDbLine
 10
127.028094
 20
167.000723
 30
0.0
 11
201.021861
 21
143.380566
 31
0.0
  0
LINE
  5
10E
100
AcDbEntity
  8
0
 62
     7
100
AcDbLine
 10
105.063048
 20
154.806562
 30
0.0
 11
179.056815
 21
131.186406
 31
0.0
  0
LINE
  5
10F
100
AcDbEntity
  8
0
 62
     7
100
AcDbLine
 10
105.063048
 20
154.806562
 30
0.0
 11
127.028094
 21
167.000723
 31
0.0
  0
LINE
  5
112
100
AcDbEntity
  8
0
 62
     7
100
AcDbLine
 10
105.063048
 20
154.806562
 30
0.0
 11
145.395131
 21
123.442618
 31
0.0
  0
LINE
  5
113
100
AcDbEntity
  8
0
 62
     7
100
AcDbLine
 10
145.395131
 20
123.442618
 30
0.0
 11
145.395131
 21
112.330791
 31
0.0
  0
LINE
  5
114
100
AcDbEntity
  8
0
 62
     7
100
AcDbLine
 10
75.702166
 20
138.506514
 30
0.0
 11
116.03425
 21
107.14257
 31
0.0
  0
LINE
  5
115
100
AcDbEntity
  8
0
 62
     7
100
AcDbLine
 10
116.03425
 20
107.14257
 30
0.0
 11
116.03425
 21
96.030743
 31
0.0
  0
LINE
  5
116
100
AcDbEntity
  8
0
 62
     7
100
AcDbLine
 10
145.395131
 20
112.330791
 30
0.0
 11
116.03425
 21
96.030743
 31
0.0
  0
LINE
  5
117
100
AcDbEntity
  8
0
 62
     7
100
AcDbLine
 10
145.395131
 20
123.442618
 30
0.0
 11
116.03425
 21
107.14257
 31
0.0
  0
LINE
  5
118
100
AcDbEntity
  8
0
 62
     7
100
AcDbLine
 10
105.063048
 20
154.806562
 30
0.0
 11
75.702166
 21
138.506514
 31
0.0
  0
LINE
  5
11A
100
AcDbEntity
  8
0
 62
     7
100
AcDbLine
 10
127.028094
 20
167.000723
 30
0.0
 11
127.028094
 21
231.131797
 31
0.0
  0
LINE
  5
11D
100
AcDbEntity
  8
0
 62
     7
100
AcDbLine
 10
108.89549
 20
236.920054
 30
0.0
 11
57.569562
 21
144.294771
 31
0.0
  0
LINE
  5
11E
100
AcDbEntity
  8
0
 62
     7
100
AcDbLine
 10
57.569561
 20
208.425845
 30
0.0
 11
108.89549
 21
236.920054
 31
0.0
  0
LINE
  5
120
100
AcDbEntity
  8
0
 62
     7
100
AcDbLine
 10
108.89549
 20
236.920054
 30
0.0
 11
127.028094
 21
231.131797
 31
0.0
  0
LINE
  5
121
100
AcDbEntity
  8
0
 62
     7
100
AcDbLine
 10
127.028094
 20
231.131797
 30
0.0
 11
201.021861
 21
207.51164
 31
0.0
  0
LINE
  5
146
100
AcDbEntity
  8
0
 62
     7
100
AcDbLine
 10
179.056815
 20
101.585369
 30
0.0
 11
145.395131
 21
112.330791
 31
0.0
  0
LINE
  5
16B
100
AcDbEntity
  8
0
 62
     7
100
AcDbLine
 10
127.028094
 20
231.131797
 30
0.0
 11
75.702166
 21
138.506514
 31
0.0
  0
LINE
  5
16C
100
AcDbEntity
  8
0
 62
     7
100
AcDbLine
 10
75.702166
 20
138.506514
 30
0.0
 11
57.569562
 21
144.294771
 31
0.0
  0
LINE
  5
16D
100
AcDbEntity
  8
0
 62
     7
100
AcDbLine
 10
57.569562
 20
144.294771
 30
0.0
 11
57.569561
 21
208.425845
 31
0.0
  0
LINE
  5
16E
100
AcDbEntity
  8
0
 62
     7
100
AcDbLine
 10
57.569561
 20
208.425845
 30
0.0
 11
31.902412
 21
216.619266
 31
0.0
  0
ENDSEC
  0
SECTION
  2
OBJECTS
  0
DICTIONARY
  5
17B
100
AcDbDictionary
  3
ACAD_GROUP
350
17C
  3
ACAD_MLINESTYLE
350
18A
  0
DICTIONARY
  5
17C
102
{ACAD_REACTORS
330
17B
102
}
100
AcDbDictionary
  0
DICTIONARY
  5
18A
102
{ACAD_REACTORS
330
17B
102
}
100
AcDbDictionary
  3
STANDARD
350
18B
  0
MLINESTYLE
  5
18B
102
{ACAD_REACTORS
330
18A
102
}
100
AcDbMlineStyle
  2
STANDARD
 70
     0
  3

 62
   256
 51
90.0
 52
90.0
 71
     2
 49
0.5
 62
   256
  6
BYLAYER
 49
-0.5
 62
   256
  6
BYLAYER
  0
ENDSEC
  0
EOF
