  0
SECTION
  2
HEADER
  9
$ACADVER
  1
AC1009
  9
$INSBASE
 10
0.0
 20
0.0
 30
0.0
  9
$EXTMIN
 10
131.421449
 20
95.680175
 30
0.0
  9
$EXTMAX
 10
211.339755
 20
202.262847
 30
0.0
  9
$LIMMIN
 10
0.0
 20
0.0
  9
$LIMMAX
 10
420.0
 20
297.0
  9
$ORTHOMODE
 70
     1
  9
$REGENMODE
 70
     1
  9
$FILLMODE
 70
     1
  9
$QTEXTMODE
 70
     0
  9
$MIRRTEXT
 70
     1
  9
$DRAGMODE
 70
     2
  9
$LTSCALE
 40
1.0
  9
$OSMODE
 70
     0
  9
$ATTMODE
 70
     1
  9
$TEXTSIZE
 40
2.5
  9
$TRACEWID
 40
1.0
  9
$TEXTSTYLE
  7
STANDARD
  9
$CLAYER
  8
0
  9
$CELTYPE
  6
BYLAYER
  9
$CECOLOR
 62
   256
  9
$DIMSCALE
 40
1.0
  9
$DIMASZ
 40
2.5
  9
$DIMEXO
 40
0.625
  9
$DIMDLI
 40
3.75
  9
$DIMRND
 40
0.0
  9
$DIMDLE
 40
0.0
  9
$DIMEXE
 40
1.25
  9
$DIMTP
 40
0.0
  9
$DIMTM
 40
0.0
  9
$DIMTXT
 40
2.5
  9
$DIMCEN
 40
2.5
  9
$DIMTSZ
 40
0.0
  9
$DIMTOL
 70
     0
  9
$DIMLIM
 70
     0
  9
$DIMTIH
 70
     0
  9
$DIMTOH
 70
     0
  9
$DIMSE1
 70
     0
  9
$DIMSE2
 70
     0
  9
$DIMTAD
 70
     1
  9
$DIMZIN
 70
     8
  9
$DIMBLK
  1

  9
$DIMASO
 70
     1
  9
$DIMSHO
 70
     1
  9
$DIMPOST
  1

  9
$DIMAPOST
  1

  9
$DIMALT
 70
     0
  9
$DIMALTD
 70
     4
  9
$DIMALTF
 40
0.0394
  9
$DIMLFAC
 40
1.0
  9
$DIMTOFL
 70
     1
  9
$DIMTVP
 40
0.0
  9
$DIMTIX
 70
     0
  9
$DIMSOXD
 70
     0
  9
$DIMSAH
 70
     0
  9
$DIMBLK1
  1

  9
$DIMBLK2
  1

  9
$DIMSTYLE
  2
ISO-25_WS
  9
$DIMCLRD
 70
     0
  9
$DIMCLRE
 70
     0
  9
$DIMCLRT
 70
     0
  9
$DIMTFAC
 40
1.0
  9
$DIMGAP
 40
0.625
  9
$LUNITS
 70
     2
  9
$LUPREC
 70
     4
  9
$SKETCHINC
 40
1.0
  9
$FILLETRAD
 40
10.0
  9
$AUNITS
 70
     0
  9
$AUPREC
 70
     0
  9
$MENU
  1
.
  9
$ELEVATION
 40
0.0
  9
$PELEVATION
 40
0.0
  9
$THICKNESS
 40
0.0
  9
$LIMCHECK
 70
     0
  9
$BLIPMODE
 70
     0
  9
$CHAMFERA
 40
0.0
  9
$CHAMFERB
 40
0.0
  9
$SKPOLY
 70
     1
  9
$TDCREATE
 40
2451750.433701
  9
$TDUPDATE
 40
2451750.433701
  9
$TDINDWG
 40
0.0
  9
$TDUSRTIMER
 40
0.0
  9
$USRTIMER
 70
     1
  9
$ANGBASE
 50
0.0
  9
$ANGDIR
 70
     0
  9
$PDMODE
 70
     0
  9
$PDSIZE
 40
0.0
  9
$PLINEWID
 40
0.0
  9
$COORDS
 70
     1
  9
$SPLFRAME
 70
     0
  9
$SPLINETYPE
 70
     6
  9
$SPLINESEGS
 70
     8
  9
$ATTDIA
 70
     0
  9
$ATTREQ
 70
     1
  9
$HANDLING
 70
     1
  9
$HANDSEED
  5
127
  9
$SURFTAB1
 70
     6
  9
$SURFTAB2
 70
     6
  9
$SURFTYPE
 70
     6
  9
$SURFU
 70
     6
  9
$SURFV
 70
     6
  9
$UCSNAME
  2

  9
$UCSORG
 10
0.0
 20
0.0
 30
0.0
  9
$UCSXDIR
 10
1.0
 20
0.0
 30
0.0
  9
$UCSYDIR
 10
0.0
 20
1.0
 30
0.0
  9
$PUCSNAME
  2

  9
$PUCSORG
 10
0.0
 20
0.0
 30
0.0
  9
$PUCSXDIR
 10
1.0
 20
0.0
 30
0.0
  9
$PUCSYDIR
 10
0.0
 20
1.0
 30
0.0
  9
$USERI1
 70
     0
  9
$USERI2
 70
     0
  9
$USERI3
 70
     0
  9
$USERI4
 70
     0
  9
$USERI5
 70
     0
  9
$USERR1
 40
0.0
  9
$USERR2
 40
0.0
  9
$USERR3
 40
0.0
  9
$USERR4
 40
0.0
  9
$USERR5
 40
0.0
  9
$WORLDVIEW
 70
     1
  9
$SHADEDGE
 70
     3
  9
$SHADEDIF
 70
    70
  9
$TILEMODE
 70
     1
  9
$MAXACTVP
 70
    48
  9
$PLIMCHECK
 70
     0
  9
$PEXTMIN
 10
1.000000E+020
 20
1.000000E+020
 30
1.000000E+020
  9
$PEXTMAX
 10
-1.000000E+020
 20
-1.000000E+020
 30
-1.000000E+020
  9
$PLIMMIN
 10
0.0
 20
0.0
  9
$PLIMMAX
 10
420.0
 20
297.0
  9
$UNITMODE
 70
     0
  9
$VISRETAIN
 70
     1
  9
$PLINEGEN
 70
     0
  9
$PSLTSCALE
 70
     1
  0
ENDSEC
  0
SECTION
  2
TABLES
  0
TABLE
  2
VPORT
 70
     2
  0
VPORT
  2
*ACTIVE
 70
     0
 10
0.0
 20
0.0
 11
1.0
 21
1.0
 12
213.655393
 22
148.5
 13
0.0
 23
0.0
 14
10.0
 24
10.0
 15
10.0
 25
10.0
 16
0.0
 26
0.0
 36
1.0
 17
0.0
 27
0.0
 37
0.0
 40
297.0
 41
1.438757
 42
50.0
 43
0.0
 44
0.0
 50
0.0
 51
0.0
 71
     0
 72
   100
 73
     1
 74
     1
 75
     0
 76
     0
 77
     0
 78
     1
  0
ENDTAB
  0
TABLE
  2
LTYPE
 70
     1
  0
LTYPE
  2
CONTINUOUS
 70
     0
  3
Solid line
 72
    65
 73
     0
 40
0.0
  0
ENDTAB
  0
TABLE
  2
LAYER
 70
     1
  0
LAYER
  2
0
 70
     0
 62
     7
  6
CONTINUOUS
  0
ENDTAB
  0
TABLE
  2
STYLE
 70
     1
  0
STYLE
  2
STANDARD
 70
     0
 40
0.0
 41
1.0
 50
0.0
 71
     0
 42
2.5
  3
ISOCP
  4

  0
ENDTAB
  0
TABLE
  2
VIEW
 70
     0
  0
ENDTAB
  0
TABLE
  2
UCS
 70
     0
  0
ENDTAB
  0
TABLE
  2
APPID
 70
     1
  0
APPID
  2
ACAD
 70
     0
  0
ENDTAB
  0
TABLE
  2
DIMSTYLE
 70
    10
  0
DIMSTYLE
  2
STANDARD
 70
     0
  3

  4

  5

  6

  7

 40
1.0
 41
2.5
 42
0.625
 43
3.75
 44
1.25
 45
0.0
 46
0.0
 47
0.0
 48
0.0
140
2.5
141
2.5
142
0.0
143
0.0394
144
1.0
145
0.0
146
1.0
147
0.625
 71
     0
 72
     0
 73
     0
 74
     0
 75
     0
 76
     0
 77
     1
 78
     8
170
     0
171
     4
172
     1
173
     0
174
     0
175
     0
176
     0
177
     0
178
     0
  0
DIMSTYLE
  2
ISO-35
 70
     0
  3

  4

  5

  6

  7

 40
1.0
 41
3.5
 42
0.875
 43
5.25
 44
1.75
 45
0.0
 46
0.0
 47
0.0
 48
0.0
140
3.5
141
3.5
142
0.0
143
0.0394
144
1.0
145
0.0
146
1.0
147
0.875
 71
     0
 72
     0
 73
     0
 74
     0
 75
     0
 76
     0
 77
     1
 78
     8
170
     0
171
     4
172
     1
173
     0
174
     0
175
     0
176
     0
177
     0
178
     0
  0
DIMSTYLE
  2
ISO-5
 70
     0
  3

  4

  5

  6

  7

 40
1.0
 41
5.0
 42
1.25
 43
7.5
 44
2.5
 45
0.0
 46
0.0
 47
0.0
 48
0.0
140
5.0
141
5.0
142
0.0
143
0.0394
144
1.0
145
0.0
146
1.0
147
1.25
 71
     0
 72
     0
 73
     0
 74
     0
 75
     0
 76
     0
 77
     1
 78
     8
170
     0
171
     4
172
     1
173
     0
174
     0
175
     0
176
     0
177
     0
178
     0
  0
DIMSTYLE
  2
ISO-7
 70
     0
  3

  4

  5

  6

  7

 40
1.0
 41
7.0
 42
1.75
 43
10.5
 44
3.5
 45
0.0
 46
0.0
 47
0.0
 48
0.0
140
7.0
141
7.0
142
0.0
143
0.0394
144
1.0
145
0.0
146
1.0
147
1.75
 71
     0
 72
     0
 73
     0
 74
     0
 75
     0
 76
     0
 77
     1
 78
     8
170
     0
171
     4
172
     1
173
     0
174
     0
175
     0
176
     0
177
     0
178
     0
  0
DIMSTYLE
  2
ISO1
 70
     0
  3

  4

  5

  6

  7

 40
1.0
 41
10.0
 42
2.5
 43
15.0
 44
5.0
 45
0.0
 46
0.0
 47
0.0
 48
0.0
140
10.0
141
10.0
142
0.0
143
0.0394
144
1.0
145
0.0
146
1.0
147
2.5
 71
     0
 72
     0
 73
     0
 74
     0
 75
     0
 76
     0
 77
     1
 78
     8
170
     0
171
     4
172
     1
173
     0
174
     0
175
     0
176
     0
177
     0
178
     0
  0
DIMSTYLE
  2
ISO1-4
 70
     0
  3

  4

  5

  6

  7

 40
1.0
 41
14.0
 42
3.5
 43
21.0
 44
7.0
 45
0.0
 46
0.0
 47
0.0
 48
0.0
140
14.0
141
14.0
142
0.0
143
0.0394
144
1.0
145
5.6
146
1.0
147
3.5
 71
     0
 72
     0
 73
     1
 74
     0
 75
     0
 76
     0
 77
     1
 78
     8
170
     0
171
     2
172
     1
173
     0
174
     0
175
     0
176
     0
177
     0
178
     0
  0
DIMSTYLE
  2
ISO2
 70
     0
  3

  4

  5

  6

  7

 40
1.0
 41
20.0
 42
5.0
 43
30.0
 44
10.0
 45
0.0
 46
0.0
 47
0.0
 48
0.0
140
20.0
141
20.0
142
0.0
143
0.0394
144
1.0
145
0.0
146
1.0
147
5.0
 71
     0
 72
     0
 73
     0
 74
     0
 75
     0
 76
     0
 77
     1
 78
     8
170
     0
171
     4
172
     1
173
     0
174
     0
175
     0
176
     0
177
     0
178
     0
  0
DIMSTYLE
  2
ISO-4
 70
     0
  3

  4

  5

  6

  7

 40
1.0
 41
14.0
 42
3.5
 43
21.0
 44
7.0
 45
0.0
 46
0.0
 47
0.0
 48
0.0
140
14.0
141
14.0
142
0.0
143
0.0394
144
1.0
145
0.0
146
1.0
147
3.5
 71
     0
 72
     0
 73
     0
 74
     0
 75
     0
 76
     0
 77
     1
 78
     8
170
     0
171
     4
172
     1
173
     0
174
     0
175
     0
176
     0
177
     0
178
     0
  0
DIMSTYLE
  2
ISO-25
 70
     0
  3

  4

  5

  6

  7

 40
1.0
 41
2.5
 42
0.625
 43
3.75
 44
1.25
 45
0.0
 46
0.0
 47
0.0
 48
0.0
140
2.5
141
2.5
142
0.0
143
0.0394
144
1.0
145
0.0
146
1.0
147
0.625
 71
     0
 72
     0
 73
     0
 74
     0
 75
     0
 76
     0
 77
     1
 78
     8
170
     0
171
     4
172
     1
173
     0
174
     0
175
     0
176
     0
177
     0
178
     0
  0
DIMSTYLE
  2
ISO-25_WS
 70
     0
  3

  4

  5

  6

  7

 40
1.0
 41
2.5
 42
0.625
 43
3.75
 44
1.25
 45
0.0
 46
0.0
 47
0.0
 48
0.0
140
2.5
141
2.5
142
0.0
143
0.0394
144
1.0
145
0.0
146
1.0
147
0.625
 71
     0
 72
     0
 73
     0
 74
     0
 75
     0
 76
     0
 77
     1
 78
     8
170
     0
171
     4
172
     1
173
     0
174
     0
175
     0
176
     0
177
     0
178
     0
  0
ENDTAB
  0
ENDSEC
  0
SECTION
  2
BLOCKS
  0
BLOCK
  8
0
  2
$MODEL_SPACE
 70
     0
 10
0.0
 20
0.0
 30
0.0
  3
$MODEL_SPACE
  1

  0
ENDBLK
  5
110
  8
0
  0
BLOCK
 67
     1
  8
0
  2
$PAPER_SPACE
 70
     0
 10
0.0
 20
0.0
 30
0.0
  3
$PAPER_SPACE
  1

  0
ENDBLK
  5
10D
 67
     1
  8
0
  0
ENDSEC
  0
SECTION
  2
ENTITIES
  0
LINE
  5
89
  8
0
 62
     7
 10
144.907311
 20
95.680175
 30
0.0
 11
156.181802
 21
101.849636
 31
0.0
  0
LINE
  5
8A
  8
0
 62
     7
 10
156.181802
 20
101.849636
 30
0.0
 11
163.16125
 21
95.680175
 31
0.0
  0
LINE
  5
8B
  8
0
 62
     7
 10
163.16125
 20
95.680175
 30
0.0
 11
211.339755
 21
122.043706
 31
0.0
  0
LINE
  5
8E
  8
0
 62
     7
 10
131.421449
 20
107.600961
 30
0.0
 11
144.907311
 21
95.680175
 31
0.0
  0
LINE
  5
8F
  8
0
 62
     7
 10
131.421449
 20
107.600961
 30
0.0
 11
142.695941
 21
113.770422
 31
0.0
  0
LINE
  5
90
  8
0
 62
     7
 10
135.716494
 20
119.939883
 30
0.0
 11
142.695941
 21
113.770422
 31
0.0
  0
LINE
  5
91
  8
0
 62
     7
 10
135.716494
 20
119.939883
 30
0.0
 11
183.895
 21
146.303414
 31
0.0
  0
LINE
  5
93
  8
0
 62
     7
 10
131.421449
 20
120.476357
 30
0.0
 11
144.907311
 21
108.555572
 31
0.0
  0
LINE
  5
94
  8
0
 62
     7
 10
131.421449
 20
120.476357
 30
0.0
 11
142.695941
 21
126.645818
 31
0.0
  0
LINE
  5
95
  8
0
 62
     7
 10
135.716494
 20
132.815279
 30
0.0
 11
142.695941
 21
126.645818
 31
0.0
  0
LINE
  5
96
  8
0
 62
     7
 10
205.101783
 20
131.505651
 30
0.0
 11
211.339755
 21
134.919102
 31
0.0
  0
LINE
  5
97
  8
0
 62
     7
 10
156.181802
 20
114.725033
 30
0.0
 11
163.16125
 21
108.555572
 31
0.0
  0
LINE
  5
98
  8
0
 62
     7
 10
144.907311
 20
108.555572
 30
0.0
 11
156.181802
 21
114.725033
 31
0.0
  0
LINE
  5
99
  8
0
 62
     7
 10
183.895
 20
159.17881
 30
0.0
 11
211.339755
 21
134.919102
 31
0.0
  0
LINE
  5
9A
  8
0
 62
     7
 10
163.16125
 20
95.680175
 30
0.0
 11
163.16125
 21
108.555572
 31
0.0
  0
LINE
  5
9B
  8
0
 62
     7
 10
156.181802
 20
101.849636
 30
0.0
 11
156.181802
 21
114.725033
 31
0.0
  0
LINE
  5
9C
  8
0
 62
     7
 10
144.907311
 20
95.680175
 30
0.0
 11
144.907311
 21
108.555572
 31
0.0
  0
LINE
  5
9D
  8
0
 62
     7
 10
131.421449
 20
107.600961
 30
0.0
 11
131.421449
 21
120.476357
 31
0.0
  0
LINE
  5
9E
  8
0
 62
     7
 10
142.695941
 20
113.770422
 30
0.0
 11
142.695941
 21
126.645818
 31
0.0
  0
LINE
  5
9F
  8
0
 62
     7
 10
135.716494
 20
119.939883
 30
0.0
 11
135.716494
 21
132.815279
 31
0.0
  0
LINE
  5
A0
  8
0
 62
     7
 10
183.895
 20
146.303414
 30
0.0
 11
183.895
 21
159.17881
 31
0.0
  0
LINE
  5
A1
  8
0
 62
     7
 10
211.339755
 20
122.043706
 30
0.0
 11
211.339755
 21
134.919102
 31
0.0
  0
LINE
  5
A2
  8
0
 62
     7
 10
205.101783
 20
131.505651
 30
0.0
 11
205.101783
 21
144.738695
 31
0.0
  0
LINE
  5
A3
  8
0
 62
     7
 10
205.101783
 20
144.738695
 30
0.0
 11
211.339755
 21
148.152147
 31
0.0
  0
LINE
  5
A4
  8
0
 62
     7
 10
211.339755
 20
148.152147
 30
0.0
 11
211.339755
 21
178.00314
 31
0.0
  0
LINE
  5
A5
  8
0
 62
     7
 10
192.625837
 20
130.52929
 30
0.0
 11
192.625837
 21
144.649661
 31
0.0
  0
LINE
  5
A6
  8
0
 62
     7
 10
163.16125
 20
108.555572
 30
0.0
 11
177.893544
 21
116.61716
 31
0.0
  0
LINE
  5
A7
  8
0
 62
     7
 10
192.625837
 20
144.649661
 30
0.0
 11
198.86381
 21
148.063113
 31
0.0
  0
LINE
  5
A8
  8
0
 62
     7
 10
198.86381
 20
148.063113
 30
0.0
 11
198.86381
 21
171.176237
 31
0.0
  0
LINE
  5
A9
  8
0
 62
     7
 10
198.86381
 20
171.176237
 30
0.0
 11
211.339755
 21
178.00314
 31
0.0
  0
LINE
  5
AA
  8
0
 62
     7
 10
135.716494
 20
132.815279
 30
0.0
 11
150.448788
 21
140.876868
 31
0.0
  0
LINE
  5
AB
  8
0
 62
     7
 10
165.181082
 20
154.788997
 30
0.0
 11
165.181082
 21
168.909369
 31
0.0
  0
LINE
  5
AC
  8
0
 62
     7
 10
165.181082
 20
168.909369
 30
0.0
 11
171.419054
 21
172.32282
 31
0.0
  0
LINE
  5
AD
  8
0
 62
     7
 10
171.419054
 20
172.32282
 30
0.0
 11
171.419054
 21
195.435945
 31
0.0
  0
LINE
  5
AE
  8
0
 62
     7
 10
183.895
 20
172.411854
 30
0.0
 11
183.895
 21
202.262847
 31
0.0
  0
LINE
  5
AF
  8
0
 62
     7
 10
177.657027
 20
168.998403
 30
0.0
 11
183.895
 21
172.411854
 31
0.0
  0
LINE
  5
B0
  8
0
 62
     7
 10
177.657027
 20
155.765359
 30
0.0
 11
177.657027
 21
168.998403
 31
0.0
  0
LINE
  5
B1
  8
0
 62
     7
 10
177.657027
 20
155.765359
 30
0.0
 11
183.895
 21
159.17881
 31
0.0
  0
LINE
  5
B2
  8
0
 62
     7
 10
171.419054
 20
195.435945
 30
0.0
 11
183.895
 21
202.262847
 31
0.0
  0
LINE
  5
B3
  8
0
 62
     7
 10
205.101783
 20
144.738695
 30
0.0
 11
177.657027
 21
168.998403
 31
0.0
  0
LINE
  5
B4
  8
0
 62
     7
 10
211.339755
 20
148.152147
 30
0.0
 11
183.895
 21
172.411854
 31
0.0
  0
LINE
  5
B5
  8
0
 62
     7
 10
205.101783
 20
131.505651
 30
0.0
 11
177.657027
 21
155.765359
 31
0.0
  0
LINE
  5
B6
  8
0
 62
     7
 10
198.86381
 20
148.063113
 30
0.0
 11
193.531089
 21
152.776955
 31
0.0
  0
LINE
  5
B7
  8
0
 62
     7
 10
192.625837
 20
144.649661
 30
0.0
 11
187.293116
 21
149.363504
 31
0.0
  0
LINE
  5
B8
  8
0
 62
     7
 10
198.86381
 20
171.176237
 30
0.0
 11
193.174044
 21
176.205689
 31
0.0
  0
LINE
  5
B9
  8
0
 62
     7
 10
211.339755
 20
178.00314
 30
0.0
 11
205.649989
 21
183.032591
 31
0.0
  0
LINE
  5
BD
  8
0
 62
     7
 10
193.174044
 20
176.205689
 30
0.0
 11
205.649989
 21
183.032591
 31
0.0
  0
LINE
  5
BF
  8
0
 62
     7
 10
185.275308
 20
183.187752
 30
0.0
 11
171.419054
 21
195.435945
 31
0.0
  0
LINE
  5
C2
  8
0
 62
     7
 10
197.751253
 20
182.978305
 30
0.0
 11
205.649989
 21
183.032591
 31
0.0
  0
LINE
  5
C3
  8
0
 62
     7
 10
193.174044
 20
176.205689
 30
0.0
 11
185.275308
 21
176.151402
 31
0.0
  0
LINE
  5
C5
  8
0
 62
     7
 10
197.751253
 20
182.978305
 30
0.0
 11
185.275308
 21
176.151402
 31
0.0
  0
LINE
  5
C6
  8
0
 62
     7
 10
175.514777
 20
159.774931
 30
0.0
 11
181.752749
 21
163.188382
 31
0.0
  0
LINE
  5
D0
  8
0
 62
     7
 10
187.293116
 20
149.363504
 30
0.0
 11
193.531089
 21
152.776955
 31
0.0
  0
LINE
  5
D1
  8
0
 62
     7
 10
193.531089
 20
152.776955
 30
0.0
 11
186.736776
 21
144.938655
 31
0.0
  0
LINE
  5
D2
  8
0
 62
     7
 10
186.736776
 20
144.938655
 30
0.0
 11
180.498804
 21
141.525204
 31
0.0
  0
LINE
  5
D3
  8
0
 62
     7
 10
180.498804
 20
141.525204
 30
0.0
 11
187.293116
 21
149.363504
 31
0.0
  0
LINE
  5
D5
  8
0
 62
     7
 10
175.514777
 20
159.774931
 30
0.0
 11
165.181082
 21
168.909369
 31
0.0
  0
LINE
  5
D6
  8
0
 62
     7
 10
181.752749
 20
163.188382
 30
0.0
 11
171.419054
 21
172.32282
 31
0.0
  0
LINE
  5
D7
  8
0
 62
     7
 10
181.752749
 20
163.188382
 30
0.0
 11
186.736776
 21
144.938655
 31
0.0
  0
LINE
  5
D8
  8
0
 62
     7
 10
180.498804
 20
141.525204
 30
0.0
 11
175.514777
 21
159.774931
 31
0.0
  0
LINE
  5
D9
  8
0
 62
     7
 10
150.448788
 20
140.876868
 30
0.0
 11
157.428235
 21
134.707407
 31
0.0
  0
LINE
  5
DA
  8
0
 62
     7
 10
146.153743
 20
128.537946
 30
0.0
 11
157.428235
 21
134.707407
 31
0.0
  0
LINE
  5
DB
  8
0
 62
     7
 10
146.153743
 20
128.537946
 30
0.0
 11
159.639604
 21
116.61716
 31
0.0
  0
LINE
  5
DC
  8
0
 62
     7
 10
170.914096
 20
122.786621
 30
0.0
 11
177.893544
 21
116.61716
 31
0.0
  0
LINE
  5
DD
  8
0
 62
     7
 10
159.639604
 20
116.61716
 30
0.0
 11
170.914096
 21
122.786621
 31
0.0
  0
LINE
  5
DE
  8
0
 62
     7
 10
159.639604
 20
116.61716
 30
0.0
 11
159.639604
 21
122.467701
 31
0.0
  0
LINE
  5
DF
  8
0
 62
     7
 10
146.153743
 20
134.388487
 30
0.0
 11
159.639604
 21
122.467701
 31
0.0
  0
LINE
  5
E0
  8
0
 62
     7
 10
159.639604
 20
122.467701
 30
0.0
 11
170.914096
 21
128.637162
 31
0.0
  0
LINE
  5
E1
  8
0
 62
     7
 10
146.153743
 20
134.388487
 30
0.0
 11
157.428235
 21
140.557948
 31
0.0
  0
LINE
  5
E2
  8
0
 62
     7
 10
170.914096
 20
128.637162
 30
0.0
 11
177.893544
 21
122.467701
 31
0.0
  0
LINE
  5
E3
  8
0
 62
     7
 10
170.914096
 20
128.637162
 30
0.0
 11
170.914096
 21
122.786621
 31
0.0
  0
LINE
  5
E4
  8
0
 62
     7
 10
146.153743
 20
128.537946
 30
0.0
 11
146.153743
 21
134.388487
 31
0.0
  0
LINE
  5
E5
  8
0
 62
     7
 10
157.428235
 20
134.707407
 30
0.0
 11
157.428235
 21
140.557948
 31
0.0
  0
LINE
  5
E6
  8
0
 62
     7
 10
150.448788
 20
146.727409
 30
0.0
 11
157.428235
 21
140.557948
 31
0.0
  0
LINE
  5
E7
  8
0
 62
     7
 10
177.893544
 20
116.61716
 30
0.0
 11
177.893544
 21
122.467701
 31
0.0
  0
LINE
  5
E8
  8
0
 62
     7
 10
177.893544
 20
122.467701
 30
0.0
 11
192.625837
 21
130.52929
 31
0.0
  0
LINE
  5
E9
  8
0
 62
     7
 10
150.448788
 20
140.876868
 30
0.0
 11
150.448788
 21
146.727409
 31
0.0
  0
LINE
  5
EB
  8
0
 62
     7
 10
150.448788
 20
146.727409
 30
0.0
 11
165.181082
 21
154.788997
 31
0.0
  0
LINE
  5
ED
  8
0
 62
     7
 10
192.625837
 20
130.52929
 30
0.0
 11
180.498804
 21
141.525204
 31
0.0
  0
LINE
  5
EE
  8
0
 62
     7
 10
180.498804
 20
141.525204
 30
0.0
 11
165.181082
 21
154.788997
 31
0.0
  0
LINE
  5
F0
  8
0
 62
     7
 10
185.275308
 20
176.151402
 30
0.0
 11
185.275308
 21
183.187752
 31
0.0
  0
LINE
  5
F1
  8
0
 62
     7
 10
197.751253
 20
182.978305
 30
0.0
 11
197.751253
 21
190.014654
 31
0.0
  0
LINE
  5
F2
  8
0
 62
     7
 10
197.751253
 20
190.014654
 30
0.0
 11
183.895
 21
202.262847
 31
0.0
  0
LINE
  5
F3
  8
0
 62
     7
 10
185.275308
 20
183.187752
 30
0.0
 11
197.751253
 21
190.014654
 31
0.0
  0
LINE
  5
F5
  8
0
 62
     7
 10
211.339755
 20
122.043706
 30
0.0
 11
183.895
 21
146.303414
 31
0.0
  0
VIEWPORT
  5
22
 67
     1
  8
0
 10
261.517699
 20
148.5
 30
0.0
 40
523.035398
 41
297.0
 68
    -1
 69
     1
1001
ACAD
1000
MVIEW
1002
{
1070
    16
1010
0.0
1020
0.0
1030
0.0
1010
0.0
1020
0.0
1030
1.0
1040
0.0
1040
297.0
1040
261.517699
1040
148.5
1040
50.0
1040
0.0
1040
0.0
1070
     0
1070
   100
1070
     1
1070
     1
1070
     0
1070
     0
1070
     0
1070
     0
1040
0.0
1040
0.0
1040
0.0
1040
1.0
1040
1.0
1040
10.0
1040
10.0
1070
     0
1002
{
1002
}
1002
}
  0
ENDSEC
  0
EOF
