  0
SECTION
  2
HEADER
  9
$ACADVER
  1
AC1009
  9
$INSBASE
 10
0.0
 20
0.0
 30
0.0
  9
$EXTMIN
 10
160.373115
 20
64.218285
 30
0.0
  9
$EXTMAX
 10
195.447144
 20
109.468285
 30
0.0
  9
$LIMMIN
 10
0.0
 20
0.0
  9
$LIMMAX
 10
420.0
 20
297.0
  9
$ORTHOMODE
 70
     1
  9
$REGENMODE
 70
     1
  9
$FILLMODE
 70
     1
  9
$QTEXTMODE
 70
     0
  9
$MIRRTEXT
 70
     1
  9
$DRAGMODE
 70
     2
  9
$LTSCALE
 40
1.0
  9
$OSMODE
 70
     0
  9
$ATTMODE
 70
     1
  9
$TEXTSIZE
 40
2.5
  9
$TRACEWID
 40
1.0
  9
$TEXTSTYLE
  7
STANDARD
  9
$CLAYER
  8
0
  9
$CELTYPE
  6
BYLAYER
  9
$CECOLOR
 62
   256
  9
$DIMSCALE
 40
1.0
  9
$DIMASZ
 40
2.5
  9
$DIMEXO
 40
0.625
  9
$DIMDLI
 40
3.75
  9
$DIMRND
 40
0.0
  9
$DIMDLE
 40
0.0
  9
$DIMEXE
 40
1.25
  9
$DIMTP
 40
0.0
  9
$DIMTM
 40
0.0
  9
$DIMTXT
 40
2.5
  9
$DIMCEN
 40
2.5
  9
$DIMTSZ
 40
0.0
  9
$DIMTOL
 70
     0
  9
$DIMLIM
 70
     0
  9
$DIMTIH
 70
     0
  9
$DIMTOH
 70
     0
  9
$DIMSE1
 70
     0
  9
$DIMSE2
 70
     0
  9
$DIMTAD
 70
     1
  9
$DIMZIN
 70
     8
  9
$DIMBLK
  1

  9
$DIMASO
 70
     1
  9
$DIMSHO
 70
     1
  9
$DIMPOST
  1

  9
$DIMAPOST
  1

  9
$DIMALT
 70
     0
  9
$DIMALTD
 70
     4
  9
$DIMALTF
 40
0.0394
  9
$DIMLFAC
 40
1.0
  9
$DIMTOFL
 70
     1
  9
$DIMTVP
 40
0.0
  9
$DIMTIX
 70
     0
  9
$DIMSOXD
 70
     0
  9
$DIMSAH
 70
     0
  9
$DIMBLK1
  1

  9
$DIMBLK2
  1

  9
$DIMSTYLE
  2
STANDARD
  9
$DIMCLRD
 70
     0
  9
$DIMCLRE
 70
     0
  9
$DIMCLRT
 70
     0
  9
$DIMTFAC
 40
1.0
  9
$DIMGAP
 40
0.625
  9
$LUNITS
 70
     2
  9
$LUPREC
 70
     4
  9
$SKETCHINC
 40
1.0
  9
$FILLETRAD
 40
10.0
  9
$AUNITS
 70
     0
  9
$AUPREC
 70
     0
  9
$MENU
  1
.
  9
$ELEVATION
 40
0.0
  9
$PELEVATION
 40
0.0
  9
$THICKNESS
 40
0.0
  9
$LIMCHECK
 70
     0
  9
$BLIPMODE
 70
     0
  9
$CHAMFERA
 40
0.0
  9
$CHAMFERB
 40
0.0
  9
$SKPOLY
 70
     0
  9
$TDCREATE
 40
2451974.758932
  9
$TDUPDATE
 40
2451974.758932
  9
$TDINDWG
 40
0.0
  9
$TDUSRTIMER
 40
0.0
  9
$USRTIMER
 70
     1
  9
$ANGBASE
 50
0.0
  9
$ANGDIR
 70
     0
  9
$PDMODE
 70
     0
  9
$PDSIZE
 40
0.0
  9
$PLINEWID
 40
0.0
  9
$COORDS
 70
     1
  9
$SPLFRAME
 70
     0
  9
$SPLINETYPE
 70
     6
  9
$SPLINESEGS
 70
     8
  9
$ATTDIA
 70
     0
  9
$ATTREQ
 70
     1
  9
$HANDLING
 70
     1
  9
$HANDSEED
  5
9C
  9
$SURFTAB1
 70
     6
  9
$SURFTAB2
 70
     6
  9
$SURFTYPE
 70
     6
  9
$SURFU
 70
     6
  9
$SURFV
 70
     6
  9
$UCSNAME
  2

  9
$UCSORG
 10
0.0
 20
0.0
 30
0.0
  9
$UCSXDIR
 10
1.0
 20
0.0
 30
0.0
  9
$UCSYDIR
 10
0.0
 20
1.0
 30
0.0
  9
$PUCSNAME
  2

  9
$PUCSORG
 10
0.0
 20
0.0
 30
0.0
  9
$PUCSXDIR
 10
1.0
 20
0.0
 30
0.0
  9
$PUCSYDIR
 10
0.0
 20
1.0
 30
0.0
  9
$USERI1
 70
     0
  9
$USERI2
 70
     0
  9
$USERI3
 70
     0
  9
$USERI4
 70
     0
  9
$USERI5
 70
     0
  9
$USERR1
 40
0.0
  9
$USERR2
 40
0.0
  9
$USERR3
 40
0.0
  9
$USERR4
 40
0.0
  9
$USERR5
 40
0.0
  9
$WORLDVIEW
 70
     1
  9
$SHADEDGE
 70
     3
  9
$SHADEDIF
 70
    70
  9
$TILEMODE
 70
     1
  9
$MAXACTVP
 70
    48
  9
$PLIMCHECK
 70
     0
  9
$PEXTMIN
 10
1.000000E+020
 20
1.000000E+020
 30
1.000000E+020
  9
$PEXTMAX
 10
-1.000000E+020
 20
-1.000000E+020
 30
-1.000000E+020
  9
$PLIMMIN
 10
0.0
 20
0.0
  9
$PLIMMAX
 10
420.0
 20
297.0
  9
$UNITMODE
 70
     0
  9
$VISRETAIN
 70
     1
  9
$PLINEGEN
 70
     0
  9
$PSLTSCALE
 70
     1
  0
ENDSEC
  0
SECTION
  2
TABLES
  0
TABLE
  2
VPORT
 70
     2
  0
VPORT
  2
*ACTIVE
 70
     0
 10
0.0
 20
0.0
 11
1.0
 21
1.0
 12
213.655393
 22
148.5
 13
0.0
 23
0.0
 14
17.320508
 24
5.0
 15
17.320508
 25
5.0
 16
0.0
 26
0.0
 36
1.0
 17
0.0
 27
0.0
 37
0.0
 40
297.0
 41
1.438757
 42
50.0
 43
0.0
 44
0.0
 50
0.0
 51
0.0
 71
     0
 72
   100
 73
     1
 74
     1
 75
     0
 76
     0
 77
     1
 78
     1
  0
ENDTAB
  0
TABLE
  2
LTYPE
 70
     1
  0
LTYPE
  2
CONTINUOUS
 70
     0
  3
Solid line
 72
    65
 73
     0
 40
0.0
  0
ENDTAB
  0
TABLE
  2
LAYER
 70
     1
  0
LAYER
  2
0
 70
     0
 62
     7
  6
CONTINUOUS
  0
ENDTAB
  0
TABLE
  2
STYLE
 70
     1
  0
STYLE
  2
STANDARD
 70
     0
 40
0.0
 41
1.0
 50
0.0
 71
     0
 42
2.5
  3
txt
  4

  0
ENDTAB
  0
TABLE
  2
VIEW
 70
     0
  0
ENDTAB
  0
TABLE
  2
UCS
 70
     0
  0
ENDTAB
  0
TABLE
  2
APPID
 70
     1
  0
APPID
  2
ACAD
 70
     0
  0
ENDTAB
  0
TABLE
  2
DIMSTYLE
 70
     1
  0
DIMSTYLE
  2
STANDARD
 70
     0
  3

  4

  5

  6

  7

 40
1.0
 41
0.18
 42
0.0625
 43
0.38
 44
0.18
 45
0.0
 46
0.0
 47
0.0
 48
0.0
140
0.18
141
0.09
142
0.0
143
25.4
144
1.0
145
0.0
146
1.0
147
0.09
 71
     0
 72
     0
 73
     1
 74
     1
 75
     0
 76
     0
 77
     0
 78
     0
170
     0
171
     2
172
     0
173
     0
174
     0
175
     0
176
     0
177
     0
178
     0
  0
ENDTAB
  0
ENDSEC
  0
SECTION
  2
BLOCKS
  0
BLOCK
  8
0
  2
$MODEL_SPACE
 70
     0
 10
0.0
 20
0.0
 30
0.0
  3
$MODEL_SPACE
  1

  0
ENDBLK
  5
91
  8
0
  0
BLOCK
 67
     1
  8
0
  2
$PAPER_SPACE
 70
     0
 10
0.0
 20
0.0
 30
0.0
  3
$PAPER_SPACE
  1

  0
ENDBLK
  5
8E
 67
     1
  8
0
  0
ENDSEC
  0
SECTION
  2
ENTITIES
  0
LINE
  5
46
  8
0
 62
     7
 10
174.229522
 20
109.468285
 30
0.0
 11
195.447144
 21
97.218285
 31
0.0
  0
LINE
  5
47
  8
0
 62
     7
 10
195.447144
 20
97.218285
 30
0.0
 11
192.416055
 21
95.468285
 31
0.0
  0
LINE
  5
48
  8
0
 62
     7
 10
192.416055
 20
95.468285
 30
0.0
 11
192.416055
 21
75.468285
 31
0.0
  0
LINE
  5
49
  8
0
 62
     7
 10
192.416055
 20
75.468285
 30
0.0
 11
186.78689
 21
72.218285
 31
0.0
  0
LINE
  5
4B
  8
0
 62
     7
 10
195.447144
 20
97.218285
 30
0.0
 11
195.447144
 21
72.218285
 31
0.0
  0
LINE
  5
4C
  8
0
 62
     7
 10
195.447144
 20
72.218285
 30
0.0
 11
181.590738
 21
64.218285
 31
0.0
  0
LINE
  5
4F
  8
0
 62
     7
 10
181.590738
 20
64.218285
 30
0.0
 11
175.961573
 21
67.468285
 31
0.0
  0
LINE
  5
50
  8
0
 62
     7
 10
186.78689
 20
72.218285
 30
0.0
 11
181.157725
 21
75.468285
 31
0.0
  0
LINE
  5
51
  8
0
 62
     7
 10
192.416055
 20
75.468285
 30
0.0
 11
186.78689
 21
78.718285
 31
0.0
  0
LINE
  5
52
  8
0
 62
     7
 10
171.198433
 20
107.718285
 30
0.0
 11
192.416055
 21
95.468285
 31
0.0
  0
LINE
  5
54
  8
0
 62
     7
 10
181.157725
 20
75.468285
 30
0.0
 11
186.78689
 21
78.718285
 31
0.0
  0
LINE
  5
55
  8
0
 62
     7
 10
186.78689
 20
78.718285
 30
0.0
 11
186.78689
 21
88.718285
 31
0.0
  0
LINE
  5
56
  8
0
 62
     7
 10
186.78689
 20
88.718285
 30
0.0
 11
176.394585
 21
94.718285
 31
0.0
  0
LINE
  5
57
  8
0
 62
     7
 10
176.394585
 20
94.718285
 30
0.0
 11
176.394585
 21
88.718285
 31
0.0
  0
LINE
  5
58
  8
0
 62
     7
 10
176.394585
 20
88.718285
 30
0.0
 11
171.198433
 21
91.718285
 31
0.0
  0
LINE
  5
59
  8
0
 62
     7
 10
171.198433
 20
107.718285
 30
0.0
 11
171.198433
 21
91.718285
 31
0.0
  0
LINE
  5
5A
  8
0
 62
     7
 10
171.198433
 20
107.718285
 30
0.0
 11
174.229522
 21
109.468285
 31
0.0
  0
LINE
  5
5B
  8
0
 62
     7
 10
189.817979
 20
75.468285
 30
0.0
 11
175.961573
 21
67.468285
 31
0.0
  0
LINE
  5
5D
  8
0
 62
     7
 10
189.817979
 20
90.468285
 30
0.0
 11
186.78689
 21
88.718285
 31
0.0
  0
LINE
  5
5E
  8
0
 62
     7
 10
189.817979
 20
90.468285
 30
0.0
 11
189.817979
 21
75.468285
 31
0.0
  0
LINE
  5
5F
  8
0
 62
     7
 10
189.817979
 20
90.468285
 30
0.0
 11
179.425674
 21
96.468285
 31
0.0
  0
LINE
  5
60
  8
0
 62
     7
 10
179.425674
 20
96.468285
 30
0.0
 11
176.394585
 21
94.718285
 31
0.0
  0
LINE
  5
61
  8
0
 62
     7
 10
179.425674
 20
96.468285
 30
0.0
 11
179.425674
 21
90.468285
 31
0.0
  0
LINE
  5
62
  8
0
 62
     7
 10
179.425674
 20
90.468285
 30
0.0
 11
176.394585
 21
88.718285
 31
0.0
  0
LINE
  5
63
  8
0
 62
     7
 10
174.229522
 20
109.468285
 30
0.0
 11
174.229522
 21
84.468285
 31
0.0
  0
LINE
  5
64
  8
0
 62
     7
 10
171.198433
 20
91.718285
 30
0.0
 11
167.301319
 21
89.468285
 31
0.0
  0
LINE
  5
65
  8
0
 62
     7
 10
167.301319
 20
89.468285
 30
0.0
 11
160.373115
 21
85.468285
 31
0.0
  0
LINE
  5
66
  8
0
 62
     7
 10
160.373115
 20
85.468285
 30
0.0
 11
160.373115
 21
76.468285
 31
0.0
  0
LINE
  5
67
  8
0
 62
     7
 10
160.373115
 20
76.468285
 30
0.0
 11
168.167344
 21
71.968285
 31
0.0
  0
LINE
  5
68
  8
0
 62
     7
 10
168.167344
 20
71.968285
 30
0.0
 11
160.373115
 21
85.468285
 31
0.0
  0
LINE
  5
69
  8
0
 62
     7
 10
175.095547
 20
75.968285
 30
0.0
 11
168.167344
 21
71.968285
 31
0.0
  0
LINE
  5
6A
  8
0
 62
     7
 10
175.095547
 20
75.968285
 30
0.0
 11
167.301319
 21
89.468285
 31
0.0
  0
LINE
  5
6B
  8
0
 62
     7
 10
167.301319
 20
89.468285
 30
0.0
 11
175.095547
 21
84.968285
 31
0.0
  0
LINE
  5
6C
  8
0
 62
     7
 10
175.095547
 20
84.968285
 30
0.0
 11
175.095547
 21
75.968285
 31
0.0
  0
LINE
  5
6D
  8
0
 62
     7
 10
160.373115
 20
76.468285
 30
0.0
 11
174.229522
 21
84.468285
 31
0.0
  0
LINE
  5
6E
  8
0
 62
     7
 10
174.229522
 20
84.468285
 30
0.0
 11
182.02375
 21
79.968285
 31
0.0
  0
LINE
  5
6F
  8
0
 62
     7
 10
175.095547
 20
75.968285
 30
0.0
 11
182.02375
 21
79.968285
 31
0.0
  0
LINE
  5
70
  8
0
 62
     7
 10
182.02375
 20
88.968285
 30
0.0
 11
182.02375
 21
79.968285
 31
0.0
  0
LINE
  5
71
  8
0
 62
     7
 10
175.095547
 20
84.968285
 30
0.0
 11
182.02375
 21
88.968285
 31
0.0
  0
LINE
  5
72
  8
0
 62
     7
 10
179.425674
 20
90.468285
 30
0.0
 11
182.02375
 21
88.968285
 31
0.0
  0
LINE
  5
73
  8
0
 62
     7
 10
189.817979
 20
75.468285
 30
0.0
 11
195.447144
 21
72.218285
 31
0.0
  0
LINE
  5
75
  8
0
 62
     7
 10
186.78689
 20
72.218285
 30
0.0
 11
181.590738
 21
64.218285
 31
0.0
  0
LINE
  5
76
  8
0
 62
     7
 10
181.157725
 20
75.468285
 30
0.0
 11
175.961573
 21
67.468285
 31
0.0
  0
ENDSEC
  0
EOF
