  0
SECTION
  2
HEADER
  9
$ACADVER
  1
AC1009
  9
$INSBASE
 10
0.0
 20
0.0
 30
0.0
  9
$EXTMIN
 10
12.5949
 20
1.6126
 30
0.0
  9
$EXTMAX
 10
91.3408
 20
100.9325
 30
0.0
  9
$LIMMIN
 10
0.0
 20
0.0
  9
$LIMMAX
 10
12.0
 20
9.0
  9
$ORTHOMODE
 70
     0
  9
$REGENMODE
 70
     1
  9
$FILLMODE
 70
     1
  9
$QTEXTMODE
 70
     0
  9
$MIRRTEXT
 70
     1
  9
$DRAGMODE
 70
     2
  9
$LTSCALE
 40
1.0
  9
$OSMODE
 70
     0
  9
$ATTMODE
 70
     1
  9
$TEXTSIZE
 40
0.2
  9
$TRACEWID
 40
0.05
  9
$TEXTSTYLE
  7
STANDARD
  9
$CLAYER
  8
0
  9
$CELTYPE
  6
CONTINUOUS
  9
$CECOLOR
 62
   256
  9
$DIMSCALE
 40
1.0
  9
$DIMASZ
 40
0.18
  9
$DIMEXO
 40
0.0625
  9
$DIMDLI
 40
0.38
  9
$DIMRND
 40
0.0
  9
$DIMDLE
 40
0.0
  9
$DIMEXE
 40
0.18
  9
$DIMTP
 40
0.0
  9
$DIMTM
 40
0.0
  9
$DIMTXT
 40
0.18
  9
$DIMCEN
 40
0.09
  9
$DIMTSZ
 40
0.0
  9
$DIMTOL
 70
     0
  9
$DIMLIM
 70
     0
  9
$DIMTIH
 70
     1
  9
$DIMTOH
 70
     1
  9
$DIMSE1
 70
     0
  9
$DIMSE2
 70
     0
  9
$DIMTAD
 70
     0
  9
$DIMZIN
 70
     0
  9
$DIMBLK
  1

  9
$DIMASO
 70
     1
  9
$DIMSHO
 70
     1
  9
$DIMPOST
  1

  9
$DIMAPOST
  1

  9
$DIMALT
 70
     0
  9
$DIMALTD
 70
     2
  9
$DIMALTF
 40
25.4
  9
$DIMLFAC
 40
1.0
  9
$DIMTOFL
 70
     0
  9
$DIMTVP
 40
0.0
  9
$DIMTIX
 70
     0
  9
$DIMSOXD
 70
     0
  9
$DIMSAH
 70
     0
  9
$DIMBLK1
  1

  9
$DIMBLK2
  1

  9
$DIMSTYLE
  2
STANDARD
  9
$DIMCLRD
 70
     0
  9
$DIMCLRE
 70
     0
  9
$DIMCLRT
 70
     0
  9
$DIMTFAC
 40
1.0
  9
$DIMGAP
 40
0.09
  9
$LUNITS
 70
     2
  9
$LUPREC
 70
     4
  9
$SKETCHINC
 40
0.1
  9
$FILLETRAD
 40
0.0
  9
$AUNITS
 70
     0
  9
$AUPREC
 70
     0
  9
$MENU
  1
acad
  9
$ELEVATION
 40
0.0
  9
$PELEVATION
 40
0.0
  9
$THICKNESS
 40
0.0
  9
$LIMCHECK
 70
     0
  9
$BLIPMODE
 70
     1
  9
$CHAMFERA
 40
0.0
  9
$CHAMFERB
 40
0.0
  9
$SKPOLY
 70
     0
  9
$TDCREATE
 40
2451750.793414
  9
$TDUPDATE
 40
2451998.537707
  9
$TDINDWG
 40
0.047284
  9
$TDUSRTIMER
 40
0.047284
  9
$USRTIMER
 70
     1
  9
$ANGBASE
 50
0.0
  9
$ANGDIR
 70
     0
  9
$PDMODE
 70
     0
  9
$PDSIZE
 40
0.0
  9
$PLINEWID
 40
0.0
  9
$COORDS
 70
     0
  9
$SPLFRAME
 70
     0
  9
$SPLINETYPE
 70
     6
  9
$SPLINESEGS
 70
    10
  9
$ATTDIA
 70
     0
  9
$ATTREQ
 70
     1
  9
$HANDLING
 70
     1
  9
$HANDSEED
  5
11E
  9
$SURFTAB1
 70
     6
  9
$SURFTAB2
 70
     6
  9
$SURFTYPE
 70
     6
  9
$SURFU
 70
     6
  9
$SURFV
 70
     6
  9
$UCSNAME
  2

  9
$UCSORG
 10
0.0
 20
0.0
 30
0.0
  9
$UCSXDIR
 10
1.0
 20
0.0
 30
0.0
  9
$UCSYDIR
 10
0.0
 20
1.0
 30
0.0
  9
$PUCSNAME
  2

  9
$PUCSORG
 10
0.0
 20
0.0
 30
0.0
  9
$PUCSXDIR
 10
1.0
 20
0.0
 30
0.0
  9
$PUCSYDIR
 10
0.0
 20
1.0
 30
0.0
  9
$USERI1
 70
     0
  9
$USERI2
 70
     0
  9
$USERI3
 70
     0
  9
$USERI4
 70
     0
  9
$USERI5
 70
     0
  9
$USERR1
 40
0.0
  9
$USERR2
 40
0.0
  9
$USERR3
 40
0.0
  9
$USERR4
 40
0.0
  9
$USERR5
 40
0.0
  9
$WORLDVIEW
 70
     1
  9
$SHADEDGE
 70
     3
  9
$SHADEDIF
 70
    70
  9
$TILEMODE
 70
     1
  9
$MAXACTVP
 70
    16
  9
$PLIMCHECK
 70
     0
  9
$PEXTMIN
 10
-1.000000E+020
 20
-1.000000E+020
 30
-1.000000E+020
  9
$PEXTMAX
 10
-1.000000E+020
 20
-1.000000E+020
 30
-1.000000E+020
  9
$PLIMMIN
 10
0.0
 20
0.0
  9
$PLIMMAX
 10
12.0
 20
9.0
  9
$UNITMODE
 70
     0
  9
$VISRETAIN
 70
     0
  9
$PLINEGEN
 70
     1
  9
$PSLTSCALE
 70
     0
  0
ENDSEC
  0
SECTION
  2
TABLES
  0
TABLE
  2
VPORT
 70
    10
  0
VPORT
  2
*ACTIVE
 70
     0
 10
0.0
 20
0.0
 11
1.0
 21
1.0
 12
4.393846
 22
-0.001593
 13
0.0
 23
0.0
 14
0.0
 24
0.0
 15
0.0
 25
0.0
 16
0.0
 26
0.0
 36
1.0
 17
47.57282
 27
51.27255
 37
0.0
 40
100.042137
 41
1.342515
 42
50.0
 43
0.0
 44
0.0
 50
0.0
 51
0.0
 71
     0
 72
   100
 73
     1
 74
     0
 75
     0
 76
     0
 77
     0
 78
     0
  0
ENDTAB
  0
TABLE
  2
LTYPE
 70
     7
  0
LTYPE
  2
CONTINUOUS
 70
     0
  3
Solid line
 72
    65
 73
     0
 40
0.0
  0
LTYPE
  2
DOT
 70
     0
  3
. . . . . . . . . . . . . . . . . . . . . . . . . . . . . . . . .
 72
    65
 73
     2
 40
0.25
 49
0.0
 49
-0.25
  0
LTYPE
  2
HIDDEN
 70
     0
  3
__ __ __ __ __ __ __ __ __ __ __ __ __ __ __ __ __ __ __ __ __ 
 72
    65
 73
     2
 40
0.375
 49
0.25
 49
-0.125
  0
LTYPE
  2
DASHED
 70
     0
  3
__ __ __ __ __ __ __ __ __ __ __ __ __ __ __ __ __ __ __ __ __
 72
    65
 73
     2
 40
0.75
 49
0.5
 49
-0.25
  0
LTYPE
  2
DASHDOT
 70
     0
  3
__ . __ . __ . __ . __ . __ . __ . __ . __ . __ . __ . __ . _
 72
    65
 73
     4
 40
1.0
 49
0.5
 49
-0.25
 49
0.0
 49
-0.25
  0
LTYPE
  2
DIVIDE
 70
     0
  3
____ . . ____ . . ____ . . ____ . . ____ . . ____ . . ____ . .
 72
    65
 73
     6
 40
1.25
 49
0.5
 49
-0.25
 49
0.0
 49
-0.25
 49
0.0
 49
-0.25
  0
LTYPE
  2
CENTER
 70
     0
  3
____ _ ____ _ ____ _ ____ _ ____ _ ____ _ ____ _ ____ _ ____ _
 72
    65
 73
     4
 40
2.0
 49
1.25
 49
-0.25
 49
0.25
 49
-0.25
  0
ENDTAB
  0
TABLE
  2
LAYER
 70
     6
  0
LAYER
  2
0
 70
     0
 62
     7
  6
CONTINUOUS
  0
LAYER
  2
CONSTRUCTION_CLASS
 70
     0
 62
     7
  6
CONTINUOUS
  0
LAYER
  2
PATTERN_CLASS
 70
     0
 62
     7
  6
CONTINUOUS
  0
LAYER
  2
RESULTADO
 70
     0
 62
     7
  6
CONTINUOUS
  0
LAYER
  2
1
 70
     0
 62
     7
  6
CONTINUOUS
  0
LAYER
  2
TRAZOS
 70
     0
 62
     7
  6
CONTINUOUS
  0
ENDTAB
  0
TABLE
  2
STYLE
 70
     1
  0
STYLE
  2
STANDARD
 70
     0
 40
0.0
 41
1.0
 50
0.0
 71
     0
 42
0.0
  3
txt
  4

  0
ENDTAB
  0
TABLE
  2
VIEW
 70
     0
  0
ENDTAB
  0
TABLE
  2
UCS
 70
     0
  0
ENDTAB
  0
TABLE
  2
APPID
 70
     1
  0
APPID
  2
ACAD
 70
     0
  0
ENDTAB
  0
TABLE
  2
DIMSTYLE
 70
     1
  0
DIMSTYLE
  2
STANDARD
 70
     0
  3

  4

  5

  6

  7

 40
1.0
 41
0.18
 42
0.0625
 43
0.38
 44
0.18
 45
0.0
 46
0.0
 47
0.0
 48
0.0
140
0.18
141
0.09
142
0.0
143
25.4
144
1.0
145
0.0
146
1.0
147
0.09
 71
     0
 72
     0
 73
     1
 74
     1
 75
     0
 76
     0
 77
     0
 78
     0
170
     0
171
     2
172
     0
173
     0
174
     0
175
     0
176
     0
177
     0
178
     0
  0
ENDTAB
  0
ENDSEC
  0
SECTION
  2
BLOCKS
  0
BLOCK
  8
0
  2
$MODEL_SPACE
 70
     0
 10
0.0
 20
0.0
 30
0.0
  3
$MODEL_SPACE
  1

  0
ENDBLK
  5
E1
  8
0
  0
BLOCK
 67
     1
  8
0
  2
$PAPER_SPACE
 70
     0
 10
0.0
 20
0.0
 30
0.0
  3
$PAPER_SPACE
  1

  0
ENDBLK
  5
DE
 67
     1
  8
0
  0
ENDSEC
  0
SECTION
  2
ENTITIES
  0
LINE
  5
29
  8
RESULTADO
  6
CONTINUOUS
 62
     7
 10
91.3408
 20
24.1127
 30
0.0
 11
52.3696
 21
1.6126
 31
0.0
  0
LINE
  5
2A
  8
RESULTADO
  6
CONTINUOUS
 62
     7
 10
91.3408
 20
24.1127
 30
0.0
 11
91.3408
 21
39.1127
 31
0.0
  0
LINE
  5
2B
  8
RESULTADO
  6
CONTINUOUS
 62
     7
 10
91.3408
 20
39.1127
 30
0.0
 11
83.3858
 21
47.0677
 31
0.0
  0
LINE
  5
2C
  8
RESULTADO
  6
CONTINUOUS
 62
     7
 10
52.3696
 20
1.6126
 30
0.0
 11
52.3696
 21
16.6127
 31
0.0
  0
LINE
  5
2D
  8
RESULTADO
  6
CONTINUOUS
 62
     7
 10
52.3696
 20
16.6127
 30
0.0
 11
44.4147
 21
24.5677
 31
0.0
  0
LINE
  5
2E
  8
RESULTADO
  6
CONTINUOUS
 62
     7
 10
91.3408
 20
39.1127
 30
0.0
 11
52.3696
 21
16.6127
 31
0.0
  0
LINE
  5
2F
  8
RESULTADO
  6
CONTINUOUS
 62
     7
 10
70.3954
 20
39.567681
 30
0.0
 11
44.4147
 21
24.5677
 31
0.0
  0
LINE
  5
30
  8
RESULTADO
  6
CONTINUOUS
 62
     7
 10
44.4147
 20
9.5677
 30
0.0
 11
44.4147
 21
24.5677
 31
0.0
  0
LINE
  5
31
  8
RESULTADO
  6
CONTINUOUS
 62
     7
 10
83.3858
 20
47.0677
 30
0.0
 11
83.3858
 21
77.0677
 31
0.0
  0
LINE
  5
32
  8
RESULTADO
  6
CONTINUOUS
 62
     7
 10
83.3858
 20
77.0677
 30
0.0
 11
57.405
 21
62.0676
 31
0.0
  0
LINE
  5
33
  8
RESULTADO
  6
CONTINUOUS
 62
     7
 10
57.405
 20
62.0676
 30
0.0
 11
57.405
 21
47.0677
 31
0.0
  0
LINE
  5
34
  8
RESULTADO
  6
CONTINUOUS
 62
     7
 10
57.405
 20
47.0677
 30
0.0
 11
70.3954
 21
54.5677
 31
0.0
  0
LINE
  5
35
  8
RESULTADO
  6
CONTINUOUS
 62
     7
 10
59.521
 20
100.9325
 30
0.0
 11
33.5402
 21
85.9325
 31
0.0
  0
LINE
  5
36
  8
RESULTADO
  6
CONTINUOUS
 62
     7
 10
83.3858
 20
77.0677
 30
0.0
 11
59.521
 21
100.9325
 31
0.0
  0
LINE
  5
3B
  8
RESULTADO
  6
CONTINUOUS
 62
     7
 10
36.4597
 20
62.5226
 30
0.0
 11
28.5048
 21
70.4776
 31
0.0
  0
LINE
  5
3C
  8
RESULTADO
  6
CONTINUOUS
 62
     7
 10
36.4597
 20
47.5227
 30
0.0
 11
36.4597
 21
62.5226
 31
0.0
  0
LINE
  5
3D
  8
RESULTADO
  6
CONTINUOUS
 62
     7
 10
28.5048
 20
55.4776
 30
0.0
 11
36.4597
 21
47.5227
 31
0.0
  0
LINE
  5
3E
  8
RESULTADO
  6
CONTINUOUS
 62
     7
 10
28.5048
 20
55.4776
 30
0.0
 11
28.5048
 21
70.4776
 31
0.0
  0
LINE
  5
3F
  8
RESULTADO
  6
CONTINUOUS
 62
     7
 10
28.5048
 20
70.4776
 30
0.0
 11
33.5402
 21
85.9325
 31
0.0
  0
LINE
  5
41
  8
RESULTADO
  6
CONTINUOUS
 62
     7
 10
70.3954
 20
24.5677
 30
0.0
 11
46.5306
 21
48.4325
 31
0.0
  0
LINE
  5
43
  8
1
  6
CONTINUOUS
 62
     7
 10
44.4147
 20
9.5677
 30
0.0
 11
52.3696
 21
1.6126
 31
0.0
  0
LINE
  5
49
  8
TRAZOS
  6
CONTINUOUS
 62
     7
 10
33.5402
 20
70.9325
 30
0.0
 11
46.5306
 21
78.4325
 31
0.0
  0
LINE
  5
4A
  8
TRAZOS
  6
CONTINUOUS
 62
     7
 10
33.5402
 20
85.9325
 30
0.0
 11
33.5402
 21
70.9325
 31
0.0
  0
LINE
  5
4B
  8
TRAZOS
  6
CONTINUOUS
 62
     7
 10
59.521
 20
70.9325
 30
0.0
 11
59.521
 21
100.9325
 31
0.0
  0
LINE
  5
4C
  8
TRAZOS
  6
CONTINUOUS
 62
     7
 10
59.521
 20
70.9325
 30
0.0
 11
51.566
 21
78.8875
 31
0.0
  0
LINE
  5
4E
  8
TRAZOS
  6
CONTINUOUS
 62
     7
 10
46.5306
 20
78.4325
 30
0.0
 11
70.3954
 21
54.5677
 31
0.0
  0
LINE
  5
4F
  8
TRAZOS
  6
CONTINUOUS
 62
     7
 10
28.5048
 20
55.4776
 30
0.0
 11
33.5402
 21
70.9325
 31
0.0
  0
LINE
  5
51
  8
TRAZOS
  6
CONTINUOUS
 62
     7
 10
44.4147
 20
9.5677
 30
0.0
 11
70.3954
 21
24.5677
 31
0.0
  0
LINE
  5
53
  8
TRAZOS
  6
CONTINUOUS
 62
     7
 10
46.5306
 20
63.4325
 30
0.0
 11
46.5306
 21
78.4325
 31
0.0
  0
LINE
  5
54
  8
1
  6
CONTINUOUS
 62
     7
 10
36.4597
 20
62.5226
 30
0.0
 11
57.405
 21
62.0676
 31
0.0
  0
LINE
  5
55
  8
1
  6
CONTINUOUS
 62
     7
 10
36.4597
 20
47.5227
 30
0.0
 11
57.405
 21
47.0677
 31
0.0
  0
LINE
  5
8A
  8
0
  6
CONTINUOUS
 62
     7
 10
70.3954
 20
39.567681
 30
0.0
 11
70.3954
 21
24.5677
 31
0.0
  0
LINE
  5
BE
  8
0
  6
CONTINUOUS
 62
     7
 10
83.3858
 20
47.0677
 30
0.0
 11
70.3954
 21
39.567681
 31
0.0
  0
LINE
  5
BF
  8
0
  6
CONTINUOUS
 62
     7
 10
70.3954
 20
39.567681
 30
0.0
 11
70.3954
 21
54.5677
 31
0.0
  0
LINE
  5
C6
  8
0
  6
CONTINUOUS
 62
     7
 10
51.566
 20
78.8875
 30
0.0
 11
51.566607
 21
63.887893
 31
0.0
  0
LINE
  5
F9
  8
0
  6
CONTINUOUS
 62
     7
 10
91.3408
 20
24.1127
 30
0.0
 11
51.566607
 21
63.887893
 31
0.0
  0
LINE
  5
FA
  8
0
  6
CONTINUOUS
 62
     7
 10
51.566607
 20
63.887893
 30
0.0
 11
12.5949
 21
41.3875
 31
0.0
  0
LINE
  5
FB
  8
0
  6
CONTINUOUS
 62
     7
 10
51.566
 20
78.8875
 30
0.0
 11
12.5949
 21
56.3875
 31
0.0
  0
LINE
  5
FD
  8
0
  6
CONTINUOUS
 62
     7
 10
46.5306
 20
48.4325
 30
0.0
 11
20.5498
 21
33.4325
 31
0.0
  0
LINE
  5
102
  8
0
  6
CONTINUOUS
 62
     7
 10
20.5498
 20
33.4325
 30
0.0
 11
20.5498
 21
48.4325
 31
0.0
  0
LINE
  5
103
  8
0
  6
CONTINUOUS
 62
     7
 10
20.5498
 20
48.4325
 30
0.0
 11
12.5949
 21
56.3875
 31
0.0
  0
LINE
  5
104
  8
0
  6
CONTINUOUS
 62
     7
 10
12.5949
 20
56.3875
 30
0.0
 11
12.5949
 21
41.3875
 31
0.0
  0
LINE
  5
105
  8
0
  6
CONTINUOUS
 62
     7
 10
12.5949
 20
41.3875
 30
0.0
 11
20.5498
 21
33.4325
 31
0.0
  0
LINE
  5
118
  8
0
  6
CONTINUOUS
 62
     7
 10
20.5498
 20
48.4325
 30
0.0
 11
46.5306
 21
63.4325
 31
0.0
  0
LINE
  5
119
  8
0
  6
CONTINUOUS
 62
     7
 10
46.5306
 20
63.4325
 30
0.0
 11
59.521
 21
70.9325
 31
0.0
  0
LINE
  5
11A
  8
0
  6
CONTINUOUS
 62
     7
 10
46.5306
 20
48.4325
 30
0.0
 11
46.5306
 21
63.4325
 31
0.0
  0
ENDSEC
  0
EOF
