  0
SECTION
  2
HEADER
  9
$ACADVER
  1
AC1009
  9
$INSBASE
 10
0.0
 20
0.0
 30
0.0
  9
$EXTMIN
 10
10.4454
 20
0.0572
 30
0.0
  9
$EXTMAX
 10
124.2908
 20
79.7564
 30
0.0
  9
$LIMMIN
 10
0.0
 20
0.0
  9
$LIMMAX
 10
12.0
 20
9.0
  9
$ORTHOMODE
 70
     0
  9
$REGENMODE
 70
     1
  9
$FILLMODE
 70
     1
  9
$QTEXTMODE
 70
     0
  9
$MIRRTEXT
 70
     1
  9
$DRAGMODE
 70
     2
  9
$LTSCALE
 40
1.0
  9
$OSMODE
 70
     0
  9
$ATTMODE
 70
     1
  9
$TEXTSIZE
 40
0.2
  9
$TRACEWID
 40
0.05
  9
$TEXTSTYLE
  7
STANDARD
  9
$CLAYER
  8
0
  9
$CELTYPE
  6
CONTINUOUS
  9
$CECOLOR
 62
   256
  9
$DIMSCALE
 40
1.0
  9
$DIMASZ
 40
0.18
  9
$DIMEXO
 40
0.0625
  9
$DIMDLI
 40
0.38
  9
$DIMRND
 40
0.0
  9
$DIMDLE
 40
0.0
  9
$DIMEXE
 40
0.18
  9
$DIMTP
 40
0.0
  9
$DIMTM
 40
0.0
  9
$DIMTXT
 40
0.18
  9
$DIMCEN
 40
0.09
  9
$DIMTSZ
 40
0.0
  9
$DIMTOL
 70
     0
  9
$DIMLIM
 70
     0
  9
$DIMTIH
 70
     1
  9
$DIMTOH
 70
     1
  9
$DIMSE1
 70
     0
  9
$DIMSE2
 70
     0
  9
$DIMTAD
 70
     0
  9
$DIMZIN
 70
     0
  9
$DIMBLK
  1

  9
$DIMASO
 70
     1
  9
$DIMSHO
 70
     1
  9
$DIMPOST
  1

  9
$DIMAPOST
  1

  9
$DIMALT
 70
     0
  9
$DIMALTD
 70
     2
  9
$DIMALTF
 40
25.4
  9
$DIMLFAC
 40
1.0
  9
$DIMTOFL
 70
     0
  9
$DIMTVP
 40
0.0
  9
$DIMTIX
 70
     0
  9
$DIMSOXD
 70
     0
  9
$DIMSAH
 70
     0
  9
$DIMBLK1
  1

  9
$DIMBLK2
  1

  9
$DIMSTYLE
  2
STANDARD
  9
$DIMCLRD
 70
     0
  9
$DIMCLRE
 70
     0
  9
$DIMCLRT
 70
     0
  9
$DIMTFAC
 40
1.0
  9
$DIMGAP
 40
0.09
  9
$LUNITS
 70
     2
  9
$LUPREC
 70
     4
  9
$SKETCHINC
 40
0.1
  9
$FILLETRAD
 40
0.0
  9
$AUNITS
 70
     0
  9
$AUPREC
 70
     0
  9
$MENU
  1
acad
  9
$ELEVATION
 40
0.0
  9
$PELEVATION
 40
0.0
  9
$THICKNESS
 40
0.0
  9
$LIMCHECK
 70
     0
  9
$BLIPMODE
 70
     1
  9
$CHAMFERA
 40
0.0
  9
$CHAMFERB
 40
0.0
  9
$SKPOLY
 70
     0
  9
$TDCREATE
 40
2451750.81875
  9
$TDUPDATE
 40
2451750.81875
  9
$TDINDWG
 40
0.0
  9
$TDUSRTIMER
 40
0.0
  9
$USRTIMER
 70
     1
  9
$ANGBASE
 50
0.0
  9
$ANGDIR
 70
     0
  9
$PDMODE
 70
     0
  9
$PDSIZE
 40
0.0
  9
$PLINEWID
 40
0.0
  9
$COORDS
 70
     0
  9
$SPLFRAME
 70
     0
  9
$SPLINETYPE
 70
     6
  9
$SPLINESEGS
 70
    10
  9
$ATTDIA
 70
     0
  9
$ATTREQ
 70
     1
  9
$HANDLING
 70
     1
  9
$HANDSEED
  5
7F
  9
$SURFTAB1
 70
     6
  9
$SURFTAB2
 70
     6
  9
$SURFTYPE
 70
     6
  9
$SURFU
 70
     6
  9
$SURFV
 70
     6
  9
$UCSNAME
  2

  9
$UCSORG
 10
0.0
 20
0.0
 30
0.0
  9
$UCSXDIR
 10
1.0
 20
0.0
 30
0.0
  9
$UCSYDIR
 10
0.0
 20
1.0
 30
0.0
  9
$PUCSNAME
  2

  9
$PUCSORG
 10
0.0
 20
0.0
 30
0.0
  9
$PUCSXDIR
 10
1.0
 20
0.0
 30
0.0
  9
$PUCSYDIR
 10
0.0
 20
1.0
 30
0.0
  9
$USERI1
 70
     0
  9
$USERI2
 70
     0
  9
$USERI3
 70
     0
  9
$USERI4
 70
     0
  9
$USERI5
 70
     0
  9
$USERR1
 40
0.0
  9
$USERR2
 40
0.0
  9
$USERR3
 40
0.0
  9
$USERR4
 40
0.0
  9
$USERR5
 40
0.0
  9
$WORLDVIEW
 70
     1
  9
$SHADEDGE
 70
     3
  9
$SHADEDIF
 70
    70
  9
$TILEMODE
 70
     1
  9
$MAXACTVP
 70
    16
  9
$PLIMCHECK
 70
     0
  9
$PEXTMIN
 10
-1.000000E+020
 20
-1.000000E+020
 30
-1.000000E+020
  9
$PEXTMAX
 10
-1.000000E+020
 20
-1.000000E+020
 30
-1.000000E+020
  9
$PLIMMIN
 10
0.0
 20
0.0
  9
$PLIMMAX
 10
12.0
 20
9.0
  9
$UNITMODE
 70
     0
  9
$VISRETAIN
 70
     0
  9
$PLINEGEN
 70
     1
  9
$PSLTSCALE
 70
     0
  0
ENDSEC
  0
SECTION
  2
TABLES
  0
TABLE
  2
VPORT
 70
     2
  0
VPORT
  2
*ACTIVE
 70
     0
 10
0.0
 20
0.0
 11
1.0
 21
1.0
 12
3.116906
 22
-0.4767
 13
0.0
 23
0.0
 14
0.0
 24
0.0
 15
0.0
 25
0.0
 16
0.0
 26
0.0
 36
1.0
 17
59.028494
 27
40.3549
 37
0.0
 40
128.208779
 41
1.700368
 42
50.0
 43
0.0
 44
0.0
 50
0.0
 51
0.0
 71
     0
 72
   100
 73
     1
 74
     0
 75
     0
 76
     0
 77
     0
 78
     0
  0
ENDTAB
  0
TABLE
  2
LTYPE
 70
     7
  0
LTYPE
  2
CONTINUOUS
 70
     0
  3
Solid line
 72
    65
 73
     0
 40
0.0
  0
LTYPE
  2
DOT
 70
     0
  3
. . . . . . . . . . . . . . . . . . . . . . . . . . . . . . . . .
 72
    65
 73
     2
 40
0.25
 49
0.0
 49
-0.25
  0
LTYPE
  2
HIDDEN
 70
     0
  3
__ __ __ __ __ __ __ __ __ __ __ __ __ __ __ __ __ __ __ __ __ 
 72
    65
 73
     2
 40
0.375
 49
0.25
 49
-0.125
  0
LTYPE
  2
DASHED
 70
     0
  3
__ __ __ __ __ __ __ __ __ __ __ __ __ __ __ __ __ __ __ __ __
 72
    65
 73
     2
 40
0.75
 49
0.5
 49
-0.25
  0
LTYPE
  2
DASHDOT
 70
     0
  3
__ . __ . __ . __ . __ . __ . __ . __ . __ . __ . __ . __ . _
 72
    65
 73
     4
 40
1.0
 49
0.5
 49
-0.25
 49
0.0
 49
-0.25
  0
LTYPE
  2
DIVIDE
 70
     0
  3
____ . . ____ . . ____ . . ____ . . ____ . . ____ . . ____ . .
 72
    65
 73
     6
 40
1.25
 49
0.5
 49
-0.25
 49
0.0
 49
-0.25
 49
0.0
 49
-0.25
  0
LTYPE
  2
CENTER
 70
     0
  3
____ _ ____ _ ____ _ ____ _ ____ _ ____ _ ____ _ ____ _ ____ _
 72
    65
 73
     4
 40
2.0
 49
1.25
 49
-0.25
 49
0.25
 49
-0.25
  0
ENDTAB
  0
TABLE
  2
LAYER
 70
     5
  0
LAYER
  2
0
 70
     0
 62
     7
  6
CONTINUOUS
  0
LAYER
  2
CONSTRUCTION_CLASS
 70
     0
 62
     7
  6
CONTINUOUS
  0
LAYER
  2
PATTERN_CLASS
 70
     0
 62
     7
  6
CONTINUOUS
  0
LAYER
  2
RESULTADO
 70
     0
 62
     7
  6
CONTINUOUS
  0
LAYER
  2
1
 70
     0
 62
     7
  6
CONTINUOUS
  0
ENDTAB
  0
TABLE
  2
STYLE
 70
     1
  0
STYLE
  2
STANDARD
 70
     0
 40
0.0
 41
1.0
 50
0.0
 71
     0
 42
0.0
  3
txt
  4

  0
ENDTAB
  0
TABLE
  2
VIEW
 70
     0
  0
ENDTAB
  0
TABLE
  2
UCS
 70
     0
  0
ENDTAB
  0
TABLE
  2
APPID
 70
     1
  0
APPID
  2
ACAD
 70
     0
  0
ENDTAB
  0
TABLE
  2
DIMSTYLE
 70
     1
  0
DIMSTYLE
  2
STANDARD
 70
     0
  3

  4

  5

  6

  7

 40
1.0
 41
0.18
 42
0.0625
 43
0.38
 44
0.18
 45
0.0
 46
0.0
 47
0.0
 48
0.0
140
0.18
141
0.09
142
0.0
143
25.4
144
1.0
145
0.0
146
1.0
147
0.09
 71
     0
 72
     0
 73
     1
 74
     1
 75
     0
 76
     0
 77
     0
 78
     0
170
     0
171
     2
172
     0
173
     0
174
     0
175
     0
176
     0
177
     0
178
     0
  0
ENDTAB
  0
ENDSEC
  0
SECTION
  2
BLOCKS
  0
BLOCK
  8
0
  2
$MODEL_SPACE
 70
     0
 10
0.0
 20
0.0
 30
0.0
  3
$MODEL_SPACE
  1

  0
ENDBLK
  5
6A
  8
0
  0
BLOCK
 67
     1
  8
0
  2
$PAPER_SPACE
 70
     0
 10
0.0
 20
0.0
 30
0.0
  3
$PAPER_SPACE
  1

  0
ENDBLK
  5
67
 67
     1
  8
0
  0
ENDSEC
  0
SECTION
  2
ENTITIES
  0
LINE
  5
29
  8
RESULTADO
  6
CONTINUOUS
 62
     7
 10
10.4455
 20
17.2645
 30
0.0
 11
18.6369
 21
11.5287
 31
0.0
  0
LINE
  5
2A
  8
RESULTADO
  6
CONTINUOUS
 62
     7
 10
18.637
 20
11.5287
 30
0.0
 11
18.637
 21
19.0287
 31
0.0
  0
LINE
  5
2B
  8
RESULTADO
  6
CONTINUOUS
 62
     7
 10
10.4455
 20
17.2645
 30
0.0
 11
10.4455
 21
24.7645
 31
0.0
  0
LINE
  5
2C
  8
RESULTADO
  6
CONTINUOUS
 62
     7
 10
26.8285
 20
5.7928
 30
0.0
 11
26.8285
 21
13.293
 31
0.0
  0
LINE
  5
2D
  8
RESULTADO
  6
CONTINUOUS
 62
     7
 10
35.02
 20
0.0572
 30
0.0
 11
35.02
 21
7.5572
 31
0.0
  0
LINE
  5
2F
  8
RESULTADO
  6
CONTINUOUS
 62
     7
 10
35.02
 20
0.0572
 30
0.0
 11
58.5124
 21
8.6077
 31
0.0
  0
LINE
  5
30
  8
RESULTADO
  6
CONTINUOUS
 62
     7
 10
10.4454
 20
17.2646
 30
0.0
 11
33.9378
 21
25.815
 31
0.0
  0
LINE
  5
31
  8
RESULTADO
  6
CONTINUOUS
 62
     7
 10
58.5124
 20
8.6077
 30
0.0
 11
33.9378
 21
25.815
 31
0.0
  0
LINE
  5
32
  8
RESULTADO
  6
CONTINUOUS
 62
     7
 10
73.8132
 20
22.894
 30
0.0
 11
65.6216
 21
28.6297
 31
0.0
  0
LINE
  5
33
  8
RESULTADO
  6
CONTINUOUS
 62
     7
 10
73.8132
 20
22.894
 30
0.0
 11
73.8132
 21
52.894
 31
0.0
  0
LINE
  5
34
  8
RESULTADO
  6
CONTINUOUS
 62
     7
 10
73.8132
 20
52.894
 30
0.0
 11
35.02
 21
7.5572
 31
0.0
  0
LINE
  5
35
  8
RESULTADO
  6
CONTINUOUS
 62
     7
 10
65.6216
 20
28.6297
 30
0.0
 11
65.6216
 21
58.6297
 31
0.0
  0
LINE
  5
36
  8
RESULTADO
  6
CONTINUOUS
 62
     7
 10
65.6216
 20
58.6297
 30
0.0
 11
10.4455
 21
24.7645
 31
0.0
  0
LINE
  5
37
  8
RESULTADO
  6
CONTINUOUS
 62
     7
 10
73.8132
 20
52.894
 30
0.0
 11
65.6216
 21
58.6297
 31
0.0
  0
LINE
  5
38
  8
RESULTADO
  6
CONTINUOUS
 62
     7
 10
65.6216
 20
28.6297
 30
0.0
 11
79.717
 21
33.76
 31
0.0
  0
LINE
  5
39
  8
RESULTADO
  6
CONTINUOUS
 62
     7
 10
73.8132
 20
22.894
 30
0.0
 11
87.9085
 21
28.0243
 31
0.0
  0
LINE
  5
3A
  8
RESULTADO
  6
CONTINUOUS
 62
     7
 10
124.2908
 20
62.5491
 30
0.0
 11
99.7163
 21
79.7564
 31
0.0
  0
LINE
  5
3B
  8
RESULTADO
  6
CONTINUOUS
 62
     7
 10
87.9085
 20
28.0243
 30
0.0
 11
98.7085
 21
43.4482
 31
0.0
  0
LINE
  5
3C
  8
RESULTADO
  6
CONTINUOUS
 62
     7
 10
79.717
 20
33.76
 30
0.0
 11
90.5169
 21
49.1839
 31
0.0
  0
LINE
  5
3D
  8
RESULTADO
  6
CONTINUOUS
 62
     7
 10
90.5169
 20
49.1839
 30
0.0
 11
90.1148
 21
66.044
 31
0.0
  0
LINE
  5
3E
  8
RESULTADO
  6
CONTINUOUS
 62
     7
 10
98.7085
 20
43.4482
 30
0.0
 11
114.6893
 21
48.8368
 31
0.0
  0
LINE
  5
3F
  8
RESULTADO
  6
CONTINUOUS
 62
     7
 10
46.2251
 20
35.9614
 30
0.0
 11
18.637
 21
19.0287
 31
0.0
  0
LINE
  5
40
  8
RESULTADO
  6
CONTINUOUS
 62
     7
 10
46.2251
 20
35.9614
 30
0.0
 11
26.8285
 21
13.293
 31
0.0
  0
LINE
  5
41
  8
RESULTADO
  6
CONTINUOUS
 62
     7
 10
18.637
 20
11.5287
 30
0.0
 11
32.7324
 21
16.6591
 31
0.0
  0
LINE
  5
42
  8
RESULTADO
  6
CONTINUOUS
 62
     7
 10
40.9239
 20
10.9233
 30
0.0
 11
26.8285
 21
5.7928
 31
0.0
  0
LINE
  5
43
  8
RESULTADO
  6
CONTINUOUS
 62
     7
 10
90.1148
 20
66.044
 30
0.0
 11
99.7163
 21
79.7564
 31
0.0
  0
LINE
  5
44
  8
RESULTADO
  6
CONTINUOUS
 62
     7
 10
124.2908
 20
62.5491
 30
0.0
 11
114.6893
 21
48.8368
 31
0.0
  0
LINE
  5
45
  8
RESULTADO
  6
CONTINUOUS
 62
     7
 10
79.717
 20
33.76
 30
0.0
 11
87.9085
 21
28.0243
 31
0.0
  0
LINE
  5
47
  8
1
  6
CONTINUOUS
 62
     7
 10
32.7324
 20
16.6591
 30
0.0
 11
40.9239
 21
10.9233
 31
0.0
  0
LINE
  5
48
  8
1
  6
CONTINUOUS
 62
     7
 10
10.4455
 20
24.7645
 30
0.0
 11
18.637
 21
19.0287
 31
0.0
  0
LINE
  5
49
  8
1
  6
CONTINUOUS
 62
     7
 10
26.8285
 20
13.293
 30
0.0
 11
35.02
 21
7.5572
 31
0.0
  0
LINE
  5
4F
  8
0
  6
CONTINUOUS
 62
     7
 10
26.8285
 20
5.7928
 30
0.0
 11
35.02
 21
0.0572
 31
0.0
  0
ENDSEC
  0
EOF
