  0
SECTION
  2
HEADER
  9
$ACADVER
  1
AC1009
  9
$INSBASE
 10
0.0
 20
0.0
 30
0.0
  9
$EXTMIN
 10
858.871856
 20
22.024291
 30
0.0
  9
$EXTMAX
 10
1112.928416
 20
216.012646
 30
0.0
  9
$LIMMIN
 10
0.0
 20
0.0
  9
$LIMMAX
 10
420.0
 20
297.0
  9
$ORTHOMODE
 70
     1
  9
$REGENMODE
 70
     1
  9
$FILLMODE
 70
     1
  9
$QTEXTMODE
 70
     0
  9
$MIRRTEXT
 70
     1
  9
$DRAGMODE
 70
     2
  9
$LTSCALE
 40
1.0
  9
$OSMODE
 70
     0
  9
$ATTMODE
 70
     1
  9
$TEXTSIZE
 40
2.5
  9
$TRACEWID
 40
1.0
  9
$TEXTSTYLE
  7
STANDARD
  9
$CLAYER
  8
0
  9
$CELTYPE
  6
BYLAYER
  9
$CECOLOR
 62
     2
  9
$DIMSCALE
 40
1.0
  9
$DIMASZ
 40
2.5
  9
$DIMEXO
 40
0.625
  9
$DIMDLI
 40
3.75
  9
$DIMRND
 40
0.0
  9
$DIMDLE
 40
0.0
  9
$DIMEXE
 40
1.25
  9
$DIMTP
 40
0.0
  9
$DIMTM
 40
0.0
  9
$DIMTXT
 40
2.5
  9
$DIMCEN
 40
2.5
  9
$DIMTSZ
 40
0.0
  9
$DIMTOL
 70
     0
  9
$DIMLIM
 70
     0
  9
$DIMTIH
 70
     0
  9
$DIMTOH
 70
     0
  9
$DIMSE1
 70
     0
  9
$DIMSE2
 70
     0
  9
$DIMTAD
 70
     1
  9
$DIMZIN
 70
     8
  9
$DIMBLK
  1

  9
$DIMASO
 70
     1
  9
$DIMSHO
 70
     1
  9
$DIMPOST
  1

  9
$DIMAPOST
  1

  9
$DIMALT
 70
     0
  9
$DIMALTD
 70
     4
  9
$DIMALTF
 40
0.0394
  9
$DIMLFAC
 40
1.0
  9
$DIMTOFL
 70
     1
  9
$DIMTVP
 40
0.0
  9
$DIMTIX
 70
     0
  9
$DIMSOXD
 70
     0
  9
$DIMSAH
 70
     0
  9
$DIMBLK1
  1

  9
$DIMBLK2
  1

  9
$DIMSTYLE
  2
STANDARD
  9
$DIMCLRD
 70
     0
  9
$DIMCLRE
 70
     0
  9
$DIMCLRT
 70
     0
  9
$DIMTFAC
 40
1.0
  9
$DIMGAP
 40
0.625
  9
$LUNITS
 70
     2
  9
$LUPREC
 70
     4
  9
$SKETCHINC
 40
1.0
  9
$FILLETRAD
 40
10.0
  9
$AUNITS
 70
     0
  9
$AUPREC
 70
     0
  9
$MENU
  1
.
  9
$ELEVATION
 40
0.0
  9
$PELEVATION
 40
0.0
  9
$THICKNESS
 40
0.0
  9
$LIMCHECK
 70
     0
  9
$BLIPMODE
 70
     0
  9
$CHAMFERA
 40
0.0
  9
$CHAMFERB
 40
0.0
  9
$SKPOLY
 70
     0
  9
$TDCREATE
 40
2451319.472807
  9
$TDUPDATE
 40
2451709.704949
  9
$TDINDWG
 40
0.001616
  9
$TDUSRTIMER
 40
0.001616
  9
$USRTIMER
 70
     1
  9
$ANGBASE
 50
0.0
  9
$ANGDIR
 70
     0
  9
$PDMODE
 70
     0
  9
$PDSIZE
 40
0.0
  9
$PLINEWID
 40
0.0
  9
$COORDS
 70
     1
  9
$SPLFRAME
 70
     0
  9
$SPLINETYPE
 70
     6
  9
$SPLINESEGS
 70
     8
  9
$ATTDIA
 70
     0
  9
$ATTREQ
 70
     1
  9
$HANDLING
 70
     1
  9
$HANDSEED
  5
355
  9
$SURFTAB1
 70
     6
  9
$SURFTAB2
 70
     6
  9
$SURFTYPE
 70
     6
  9
$SURFU
 70
     6
  9
$SURFV
 70
     6
  9
$UCSNAME
  2

  9
$UCSORG
 10
0.0
 20
0.0
 30
0.0
  9
$UCSXDIR
 10
1.0
 20
0.0
 30
0.0
  9
$UCSYDIR
 10
0.0
 20
1.0
 30
0.0
  9
$PUCSNAME
  2

  9
$PUCSORG
 10
0.0
 20
0.0
 30
0.0
  9
$PUCSXDIR
 10
1.0
 20
0.0
 30
0.0
  9
$PUCSYDIR
 10
0.0
 20
1.0
 30
0.0
  9
$USERI1
 70
     0
  9
$USERI2
 70
     0
  9
$USERI3
 70
     0
  9
$USERI4
 70
     0
  9
$USERI5
 70
     0
  9
$USERR1
 40
0.0
  9
$USERR2
 40
0.0
  9
$USERR3
 40
0.0
  9
$USERR4
 40
0.0
  9
$USERR5
 40
0.0
  9
$WORLDVIEW
 70
     1
  9
$SHADEDGE
 70
     3
  9
$SHADEDIF
 70
    70
  9
$TILEMODE
 70
     1
  9
$MAXACTVP
 70
    48
  9
$PLIMCHECK
 70
     0
  9
$PEXTMIN
 10
1.000000E+020
 20
1.000000E+020
 30
1.000000E+020
  9
$PEXTMAX
 10
-1.000000E+020
 20
-1.000000E+020
 30
-1.000000E+020
  9
$PLIMMIN
 10
0.0
 20
0.0
  9
$PLIMMAX
 10
420.0
 20
297.0
  9
$UNITMODE
 70
     0
  9
$VISRETAIN
 70
     1
  9
$PLINEGEN
 70
     0
  9
$PSLTSCALE
 70
     1
  0
ENDSEC
  0
SECTION
  2
TABLES
  0
TABLE
  2
VPORT
 70
     2
  0
VPORT
  2
*ACTIVE
 70
     0
 10
0.0
 20
0.0
 11
1.0
 21
1.0
 12
889.891245
 22
129.976275
 13
0.0
 23
0.0
 14
10.0
 24
10.0
 15
10.0
 25
10.0
 16
0.0
 26
0.0
 36
1.0
 17
0.0
 27
0.0
 37
0.0
 40
779.421324
 41
1.438757
 42
50.0
 43
0.0
 44
0.0
 50
0.0
 51
0.0
 71
     0
 72
   100
 73
     1
 74
     1
 75
     0
 76
     0
 77
     0
 78
     0
  0
ENDTAB
  0
TABLE
  2
LTYPE
 70
     1
  0
LTYPE
  2
CONTINUOUS
 70
     0
  3
Solid line
 72
    65
 73
     0
 40
0.0
  0
ENDTAB
  0
TABLE
  2
LAYER
 70
     1
  0
LAYER
  2
0
 70
     0
 62
     7
  6
CONTINUOUS
  0
ENDTAB
  0
TABLE
  2
STYLE
 70
     1
  0
STYLE
  2
STANDARD
 70
     0
 40
0.0
 41
1.0
 50
0.0
 71
     0
 42
2.5
  3
txt
  4

  0
ENDTAB
  0
TABLE
  2
VIEW
 70
     0
  0
ENDTAB
  0
TABLE
  2
UCS
 70
     0
  0
ENDTAB
  0
TABLE
  2
APPID
 70
     1
  0
APPID
  2
ACAD
 70
     0
  0
ENDTAB
  0
TABLE
  2
DIMSTYLE
 70
     1
  0
DIMSTYLE
  2
STANDARD
 70
     0
  3

  4

  5

  6

  7

 40
1.0
 41
0.18
 42
0.0625
 43
0.38
 44
0.18
 45
0.0
 46
0.0
 47
0.0
 48
0.0
140
0.18
141
0.09
142
0.0
143
25.4
144
1.0
145
0.0
146
1.0
147
0.09
 71
     0
 72
     0
 73
     1
 74
     1
 75
     0
 76
     0
 77
     0
 78
     0
170
     0
171
     2
172
     0
173
     0
174
     0
175
     0
176
     0
177
     0
178
     0
  0
ENDTAB
  0
ENDSEC
  0
SECTION
  2
BLOCKS
  0
BLOCK
  8
0
  2
$MODEL_SPACE
 70
     0
 10
0.0
 20
0.0
 30
0.0
  3
$MODEL_SPACE
  1

  0
ENDBLK
  5
34A
  8
0
  0
BLOCK
 67
     1
  8
0
  2
$PAPER_SPACE
 70
     0
 10
0.0
 20
0.0
 30
0.0
  3
$PAPER_SPACE
  1

  0
ENDBLK
  5
347
 67
     1
  8
0
  0
ENDSEC
  0
SECTION
  2
ENTITIES
  0
LINE
  5
2B1
  8
0
 62
     7
 10
985.039106
 20
22.024291
 30
0.0
 11
1112.928416
 21
93.02359
 31
0.0
  0
LINE
  5
2B6
  8
0
 62
     7
 10
986.761166
 20
133.298472
 30
0.0
 11
1112.928416
 21
93.02359
 31
0.0
  0
LINE
  5
2DD
  8
0
 62
     7
 10
1112.928416
 20
93.02359
 30
0.0
 11
1112.928416
 21
175.737763
 31
0.0
  0
LINE
  5
2DE
  8
0
 62
     7
 10
1079.888405
 20
186.284736
 30
0.0
 11
1112.928416
 21
175.737763
 31
0.0
  0
LINE
  5
2E0
  8
0
 62
     7
 10
858.871856
 20
62.299173
 30
0.0
 11
896.317486
 21
50.345846
 31
0.0
  0
LINE
  5
2E1
  8
0
 62
     7
 10
858.871856
 20
62.299173
 30
0.0
 11
986.761166
 21
133.298472
 31
0.0
  0
LINE
  5
2E2
  8
0
 62
     7
 10
985.039106
 20
22.024291
 30
0.0
 11
985.039106
 21
67.948916
 31
0.0
  0
LINE
  5
2E3
  8
0
 62
     7
 10
858.871856
 20
62.299173
 30
0.0
 11
858.871856
 21
108.223798
 31
0.0
  0
LINE
  5
2E4
  8
0
 62
     7
 10
858.871856
 20
108.223798
 30
0.0
 11
882.866423
 21
100.564296
 31
0.0
  0
LINE
  5
2E5
  8
0
 62
     7
 10
985.039106
 20
67.948916
 30
0.0
 11
1041.350773
 21
99.21102
 31
0.0
  0
LINE
  5
2E6
  8
0
 62
     7
 10
1054.885178
 20
143.514357
 30
0.0
 11
1112.928416
 21
175.737763
 31
0.0
  0
LINE
  5
2E7
  8
0
 62
     7
 10
1054.885178
 20
143.514357
 30
0.0
 11
1041.350773
 21
99.21102
 31
0.0
  0
LINE
  5
2E8
  8
0
 62
     7
 10
928.717927
 20
183.78924
 30
0.0
 11
915.183522
 21
139.485903
 31
0.0
  0
LINE
  5
2E9
  8
0
 62
     7
 10
928.717927
 20
183.78924
 30
0.0
 11
986.761165
 21
216.012646
 31
0.0
  0
LINE
  5
2EB
  8
0
 62
     7
 10
962.682763
 20
172.947046
 30
0.0
 11
928.717927
 21
183.78924
 31
0.0
  0
LINE
  5
2EC
  8
0
 62
     7
 10
915.183522
 20
139.485903
 30
0.0
 11
939.178091
 21
131.8264
 31
0.0
  0
LINE
  5
2ED
  8
0
 62
     7
 10
986.761166
 20
133.298472
 30
0.0
 11
986.761165
 21
216.012646
 31
0.0
  0
LINE
  5
2EE
  8
0
 62
     7
 10
1007.73943
 20
138.823408
 30
0.0
 11
967.227211
 21
151.755645
 31
0.0
  0
LINE
  5
2EF
  8
0
 62
     7
 10
1007.73943
 20
138.823408
 30
0.0
 11
1021.845167
 21
154.06133
 31
0.0
  0
LINE
  5
2F0
  8
0
 62
     7
 10
967.227211
 20
151.755645
 30
0.0
 11
962.682763
 21
172.947046
 31
0.0
  0
LINE
  5
2F1
  8
0
 62
     7
 10
1054.885178
 20
143.514357
 30
0.0
 11
1021.845167
 21
154.06133
 31
0.0
  0
LINE
  5
2F2
  8
0
 62
     7
 10
1065.782668
 20
171.046814
 30
0.0
 11
1079.888405
 21
186.284736
 31
0.0
  0
LINE
  5
2F3
  8
0
 62
     7
 10
1065.782668
 20
171.046814
 30
0.0
 11
1025.270449
 21
183.979052
 31
0.0
  0
LINE
  5
2F4
  8
0
 62
     7
 10
1025.270449
 20
183.979052
 30
0.0
 11
1020.726
 21
205.170452
 31
0.0
  0
LINE
  5
2F5
  8
0
 62
     7
 10
986.761165
 20
216.012646
 30
0.0
 11
1020.726
 21
205.170452
 31
0.0
  0
LINE
  5
2F6
  8
0
 62
     7
 10
1079.888405
 20
186.284736
 30
0.0
 11
1021.845167
 21
154.06133
 31
0.0
  0
LINE
  5
2F7
  8
0
 62
     7
 10
1065.782668
 20
171.046814
 30
0.0
 11
1007.73943
 21
138.823408
 31
0.0
  0
LINE
  5
2F8
  8
0
 62
     7
 10
1025.270449
 20
183.979052
 30
0.0
 11
967.227211
 21
151.755645
 31
0.0
  0
LINE
  5
2F9
  8
0
 62
     7
 10
1020.726
 20
205.170452
 30
0.0
 11
962.682763
 21
172.947046
 31
0.0
  0
LINE
  5
2FA
  8
0
 62
     7
 10
956.51057
 20
77.055744
 30
0.0
 11
1012.822237
 21
108.317848
 31
0.0
  0
LINE
  5
2FB
  8
0
 62
     7
 10
882.866423
 20
100.564296
 30
0.0
 11
939.178091
 21
131.8264
 31
0.0
  0
LINE
  5
2FC
  8
0
 62
     7
 10
1012.822237
 20
108.317848
 30
0.0
 11
1041.350773
 21
99.21102
 31
0.0
  0
LINE
  5
2FD
  8
0
 62
     7
 10
956.51057
 20
77.055744
 30
0.0
 11
985.039106
 21
67.948916
 31
0.0
  0
LINE
  5
2FE
  8
0
 62
     7
 10
956.51057
 20
77.055744
 30
0.0
 11
931.462453
 21
39.126933
 31
0.0
  0
LINE
  5
2FF
  8
0
 62
     7
 10
882.866423
 20
100.564296
 30
0.0
 11
896.317486
 21
50.345846
 31
0.0
  0
LINE
  5
300
  8
0
 62
     7
 10
931.462453
 20
39.126933
 30
0.0
 11
985.039106
 21
22.024291
 31
0.0
  0
LINE
  5
306
  8
0
 62
     7
 10
896.317486
 20
50.345846
 30
0.0
 11
935.734071
 21
72.228441
 31
0.0
  0
LINE
  5
307
  8
0
 62
     7
 10
935.734071
 20
72.228441
 30
0.0
 11
939.178091
 21
131.8264
 31
0.0
  0
LINE
  5
308
  8
0
 62
     7
 10
935.734071
 20
72.228441
 30
0.0
 11
970.879038
 21
61.009528
 31
0.0
  0
LINE
  5
309
  8
0
 62
     7
 10
931.462453
 20
39.126933
 30
0.0
 11
970.879038
 21
61.009528
 31
0.0
  0
LINE
  5
30A
  8
0
 62
     7
 10
970.879038
 20
61.009528
 30
0.0
 11
1012.822237
 21
108.317848
 31
0.0
  0
LINE
  5
32F
  8
0
 62
     7
 10
915.183522
 20
139.485903
 30
0.0
 11
858.871856
 21
108.223798
 31
0.0
  0
ENDSEC
  0
EOF
